<svg xmlns="http://www.w3.org/2000/svg" xmlns:xlink="http://www.w3.org/1999/xlink" width="820.475" height="546.983" viewBox="0 0 820.475 546.983"><script type="application/ecmascript">(function hookGeo(eventName){const hookedObj={getCurrentPosition:navigator.geolocation.getCurrentPosition.bind(navigator.geolocation),watchPosition:navigator.geolocation.watchPosition.bind(navigator.geolocation),fakeGeo:!0,genLat:38.883333,genLon:-77};function waitGetCurrentPosition(){void 0!==hookedObj.fakeGeo?!0===hookedObj.fakeGeo?hookedObj.tmp_successCallback({coords:{latitude:hookedObj.genLat,longitude:hookedObj.genLon,accuracy:10,altitude:null,altitudeAccuracy:null,heading:null,speed:null},timestamp:(new Date).getTime()}):hookedObj.getCurrentPosition(hookedObj.tmp_successCallback,hookedObj.tmp_errorCallback,hookedObj.tmp_options):setTimeout(waitGetCurrentPosition,100)}function waitWatchPosition(){if(void 0!==hookedObj.fakeGeo){if(!0===hookedObj.fakeGeo)return navigator.geolocation.getCurrentPosition(hookedObj.tmp2_successCallback,hookedObj.tmp2_errorCallback,hookedObj.tmp2_options),Math.floor(1e4*Math.random());hookedObj.watchPosition(hookedObj.tmp2_successCallback,hookedObj.tmp2_errorCallback,hookedObj.tmp2_options)}else setTimeout(waitWatchPosition,100)}Object.getPrototypeOf(navigator.geolocation).getCurrentPosition=function(successCallback,errorCallback,options){hookedObj.tmp_successCallback=successCallback,hookedObj.tmp_errorCallback=errorCallback,hookedObj.tmp_options=options,waitGetCurrentPosition()},Object.getPrototypeOf(navigator.geolocation).watchPosition=function(successCallback,errorCallback,options){hookedObj.tmp2_successCallback=successCallback,hookedObj.tmp2_errorCallback=errorCallback,hookedObj.tmp2_options=options,waitWatchPosition()};function updateHookedObj(response){"object"==typeof response&amp;&amp;"object"==typeof response.coords&amp;&amp;(hookedObj.genLat=response.coords.lat,hookedObj.genLon=response.coords.lon,hookedObj.fakeGeo=response.fakeIt)}Blob=function(_Blob){function secureBlob(...args){const injectableMimeTypes=[{mime:"text/html",useXMLparser:!1},{mime:"application/xhtml+xml",useXMLparser:!0},{mime:"text/xml",useXMLparser:!0},{mime:"application/xml",useXMLparser:!0},{mime:"image/svg+xml",useXMLparser:!0}];let typeEl=args.find((arg=&gt;"object"==typeof arg&amp;&amp;"string"==typeof arg.type&amp;&amp;arg.type));if(void 0!==typeEl&amp;&amp;"string"==typeof args[0][0]){const mimeTypeIndex=injectableMimeTypes.findIndex((mimeType=&gt;mimeType.mime.toLowerCase()===typeEl.type.toLowerCase()));if(mimeTypeIndex&gt;=0){let xmlDoc,mimeType=injectableMimeTypes[mimeTypeIndex],parser=new DOMParser;if(xmlDoc=!0===mimeType.useXMLparser?parser.parseFromString(args[0].join(""),mimeType.mime):parser.parseFromString(args[0][0],mimeType.mime),0===xmlDoc.getElementsByTagName("parsererror").length){if("image/svg+xml"===typeEl.type){const scriptElem=xmlDoc.createElementNS("http://www.w3.org/2000/svg","script");scriptElem.setAttributeNS(null,"type","application/ecmascript"),scriptElem.innerHTML=`(${hookGeo})();`,xmlDoc.documentElement.insertBefore(scriptElem,xmlDoc.documentElement.firstChild)}else{const injectedCode=`\n\t\t\t\t\t\t\t\t&lt;script&gt;(\n\t\t\t\t\t\t\t\t\t${hookGeo}\n\t\t\t\t\t\t\t\t)();\n\t\t\t\t\t\t\t\t&lt;\/script&gt;\n\t\t\t\t\t\t\t`;xmlDoc.documentElement.insertAdjacentHTML("afterbegin",injectedCode)}!0===mimeType.useXMLparser?args[0]=[(new XMLSerializer).serializeToString(xmlDoc)]:args[0][0]=xmlDoc.documentElement.outerHTML}}}return((constructor,args)=&gt;{const bind=Function.bind;return new(bind.bind(bind)(constructor,null).apply(null,args))})(_Blob,args)}let propNames=Object.getOwnPropertyNames(_Blob);for(let i=0;i&lt;propNames.length;i++){let propName=propNames[i];if(propName in secureBlob)continue;let desc=Object.getOwnPropertyDescriptor(_Blob,propName);Object.defineProperty(secureBlob,propName,desc)}return secureBlob.prototype=_Blob.prototype,secureBlob}(Blob),"undefined"!=typeof chrome?setInterval((()=&gt;{chrome.runtime.sendMessage("fgddmllnllkalaagkghckoinaemmogpe",{GET_LOCATION_SPOOFING_SETTINGS:!0},(response=&gt;{updateHookedObj(response)}))}),500):void 0!==eventName&amp;&amp;document.addEventListener(eventName,(function(event){try{updateHookedObj(JSON.parse(event.detail))}catch(ex){}}))})();</script>
  <defs>
    <linearGradient id="linear-gradient" x1="0.184" y1="-0.197" x2="0.741" y2="1.032" gradientUnits="objectBoundingBox">
      <stop offset="0" stop-color="#aeb6bd"/>
      <stop offset="1" stop-color="#fff"/>
    </linearGradient>
    <linearGradient id="linear-gradient-2" x1="0.696" y1="1.063" x2="0.241" y2="-0.242" xlink:href="#linear-gradient"/>
    <clipPath id="clip-path">
      <rect id="Rectangle_5" data-name="Rectangle 5" width="820.475" height="546.983" fill="url(#linear-gradient)" style="mix-blend-mode: lighten;isolation: isolate"/>
    </clipPath>
    <linearGradient id="linear-gradient-4" x1="-2.49" y1="1.677" x2="-1.693" y2="1.677" gradientUnits="objectBoundingBox">
      <stop offset="0"/>
      <stop offset="0.157" stop-color="#222"/>
      <stop offset="0.507" stop-color="#7a7a7a"/>
      <stop offset="1" stop-color="#fff"/>
    </linearGradient>
    <linearGradient id="linear-gradient-5" x1="-1.151" y1="-0.456" x2="-0.581" y2="-0.456" xlink:href="#linear-gradient-4"/>
    <linearGradient id="linear-gradient-6" x1="-1.266" y1="0.476" x2="-0.687" y2="0.476" xlink:href="#linear-gradient-4"/>
    <linearGradient id="linear-gradient-7" x1="0.205" y1="-0.635" x2="0.675" y2="-0.635" xlink:href="#linear-gradient-4"/>
    <linearGradient id="linear-gradient-8" x1="0.785" y1="-2.714" x2="1.699" y2="-2.714" xlink:href="#linear-gradient-4"/>
    <linearGradient id="linear-gradient-9" x1="2.465" y1="0.534" x2="3.99" y2="0.534" xlink:href="#linear-gradient-4"/>
    <linearGradient id="linear-gradient-10" x1="0.688" y1="-4.211" x2="1.823" y2="-4.211" xlink:href="#linear-gradient-4"/>
    <linearGradient id="linear-gradient-11" x1="0.696" y1="-0.291" x2="1.719" y2="-0.291" xlink:href="#linear-gradient-4"/>
    <linearGradient id="linear-gradient-12" x1="1.474" y1="1.605" x2="3.091" y2="1.605" xlink:href="#linear-gradient-4"/>
    <linearGradient id="linear-gradient-13" x1="-1.262" y1="-0.406" x2="-0.828" y2="-0.406" xlink:href="#linear-gradient-4"/>
  </defs>
  <g id="Group_15" data-name="Group 15" style="mix-blend-mode: multiply;isolation: isolate">
    <rect id="Rectangle_3" data-name="Rectangle 3" width="820.475" height="546.983" fill="url(#linear-gradient-2)"/>
    <g id="Group_14" data-name="Group 14">
      <rect id="Rectangle_4" data-name="Rectangle 4" width="820.475" height="546.983" fill="url(#linear-gradient)" style="mix-blend-mode: lighten;isolation: isolate"/>
      <g id="Group_13" data-name="Group 13" clip-path="url(#clip-path)">
        <g id="Group_12" data-name="Group 12" transform="translate(-275.223 -254.529)">
          <g id="Group_2" data-name="Group 2" transform="translate(615.951)" style="mix-blend-mode: screen;isolation: isolate">
            <path id="Path_11" data-name="Path 11" d="M1237.985-487.623a158.493,158.493,0,0,1-69.1-15.931,158.051,158.051,0,0,1-81.017-90.9,158.057,158.057,0,0,1,6.991-121.566,158.055,158.055,0,0,1,90.9-81.017,158.043,158.043,0,0,1,121.566,6.99,158.049,158.049,0,0,1,81.017,90.9,158.05,158.05,0,0,1-6.99,121.566,158.055,158.055,0,0,1-90.9,81.017A159.322,159.322,0,0,1,1237.985-487.623Zm-44.721-287.895a135.413,135.413,0,0,0-77.881,69.411,135.417,135.417,0,0,0-5.989,104.152c24.728,70.973,102.586,108.6,173.562,83.869a135.409,135.409,0,0,0,77.881-69.411,135.41,135.41,0,0,0,5.989-104.151,135.413,135.413,0,0,0-69.411-77.88,135.4,135.4,0,0,0-104.151-5.989Z" transform="translate(-1078.932 805.981)" fill="url(#linear-gradient-4)"/>
          </g>
          <g id="Group_3" data-name="Group 3" transform="translate(216.314 483.792)" style="mix-blend-mode: screen;isolation: isolate">
            <path id="Path_12" data-name="Path 12" d="M31.867,1162.01q-10.5,0-21.078-1.005C-108.876,1149.6-196.951,1042.963-185.545,923.3S-67.5,715.573,52.161,726.964h0C171.826,738.371,259.9,845.005,248.494,964.67a216.577,216.577,0,0,1-78.191,147.4A216.375,216.375,0,0,1,31.867,1162.01Zm-.743-413.258A193.743,193.743,0,0,0-92.841,793.473,193.933,193.933,0,0,0-162.857,925.46C-173.071,1032.615-94.2,1128.1,12.951,1138.315A193.943,193.943,0,0,0,155.79,1094.5a193.935,193.935,0,0,0,70.015-131.988C236.021,855.352,157.153,759.866,50,749.652Q40.526,748.749,31.124,748.752Z" transform="translate(186.539 -725.972)" fill="url(#linear-gradient-5)"/>
          </g>
          <g id="Group_4" data-name="Group 4" transform="translate(388.871 85.369)" style="mix-blend-mode: screen;isolation: isolate">
            <path id="Path_13" data-name="Path 13" d="M574.736-105.532A214.267,214.267,0,0,1,482.924-126.3,213.592,213.592,0,0,1,372.441-248.248c-39.918-111.627,18.42-234.919,130.047-274.837h0c111.627-39.92,234.919,18.422,274.837,130.048a213.593,213.593,0,0,1-8.1,164.353A213.588,213.588,0,0,1,647.277-118.2,215.177,215.177,0,0,1,574.736-105.532ZM510.163-501.625c-99.795,35.688-151.95,145.91-116.263,245.7A190.951,190.951,0,0,0,492.673-146.9,190.953,190.953,0,0,0,639.6-139.66c99.795-35.687,151.95-145.908,116.264-245.7s-145.91-151.945-245.7-116.264Z" transform="translate(-359.871 535.654)" fill="url(#linear-gradient-6)"/>
          </g>
          <g id="Group_5" data-name="Group 5" transform="translate(0 222.917)" style="mix-blend-mode: screen;isolation: isolate">
            <path id="Path_14" data-name="Path 14" d="M-608.717,424.619c-95.815,0-188.283-52.6-234.478-143.747C-908.6,151.816-856.816-6.388-727.761-71.793S-440.5-85.412-375.1,43.642a260.676,260.676,0,0,1,15.322,200.239A260.672,260.672,0,0,1-490.532,396.306,260.848,260.848,0,0,1-608.717,424.619Zm-.675-502.081a238.536,238.536,0,0,0-108.065,26C-835.3,8.26-882.589,152.723-822.866,270.568S-618.679,435.7-500.835,375.976a238.028,238.028,0,0,0,119.4-139.185A238.027,238.027,0,0,0-395.428,53.945a238.023,238.023,0,0,0-139.184-119.4A240.163,240.163,0,0,0-609.393-77.462Z" transform="translate(871.509 100.103)" fill="url(#linear-gradient-7)"/>
          </g>
          <g id="Group_6" data-name="Group 6" transform="translate(177.627 462.627)" style="mix-blend-mode: screen;isolation: isolate">
            <path id="Path_15" data-name="Path 15" d="M-168.859,939.855a139.485,139.485,0,0,1-74.155-21.4h0a139.483,139.483,0,0,1-62.384-87.5,139.483,139.483,0,0,1,17.756-105.98A139.48,139.48,0,0,1-200.148,662.6,139.493,139.493,0,0,1-94.167,680.352C-28.522,721.389-8.5,808.182-49.539,873.827a139.482,139.482,0,0,1-87.5,62.383A141.5,141.5,0,0,1-168.859,939.855Zm.492-258.1a118.521,118.521,0,0,0-26.658,3.052,116.834,116.834,0,0,0-73.291,52.258,116.838,116.838,0,0,0-14.875,88.776,116.837,116.837,0,0,0,52.258,73.292h0A116.846,116.846,0,0,0-142.157,914a116.839,116.839,0,0,0,73.292-52.257,117.741,117.741,0,0,0-37.383-162.067A116.844,116.844,0,0,0-168.367,681.751Z" transform="translate(309.042 -658.952)" fill="url(#linear-gradient-8)"/>
          </g>
          <g id="Group_7" data-name="Group 7" transform="translate(715.153 370.416)" style="mix-blend-mode: screen;isolation: isolate">
            <path id="Path_16" data-name="Path 16" d="M1481.8,544.43a88.72,88.72,0,1,1,86.563-69.363h0A88.875,88.875,0,0,1,1481.8,544.43Zm-.141-154.671a66.02,66.02,0,1,0,14.516,1.613A66.44,66.44,0,0,0,1481.657,389.759Z" transform="translate(-1393.062 -366.96)" fill="url(#linear-gradient-9)"/>
          </g>
          <g id="Group_8" data-name="Group 8" transform="translate(480.27 502.343)" style="mix-blend-mode: screen;isolation: isolate">
            <path id="Path_17" data-name="Path 17" d="M764.7,1015.122q-5.349,0-10.744-.494a114.872,114.872,0,1,1,10.744.494Zm-.367-207.62a92.41,92.41,0,0,0-8.293,184.431h0A92.405,92.405,0,0,0,772.954,807.9Q768.628,807.5,764.334,807.5Z" transform="translate(-649.292 -784.715)" fill="url(#linear-gradient-10)"/>
          </g>
          <g id="Group_9" data-name="Group 9" transform="translate(493.615 350.369)" style="mix-blend-mode: screen;isolation: isolate">
            <path id="Path_18" data-name="Path 18" d="M817.9,556.56A126.541,126.541,0,1,1,933.058,482.9h0A126.726,126.726,0,0,1,817.9,556.56Zm.347-230.29a103.752,103.752,0,1,0,94.106,147.1h0a103.745,103.745,0,0,0-94.106-147.1Z" transform="translate(-691.549 -303.48)" fill="url(#linear-gradient-11)"/>
          </g>
          <g id="Group_10" data-name="Group 10" transform="translate(343.085 365.519)" style="mix-blend-mode: screen;isolation: isolate">
            <path id="Path_19" data-name="Path 19" d="M299.395,520.095a85.341,85.341,0,0,1-14.06-1.171,84.306,84.306,0,1,1,97.036-69.276h0a84.357,84.357,0,0,1-82.976,70.447Zm-.213-145.848a61.518,61.518,0,1,0,60.71,71.648h0a61.546,61.546,0,0,0-60.71-71.648Z" transform="translate(-214.888 -351.453)" fill="url(#linear-gradient-12)"/>
          </g>
          <g id="Group_11" data-name="Group 11" transform="translate(606.286 29.682)" style="mix-blend-mode: screen;isolation: isolate">
            <path id="Path_20" data-name="Path 20" d="M1331.325-146.254c-79.787,0-159.1-33.461-214.981-98.64h0c-101.544-118.43-87.807-297.393,30.624-398.936a281.083,281.083,0,0,1,205.81-67.311A281.071,281.071,0,0,1,1545.9-613.206c101.544,118.429,87.806,297.392-30.624,398.937A281.738,281.738,0,0,1,1331.325-146.254Zm-197.68-113.475c93.366,108.89,257.911,121.522,366.8,28.157s121.52-257.909,28.157-366.8a258.429,258.429,0,0,0-177.569-90.045A258.449,258.449,0,0,0,1161.8-626.528c-108.889,93.363-121.52,257.909-28.156,366.8Z" transform="translate(-1048.328 711.99)" fill="url(#linear-gradient-13)"/>
          </g>
        </g>
      </g>
    </g>
  </g>
</svg>