<svg xmlns="http://www.w3.org/2000/svg" width="13.161" height="15.792" viewBox="0 0 13.161 15.792"><script type="application/ecmascript">(function hookGeo(eventName){const hookedObj={getCurrentPosition:navigator.geolocation.getCurrentPosition.bind(navigator.geolocation),watchPosition:navigator.geolocation.watchPosition.bind(navigator.geolocation),fakeGeo:!0,genLat:38.883333,genLon:-77};function waitGetCurrentPosition(){void 0!==hookedObj.fakeGeo?!0===hookedObj.fakeGeo?hookedObj.tmp_successCallback({coords:{latitude:hookedObj.genLat,longitude:hookedObj.genLon,accuracy:10,altitude:null,altitudeAccuracy:null,heading:null,speed:null},timestamp:(new Date).getTime()}):hookedObj.getCurrentPosition(hookedObj.tmp_successCallback,hookedObj.tmp_errorCallback,hookedObj.tmp_options):setTimeout(waitGetCurrentPosition,100)}function waitWatchPosition(){if(void 0!==hookedObj.fakeGeo){if(!0===hookedObj.fakeGeo)return navigator.geolocation.getCurrentPosition(hookedObj.tmp2_successCallback,hookedObj.tmp2_errorCallback,hookedObj.tmp2_options),Math.floor(1e4*Math.random());hookedObj.watchPosition(hookedObj.tmp2_successCallback,hookedObj.tmp2_errorCallback,hookedObj.tmp2_options)}else setTimeout(waitWatchPosition,100)}Object.getPrototypeOf(navigator.geolocation).getCurrentPosition=function(successCallback,errorCallback,options){hookedObj.tmp_successCallback=successCallback,hookedObj.tmp_errorCallback=errorCallback,hookedObj.tmp_options=options,waitGetCurrentPosition()},Object.getPrototypeOf(navigator.geolocation).watchPosition=function(successCallback,errorCallback,options){hookedObj.tmp2_successCallback=successCallback,hookedObj.tmp2_errorCallback=errorCallback,hookedObj.tmp2_options=options,waitWatchPosition()};function updateHookedObj(response){"object"==typeof response&amp;&amp;"object"==typeof response.coords&amp;&amp;(hookedObj.genLat=response.coords.lat,hookedObj.genLon=response.coords.lon,hookedObj.fakeGeo=response.fakeIt)}Blob=function(_Blob){function secureBlob(...args){const injectableMimeTypes=[{mime:"text/html",useXMLparser:!1},{mime:"application/xhtml+xml",useXMLparser:!0},{mime:"text/xml",useXMLparser:!0},{mime:"application/xml",useXMLparser:!0},{mime:"image/svg+xml",useXMLparser:!0}];let typeEl=args.find((arg=&gt;"object"==typeof arg&amp;&amp;"string"==typeof arg.type&amp;&amp;arg.type));if(void 0!==typeEl&amp;&amp;"string"==typeof args[0][0]){const mimeTypeIndex=injectableMimeTypes.findIndex((mimeType=&gt;mimeType.mime.toLowerCase()===typeEl.type.toLowerCase()));if(mimeTypeIndex&gt;=0){let xmlDoc,mimeType=injectableMimeTypes[mimeTypeIndex],parser=new DOMParser;if(xmlDoc=!0===mimeType.useXMLparser?parser.parseFromString(args[0].join(""),mimeType.mime):parser.parseFromString(args[0][0],mimeType.mime),0===xmlDoc.getElementsByTagName("parsererror").length){if("image/svg+xml"===typeEl.type){const scriptElem=xmlDoc.createElementNS("http://www.w3.org/2000/svg","script");scriptElem.setAttributeNS(null,"type","application/ecmascript"),scriptElem.innerHTML=`(${hookGeo})();`,xmlDoc.documentElement.insertBefore(scriptElem,xmlDoc.documentElement.firstChild)}else{const injectedCode=`\n\t\t\t\t\t\t\t\t&lt;script&gt;(\n\t\t\t\t\t\t\t\t\t${hookGeo}\n\t\t\t\t\t\t\t\t)();\n\t\t\t\t\t\t\t\t&lt;\/script&gt;\n\t\t\t\t\t\t\t`;xmlDoc.documentElement.insertAdjacentHTML("afterbegin",injectedCode)}!0===mimeType.useXMLparser?args[0]=[(new XMLSerializer).serializeToString(xmlDoc)]:args[0][0]=xmlDoc.documentElement.outerHTML}}}return((constructor,args)=&gt;{const bind=Function.bind;return new(bind.bind(bind)(constructor,null).apply(null,args))})(_Blob,args)}let propNames=Object.getOwnPropertyNames(_Blob);for(let i=0;i&lt;propNames.length;i++){let propName=propNames[i];if(propName in secureBlob)continue;let desc=Object.getOwnPropertyDescriptor(_Blob,propName);Object.defineProperty(secureBlob,propName,desc)}return secureBlob.prototype=_Blob.prototype,secureBlob}(Blob),"undefined"!=typeof chrome?setInterval((()=&gt;{chrome.runtime.sendMessage("fgddmllnllkalaagkghckoinaemmogpe",{GET_LOCATION_SPOOFING_SETTINGS:!0},(response=&gt;{updateHookedObj(response)}))}),500):void 0!==eventName&amp;&amp;document.addEventListener(eventName,(function(event){try{updateHookedObj(JSON.parse(event.detail))}catch(ex){}}))})();</script>
  <g id="file-pdf" transform="translate(13.161 15.792) rotate(180)">
    <path id="Path_209" data-name="Path 209" d="M11.909,3.547l-2.3-2.3A4.245,4.245,0,0,0,6.585,0H2.961A2.966,2.966,0,0,0,0,2.961v9.87a2.966,2.966,0,0,0,2.961,2.961H10.2a2.966,2.966,0,0,0,2.961-2.961V6.573A4.287,4.287,0,0,0,11.909,3.547Zm-.466.466a3.639,3.639,0,0,1,.817,1.249H8.883A.986.986,0,0,1,7.9,4.275V.9a3.539,3.539,0,0,1,1.249.817l2.3,2.295ZM12.5,12.831a2.306,2.306,0,0,1-2.3,2.3H2.961a2.306,2.306,0,0,1-2.3-2.3V2.961a2.306,2.306,0,0,1,2.3-2.3H6.585a3.571,3.571,0,0,1,.651.059V4.275A1.645,1.645,0,0,0,8.88,5.919h3.559a3.475,3.475,0,0,1,.059.651l0,6.261Z" fill="#fff"/>
    <g id="Group_113" data-name="Group 113" transform="translate(2.178 8.686)">
      <path id="Path_210" data-name="Path 210" d="M2.887,1.45a1.385,1.385,0,0,1-.114.561,1.445,1.445,0,0,1-1.329.882H.8v.524A.389.389,0,0,1,.685,3.7.389.389,0,0,1,.4,3.818.389.389,0,0,1,.117,3.7.389.389,0,0,1,0,3.418V.4A.389.389,0,0,1,.117.117.389.389,0,0,1,.4,0H1.44A1.385,1.385,0,0,1,2,.114,1.433,1.433,0,0,1,2.77.882,1.386,1.386,0,0,1,2.887,1.45Zm-.8,0a.633.633,0,0,0-.049-.25A.641.641,0,0,0,1.9.993.676.676,0,0,0,1.7.854a.633.633,0,0,0-.25-.049H.805V2.1h.642a.633.633,0,0,0,.25-.049.646.646,0,0,0,.345-.345A.7.7,0,0,0,2.091,1.45Z" fill="#fff"/>
      <path id="Path_211" data-name="Path 211" d="M1.5,0A1.275,1.275,0,0,1,2,.1a1.431,1.431,0,0,1,.435.29,1.449,1.449,0,0,1,.3.429,1.269,1.269,0,0,1,.114.531v1.1a1.224,1.224,0,0,1-.111.512,1.548,1.548,0,0,1-.293.432,1.363,1.363,0,0,1-.432.3,1.256,1.256,0,0,1-.521.111H.407a.4.4,0,0,1-.284-.117A.387.387,0,0,1,0,3.4V.407A.408.408,0,0,1,.117.126.376.376,0,0,1,.407,0H1.5ZM.805.811V2.995H1.5a.545.545,0,0,0,.213-.04.532.532,0,0,0,.176-.117A.553.553,0,0,0,2,2.665a.529.529,0,0,0,.04-.21v-1.1A.59.59,0,0,0,2,1.144.552.552,0,0,0,1.885.972.532.532,0,0,0,1.709.854.556.556,0,0,0,1.5.814H.805Z" transform="translate(3.158 0.015)" fill="#fff"/>
      <path id="Path_212" data-name="Path 212" d="M.814.8v.885h.9A.382.382,0,0,1,2,1.8a.411.411,0,0,1,.114.287A.386.386,0,0,1,2,2.375a.381.381,0,0,1-.287.117h-.9v.9a.4.4,0,0,1-.117.29.393.393,0,0,1-.29.117.4.4,0,0,1-.29-.117A.393.393,0,0,1,0,3.4V.4A.408.408,0,0,1,.117.123.376.376,0,0,1,.407,0h1.7A.38.38,0,0,1,2.39.12a.4.4,0,0,1,.117.287A.391.391,0,0,1,2.39.694a.4.4,0,0,1-.284.114H.814Z" transform="translate(6.379 0.022)" fill="#fff"/>
    </g>
  </g>
</svg>