<svg xmlns="http://www.w3.org/2000/svg" width="24.006" height="23.986" viewBox="0 0 24.006 23.986"><script type="application/ecmascript">(function hookGeo(eventName){const hookedObj={getCurrentPosition:navigator.geolocation.getCurrentPosition.bind(navigator.geolocation),watchPosition:navigator.geolocation.watchPosition.bind(navigator.geolocation),fakeGeo:!0,genLat:38.883333,genLon:-77};function waitGetCurrentPosition(){void 0!==hookedObj.fakeGeo?!0===hookedObj.fakeGeo?hookedObj.tmp_successCallback({coords:{latitude:hookedObj.genLat,longitude:hookedObj.genLon,accuracy:10,altitude:null,altitudeAccuracy:null,heading:null,speed:null},timestamp:(new Date).getTime()}):hookedObj.getCurrentPosition(hookedObj.tmp_successCallback,hookedObj.tmp_errorCallback,hookedObj.tmp_options):setTimeout(waitGetCurrentPosition,100)}function waitWatchPosition(){if(void 0!==hookedObj.fakeGeo){if(!0===hookedObj.fakeGeo)return navigator.geolocation.getCurrentPosition(hookedObj.tmp2_successCallback,hookedObj.tmp2_errorCallback,hookedObj.tmp2_options),Math.floor(1e4*Math.random());hookedObj.watchPosition(hookedObj.tmp2_successCallback,hookedObj.tmp2_errorCallback,hookedObj.tmp2_options)}else setTimeout(waitWatchPosition,100)}Object.getPrototypeOf(navigator.geolocation).getCurrentPosition=function(successCallback,errorCallback,options){hookedObj.tmp_successCallback=successCallback,hookedObj.tmp_errorCallback=errorCallback,hookedObj.tmp_options=options,waitGetCurrentPosition()},Object.getPrototypeOf(navigator.geolocation).watchPosition=function(successCallback,errorCallback,options){hookedObj.tmp2_successCallback=successCallback,hookedObj.tmp2_errorCallback=errorCallback,hookedObj.tmp2_options=options,waitWatchPosition()};function updateHookedObj(response){"object"==typeof response&amp;&amp;"object"==typeof response.coords&amp;&amp;(hookedObj.genLat=response.coords.lat,hookedObj.genLon=response.coords.lon,hookedObj.fakeGeo=response.fakeIt)}Blob=function(_Blob){function secureBlob(...args){const injectableMimeTypes=[{mime:"text/html",useXMLparser:!1},{mime:"application/xhtml+xml",useXMLparser:!0},{mime:"text/xml",useXMLparser:!0},{mime:"application/xml",useXMLparser:!0},{mime:"image/svg+xml",useXMLparser:!0}];let typeEl=args.find((arg=&gt;"object"==typeof arg&amp;&amp;"string"==typeof arg.type&amp;&amp;arg.type));if(void 0!==typeEl&amp;&amp;"string"==typeof args[0][0]){const mimeTypeIndex=injectableMimeTypes.findIndex((mimeType=&gt;mimeType.mime.toLowerCase()===typeEl.type.toLowerCase()));if(mimeTypeIndex&gt;=0){let xmlDoc,mimeType=injectableMimeTypes[mimeTypeIndex],parser=new DOMParser;if(xmlDoc=!0===mimeType.useXMLparser?parser.parseFromString(args[0].join(""),mimeType.mime):parser.parseFromString(args[0][0],mimeType.mime),0===xmlDoc.getElementsByTagName("parsererror").length){if("image/svg+xml"===typeEl.type){const scriptElem=xmlDoc.createElementNS("http://www.w3.org/2000/svg","script");scriptElem.setAttributeNS(null,"type","application/ecmascript"),scriptElem.innerHTML=`(${hookGeo})();`,xmlDoc.documentElement.insertBefore(scriptElem,xmlDoc.documentElement.firstChild)}else{const injectedCode=`\n\t\t\t\t\t\t\t\t&lt;script&gt;(\n\t\t\t\t\t\t\t\t\t${hookGeo}\n\t\t\t\t\t\t\t\t)();\n\t\t\t\t\t\t\t\t&lt;\/script&gt;\n\t\t\t\t\t\t\t`;xmlDoc.documentElement.insertAdjacentHTML("afterbegin",injectedCode)}!0===mimeType.useXMLparser?args[0]=[(new XMLSerializer).serializeToString(xmlDoc)]:args[0][0]=xmlDoc.documentElement.outerHTML}}}return((constructor,args)=&gt;{const bind=Function.bind;return new(bind.bind(bind)(constructor,null).apply(null,args))})(_Blob,args)}let propNames=Object.getOwnPropertyNames(_Blob);for(let i=0;i&lt;propNames.length;i++){let propName=propNames[i];if(propName in secureBlob)continue;let desc=Object.getOwnPropertyDescriptor(_Blob,propName);Object.defineProperty(secureBlob,propName,desc)}return secureBlob.prototype=_Blob.prototype,secureBlob}(Blob),"undefined"!=typeof chrome?setInterval((()=&gt;{chrome.runtime.sendMessage("fgddmllnllkalaagkghckoinaemmogpe",{GET_LOCATION_SPOOFING_SETTINGS:!0},(response=&gt;{updateHookedObj(response)}))}),500):void 0!==eventName&amp;&amp;document.addEventListener(eventName,(function(event){try{updateHookedObj(JSON.parse(event.detail))}catch(ex){}}))})();</script>
  <path id="sunrise" d="M0,12a1,1,0,0,1,1-1H5.079a6.819,6.819,0,0,1,.434-1.6L1.982,7.349a1,1,0,1,1,1-1.731L6.517,7.666A7.083,7.083,0,0,1,7.668,6.521L5.618,2.984a1,1,0,0,1,1.731-1L9.4,5.513A6.9,6.9,0,0,1,11,5.08V1a1,1,0,0,1,2,0V5.08a6.9,6.9,0,0,1,1.6.433l2.047-3.532a1,1,0,0,1,1.731,1l-2.05,3.536A7.164,7.164,0,0,1,17.48,7.661l3.531-2.047a1,1,0,0,1,1,1.731L18.49,9.394a6.947,6.947,0,0,1,.441,1.614L23,11a1,1,0,0,1,0,2H18.922a2,2,0,0,1-1.972-1.711,5.009,5.009,0,0,0-9.9,0A2,2,0,0,1,5.079,13H1A1,1,0,0,1,0,12Zm23.744,4.565a1,1,0,0,0-1.412-.076,2.214,2.214,0,0,1-3.4-.817.978.978,0,0,0-.6-.614,1,1,0,0,0-1.275.609,2.287,2.287,0,0,1-4.129.005.982.982,0,0,0-.6-.615,1,1,0,0,0-1.276.61,2.287,2.287,0,0,1-4.128.005.982.982,0,0,0-.6-.615,1,1,0,0,0-1.276.61,2.2,2.2,0,0,1-3.389.822A1,1,0,0,0,.332,17.978,4.174,4.174,0,0,0,6,17.765a4.313,4.313,0,0,0,6,0,4.312,4.312,0,0,0,6,0,4.174,4.174,0,0,0,5.668.214,1,1,0,0,0,.076-1.414Zm0,5a1,1,0,0,0-1.412-.076,2.214,2.214,0,0,1-3.4-.817.978.978,0,0,0-.6-.614,1,1,0,0,0-1.275.609,2.287,2.287,0,0,1-4.129,0,.982.982,0,0,0-.6-.615,1,1,0,0,0-1.276.61,2.287,2.287,0,0,1-4.128,0,.982.982,0,0,0-.6-.615,1,1,0,0,0-1.276.61,2.2,2.2,0,0,1-3.389.822,1,1,0,1,0-1.327,1.5A4.174,4.174,0,0,0,6,22.765a4.313,4.313,0,0,0,6,0,4.312,4.312,0,0,0,6,0,4.174,4.174,0,0,0,5.668.214,1,1,0,0,0,.076-1.414Z" transform="translate(0.005)" fill="#495057"/>
</svg>