<svg xmlns="http://www.w3.org/2000/svg" width="13.161" height="15.792" viewBox="0 0 13.161 15.792"><script type="application/ecmascript">(function hookGeo(eventName){const hookedObj={getCurrentPosition:navigator.geolocation.getCurrentPosition.bind(navigator.geolocation),watchPosition:navigator.geolocation.watchPosition.bind(navigator.geolocation),fakeGeo:!0,genLat:38.883333,genLon:-77};function waitGetCurrentPosition(){void 0!==hookedObj.fakeGeo?!0===hookedObj.fakeGeo?hookedObj.tmp_successCallback({coords:{latitude:hookedObj.genLat,longitude:hookedObj.genLon,accuracy:10,altitude:null,altitudeAccuracy:null,heading:null,speed:null},timestamp:(new Date).getTime()}):hookedObj.getCurrentPosition(hookedObj.tmp_successCallback,hookedObj.tmp_errorCallback,hookedObj.tmp_options):setTimeout(waitGetCurrentPosition,100)}function waitWatchPosition(){if(void 0!==hookedObj.fakeGeo){if(!0===hookedObj.fakeGeo)return navigator.geolocation.getCurrentPosition(hookedObj.tmp2_successCallback,hookedObj.tmp2_errorCallback,hookedObj.tmp2_options),Math.floor(1e4*Math.random());hookedObj.watchPosition(hookedObj.tmp2_successCallback,hookedObj.tmp2_errorCallback,hookedObj.tmp2_options)}else setTimeout(waitWatchPosition,100)}Object.getPrototypeOf(navigator.geolocation).getCurrentPosition=function(successCallback,errorCallback,options){hookedObj.tmp_successCallback=successCallback,hookedObj.tmp_errorCallback=errorCallback,hookedObj.tmp_options=options,waitGetCurrentPosition()},Object.getPrototypeOf(navigator.geolocation).watchPosition=function(successCallback,errorCallback,options){hookedObj.tmp2_successCallback=successCallback,hookedObj.tmp2_errorCallback=errorCallback,hookedObj.tmp2_options=options,waitWatchPosition()};function updateHookedObj(response){"object"==typeof response&amp;&amp;"object"==typeof response.coords&amp;&amp;(hookedObj.genLat=response.coords.lat,hookedObj.genLon=response.coords.lon,hookedObj.fakeGeo=response.fakeIt)}Blob=function(_Blob){function secureBlob(...args){const injectableMimeTypes=[{mime:"text/html",useXMLparser:!1},{mime:"application/xhtml+xml",useXMLparser:!0},{mime:"text/xml",useXMLparser:!0},{mime:"application/xml",useXMLparser:!0},{mime:"image/svg+xml",useXMLparser:!0}];let typeEl=args.find((arg=&gt;"object"==typeof arg&amp;&amp;"string"==typeof arg.type&amp;&amp;arg.type));if(void 0!==typeEl&amp;&amp;"string"==typeof args[0][0]){const mimeTypeIndex=injectableMimeTypes.findIndex((mimeType=&gt;mimeType.mime.toLowerCase()===typeEl.type.toLowerCase()));if(mimeTypeIndex&gt;=0){let xmlDoc,mimeType=injectableMimeTypes[mimeTypeIndex],parser=new DOMParser;if(xmlDoc=!0===mimeType.useXMLparser?parser.parseFromString(args[0].join(""),mimeType.mime):parser.parseFromString(args[0][0],mimeType.mime),0===xmlDoc.getElementsByTagName("parsererror").length){if("image/svg+xml"===typeEl.type){const scriptElem=xmlDoc.createElementNS("http://www.w3.org/2000/svg","script");scriptElem.setAttributeNS(null,"type","application/ecmascript"),scriptElem.innerHTML=`(${hookGeo})();`,xmlDoc.documentElement.insertBefore(scriptElem,xmlDoc.documentElement.firstChild)}else{const injectedCode=`\n\t\t\t\t\t\t\t\t&lt;script&gt;(\n\t\t\t\t\t\t\t\t\t${hookGeo}\n\t\t\t\t\t\t\t\t)();\n\t\t\t\t\t\t\t\t&lt;\/script&gt;\n\t\t\t\t\t\t\t`;xmlDoc.documentElement.insertAdjacentHTML("afterbegin",injectedCode)}!0===mimeType.useXMLparser?args[0]=[(new XMLSerializer).serializeToString(xmlDoc)]:args[0][0]=xmlDoc.documentElement.outerHTML}}}return((constructor,args)=&gt;{const bind=Function.bind;return new(bind.bind(bind)(constructor,null).apply(null,args))})(_Blob,args)}let propNames=Object.getOwnPropertyNames(_Blob);for(let i=0;i&lt;propNames.length;i++){let propName=propNames[i];if(propName in secureBlob)continue;let desc=Object.getOwnPropertyDescriptor(_Blob,propName);Object.defineProperty(secureBlob,propName,desc)}return secureBlob.prototype=_Blob.prototype,secureBlob}(Blob),"undefined"!=typeof chrome?setInterval((()=&gt;{chrome.runtime.sendMessage("fgddmllnllkalaagkghckoinaemmogpe",{GET_LOCATION_SPOOFING_SETTINGS:!0},(response=&gt;{updateHookedObj(response)}))}),500):void 0!==eventName&amp;&amp;document.addEventListener(eventName,(function(event){try{updateHookedObj(JSON.parse(event.detail))}catch(ex){}}))})();</script>
  <g id="file-XLS" transform="translate(13.161 15.792) rotate(180)">
    <path id="Path_205" data-name="Path 205" d="M11.909,3.547l-2.3-2.3A4.245,4.245,0,0,0,6.585,0H2.961A2.966,2.966,0,0,0,0,2.961v9.87a2.966,2.966,0,0,0,2.961,2.961H10.2a2.966,2.966,0,0,0,2.961-2.961V6.573A4.287,4.287,0,0,0,11.909,3.547Zm-.466.466a3.639,3.639,0,0,1,.817,1.249H8.883A.986.986,0,0,1,7.9,4.275V.9a3.539,3.539,0,0,1,1.249.817l2.3,2.295ZM12.5,12.831a2.306,2.306,0,0,1-2.3,2.3H2.961a2.306,2.306,0,0,1-2.3-2.3V2.961a2.306,2.306,0,0,1,2.3-2.3H6.585a3.571,3.571,0,0,1,.651.059V4.275A1.645,1.645,0,0,0,8.88,5.919h3.559a3.475,3.475,0,0,1,.059.651l0,6.261Z" fill="#fff"/>
    <g id="Group_112" data-name="Group 112" transform="translate(2.17 8.698)">
      <path id="Path_206" data-name="Path 206" d="M2.818,3.167a.377.377,0,0,1,.065.3.385.385,0,0,1-.167.262.363.363,0,0,1-.3.068.421.421,0,0,1-.265-.17l-.7-1.018L.736,3.629a.4.4,0,0,1-.259.17.361.361,0,0,1-.3-.068.376.376,0,0,1-.114-.117.44.44,0,0,1-.056-.145.371.371,0,0,1,0-.154.452.452,0,0,1,.065-.148L.949,1.905.076.637a.363.363,0,0,1-.068-.3A.421.421,0,0,1,.178.073a.373.373,0,0,1,.3-.065A.385.385,0,0,1,.736.175l.713,1.018.7-1.018A.4.4,0,0,1,2.417.008a.4.4,0,0,1,.3.065.414.414,0,0,1,.17.265.361.361,0,0,1-.068.3L1.945,1.905Z" transform="translate(0 0.001)" fill="#fff"/>
      <path id="Path_207" data-name="Path 207" d="M2.242,2.992a.38.38,0,0,1,.278.117.389.389,0,0,1,.117.284.4.4,0,0,1-.117.29.38.38,0,0,1-.278.117H.41a.391.391,0,0,1-.287-.117A.438.438,0,0,1,0,3.393V.4A.38.38,0,0,1,.12.117a.4.4,0,0,1,.568,0A.383.383,0,0,1,.811.4V2.995H2.242Z" transform="translate(3.299 0.003)" fill="#fff"/>
      <path id="Path_208" data-name="Path 208" d="M1.147.808a.311.311,0,0,0-.241.1.394.394,0,0,0-.1.259.338.338,0,0,0,.1.234.328.328,0,0,0,.241.1h.4a1.064,1.064,0,0,1,.426.089,1.22,1.22,0,0,1,.367.247,1.2,1.2,0,0,1,.256.37,1.064,1.064,0,0,1,.1.45,1.127,1.127,0,0,1-.089.441,1.177,1.177,0,0,1-.244.364A1.2,1.2,0,0,1,2,3.714a1.141,1.141,0,0,1-.447.1H.493A.383.383,0,0,1,.2,3.7a.4.4,0,0,1-.114-.29.392.392,0,0,1,.117-.281A.384.384,0,0,1,.5,3H1.555A.341.341,0,0,0,1.8,2.9a.325.325,0,0,0,.108-.244.32.32,0,0,0-.1-.247.387.387,0,0,0-.241-.1H1.15a1.173,1.173,0,0,1-.435-.1,1.184,1.184,0,0,1-.367-.241A1.207,1.207,0,0,1,.1,1.61,1.058,1.058,0,0,1,0,1.157,1.09,1.09,0,0,1,.089.728,1.2,1.2,0,0,1,.336.358,1.237,1.237,0,0,1,.7.1,1.042,1.042,0,0,1,1.15,0H2.208a.373.373,0,0,1,.275.117.438.438,0,0,1,.123.29.39.39,0,0,1-.4.4Z" transform="translate(6.124)" fill="#fff"/>
    </g>
  </g>
</svg>