<?xml version="1.0" standalone="no"?>
<!DOCTYPE svg PUBLIC "-//W3C//DTD SVG 1.1//EN" "http://www.w3.org/Graphics/SVG/1.1/DTD/svg11.dtd" >
<svg xmlns="http://www.w3.org/2000/svg" xmlns:xlink="http://www.w3.org/1999/xlink" version="1.1">
<metadata>
Created by FontForge 20201107 at Thu Dec  9 12:51:19 2021
 By 
Copyright (c) 2014 by Jason Smith, Fontsmith Ltd. All rights reserved.
</metadata>
<defs>
<font id="FSAlbertArabic-Regular" horiz-adv-x="0" >
  <font-face 
    font-family="FS Albert Arabic"
    font-weight="400"
    font-stretch="normal"
    units-per-em="2048"
    panose-1="2 11 5 3 4 5 2 2 8 4"
    ascent="1638"
    descent="-410"
    x-height="989"
    cap-height="1411"
    bbox="-369.561 -1028.5 2679 2126.15"
    underline-thickness="102"
    underline-position="-307"
    unicode-range="U+000D-FEFC"
  />
<missing-glyph horiz-adv-x="1095" 
d="M41 0v1419h1014v-1419h-1014zM549 801l344 518h-690zM608 711l346 -518v1034zM203 102h690l-344 516zM143 1227v-1034l344 518z" />
    <glyph glyph-name="fi" unicode="fi" horiz-adv-x="1040" 
d="M362 989h504q39 0 39 -41v-905q0 -43 -41 -43h-92q-41 0 -41 43v823h-369v-823q0 -43 -40 -43h-93q-41 0 -41 43v823h-116q-17 0 -24 7t-7 24v61q0 17 7 24t24 7h116v39q0 183 78 299q101 150 318 150q156 0 243 -35q21 -9 25.5 -17.5t-0.5 -25.5l-18 -70q-8 -28 -41 -18
q-86 28 -197 28q-234 0 -234 -303v-47z" />
    <glyph glyph-name="fl" unicode="fl" horiz-adv-x="1081" 
d="M944 1423v-1380q0 -43 -41 -43h-92q-41 0 -41 43v1270q-35 10 -94.5 18t-102.5 8q-53 0 -91 -14.5t-60.5 -38.5t-35 -63t-17 -79.5t-4.5 -96.5v-58h229q17 0 24 -7t7 -24v-61q0 -17 -7 -24t-24 -7h-232v-823q0 -43 -40 -43h-93q-41 0 -41 43v823h-116q-17 0 -24 7t-7 24
v61q0 17 7 24t24 7h116v39q0 108 14.5 179t51.5 128q92 142 303 142q124 0 252 -39l94 18q41 7 41 -33z" />
    <glyph glyph-name="uniFEF5" unicode="&#xfedf;&#xfe82;" horiz-adv-x="1290" arabic-form="isolated" 
d="M766 166h78q85 0 111 29t26 118v1086q0 21 6 30.5t23 12.5l90 14q39 6 39 -35v-1185q0 -236 -271 -236h-725q-41 0 -41 41v86q0 39 41 39h457l-248 891q-8 41 29 49l74 24q41 9 49 -28zM492 1321q-57 0 -136 37q-87 41 -131 41q-45 0 -80 -43q-15 -15 -26 -2l-29 32
q-11 17 0 31q60 84 139 84q62 0 138 -39q5 -2 23 -10.5t26 -11.5t22.5 -8t26.5 -7t24 -2q45 0 80 43q16 16 27 2l29 -32q11 -17 0 -31q-31 -43 -61.5 -63.5t-71.5 -20.5z" />
    <glyph glyph-name="uniFEF6" unicode="&#xfee0;&#xfe82;" horiz-adv-x="1361" arabic-form="final" 
d="M766 166h78q85 0 111 29t26 118v1086q0 21 6 30.5t23 12.5l90 14q39 6 39 -35v-1175q74 -80 202 -80h21v-166h-21q-148 0 -229 111q-58 -111 -244 -111h-725q-41 0 -41 41v86q0 39 41 39h457l-248 891q-8 41 29 49l74 24q41 9 49 -28zM492 1321q-57 0 -136 37
q-87 41 -131 41q-45 0 -80 -43q-15 -15 -26 -2l-29 32q-11 17 0 31q60 84 139 84q62 0 138 -39q5 -2 23 -10.5t26 -11.5t22.5 -8t26.5 -7t24 -2q45 0 80 43q16 16 27 2l29 -32q11 -17 0 -31q-31 -43 -61.5 -63.5t-71.5 -20.5z" />
    <glyph glyph-name="uniFEF7" unicode="&#xfedf;&#xfe84;" horiz-adv-x="1290" arabic-form="isolated" 
d="M766 166h78q85 0 111 29t26 118v1086q0 21 6 30.5t23 12.5l90 14q39 6 39 -35v-1185q0 -236 -271 -236h-725q-41 0 -41 41v86q0 39 41 39h457l-248 891q-8 41 29 49l74 24q41 9 49 -28zM168 1407h76q-39 56 -39 125q0 76 53 121t131 45q80 0 143 -37q20 -12 11 -29
l-13 -41q-6 -11 -10.5 -12.5t-15.5 4.5q-52 25 -105 25q-41 0 -68.5 -26t-27.5 -69q0 -54 39 -106h207q10 0 14 -4.5t4 -16.5v-47q0 -22 -18 -22h-381q-18 0 -18 22v47q0 12 4 16.5t14 4.5z" />
    <glyph glyph-name="uniFEF8" unicode="&#xfee0;&#xfe84;" horiz-adv-x="1361" arabic-form="final" 
d="M766 166h78q85 0 111 29t26 118v1086q0 21 6 30.5t23 12.5l90 14q39 6 39 -35v-1175q74 -80 202 -80h21v-166h-21q-148 0 -229 111q-58 -111 -244 -111h-725q-41 0 -41 41v86q0 39 41 39h457l-248 891q-8 41 29 49l74 24q41 9 49 -28zM168 1407h76q-39 56 -39 125
q0 76 53 121t131 45q80 0 143 -37q20 -12 11 -29l-13 -41q-6 -11 -10.5 -12.5t-15.5 4.5q-52 25 -105 25q-41 0 -68.5 -26t-27.5 -69q0 -54 39 -106h207q10 0 14 -4.5t4 -16.5v-47q0 -22 -18 -22h-381q-18 0 -18 22v47q0 12 4 16.5t14 4.5z" />
    <glyph glyph-name="uniFEF9" unicode="&#xfedf;&#xfe88;" horiz-adv-x="1290" arabic-form="isolated" 
d="M766 166h78q85 0 111 29t26 118v1086q0 21 6 30.5t23 12.5l90 14q39 6 39 -35v-1185q0 -236 -271 -236h-725q-41 0 -41 41v86q0 39 41 39h457l-311 1118q-6 21 0.5 32t27.5 17l74 25q40 12 49 -29zM168 -516h76q-39 59 -39 125q0 76 53 121t131 45q80 0 143 -37
q20 -12 11 -29l-13 -41q-6 -11 -10.5 -12.5t-15.5 4.5q-52 25 -105 25q-41 0 -68.5 -26t-27.5 -69q0 -54 39 -106h207q10 0 14 -4.5t4 -16.5v-47q0 -22 -18 -22h-381q-18 0 -18 22v47q0 12 4 16.5t14 4.5z" />
    <glyph glyph-name="uniFEFA" unicode="&#xfee0;&#xfe88;" horiz-adv-x="1361" arabic-form="final" 
d="M766 166h78q85 0 111 29t26 118v1086q0 21 6 30.5t23 12.5l90 14q39 6 39 -35v-1175q74 -80 202 -80h21v-166h-21q-148 0 -229 111q-58 -111 -244 -111h-725q-41 0 -41 41v86q0 39 41 39h457l-311 1118q-6 21 0.5 32t27.5 17l74 25q40 12 49 -29zM168 -516h76
q-39 59 -39 125q0 76 53 121t131 45q80 0 143 -37q20 -12 11 -29l-13 -41q-6 -11 -10.5 -12.5t-15.5 4.5q-52 25 -105 25q-41 0 -68.5 -26t-27.5 -69q0 -54 39 -106h207q10 0 14 -4.5t4 -16.5v-47q0 -22 -18 -22h-381q-18 0 -18 22v47q0 12 4 16.5t14 4.5z" />
    <glyph glyph-name="uniFEFB" unicode="&#xfedf;&#xfe8e;" horiz-adv-x="1290" arabic-form="isolated" 
d="M766 166h78q85 0 111 29t26 118v1086q0 21 6 30.5t23 12.5l90 14q39 6 39 -35v-1185q0 -236 -271 -236h-725q-41 0 -41 41v86q0 39 41 39h457l-311 1118q-6 21 0.5 32t27.5 17l74 25q40 12 49 -29z" />
    <glyph glyph-name="uniFEFC" unicode="&#xfee0;&#xfe8e;" horiz-adv-x="1361" arabic-form="final" 
d="M766 166h78q85 0 111 29t26 118v1086q0 21 6 30.5t23 12.5l90 14q39 6 39 -35v-1175q74 -80 202 -80h21v-166h-21q-148 0 -229 111q-58 -111 -244 -111h-725q-41 0 -41 41v86q0 39 41 39h457l-311 1118q-6 21 0.5 32t27.5 17l74 25q40 12 49 -29z" />
    <glyph glyph-name="uni06440671" unicode="&#xfedf;&#xfb51;" horiz-adv-x="1290" 
d="M766 166h78q85 0 111 29t26 118v1086q0 21 6 30.5t23 12.5l90 14q39 6 39 -35v-1185q0 -236 -271 -236h-725q-41 0 -41 41v86q0 39 41 39h457l-248 891q-8 41 29 49l74 24q41 9 49 -28zM285 1620v-66q80 66 153 66q144 0 144 -156q0 -84 -34 -115.5t-128 -31.5h-258
q-21 0 -21 20v39q0 7 5.5 13t15.5 6h41v213q0 17 14 20l47 8q21 3 21 -16zM285 1395h147q38 0 53 14t15 55q0 78 -78 78q-60 0 -137 -80v-67z" />
    <glyph glyph-name="uni06440671.fina" unicode="&#xfee0;&#xfb51;" horiz-adv-x="1361" 
d="M766 166h78q85 0 111 29t26 118v1086q0 21 6 30.5t23 12.5l90 14q39 6 39 -35v-1175q74 -80 202 -80h21v-166h-21q-148 0 -229 111q-58 -111 -244 -111h-725q-41 0 -41 41v86q0 39 41 39h457l-248 891q-8 41 29 49l74 24q41 9 49 -28zM285 1620v-66q80 66 153 66
q144 0 144 -156q0 -84 -34 -115.5t-128 -31.5h-258q-21 0 -21 20v39q0 7 5.5 13t15.5 6h41v213q0 17 14 20l47 8q21 3 21 -16zM285 1395h147q38 0 53 14t15 55q0 78 -78 78q-60 0 -137 -80v-67z" />
    <glyph glyph-name="uni06A1.init" unicode="&#x6a1;" horiz-adv-x="1017" 
d="M-20 166h258q-40 54 -62 126t-22 146q0 186 101.5 289.5t272.5 103.5q175 0 275 -106.5t100 -302.5q0 -209 -109 -315.5t-309 -106.5h-505q-28 0 -45 16.5t-17 65.5q0 50 16.5 67t45.5 17zM315 416q0 -149 84 -250h111q106 0 168.5 61t62.5 189q0 51 -10 93.5t-33 80.5
t-66.5 59t-103.5 21t-103.5 -21t-66.5 -59t-33 -80.5t-10 -93.5z" />
    <glyph glyph-name="uni06A1.medi" unicode="&#x6a1;" horiz-adv-x="1013" 
d="M-20 166h143q114 0 194 14q-96 76 -149 172t-53 189q0 139 106 235t287 96t287 -96t106 -235q0 -93 -53.5 -189t-149.5 -172q80 -14 195 -14h121v-166h-121q-207 0 -385 72q-178 -72 -385 -72h-143q-28 0 -45 16.5t-17 65.5q0 50 16.5 67t45.5 17zM739 530
q0 77 -61.5 128t-169.5 51q-109 0 -170.5 -51t-61.5 -128q0 -71 57 -154t175 -138q118 55 174.5 138t56.5 154z" />
    <glyph glyph-name="uni06A1.fina" unicode="&#x6a1;" horiz-adv-x="2041" 
d="M1767 530q0 77 -61.5 128t-169.5 51t-169.5 -51t-61.5 -128q0 -71 56.5 -154t174.5 -138q118 55 174.5 138t56.5 154zM1929 541q0 -93 -53.5 -189t-149.5 -172q80 -14 195 -14h121v-166h-121q-207 0 -385 72q-178 -72 -385 -72h-573q-231 0 -353.5 112t-122.5 312v235
q0 41 41 41h78q39 0 39 -41v-133q0 -200 78 -280t287 -80h526q115 0 195 14q-96 76 -149.5 172t-53.5 189q0 139 106 235t287 96t287 -96t106 -235z" />
    <glyph glyph-name="uni06C2.fina" unicode="&#x6c2;" horiz-adv-x="1026" 
d="M260 154v-222q0 -43 -39 -43h-80q-39 0 -39 43v224q0 82 24.5 144t64.5 95t83.5 48.5t90.5 15.5q78 0 141.5 -32.5t161.5 -121.5q80 -74 152 -106.5t171 -32.5h35v-166h-35q-116 0 -204.5 38.5t-206.5 143.5q-72 64 -114 87.5t-91 23.5q-55 0 -85 -35t-30 -104zM176 774
h76q-39 56 -39 125q0 76 53 121t131 45q81 0 144 -37q19 -11 10 -29l-12 -41q-10 -18 -27 -8q-52 25 -104 25q-41 0 -69 -25.5t-28 -68.5q0 -55 39 -107h207q11 0 14.5 -4t3.5 -16v-47q0 -23 -18 -23h-381q-18 0 -18 23v47q0 12 3.5 16t14.5 4z" />
    <glyph glyph-name="uni06C3.fina" unicode="&#x6c3;" horiz-adv-x="1013" 
d="M653 860v70q0 21 6 30.5t23 12.5l90 14q39 6 39 -35v-616q0 -91 42.5 -130.5t150.5 -39.5h10v-166h-37q-120 0 -198.5 40t-108.5 114q-110 -52 -242 -52q-63 0 -119.5 15t-104 45t-75 82.5t-27.5 120.5q0 150 138 277.5t413 217.5zM653 307v402q-177 -58 -281 -144.5
t-104 -181.5q0 -52 44 -83.5t132 -31.5q94 0 209 39zM817 1210q-42 0 -71 26.5t-29 68.5q0 41 29 67.5t71 26.5t71.5 -26.5t29.5 -67.5q0 -42 -29.5 -68.5t-71.5 -26.5zM551 1210q-42 0 -71 26.5t-29 68.5q0 41 29 67.5t71 26.5t71 -26.5t29 -67.5q0 -42 -29 -68.5
t-71 -26.5z" />
    <glyph glyph-name="uni06D5.fina" unicode="&#x6d5;" horiz-adv-x="1013" 
d="M653 860v70q0 21 6 30.5t23 12.5l90 14q39 6 39 -35v-616q0 -91 42.5 -130.5t150.5 -39.5h10v-166h-37q-120 0 -198.5 40t-108.5 114q-110 -52 -242 -52q-63 0 -119.5 15t-104 45t-75 82.5t-27.5 120.5q0 150 138 277.5t413 217.5zM653 307v402q-177 -58 -281 -144.5
t-104 -181.5q0 -52 44 -83.5t132 -31.5q94 0 209 39z" />
    <glyph glyph-name="uniFB50" unicode="&#x671;" horiz-adv-x="460" arabic-form="isolated" 
d="M152 43v1356q0 21 5.5 30.5t22.5 12.5l90 14q39 6 39 -35v-1378q0 -43 -39 -43h-80q-38 0 -38 43zM156 1942v-66q80 66 153 66q144 0 144 -156q0 -84 -34 -116t-128 -32h-258q-21 0 -21 21v39q0 7 5.5 12.5t15.5 5.5h41v213q0 18 14 21l47 8q21 3 21 -16zM156 1716h147
q38 0 53 14.5t15 55.5q0 78 -78 78q-60 0 -137 -80v-68z" />
    <glyph glyph-name="uniFB51" unicode="&#x671;" horiz-adv-x="509" arabic-form="final" 
d="M309 1421v-1102q0 -92 27.5 -122.5t116.5 -30.5h57v-166h-90q-138 0 -203 58t-65 175v1166q0 21 5.5 30.5t22.5 12.5l90 14q39 6 39 -35zM156 1942v-66q80 66 153 66q144 0 144 -156q0 -84 -34 -116t-128 -32h-258q-21 0 -21 21v39q0 7 5.5 12.5t15.5 5.5h41v213
q0 18 14 21l47 8q21 3 21 -16zM156 1716h147q38 0 53 14.5t15 55.5q0 78 -78 78q-60 0 -137 -80v-68z" />
    <glyph glyph-name="uniFB56" unicode="&#x67e;" horiz-adv-x="1835" arabic-form="isolated" 
d="M625 166h764q85 0 111 29t26 118v478q0 21 9 30.5t30 9.5h77q41 0 41 -40v-555q0 -236 -270 -236h-835q-231 0 -353.5 112t-122.5 312v235q0 41 41 41h78q39 0 39 -41v-133q0 -200 78 -280t287 -80zM1038 -434q-42 0 -71 26t-29 68q0 41 29 67.5t71 26.5t71.5 -26.5
t29.5 -67.5q0 -42 -29.5 -68t-71.5 -26zM772 -434q-42 0 -71 26t-29 68q0 41 29 67.5t71 26.5t71 -26.5t29 -67.5q0 -42 -29 -68t-71 -26zM905 -668q-42 0 -71 26.5t-29 68.5q0 41 29 67.5t71 26.5t71.5 -26.5t29.5 -67.5q0 -42 -29.5 -68.5t-71.5 -26.5z" />
    <glyph glyph-name="uniFB57" unicode="&#x67e;" horiz-adv-x="1906" arabic-form="final" 
d="M625 166h764q85 0 111 29t26 118v478q0 21 9 30.5t30 9.5h77q41 0 41 -40v-545q74 -80 203 -80h21v-166h-21q-148 0 -229 111q-59 -111 -244 -111h-835q-231 0 -353.5 112t-122.5 312v235q0 41 41 41h78q39 0 39 -41v-133q0 -200 78 -280t287 -80zM1018 -434
q-42 0 -71 26t-29 68q0 41 29 67.5t71 26.5t71 -26.5t29 -67.5q0 -42 -29 -68t-71 -26zM752 -434q-42 0 -71.5 26t-29.5 68q0 41 29.5 67.5t71.5 26.5t71 -26.5t29 -67.5q0 -42 -29 -68t-71 -26zM885 -668q-42 0 -71.5 26.5t-29.5 68.5q0 41 29.5 67.5t71.5 26.5t71 -26.5
t29 -67.5q0 -42 -29 -68.5t-71 -26.5z" />
    <glyph glyph-name="uniFB58" unicode="&#x67e;" horiz-adv-x="565" arabic-form="initial" 
d="M-20 166h139q85 0 111 29t26 118v478q0 21 9 30.5t30 9.5h78q41 0 41 -40v-555q0 -236 -271 -236h-163q-28 0 -45 16.5t-17 65.5q0 50 16.5 67t45.5 17zM252 -434q-42 0 -71 26t-29 68q0 41 29 67.5t71 26.5t71 -26.5t29 -67.5q0 -42 -29 -68t-71 -26zM-14 -434
q-42 0 -71.5 26t-29.5 68q0 41 29.5 67.5t71.5 26.5t71 -26.5t29 -67.5q0 -42 -29 -68t-71 -26zM119 -668q-42 0 -71.5 26.5t-29.5 68.5q0 41 29.5 67.5t71.5 26.5t71 -26.5t29 -67.5q0 -42 -29 -68.5t-71 -26.5z" />
    <glyph glyph-name="uniFB59" unicode="&#x67e;" horiz-adv-x="657" arabic-form="medial" 
d="M-20 166h159q85 0 111 29t26 118v478q0 21 9 30.5t30 9.5h78q41 0 41 -40v-545q74 -80 203 -80h20v-166h-20q-148 0 -229 111q-58 -111 -244 -111h-184q-28 0 -45 16.5t-17 65.5q0 50 16.5 67t45.5 17zM272 -434q-42 0 -71 26t-29 68q0 41 29 67.5t71 26.5t71.5 -26.5
t29.5 -67.5q0 -42 -29.5 -68t-71.5 -26zM6 -434q-42 0 -71 26t-29 68q0 41 29 67.5t71 26.5t71 -26.5t29 -67.5q0 -42 -29 -68t-71 -26zM139 -668q-42 0 -71 26.5t-29 68.5q0 41 29 67.5t71 26.5t71.5 -26.5t29.5 -67.5q0 -42 -29.5 -68.5t-71.5 -26.5z" />
    <glyph glyph-name="uniFB66" unicode="&#x679;" horiz-adv-x="1835" arabic-form="isolated" 
d="M625 166h764q85 0 111 29t26 118v478q0 21 9 30.5t30 9.5h77q41 0 41 -40v-555q0 -236 -270 -236h-835q-231 0 -353.5 112t-122.5 312v235q0 41 41 41h78q39 0 39 -41v-133q0 -200 78 -280t287 -80zM817 1540v-231q78 65 154 65q143 0 143 -155q0 -84 -34 -116t-128 -32
h-258q-20 0 -20 21v38q0 7 5 13t15 6h41v377q0 17 15 20l47 10q20 3 20 -16zM817 1149h148q38 0 52.5 14t14.5 56q0 77 -78 77q-61 0 -137 -79v-68z" />
    <glyph glyph-name="uniFB67" unicode="&#x679;" horiz-adv-x="1906" arabic-form="final" 
d="M625 166h764q85 0 111 29t26 118v478q0 21 9 30.5t30 9.5h77q41 0 41 -40v-545q74 -80 203 -80h21v-166h-21q-148 0 -229 111q-59 -111 -244 -111h-835q-231 0 -353.5 112t-122.5 312v235q0 41 41 41h78q39 0 39 -41v-133q0 -200 78 -280t287 -80zM834 1540v-231
q78 65 153 65q143 0 143 -155q0 -84 -33.5 -116t-127.5 -32h-258q-21 0 -21 21v38q0 7 5.5 13t15.5 6h41v377q0 17 14 20l47 10q21 3 21 -16zM834 1149h147q38 0 53 14.5t15 55.5q0 77 -78 77q-61 0 -137 -79v-68z" />
    <glyph glyph-name="uniFB68" unicode="&#x679;" horiz-adv-x="565" arabic-form="initial" 
d="M-20 166h139q85 0 111 29t26 118v478q0 21 9 30.5t30 9.5h78q41 0 41 -40v-555q0 -236 -271 -236h-163q-28 0 -45 16.5t-17 65.5q0 50 16.5 67t45.5 17zM258 1540v-231q78 65 154 65q143 0 143 -155q0 -84 -34 -116t-128 -32h-258q-20 0 -20 21v38q0 7 5 13t15 6h41v377
q0 17 14 20l48 10q20 3 20 -16zM258 1149h148q38 0 52.5 14t14.5 56q0 77 -78 77q-61 0 -137 -79v-68z" />
    <glyph glyph-name="uniFB69" unicode="&#x679;" horiz-adv-x="657" arabic-form="medial" 
d="M-20 166h159q85 0 111 29t26 118v478q0 21 9 30.5t30 9.5h78q41 0 41 -40v-545q74 -80 203 -80h20v-166h-20q-148 0 -229 111q-58 -111 -244 -111h-184q-28 0 -45 16.5t-17 65.5q0 50 16.5 67t45.5 17zM281 1540v-231q78 65 153 65q144 0 144 -155q0 -84 -34 -116
t-128 -32h-258q-21 0 -21 21v38q0 7 5.5 13t15.5 6h41v377q0 17 14 20l47 10q21 3 21 -16zM281 1149h147q38 0 53 14.5t15 55.5q0 77 -78 77q-61 0 -137 -79v-68z" />
    <glyph glyph-name="uniFB6A" unicode="&#x6a4;" horiz-adv-x="2043" arabic-form="isolated" 
d="M1180 438q0 186 101.5 289.5t272.5 103.5q175 0 275 -106.5t100 -302.5q0 -209 -109 -315.5t-309 -106.5h-933q-231 0 -353.5 112t-122.5 312v235q0 41 41 41h78q39 0 39 -41v-133q0 -200 78 -280t287 -80h639q-40 54 -62 126t-22 146zM1341 416q0 -149 84 -250h111
q106 0 168.5 61t62.5 189q0 51 -10 93.5t-33 80.5t-66.5 59t-103.5 21t-103.5 -21t-66.5 -59t-33 -80.5t-10 -93.5zM1690 1057q-42 0 -71.5 26t-29.5 68q0 41 29.5 67.5t71.5 26.5t71 -26.5t29 -67.5q0 -42 -29 -68t-71 -26zM1423 1057q-42 0 -71 26t-29 68q0 41 29 67.5
t71 26.5t71.5 -26.5t29.5 -67.5q0 -42 -29.5 -68t-71.5 -26zM1556 1290q-42 0 -71 26t-29 68q0 41 29 68t71 27t71.5 -27t29.5 -68q0 -42 -29.5 -68t-71.5 -26z" />
    <glyph glyph-name="uniFB6B" unicode="&#x6a4;" horiz-adv-x="2041" arabic-form="final" 
d="M1767 530q0 77 -61.5 128t-169.5 51t-169.5 -51t-61.5 -128q0 -71 56.5 -154t174.5 -138q118 55 174.5 138t56.5 154zM1929 541q0 -93 -53.5 -189t-149.5 -172q80 -14 195 -14h121v-166h-121q-207 0 -385 72q-178 -72 -385 -72h-573q-231 0 -353.5 112t-122.5 312v235
q0 41 41 41h78q39 0 39 -41v-133q0 -200 78 -280t287 -80h526q115 0 195 14q-96 76 -149.5 172t-53.5 189q0 139 106 235t287 96t287 -96t106 -235zM1669 1094q-42 0 -71 26t-29 68q0 41 29 67.5t71 26.5t71 -26.5t29 -67.5q0 -42 -29 -68t-71 -26zM1403 1094q-42 0 -71 26
t-29 68q0 41 29 67.5t71 26.5t71 -26.5t29 -67.5q0 -42 -29 -68t-71 -26zM1536 1327q-42 0 -71 26t-29 68q0 41 29 68t71 27t71 -27t29 -68q0 -42 -29 -68t-71 -26z" />
    <glyph glyph-name="uniFB6C" unicode="&#x6a4;" horiz-adv-x="1017" arabic-form="initial" 
d="M-20 166h258q-40 54 -62 126t-22 146q0 186 101.5 289.5t272.5 103.5q175 0 275 -106.5t100 -302.5q0 -209 -109 -315.5t-309 -106.5h-505q-28 0 -45 16.5t-17 65.5q0 50 16.5 67t45.5 17zM315 416q0 -149 84 -250h111q106 0 168.5 61t62.5 189q0 51 -10 93.5t-33 80.5
t-66.5 59t-103.5 21t-103.5 -21t-66.5 -59t-33 -80.5t-10 -93.5zM649 1057q-42 0 -71 26t-29 68q0 41 29 67.5t71 26.5t71.5 -26.5t29.5 -67.5q0 -42 -29.5 -68t-71.5 -26zM383 1057q-42 0 -71 26t-29 68q0 41 29 67.5t71 26.5t71 -26.5t29 -67.5q0 -42 -29 -68t-71 -26z
M516 1290q-42 0 -71 26t-29 68q0 41 29 68t71 27t71 -27t29 -68q0 -42 -29 -68t-71 -26z" />
    <glyph glyph-name="uniFB6D" unicode="&#x6a4;" horiz-adv-x="1013" arabic-form="medial" 
d="M-20 166h143q114 0 194 14q-96 76 -149 172t-53 189q0 139 106 235t287 96t287 -96t106 -235q0 -93 -53.5 -189t-149.5 -172q80 -14 195 -14h121v-166h-121q-207 0 -385 72q-178 -72 -385 -72h-143q-28 0 -45 16.5t-17 65.5q0 50 16.5 67t45.5 17zM739 530
q0 77 -61.5 128t-169.5 51q-109 0 -170.5 -51t-61.5 -128q0 -71 57 -154t175 -138q118 55 174.5 138t56.5 154zM627 1094q-42 0 -71.5 26t-29.5 68q0 41 29.5 67.5t71.5 26.5t71 -26.5t29 -67.5q0 -42 -29 -68t-71 -26zM360 1094q-42 0 -71 26t-29 68q0 41 29 67.5t71 26.5
t71.5 -26.5t29.5 -67.5q0 -42 -29.5 -68t-71.5 -26zM494 1327q-42 0 -71.5 26t-29.5 68q0 41 29.5 68t71.5 27t71 -27t29 -68q0 -42 -29 -68t-71 -26z" />
    <glyph glyph-name="uniFB7A" unicode="&#x686;" horiz-adv-x="1163" arabic-form="isolated" 
d="M627 -479v-56q0 -30 -6.5 -40t-26.5 -13q-34 -6 -68 -6q-200 0 -322 104.5t-122 282.5q0 190 124 281.5t380 91.5h309q-44 46 -68 99.5t-49 162.5q-33 156 -96 216.5t-184 60.5q-109 0 -238 -72q-19 -11 -28.5 -8t-16.5 22l-37 82q-11 22 17 41q140 98 315 98
q188 0 288.5 -109.5t141.5 -312.5q35 -168 104 -231q25 -24 31 -35.5t6 -34.5v-104q0 -41 -41 -41h-454q-176 0 -259 -46t-83 -161q0 -105 84 -167t235 -62h17q26 0 36.5 -10t10.5 -33zM561 -166q0 36 25.5 60t62.5 24t62.5 -24t25.5 -60t-25.5 -60t-62.5 -24t-62.5 24
t-25.5 60zM791 -166q0 36 25.5 60t62.5 24t62.5 -24t25.5 -60t-25.5 -60t-62.5 -24t-62.5 24t-25.5 60zM676 -360q0 36 25.5 60t62.5 24t62.5 -24t25.5 -60t-25.5 -60t-62.5 -24t-62.5 24t-25.5 60z" />
    <glyph glyph-name="uniFB7B" unicode="&#x686;" horiz-adv-x="1202" arabic-form="final" 
d="M244 -207q0 -105 84 -167t235 -62h17q26 0 36.5 -10t10.5 -33v-56q0 -30 -6.5 -40t-26.5 -13q-34 -6 -68 -6q-200 0 -322 104.5t-122 282.5q0 190 124 281.5t380 91.5h309q-44 46 -68 99.5t-49 162.5q-33 156 -96 216.5t-184 60.5q-109 0 -238 -72q-19 -11 -28.5 -8
t-16.5 22l-37 82q-11 22 17 41q140 98 315 98q97 0 171.5 -30t125 -88t82.5 -132t51 -172q21 -106 56 -167.5t108 -112.5h98v-166h-616q-176 0 -259 -46t-83 -161zM791 -166q0 36 25.5 60t62.5 24t62.5 -24t25.5 -60t-25.5 -60t-62.5 -24t-62.5 24t-25.5 60zM676 -360
q0 36 25.5 60t62.5 24t62.5 -24t25.5 -60t-25.5 -60t-62.5 -24t-62.5 24t-25.5 60zM561 -166q0 36 25.5 60t62.5 24t62.5 -24t25.5 -60t-25.5 -60t-62.5 -24t-62.5 24t-25.5 60z" />
    <glyph glyph-name="uniFB7C" unicode="&#x686;" horiz-adv-x="1099" arabic-form="initial" 
d="M-20 166h851q-44 45 -67.5 98.5t-48.5 163.5q-33 156 -96.5 216.5t-184.5 60.5q-108 0 -237 -72q-19 -11 -28.5 -8t-16.5 22l-37 82q-11 23 16 41q140 98 315 98q188 0 289 -109.5t142 -312.5q35 -168 104 -231q25 -24 31 -35.5t6 -34.5v-104q0 -41 -41 -41h-997
q-28 0 -45 16.5t-17 65.5q0 50 16.5 67t45.5 17zM610 -434q-42 0 -71 26t-29 68q0 41 29 67.5t71 26.5t71.5 -26.5t29.5 -67.5q0 -42 -29.5 -68t-71.5 -26zM344 -434q-42 0 -71 26t-29 68q0 41 29 67.5t71 26.5t71 -26.5t29 -67.5q0 -42 -29 -68t-71 -26zM477 -668
q-42 0 -71 26.5t-29 68.5q0 41 29 67.5t71 26.5t71.5 -26.5t29.5 -67.5q0 -42 -29.5 -68.5t-71.5 -26.5z" />
    <glyph glyph-name="uniFB7D" unicode="&#x686;" horiz-adv-x="1138" arabic-form="medial" 
d="M-20 166h851q-44 45 -67.5 98.5t-48.5 163.5q-33 156 -96.5 216.5t-184.5 60.5q-108 0 -237 -72q-19 -11 -28.5 -8t-16.5 22l-37 82q-11 23 16 41q140 98 315 98q97 0 171.5 -30t125 -88t83 -132t51.5 -172q21 -106 55.5 -167.5t107.5 -112.5h99v-166h-1159
q-28 0 -45 16.5t-17 65.5q0 50 16.5 67t45.5 17zM610 -434q-42 0 -71 26t-29 68q0 41 29 67.5t71 26.5t71.5 -26.5t29.5 -67.5q0 -42 -29.5 -68t-71.5 -26zM344 -434q-42 0 -71 26t-29 68q0 41 29 67.5t71 26.5t71 -26.5t29 -67.5q0 -42 -29 -68t-71 -26zM477 -668
q-42 0 -71 26.5t-29 68.5q0 41 29 67.5t71 26.5t71.5 -26.5t29.5 -67.5q0 -42 -29.5 -68.5t-71.5 -26.5z" />
    <glyph glyph-name="uniFB88" unicode="&#x688;" horiz-adv-x="1099" arabic-form="isolated" 
d="M694 0h-571q-41 0 -41 41v86q0 39 41 39h539q90 0 117.5 29t27.5 118v95q0 162 -72.5 228t-257.5 66q-81 0 -192 -12q-16 -2 -29 -2q-41 0 -41 35v76q0 30 31 39q108 30 239 30q117 0 202.5 -22t149.5 -72t96 -136.5t32 -211.5v-190q0 -236 -271 -236zM424 1540v-231
q78 65 154 65q143 0 143 -155q0 -84 -34 -116t-128 -32h-258q-20 0 -20 21v38q0 7 5 13t15 6h41v377q0 17 14 20l47 10q21 3 21 -16zM424 1149h147q38 0 53 14.5t15 55.5q0 77 -78 77q-61 0 -137 -79v-68z" />
    <glyph glyph-name="uniFB89" unicode="&#x688;" horiz-adv-x="1187" arabic-form="final" 
d="M1188 0h-1065q-41 0 -41 41v86q0 39 41 39h684v242q0 162 -72.5 228t-257.5 66q-81 0 -192 -12q-16 -2 -29 -2q-41 0 -41 35v76q0 30 31 39q108 30 239 30q117 0 202.5 -22t149.5 -72t96 -136.5t32 -211.5v-260h223v-166zM428 1540v-231q78 65 154 65q143 0 143 -155
q0 -84 -34 -116t-128 -32h-258q-20 0 -20 21v38q0 7 5 13t15 6h41v377q0 17 14 20l48 10q20 3 20 -16zM428 1149h147q38 0 53 14.5t15 55.5q0 77 -78 77q-61 0 -137 -79v-68z" />
    <glyph glyph-name="uniFB8A" unicode="&#x698;" horiz-adv-x="643" arabic-form="isolated" 
d="M334 248v543q0 21 9 30.5t30 9.5h78q41 0 41 -40v-572q0 -180 -36.5 -296t-118 -199.5t-233.5 -167.5q-34 -18 -49 16l-37 70q-7 18 -1.5 27.5t26.5 21.5q115 67 173.5 129t88 162.5t29.5 265.5zM535 1077q-42 0 -71.5 26t-29.5 68q0 41 29.5 68t71.5 27t71 -27t29 -68
q0 -42 -29 -68t-71 -26zM268 1077q-42 0 -71 26t-29 68q0 41 29 68t71 27t71.5 -27t29.5 -68q0 -42 -29.5 -68t-71.5 -26zM401 1311q-42 0 -71 26t-29 68q0 41 29 67.5t71 26.5t71.5 -26.5t29.5 -67.5q0 -42 -29.5 -68t-71.5 -26z" />
    <glyph glyph-name="uniFB8B" unicode="&#x698;" horiz-adv-x="679" arabic-form="final" 
d="M680 166v-166h-207q-27 -150 -111.5 -249t-257.5 -195q-34 -18 -49 16l-37 70q-7 18 -1.5 27.5t26.5 21.5q115 67 173.5 129t88 162.5t29.5 265.5v543q0 21 9 30.5t30 9.5h78q41 0 41 -40v-625h188zM535 1077q-42 0 -71.5 26t-29.5 68q0 41 29.5 68t71.5 27t71 -27
t29 -68q0 -42 -29 -68t-71 -26zM268 1077q-42 0 -71 26t-29 68q0 41 29 68t71 27t71.5 -27t29.5 -68q0 -42 -29.5 -68t-71.5 -26zM401 1311q-42 0 -71 26t-29 68q0 41 29 67.5t71 26.5t71.5 -26.5t29.5 -67.5q0 -42 -29.5 -68t-71.5 -26z" />
    <glyph glyph-name="uniFB8C" unicode="&#x691;" horiz-adv-x="643" arabic-form="isolated" 
d="M334 248v543q0 21 9 30.5t30 9.5h78q41 0 41 -40v-572q0 -180 -36.5 -296t-118 -199.5t-233.5 -167.5q-34 -18 -49 16l-37 70q-7 18 -1.5 27.5t26.5 21.5q115 67 173.5 129t88 162.5t29.5 265.5zM340 1540v-231q78 65 154 65q143 0 143 -155q0 -84 -34 -116t-128 -32
h-258q-20 0 -20 21v38q0 7 5 13t15 6h41v377q0 17 14 20l47 10q21 3 21 -16zM340 1149h147q38 0 53 14.5t15 55.5q0 77 -78 77q-61 0 -137 -79v-68z" />
    <glyph glyph-name="uniFB8D" unicode="&#x691;" horiz-adv-x="679" arabic-form="final" 
d="M680 166v-166h-207q-27 -150 -111.5 -249t-257.5 -195q-34 -18 -49 16l-37 70q-7 18 -1.5 27.5t26.5 21.5q115 67 173.5 129t88 162.5t29.5 265.5v543q0 21 9 30.5t30 9.5h78q41 0 41 -40v-625h188zM340 1540v-231q78 65 154 65q143 0 143 -155q0 -84 -34 -116t-128 -32
h-258q-20 0 -20 21v38q0 7 5 13t15 6h41v377q0 17 14 20l47 10q21 3 21 -16zM340 1149h147q38 0 53 14.5t15 55.5q0 77 -78 77q-61 0 -137 -79v-68z" />
    <glyph glyph-name="uniFB8E" unicode="&#x6a9;" horiz-adv-x="1888" arabic-form="isolated" 
d="M625 166h757q222 0 222 143q0 108 -163 224t-472 208q-37 11 -37 37v84q0 24 24 45l603 537q30 26 49 4l57 -66q23 -26 0 -49l-545 -485q326 -118 485.5 -253.5t159.5 -309.5q0 -69 -24.5 -121t-62.5 -82.5t-92 -49.5t-105.5 -25.5t-110.5 -6.5h-792q-231 0 -353.5 112
t-122.5 312v235q0 41 41 41h78q39 0 39 -41v-133q0 -200 78 -280t287 -80z" />
    <glyph glyph-name="uniFB8F" unicode="&#x6a9;" horiz-adv-x="1988" arabic-form="final" 
d="M1989 0h-41q-152 0 -236 117q-92 -117 -342 -117h-792q-231 0 -353.5 112t-122.5 312v235q0 41 41 41h78q39 0 39 -41v-133q0 -200 78 -280t287 -80h757q222 0 222 143q0 108 -163 224t-472 208q-37 11 -37 37v84q0 24 24 45l603 537q30 26 49 4l57 -66q23 -26 0 -49
l-545 -485q326 -118 485.5 -253.5t159.5 -309.5q0 -20 -4 -56q69 -63 187 -63h41v-166z" />
    <glyph glyph-name="uniFB90" unicode="&#x6a9;" horiz-adv-x="905" arabic-form="initial" 
d="M-20 166h419q222 0 222 143q0 108 -163 224t-472 208q-37 11 -37 37v84q0 24 24 45l602 537q30 27 50 4l57 -66q23 -26 0 -49l-545 -485q326 -118 485.5 -253.5t159.5 -309.5q0 -69 -24.5 -121t-62.5 -82.5t-92 -49.5t-105.5 -25.5t-110.5 -6.5h-407q-28 0 -45 16.5
t-17 65.5q0 50 16.5 67t45.5 17z" />
    <glyph glyph-name="uniFB91" unicode="&#x6a9;" horiz-adv-x="1005" arabic-form="medial" 
d="M-20 166h419q222 0 222 143q0 108 -163 224t-472 208q-37 11 -37 37v84q0 24 24 45l602 537q30 27 50 4l57 -66q23 -26 0 -49l-545 -485q326 -118 485.5 -253.5t159.5 -309.5q0 -20 -4 -56q69 -63 187 -63h41v-166h-41q-152 0 -236 117q-92 -117 -342 -117h-407
q-28 0 -45 16.5t-17 65.5q0 50 16.5 67t45.5 17z" />
    <glyph glyph-name="uniFB92" unicode="&#x6af;" horiz-adv-x="1888" arabic-form="isolated" 
d="M625 166h757q222 0 222 143q0 108 -163 224t-472 208q-37 11 -37 37v84q0 24 24 45l603 537q30 26 49 4l57 -66q23 -26 0 -49l-545 -485q326 -118 485.5 -253.5t159.5 -309.5q0 -69 -24.5 -121t-62.5 -82.5t-92 -49.5t-105.5 -25.5t-110.5 -6.5h-792q-231 0 -353.5 112
t-122.5 312v235q0 41 41 41h78q39 0 39 -41v-133q0 -200 78 -280t287 -80zM895 1176l438 391q31 27 47 8l43 -51q12 -13 11.5 -23.5t-15.5 -23.5l-438 -392q-31 -27 -47 -8l-43 51q-22 25 4 48z" />
    <glyph glyph-name="uniFB93" unicode="&#x6af;" horiz-adv-x="1988" arabic-form="final" 
d="M1989 0h-41q-152 0 -236 117q-92 -117 -342 -117h-792q-231 0 -353.5 112t-122.5 312v235q0 41 41 41h78q39 0 39 -41v-133q0 -200 78 -280t287 -80h757q222 0 222 143q0 108 -163 224t-472 208q-37 11 -37 37v84q0 24 24 45l603 537q30 26 49 4l57 -66q23 -26 0 -49
l-545 -485q326 -118 485.5 -253.5t159.5 -309.5q0 -20 -4 -56q69 -63 187 -63h41v-166zM895 1176l438 391q31 27 47 8l43 -51q12 -13 11.5 -23.5t-15.5 -23.5l-438 -392q-31 -27 -47 -8l-43 51q-22 25 4 48z" />
    <glyph glyph-name="uniFB94" unicode="&#x6af;" horiz-adv-x="905" arabic-form="initial" 
d="M-20 166h419q222 0 222 143q0 108 -163 224t-472 208q-37 11 -37 37v84q0 24 24 45l602 537q30 27 50 4l57 -66q23 -26 0 -49l-545 -485q326 -118 485.5 -253.5t159.5 -309.5q0 -69 -24.5 -121t-62.5 -82.5t-92 -49.5t-105.5 -25.5t-110.5 -6.5h-407q-28 0 -45 16.5
t-17 65.5q0 50 16.5 67t45.5 17zM-88 1176l438 391q31 27 47 8l43 -51q12 -13 11.5 -23.5t-15.5 -23.5l-438 -392q-31 -27 -47 -8l-43 51q-22 25 4 48z" />
    <glyph glyph-name="uniFB95" unicode="&#x6af;" horiz-adv-x="1005" arabic-form="medial" 
d="M-20 166h419q222 0 222 143q0 108 -163 224t-472 208q-37 11 -37 37v84q0 24 24 45l602 537q30 27 50 4l57 -66q23 -26 0 -49l-545 -485q326 -118 485.5 -253.5t159.5 -309.5q0 -20 -4 -56q69 -63 187 -63h41v-166h-41q-152 0 -236 117q-92 -117 -342 -117h-407
q-28 0 -45 16.5t-17 65.5q0 50 16.5 67t45.5 17zM-88 1176l438 391q31 27 47 8l43 -51q12 -13 11.5 -23.5t-15.5 -23.5l-438 -392q-31 -27 -47 -8l-43 51q-22 25 4 48z" />
    <glyph glyph-name="uniFB9E" unicode="&#x6ba;" horiz-adv-x="1353" arabic-form="isolated" 
d="M1053 88v518q0 41 39 41h77q41 0 41 -41v-530q0 -262 -142.5 -394.5t-408.5 -132.5q-262 0 -403 133t-141 381q0 176 73 322q11 23 21.5 29t32.5 -2l71 -29q20 -8 24 -18t-5 -35q-56 -131 -56 -269q0 -166 97 -256t289 -90q199 0 295 91t96 282z" />
    <glyph glyph-name="uniFB9F" unicode="&#x6ba;" horiz-adv-x="1378" arabic-form="final" 
d="M1053 88v518q0 41 39 41h77q41 0 41 -41v-440h168v-166h-172q-20 -225 -160.5 -338t-386.5 -113q-262 0 -403 133t-141 381q0 176 73 322q11 23 21.5 29t32.5 -2l71 -29q20 -8 24 -18t-5 -35q-56 -131 -56 -269q0 -166 97 -256t289 -90q199 0 295 91t96 282z" />
    <glyph glyph-name="uniFBA4" unicode="&#x6c0;" horiz-adv-x="1015" arabic-form="isolated" 
d="M508 -12q-181 0 -287 109.5t-106 303.5q0 69 15.5 135.5t48 127t78 105.5t110.5 72t141 27t141 -27t110.5 -72t78 -105.5t48 -127t15.5 -135.5q0 -194 -106 -303.5t-287 -109.5zM508 154q115 0 173 69.5t58 175.5q0 53 -13.5 104.5t-40 97t-72.5 73.5t-105 28t-105 -28
t-73 -73.5t-40.5 -97t-13.5 -104.5q0 -106 58.5 -175.5t173.5 -69.5zM317 1161h76q-39 56 -39 125q0 76 53.5 121t131.5 45q80 0 143 -37q19 -11 10 -29l-12 -40q-6 -11 -11 -13t-16 4q-52 25 -104 25q-41 0 -68.5 -25.5t-27.5 -68.5q0 -55 39 -107h206q11 0 15 -4t4 -16
v-47q0 -23 -19 -23h-381q-18 0 -18 23v47q0 12 3.5 16t14.5 4z" />
    <glyph glyph-name="uniFBA5" unicode="&#x6c0;" horiz-adv-x="1013" arabic-form="final" 
d="M653 860v70q0 21 6 30.5t23 12.5l90 14q39 6 39 -35v-616q0 -91 42.5 -130.5t150.5 -39.5h10v-166h-37q-120 0 -198.5 40t-108.5 114q-110 -52 -242 -52q-63 0 -119.5 15t-104 45t-75 82.5t-27.5 120.5q0 150 138 277.5t413 217.5zM653 307v402q-177 -58 -281 -144.5
t-104 -181.5q0 -52 44 -83.5t132 -31.5q94 0 209 39zM498 1294h75q-38 55 -38 125q0 76 53 121t131 45q80 0 143 -37q18 -11 10 -28l-12 -41q-6 -11 -10.5 -13t-15.5 4q-52 25 -105 25q-41 0 -68.5 -25.5t-27.5 -68.5q0 -55 39 -107h207q11 0 14.5 -4t3.5 -16v-47
q0 -23 -18 -23h-381q-19 0 -19 23v47q0 12 4 16t15 4z" />
    <glyph glyph-name="uniFBA6" unicode="&#x6c1;" horiz-adv-x="1015" arabic-form="isolated" 
d="M508 -12q-181 0 -287 109.5t-106 303.5q0 69 15.5 135.5t48 127t78 105.5t110.5 72t141 27t141 -27t110.5 -72t78 -105.5t48 -127t15.5 -135.5q0 -194 -106 -303.5t-287 -109.5zM508 154q115 0 173 69.5t58 175.5q0 53 -13.5 104.5t-40 97t-72.5 73.5t-105 28t-105 -28
t-73 -73.5t-40.5 -97t-13.5 -104.5q0 -106 58.5 -175.5t173.5 -69.5z" />
    <glyph glyph-name="uniFBA7" unicode="&#x6c1;" horiz-adv-x="1026" arabic-form="final" 
d="M260 154v-222q0 -43 -39 -43h-80q-39 0 -39 43v224q0 82 24.5 144t64.5 95t83.5 48.5t90.5 15.5q78 0 141.5 -32.5t161.5 -121.5q80 -74 152 -106.5t171 -32.5h35v-166h-35q-116 0 -204.5 38.5t-206.5 143.5q-72 64 -114 87.5t-91 23.5q-55 0 -85 -35t-30 -104z" />
    <glyph glyph-name="uniFBA8" unicode="&#x6c1;" horiz-adv-x="565" arabic-form="initial" 
d="M127 -369q0 62 35 139t69 117q14 17 43 17h54q13 0 17 -7t-1 -14q-76 -148 -76 -207q0 -39 26.5 -62.5t82.5 -23.5q14 0 14 -8q0 -31 -37 -64.5t-98 -33.5q-52 0 -90.5 36.5t-38.5 110.5zM-20 166h139q85 0 111 29t26 118v478q0 21 9 30.5t30 9.5h78q41 0 41 -40v-555
q0 -236 -271 -236h-163q-28 0 -45 16.5t-17 65.5q0 50 16.5 67t45.5 17z" />
    <glyph glyph-name="uniFBA9" unicode="&#x6c1;" horiz-adv-x="1075" arabic-form="medial" 
d="M-20 166h65q123 0 195 72v421q0 41 39 41h77q41 0 41 -41v-368q0 -201 54.5 -346t181.5 -289q-25 95 -25 174q0 156 98 246t310 90h59v-166h-53q-140 0 -200 -41.5t-60 -157.5q0 -118 59 -315q8 -28 -14 -39l-76 -35q-24 -11 -41 2q-167 125 -289.5 300t-152.5 366
q-77 -80 -203 -80h-65q-28 0 -45 16.5t-17 65.5q0 50 16.5 67t45.5 17z" />
    <glyph glyph-name="uniFBAA" unicode="&#x6be;" horiz-adv-x="1554" arabic-form="isolated" 
d="M958 553q0 67 -72 118.5t-159 51.5q-73 0 -124.5 -45t-51.5 -115q0 -64 50 -134.5t149 -137.5q101 55 154.5 125t53.5 137zM1137 156q133 0 133 96q0 60 -52.5 144.5t-130.5 148.5v-2q3 -15 3 -21q0 -80 -48.5 -164.5t-132.5 -150.5q124 -51 228 -51zM453 893l41 80
q13 29 43 20q181 -51 343.5 -134t285 -183.5t194.5 -219t72 -233.5t-71 -172.5t-190 -60.5q-96 -1 -208 30.5t-215 88.5q-240 -109 -574 -109h-51q-41 0 -41 41v86q0 39 41 39h51q234 0 412 55q-176 159 -176 332q0 86 45.5 162t115.5 100l2 2l-90 31q-45 15 -30 45z" />
    <glyph glyph-name="uniFBAB" unicode="&#x6be;" horiz-adv-x="1318" arabic-form="final" 
d="M176 0h-53q-41 0 -41 41v86q0 39 41 39h53q102 0 213 20q31 313 158.5 497.5t310.5 184.5q120 0 201.5 -78.5t81.5 -209.5q0 -120 -80 -224.5t-230 -162.5v-3q159 -24 445 -24h43v-166h-43q-114 0 -217.5 14t-161.5 33v-2q129 -57 196.5 -150t67.5 -190q0 -123 -86 -211
t-221 -88q-88 0 -167 41t-142.5 117.5t-106 193.5t-55.5 262q-120 -20 -207 -20zM545 59q3 -205 92.5 -346t214.5 -141q63 0 105 41.5t42 107.5q0 44 -24 89t-74.5 91.5t-142 88t-213.5 69.5zM549 209q115 28 203.5 73.5t136 96.5t71 98.5t23.5 89.5q0 62 -36 98.5t-91 36.5
q-101 0 -183 -121.5t-124 -371.5z" />
    <glyph glyph-name="uniFBAC" unicode="&#x6be;" horiz-adv-x="1409" arabic-form="initial" 
d="M-20 166h49q233 0 411 55q-176 159 -176 332q0 86 46 162t116 100l2 2l-90 31q-46 15 -31 45l41 80q13 29 43 20q181 -51 343.5 -134t285 -183.5t194.5 -219t72 -233.5q0 -111 -71 -172t-197 -61q-95 0 -204.5 31.5t-211.5 87.5q-240 -109 -573 -109h-49q-28 0 -45 16.5
t-17 65.5q0 50 16.5 67t45.5 17zM813 553q0 67 -72 118.5t-159 51.5q-73 0 -124.5 -45t-51.5 -115q0 -64 49.5 -134.5t148.5 -137.5q101 55 155 125t54 137zM991 156q133 0 133 96q0 60 -52 144.5t-130 148.5v-2q2 -10 2 -21q0 -80 -48 -165t-132 -150q124 -51 227 -51z" />
    <glyph glyph-name="uniFBAD" unicode="&#x6be;" horiz-adv-x="1171" arabic-form="medial" 
d="M-20 166h49q102 0 213 20q31 313 158.5 497.5t310.5 184.5q120 0 201 -78.5t81 -209.5q0 -120 -79.5 -224.5t-229.5 -162.5v-3q159 -24 444 -24h43v-166h-43q-114 0 -217 14t-161 33v-2q129 -57 196.5 -150t67.5 -190q0 -123 -86 -211t-221 -88q-88 0 -167 41
t-142.5 117.5t-106 193.5t-55.5 262q-120 -20 -207 -20h-49q-28 0 -45 16.5t-17 65.5q0 50 16.5 67t45.5 17zM397 59q3 -205 93 -346t215 -141q63 0 105 41.5t42 107.5q0 44 -24 89t-75 91.5t-142.5 88t-213.5 69.5zM401 209q115 28 203.5 73.5t136.5 96.5t71.5 98.5
t23.5 89.5q0 62 -36 98.5t-91 36.5q-102 0 -184 -121.5t-124 -371.5z" />
    <glyph glyph-name="uniFBAE" unicode="&#x6d2;" horiz-adv-x="1806" arabic-form="isolated" 
d="M424 166h1280q41 0 41 -39v-86q0 -41 -41 -41h-1258q-164 0 -243.5 64.5t-79.5 195.5q0 70 32.5 129.5t89.5 107t117 87.5t134 92t122 100q31 31 56 12l61 -49q30 -23 6 -53q-63 -76 -221 -174q-112 -71 -173.5 -129.5t-61.5 -118.5q0 -98 139 -98z" />
    <glyph glyph-name="uniFBAF" unicode="&#x6d2;" horiz-adv-x="1200" arabic-form="final" 
d="M559 -344h928q39 0 39 -37v-92q0 -37 -39 -37h-912q-231 0 -341.5 82.5t-110.5 255.5q0 163 96.5 250.5t288.5 87.5h692v-166h-694q-121 0 -171 -43.5t-50 -128.5q0 -92 68.5 -132t205.5 -40z" />
    <glyph glyph-name="uniFBB0" unicode="&#x6d3;" horiz-adv-x="1806" arabic-form="isolated" 
d="M424 166h1280q41 0 41 -39v-86q0 -41 -41 -41h-1258q-164 0 -243.5 64.5t-79.5 195.5q0 70 32.5 129.5t89.5 107t117 87.5t134 92t122 100q31 31 56 12l61 -49q30 -23 6 -53q-63 -76 -221 -174q-112 -71 -173.5 -129.5t-61.5 -118.5q0 -98 139 -98zM197 1161h75
q-39 56 -39 125q0 76 53.5 121t131.5 45q80 0 143 -37q19 -11 10 -29l-12 -40q-6 -11 -11 -13t-16 4q-52 25 -104 25q-41 0 -68.5 -25.5t-27.5 -68.5q0 -55 39 -107h207q11 0 14.5 -4t3.5 -16v-47q0 -23 -18 -23h-381q-19 0 -19 23v47q0 12 4 16t15 4z" />
    <glyph glyph-name="uniFBB1" unicode="&#x6d3;" horiz-adv-x="1200" arabic-form="final" 
d="M559 -344h928q39 0 39 -37v-92q0 -37 -39 -37h-912q-231 0 -341.5 82.5t-110.5 255.5q0 163 96.5 250.5t288.5 87.5h692v-166h-694q-121 0 -171 -43.5t-50 -128.5q0 -92 68.5 -132t205.5 -40zM240 502h75q-39 56 -39 125q0 76 53.5 121t131.5 45q80 0 143 -37
q19 -11 10 -29l-12 -41q-10 -18 -27 -8q-50 24 -104 24q-41 0 -68.5 -25.5t-27.5 -68.5q0 -54 39 -106h207q10 0 14 -4.5t4 -16.5v-47q0 -22 -18 -22h-381q-19 0 -19 22v47q0 21 19 21z" />
    <glyph glyph-name="uniFBE8" unicode="&#x649;" horiz-adv-x="565" arabic-form="initial" 
d="M-20 166h139q85 0 111 29t26 118v478q0 21 9 30.5t30 9.5h78q41 0 41 -40v-555q0 -236 -271 -236h-163q-28 0 -45 16.5t-17 65.5q0 50 16.5 67t45.5 17z" />
    <glyph glyph-name="uniFBE9" unicode="&#x649;" horiz-adv-x="657" arabic-form="medial" 
d="M-20 166h159q85 0 111 29t26 118v478q0 21 9 30.5t30 9.5h78q41 0 41 -40v-545q74 -80 203 -80h20v-166h-20q-148 0 -229 111q-58 -111 -244 -111h-184q-28 0 -45 16.5t-17 65.5q0 50 16.5 67t45.5 17z" />
    <glyph glyph-name="uniFBFC" unicode="&#x6cc;" horiz-adv-x="1703" arabic-form="isolated" 
d="M797 -285q137 0 259.5 26t203.5 78t81 120q0 41 -29.5 76t-76.5 62.5t-103.5 56t-113 62.5t-103.5 75t-76.5 101.5t-29.5 133.5q0 95 34.5 170t93.5 120.5t133.5 69t158.5 23.5q182 0 340 -103q27 -18 16 -41l-37 -81q-8 -19 -18 -22t-29 7q-137 76 -274 76
q-115 0 -185.5 -55.5t-70.5 -163.5q0 -53 29.5 -96t76.5 -73.5t103.5 -59t113 -59t103.5 -66.5t76.5 -89t29.5 -118q0 -174 -194.5 -285t-509.5 -111q-113 0 -211 15.5t-189 53t-155.5 95.5t-103 148t-38.5 205q0 178 93 362q11 24 22 30t35 -3l65 -31q20 -9 24.5 -20
t-5.5 -33q-72 -144 -72 -291q0 -365 533 -365z" />
    <glyph glyph-name="uniFBFD" unicode="&#x6cc;" horiz-adv-x="1550" arabic-form="final" 
d="M1092 96l-166 62q-32 11 -21 47l25 76q14 38 53 24l150 -55q228 -84 364 -84h53v-166h-80q39 -48 39 -102q0 -105 -104.5 -186.5t-264.5 -122t-341 -40.5q-113 0 -211 15.5t-189 53t-155.5 95.5t-103 148t-38.5 205q0 178 93 362q11 24 22 30t35 -3l65 -31
q20 -9 24.5 -20t-5.5 -33q-72 -144 -72 -291q0 -365 533 -365q124 0 231 19t175 49.5t106.5 66.5t38.5 72q0 50 -61.5 87t-194.5 87z" />
    <glyph glyph-name="uniFBFE" unicode="&#x6cc;" horiz-adv-x="565" arabic-form="initial" 
d="M-20 166h139q85 0 111 29t26 118v478q0 21 9 30.5t30 9.5h78q41 0 41 -40v-555q0 -236 -271 -236h-163q-28 0 -45 16.5t-17 65.5q0 50 16.5 67t45.5 17zM252 -434q-42 0 -71 26t-29 68q0 41 29 67.5t71 26.5t71 -26.5t29 -67.5q0 -42 -29 -68t-71 -26zM-14 -434
q-42 0 -71.5 26t-29.5 68q0 41 29.5 67.5t71.5 26.5t71 -26.5t29 -67.5q0 -42 -29 -68t-71 -26z" />
    <glyph glyph-name="uniFBFF" unicode="&#x6cc;" horiz-adv-x="657" arabic-form="medial" 
d="M-20 166h159q85 0 111 29t26 118v478q0 21 9 30.5t30 9.5h78q41 0 41 -40v-545q74 -80 203 -80h20v-166h-20q-148 0 -229 111q-58 -111 -244 -111h-184q-28 0 -45 16.5t-17 65.5q0 50 16.5 67t45.5 17zM272 -434q-42 0 -71 26t-29 68q0 41 29 67.5t71 26.5t71.5 -26.5
t29.5 -67.5q0 -42 -29.5 -68t-71.5 -26zM6 -434q-42 0 -71 26t-29 68q0 41 29 67.5t71 26.5t71 -26.5t29 -67.5q0 -42 -29 -68t-71 -26z" />
    <glyph glyph-name="uniFC5E" unicode="&#xfc5e;" arabic-form="isolated" 
d="M39 1374v-151q0 -54 47 -54q45 0 45 58v174q0 20 12 20h52q14 0 14 -20v-174q0 -69 -27 -102t-84 -33q-66 0 -90 53q-23 -74 -104 -74q-53 0 -83 38t-30 101v138q0 20 14 20h52q12 0 12 -20v-144q0 -55 45 -55q23 0 35 15.5t12 41.5v168q0 21 12 21h54q12 0 12 -21z
M-106 1528q-22 -7 -36 1t-14 21q0 9 8.5 49.5t8.5 63.5q0 49 -43 49q-13 0 -29 -4q-18 -5 -18 12v39q0 18 14 23q32 8 51 8q44 0 72.5 -23.5t28.5 -74.5q0 -34 -9 -74q82 20 140 68q-68 17 -95.5 50t-27.5 87q0 66 39 105.5t96 39.5q66 0 100.5 -43t34.5 -117
q0 -47 -21.5 -88t-53 -69.5t-78 -53.5t-84 -39.5t-84.5 -29.5zM23 1829q0 -37 20.5 -58t75.5 -28q18 30 18 76q0 77 -57 77q-28 0 -42.5 -19t-14.5 -48z" />
    <glyph glyph-name="uniFC5F" unicode="&#xfc5f;" arabic-form="isolated" 
d="M209 1178v-33q0 -15 -6 -21.5t-23 -7.5l-360 -43q-14 -2 -21.5 4t-7.5 25v33q0 15 6 21t23 7l360 43q29 4 29 -28zM209 1346v-33q0 -15 -6 -21.5t-23 -7.5l-360 -43q-14 -2 -21.5 4t-7.5 25v33q0 15 6 21t23 7l360 43q29 4 29 -28zM39 1796v-151q0 -54 47 -54q45 0 45 58
v174q0 20 12 20h52q14 0 14 -20v-174q0 -136 -111 -136q-66 0 -90 54q-23 -74 -104 -74q-53 0 -83 38t-30 101v137q0 21 14 21h52q12 0 12 -21v-143q0 -55 45 -55q23 0 35 15.5t12 41.5v168q0 21 12 21h54q12 0 12 -21z" />
    <glyph glyph-name="uniFC60" unicode="&#xfc60;" arabic-form="isolated" 
d="M39 1374v-151q0 -54 47 -54q45 0 45 58v174q0 20 12 20h52q14 0 14 -20v-174q0 -69 -27 -102t-84 -33q-66 0 -90 53q-23 -74 -104 -74q-53 0 -83 38t-30 101v138q0 20 14 20h52q12 0 12 -20v-144q0 -55 45 -55q23 0 35 15.5t12 41.5v168q0 21 12 21h54q12 0 12 -21z
M209 1657v-33q0 -15 -6 -21.5t-23 -7.5l-360 -43q-14 -2 -21.5 4t-7.5 25v33q0 15 6 21t23 7l360 44q14 2 21.5 -4t7.5 -25z" />
    <glyph glyph-name="uniFC61" unicode="&#xfc61;" arabic-form="isolated" 
d="M39 1374v-151q0 -54 47 -54q45 0 45 58v174q0 20 12 20h52q14 0 14 -20v-174q0 -69 -27 -102t-84 -33q-66 0 -90 53q-23 -74 -104 -74q-53 0 -83 38t-30 101v138q0 20 14 20h52q12 0 12 -20v-144q0 -55 45 -55q23 0 35 15.5t12 41.5v168q0 21 12 21h54q12 0 12 -21z
M10 1837q0 -37 20.5 -58t75.5 -28q19 32 19 76q0 33 -13.5 55.5t-43.5 22.5q-28 0 -43 -19.5t-15 -48.5zM-180 1599q148 41 233 99q-68 17 -95.5 51.5t-27.5 89.5q0 64 40 100.5t98 36.5q66 0 100.5 -42.5t34.5 -116.5q0 -47 -21.5 -88t-53.5 -69.5t-83.5 -54.5t-95.5 -42
t-105 -35q-29 -10 -34 16l-7 23q-4 13 -0.5 20.5t17.5 11.5z" />
    <glyph glyph-name="uniFC62" unicode="&#xfc62;" arabic-form="isolated" 
d="M209 1178v-33q0 -15 -6 -21.5t-23 -7.5l-360 -43q-14 -2 -21.5 4t-7.5 25v33q0 15 6 21t23 7l360 43q29 4 29 -28zM39 1636v-151q0 -53 47 -53q45 0 45 57v174q0 20 12 20h52q14 0 14 -20v-174q0 -69 -27 -102t-84 -33q-66 0 -90 53q-23 -74 -104 -74q-53 0 -83 38.5
t-30 101.5v137q0 20 14 20h52q12 0 12 -20v-144q0 -55 45 -55q23 0 35 15.5t12 41.5v168q0 21 12 21h54q12 0 12 -21z" />
    <glyph glyph-name="uniFC63" unicode="&#xfc63;" arabic-form="isolated" 
d="M39 1374v-151q0 -54 47 -54q45 0 45 58v174q0 20 12 20h52q14 0 14 -20v-174q0 -69 -27 -102t-84 -33q-66 0 -90 53q-23 -74 -104 -74q-53 0 -83 38t-30 101v138q0 20 14 20h52q12 0 12 -20v-144q0 -55 45 -55q23 0 35 15.5t12 41.5v168q0 21 12 21h54q12 0 12 -21z
M43 1823v-297q0 -21 -18 -21h-48q-20 0 -20 21v284q0 22 16 25l50 6q20 3 20 -18z" />
    <glyph glyph-name="uniFDF2" unicode="&#xfdf2;" horiz-adv-x="2643" arabic-form="isolated" 
d="M1194 0h-197q-120 0 -198.5 40t-108.5 114q-110 -52 -241 -52q-63 0 -119.5 15t-104 45t-75 82.5t-27.5 120.5q0 150 138 277.5t413 217.5v70q0 21 5.5 30.5t22.5 12.5l91 14q38 6 38 -35v-616q0 -91 42.5 -130.5t150.5 -39.5h145q85 0 111.5 29t26.5 118v717
q0 21 5.5 30.5t22.5 12.5l90 14q39 6 39 -34v-807q74 -80 203 -80h100q89 0 116.5 30.5t27.5 122.5v807q0 21 5.5 30.5t22.5 12.5l91 15q38 6 38 -35v-916q0 -117 -65 -175t-203 -58h-133q-148 0 -229 111q-58 -111 -244 -111zM674 307v402q-177 -58 -281 -144.5
t-104 -181.5q0 -52 44 -83.5t132 -31.5q94 0 209 39zM1427 1659v-152q0 -53 48 -53q45 0 45 57v175q0 20 12 20h51q14 0 14 -20v-175q0 -69 -26.5 -102t-83.5 -33q-66 0 -90 54q-23 -74 -105 -74q-53 0 -82.5 38t-29.5 101v137q0 21 14 21h51q12 0 12 -21v-143q0 -55 46 -55
q23 0 35 15.5t12 41.5v168q0 20 12 20h53q12 0 12 -20zM1432 2107v-297q0 -20 -19 -20h-47q-20 0 -20 20v285q0 22 16 25l49 6q9 1 15 -4.5t6 -14.5zM2343 43v1356q0 21 6 30.5t23 12.5l90 14q39 6 39 -35v-1378q0 -43 -39 -43h-80q-39 0 -39 43z" />
    <glyph glyph-name="uniFDFA" unicode="&#xfdfa;" horiz-adv-x="2809" arabic-form="isolated" 
d="M1843 336h-784q-58 0 -90 37q-27 -37 -97 -37h-397q-88 0 -119 61q-45 -20 -98 -20q-56 0 -95.5 27.5t-39.5 82.5q0 61 55 114t162 89v19q0 17 14 20l45 8q19 3 19 -18v-240q0 -33 14.5 -47t52.5 -14h377q28 0 36.5 10t8.5 41v190q0 21 21 21h37q20 0 20 -21v-215
q29 -26 74 -26h774q28 0 36.5 10t8.5 41v424q0 17 14 20l45 9q9 1 14 -4.5t5 -14.5v-459q29 -26 74 -26h360q-47 58 -47 125q0 66 45.5 109.5t114.5 43.5q64 0 120 -37q14 -8 9 -20l-19 -39q-6 -14 -22 -6q-45 20 -84 20q-42 0 -63 -21.5t-21 -55.5q0 -64 55 -119h180
q21 0 21 -19v-43q0 -20 -21 -20h-628q-59 0 -91 37q-27 -37 -96 -37zM236 -545q-21 99 -21 158q0 71 31.5 103.5t101.5 37.5q-26 40 -26 101q0 77 41.5 119t113.5 42t114 -44t42 -126q0 -59 -23 -92h549q28 0 36.5 10t8.5 41v424q0 18 15 21l45 8q9 1 13.5 -4t4.5 -14v-457
q29 -29 74 -29h200q62 0 62 62v106q0 21 20 21h37q21 0 21 -21v-139q37 -29 71 -29q64 0 64 62v106q0 21 20 21h37q21 0 21 -21v-139q32 -29 67 -29q62 0 62 62v180q0 20 20 20h37q21 0 21 -20v-205q0 -50 -31.5 -84.5t-95.5 -34.5q-66 0 -105 45q-33 -45 -104 -45
q-67 0 -109 45q-33 -45 -104 -45h-211q-59 0 -90 39q-26 -39 -97 -39h-782q-53 0 -72.5 -11.5t-19.5 -51.5q0 -47 20 -141q6 -26 -12 -29l-41 -6q-21 -3 -26 22zM1606 1038l-70 27q-15 6 -10 22l12 37q7 24 29 15l59 -23q89 -35 146 -35h63q27 0 36 10.5t9 41.5v423
q0 18 14 21l45 8q19 3 19 -18v-459q30 -27 74 -27h69v242q0 20 21 20h37q20 0 20 -20v-115q110 152 231 152q80 0 128.5 -57.5t48.5 -155.5q0 -79 -41.5 -113.5t-132.5 -34.5h-381q-58 0 -90 37q-27 -37 -97 -37h-73q10 -17 10 -36q0 -34 -28.5 -62t-74.5 -45t-100.5 -26
t-110.5 -9q-307 0 -307 213q0 75 37 148q11 22 31 14l33 -14q20 -10 10 -31q-29 -67 -29 -111q0 -137 223 -137q74 0 129 11.5t80 27.5t25 33t-19.5 29.5t-74.5 33.5zM999 1470v-368q0 -103 -114 -103h-54q-53 0 -90 37q-24 -37 -96 -37h-78q-86 0 -118 62q-47 -21 -99 -21
q-56 0 -95.5 28t-39.5 83q0 61 55 114t162 89v18q0 18 14 21l46 8q9 1 13.5 -4t4.5 -15v-239q0 -33 15 -47.5t53 -14.5h57q29 0 38 10.5t9 41.5v284q0 18 14 21l45 8q9 1 14 -4.5t5 -14.5v-317q29 -29 71 -29h41q30 0 40 11.5t10 42.5v325q0 18 14 21l45 8q9 1 13.5 -4
t4.5 -15zM2392 -506q-19 -10 -29 10l-16 33q-7 14 10 23q121 57 142 127q-35 -15 -72 -15q-68 0 -110 47.5t-42 126.5q0 78 42.5 124t115.5 46q71 0 112.5 -40.5t41.5 -120.5v-76q0 -101 -38 -163.5t-157 -121.5zM1642 -535v68q0 14 15 14h26q15 0 15 -14v-88q17 -14 37 -14
q32 0 32 34v111q0 14 15 14h26q15 0 15 -14v-125q0 -32 -20.5 -53t-59.5 -21q-40 0 -64 27q-20 -27 -63 -27q-41 0 -66 25q-21 -25 -61 -25h-295q-18 0 -18 15v20q0 19 18 19h285q34 0 34 34v68q0 14 15 14h26q15 0 15 -14v-86q19 -16 41 -16q32 0 32 34zM2175 1081h258
q40 0 56 18.5t16 57.5q0 55 -26 88t-71 33q-37 0 -73 -18.5t-66.5 -52t-51 -61.5t-42.5 -65zM1446 1567v-547q0 -21 -21 -21h-36q-21 0 -21 21v536q0 18 14 21l45 8q19 3 19 -18zM2357 -154q0 -92 82 -92q43 0 70 21v78q0 81 -72 81q-38 0 -59 -24t-21 -64zM403 -156
q0 -50 29 -90h41q80 0 80 90t-76 90q-74 0 -74 -90zM651 1663v-49q0 -12 6.5 -18.5t16.5 -6.5q26 0 26 23v61q0 13 13 13h20q12 0 12 -13v-53q0 -10 7 -16.5t18 -6.5q25 0 25 25v61q0 13 12 13h20q13 0 13 -13v-59q0 -74 -66 -74q-26 0 -45 19q-19 -27 -57 -27q-66 0 -66 74
v47q0 12 12 12h21q12 0 12 -12zM432 1137v139q-55 -18 -95 -51t-40 -64q0 -39 61 -39q36 0 74 15zM340 473v139q-55 -18 -95 -50.5t-40 -63.5q0 -39 61 -39q39 0 74 14zM2595 809l-262 -31q-17 0 -17 17v16q0 14 17 16l262 31q16 0 16 -16v-17q0 -14 -16 -16zM2308 1497
l-262 -31q-16 0 -16 17v16q0 15 16 17l262 30q16 0 16 -16v-17q0 -14 -16 -16zM1561 625l-263 -31q-16 0 -16 16v17q0 14 16 16l263 31q16 0 16 -17v-16q0 -14 -16 -16zM1784 96l-262 -30q-17 0 -17 16v16q0 15 17 17l262 30q16 0 16 -16v-16q0 -15 -16 -17zM1696 1419
q0 -60 -29 -123q-7 -15 -20 -12l-17 2q-15 3 -8 17q27 61 27 116t-27 117q-7 13 8 16l17 2q13 3 20 -12q29 -63 29 -123zM932 211q0 -20 -14 -32.5t-33 -12.5t-33 12.5t-14 32.5t14 32.5t33 12.5t33 -12.5t14 -32.5zM1053 211q0 -20 -14 -32.5t-33 -12.5t-33.5 12.5
t-14.5 32.5t14.5 32.5t33.5 12.5t33 -12.5t14 -32.5zM700 1737v102q0 11 9 14l24 5q7 1 9.5 -2.5t2.5 -10.5v-108q0 -13 -12 -13h-20q-13 0 -13 13z" />
    <glyph glyph-name="uniFE80" unicode="&#x621;" horiz-adv-x="1050" arabic-form="isolated" 
d="M530 150h361q20 0 28.5 -8t8.5 -27v-78q0 -37 -37 -37h-731q-37 0 -37 37v78q0 19 8.5 27t28.5 8h207q-101 118 -101 251q0 127 85 207t222 80q128 0 228 -65q31 -19 18 -48l-28 -61q-18 -41 -52 -25q-85 43 -157 43q-77 0 -117.5 -41t-40.5 -108q0 -56 27 -117.5
t79 -115.5z" />
    <glyph glyph-name="uniFE81" unicode="&#x622;" horiz-adv-x="460" arabic-form="isolated" 
d="M152 43v1356q0 21 5.5 30.5t22.5 12.5l90 14q39 6 39 -35v-1378q0 -43 -39 -43h-80q-38 0 -38 43zM362 1638q-56 0 -135 37q-87 41 -131 41q-45 0 -80 -43q-15 -15 -26 -2l-29 33q-11 17 0 31q60 84 139 84q62 0 138 -39q5 -2 23 -10.5t26 -11.5t22.5 -8t26.5 -7t24 -2
q45 0 80 43q16 16 27 2l29 -33q11 -17 0 -31q-31 -43 -62 -63.5t-72 -20.5z" />
    <glyph glyph-name="uniFE82" unicode="&#x622;" horiz-adv-x="509" arabic-form="final" 
d="M309 1421v-1102q0 -92 27.5 -122.5t116.5 -30.5h57v-166h-90q-138 0 -203 58t-65 175v1166q0 21 5.5 30.5t22.5 12.5l90 14q39 6 39 -35zM362 1638q-56 0 -135 37q-87 41 -131 41q-45 0 -80 -43q-15 -15 -26 -2l-29 33q-11 17 0 31q60 84 139 84q62 0 138 -39
q5 -2 23 -10.5t26 -11.5t22.5 -8t26.5 -7t24 -2q45 0 80 43q16 16 27 2l29 -33q11 -17 0 -31q-31 -43 -62 -63.5t-72 -20.5z" />
    <glyph glyph-name="uniFE83" unicode="&#x623;" horiz-adv-x="460" arabic-form="isolated" 
d="M152 43v1356q0 21 5.5 30.5t22.5 12.5l90 14q39 6 39 -35v-1378q0 -43 -39 -43h-80q-38 0 -38 43zM39 1729h76q-39 56 -39 124q0 76 53 121t131 45q80 0 143 -37q19 -12 11 -28l-13 -41q-6 -11 -10.5 -12.5t-15.5 4.5q-49 24 -105 24q-41 0 -68.5 -25.5t-27.5 -68.5
q0 -54 39 -106h207q10 0 14 -4.5t4 -16.5v-47q0 -23 -18 -23h-381q-19 0 -19 23v47q0 21 19 21z" />
    <glyph glyph-name="uniFE84" unicode="&#x623;" horiz-adv-x="509" arabic-form="final" 
d="M309 1421v-1102q0 -92 27.5 -122.5t116.5 -30.5h57v-166h-90q-138 0 -203 58t-65 175v1166q0 21 5.5 30.5t22.5 12.5l90 14q39 6 39 -35zM39 1729h76q-39 56 -39 124q0 76 53 121t131 45q80 0 143 -37q19 -12 11 -28l-13 -41q-6 -11 -10.5 -12.5t-15.5 4.5
q-49 24 -105 24q-41 0 -68.5 -25.5t-27.5 -68.5q0 -54 39 -106h207q10 0 14 -4.5t4 -16.5v-47q0 -23 -18 -23h-381q-19 0 -19 23v47q0 21 19 21z" />
    <glyph glyph-name="uniFE85" unicode="&#x624;" horiz-adv-x="1011" arabic-form="isolated" 
d="M328 -309q174 87 252 165t104 201q-92 -57 -207 -57q-164 0 -263 113t-99 309q0 187 101.5 298t275.5 111q170 0 269 -98t99 -291v-192q0 -110 -11.5 -189.5t-41 -153t-83 -131.5t-135 -112t-200.5 -108q-33 -14 -49 16l-37 70q-15 30 25 49zM702 442q0 106 -49.5 165
t-154.5 59q-107 0 -164.5 -65.5t-57.5 -176.5q0 -131 55.5 -194.5t170.5 -63.5q109 0 200 65v211zM303 1161h76q-39 56 -39 125q0 76 53 121t131 45q81 0 144 -37q19 -11 10 -29l-12 -40q-6 -11 -11 -13t-16 4q-52 25 -104 25q-41 0 -69 -25.5t-28 -68.5q0 -55 39 -107h207
q11 0 14.5 -4t3.5 -16v-47q0 -23 -18 -23h-381q-18 0 -18 23v47q0 12 3.5 16t14.5 4z" />
    <glyph glyph-name="uniFE86" unicode="&#x624;" horiz-adv-x="1062" arabic-form="final" 
d="M328 -309q155 78 232 146t110 163h-168q-187 0 -287 104.5t-100 317.5q0 187 101.5 298t275.5 111q170 0 269 -98t99 -291v-192q0 -15 -1 -43t-1 -41h205v-166h-225q-34 -144 -136 -246t-313 -198q-33 -14 -49 16l-37 70q-15 30 25 49zM702 279v163q0 106 -49.5 165
t-154.5 59q-107 0 -164.5 -65.5t-57.5 -176.5q0 -150 60.5 -204t204.5 -54h157q4 70 4 113zM303 1161h76q-39 56 -39 125q0 76 53 121t131 45q81 0 144 -37q19 -11 10 -29l-12 -40q-6 -11 -11 -13t-16 4q-52 25 -104 25q-41 0 -69 -25.5t-28 -68.5q0 -55 39 -107h207
q11 0 14.5 -4t3.5 -16v-47q0 -23 -18 -23h-381q-18 0 -18 23v47q0 12 3.5 16t14.5 4z" />
    <glyph glyph-name="uniFE87" unicode="&#x625;" horiz-adv-x="460" arabic-form="isolated" 
d="M152 43v1356q0 21 5.5 30.5t22.5 12.5l90 14q39 6 39 -35v-1378q0 -43 -39 -43h-80q-38 0 -38 43zM31 -516h75q-38 58 -38 125q0 76 53 121t131 45q80 0 143 -37q20 -12 11 -29l-13 -41q-6 -11 -10.5 -12.5t-15.5 4.5q-52 25 -105 25q-41 0 -68.5 -26t-27.5 -69
q0 -54 39 -106h207q10 0 14 -4.5t4 -16.5v-47q0 -22 -18 -22h-381q-19 0 -19 22v47q0 21 19 21z" />
    <glyph glyph-name="uniFE88" unicode="&#x625;" horiz-adv-x="509" arabic-form="final" 
d="M309 1421v-1102q0 -92 27.5 -122.5t116.5 -30.5h57v-166h-90q-138 0 -203 58t-65 175v1166q0 21 5.5 30.5t22.5 12.5l90 14q39 6 39 -35zM31 -516h75q-38 58 -38 125q0 76 53 121t131 45q80 0 143 -37q20 -12 11 -29l-13 -41q-6 -11 -10.5 -12.5t-15.5 4.5
q-52 25 -105 25q-41 0 -68.5 -26t-27.5 -69q0 -54 39 -106h207q10 0 14 -4.5t4 -16.5v-47q0 -22 -18 -22h-381q-19 0 -19 22v47q0 21 19 21z" />
    <glyph glyph-name="uniFE89" unicode="&#x626;" horiz-adv-x="1703" arabic-form="isolated" 
d="M797 -285q137 0 259.5 26t203.5 78t81 120q0 41 -29.5 76t-76.5 62.5t-103.5 56t-113 62.5t-103.5 75t-76.5 101.5t-29.5 133.5q0 95 34.5 170t93.5 120.5t133.5 69t158.5 23.5q182 0 340 -103q27 -18 16 -41l-37 -81q-8 -19 -18 -22t-29 7q-137 76 -274 76
q-115 0 -185.5 -55.5t-70.5 -163.5q0 -53 29.5 -96t76.5 -73.5t103.5 -59t113 -59t103.5 -66.5t76.5 -89t29.5 -118q0 -174 -194.5 -285t-509.5 -111q-113 0 -211 15.5t-189 53t-155.5 95.5t-103 148t-38.5 205q0 178 93 362q11 24 22 30t35 -3l65 -31q20 -9 24.5 -20
t-5.5 -33q-72 -144 -72 -291q0 -365 533 -365zM68 797h75q-39 56 -39 125q0 75 53.5 120t131.5 45q82 0 143 -36q19 -11 10 -29l-12 -41q-10 -18 -27 -8q-49 24 -104 24q-41 0 -68.5 -25.5t-27.5 -68.5q0 -54 39 -106h207q10 0 14 -4.5t4 -16.5v-47q0 -22 -18 -22h-381
q-19 0 -19 22v47q0 21 19 21z" />
    <glyph glyph-name="uniFE8A" unicode="&#x626;" horiz-adv-x="1550" arabic-form="final" 
d="M1092 96l-166 62q-32 11 -21 47l25 76q14 38 53 24l150 -55q228 -84 364 -84h53v-166h-80q39 -48 39 -102q0 -105 -104.5 -186.5t-264.5 -122t-341 -40.5q-113 0 -211 15.5t-189 53t-155.5 95.5t-103 148t-38.5 205q0 178 93 362q11 24 22 30t35 -3l65 -31
q20 -9 24.5 -20t-5.5 -33q-72 -144 -72 -291q0 -365 533 -365q124 0 231 19t175 49.5t106.5 66.5t38.5 72q0 50 -61.5 87t-194.5 87zM68 797h75q-39 56 -39 125q0 75 53.5 120t131.5 45q82 0 143 -36q19 -11 10 -29l-12 -41q-10 -18 -27 -8q-49 24 -104 24
q-41 0 -68.5 -25.5t-27.5 -68.5q0 -54 39 -106h207q10 0 14 -4.5t4 -16.5v-47q0 -22 -18 -22h-381q-19 0 -19 22v47q0 21 19 21z" />
    <glyph glyph-name="uniFE8B" unicode="&#x626;" horiz-adv-x="565" arabic-form="initial" 
d="M-20 166h139q85 0 111 29t26 118v478q0 21 9 30.5t30 9.5h78q41 0 41 -40v-555q0 -236 -271 -236h-163q-28 0 -45 16.5t-17 65.5q0 50 16.5 67t45.5 17zM143 1161h76q-39 56 -39 125q0 76 53.5 121t131.5 45q80 0 143 -37q19 -11 10 -29l-12 -40q-6 -11 -11 -13t-16 4
q-52 25 -104 25q-41 0 -68.5 -25.5t-27.5 -68.5q0 -56 38 -107h207q11 0 15 -4t4 -16v-47q0 -23 -19 -23h-381q-18 0 -18 23v47q0 12 3.5 16t14.5 4z" />
    <glyph glyph-name="uniFE8C" unicode="&#x626;" horiz-adv-x="657" arabic-form="medial" 
d="M-20 166h159q85 0 111 29t26 118v478q0 21 9 30.5t30 9.5h78q41 0 41 -40v-545q74 -80 203 -80h20v-166h-20q-148 0 -229 111q-58 -111 -244 -111h-184q-28 0 -45 16.5t-17 65.5q0 50 16.5 67t45.5 17zM164 1161h76q-39 56 -39 125q0 76 53 121t131 45q80 0 143 -37
q20 -12 11 -29l-13 -40q-6 -11 -10.5 -13t-15.5 4q-52 25 -105 25q-41 0 -68.5 -25.5t-27.5 -68.5q0 -55 39 -107h207q11 0 14.5 -4t3.5 -16v-47q0 -23 -18 -23h-381q-19 0 -19 23v47q0 12 4 16t15 4z" />
    <glyph glyph-name="uniFE8D" unicode="&#x627;" horiz-adv-x="460" arabic-form="isolated" 
d="M152 43v1356q0 21 5.5 30.5t22.5 12.5l90 14q39 6 39 -35v-1378q0 -43 -39 -43h-80q-38 0 -38 43z" />
    <glyph glyph-name="uniFE8E" unicode="&#x627;" horiz-adv-x="509" arabic-form="final" 
d="M309 1421v-1102q0 -92 27.5 -122.5t116.5 -30.5h57v-166h-90q-138 0 -203 58t-65 175v1166q0 21 5.5 30.5t22.5 12.5l90 14q39 6 39 -35z" />
    <glyph glyph-name="uniFE8F" unicode="&#x628;" horiz-adv-x="1835" arabic-form="isolated" 
d="M625 166h764q85 0 111 29t26 118v478q0 21 9 30.5t30 9.5h77q41 0 41 -40v-555q0 -236 -270 -236h-835q-231 0 -353.5 112t-122.5 312v235q0 41 41 41h78q39 0 39 -41v-133q0 -200 78 -280t287 -80zM911 -434q-42 0 -71 26t-29 68q0 41 29 67.5t71 26.5t71.5 -26.5
t29.5 -67.5q0 -42 -29.5 -68t-71.5 -26z" />
    <glyph glyph-name="uniFE90" unicode="&#x628;" horiz-adv-x="1906" arabic-form="final" 
d="M625 166h764q85 0 111 29t26 118v478q0 21 9 30.5t30 9.5h77q41 0 41 -40v-545q74 -80 203 -80h21v-166h-21q-148 0 -229 111q-59 -111 -244 -111h-835q-231 0 -353.5 112t-122.5 312v235q0 41 41 41h78q39 0 39 -41v-133q0 -200 78 -280t287 -80zM905 -434q-42 0 -71 26
t-29 68q0 41 29 67.5t71 26.5t71.5 -26.5t29.5 -67.5q0 -42 -29.5 -68t-71.5 -26z" />
    <glyph glyph-name="uniFE91" unicode="&#x628;" horiz-adv-x="565" arabic-form="initial" 
d="M-20 166h139q85 0 111 29t26 118v478q0 21 9 30.5t30 9.5h78q41 0 41 -40v-555q0 -236 -271 -236h-163q-28 0 -45 16.5t-17 65.5q0 50 16.5 67t45.5 17zM106 -434q-42 0 -71 26t-29 68q0 41 29 67.5t71 26.5t71.5 -26.5t29.5 -67.5q0 -42 -29.5 -68t-71.5 -26z" />
    <glyph glyph-name="uniFE92" unicode="&#x628;" horiz-adv-x="657" arabic-form="medial" 
d="M-20 166h159q85 0 111 29t26 118v478q0 21 9 30.5t30 9.5h78q41 0 41 -40v-545q74 -80 203 -80h20v-166h-20q-148 0 -229 111q-58 -111 -244 -111h-184q-28 0 -45 16.5t-17 65.5q0 50 16.5 67t45.5 17zM127 -434q-42 0 -71 26t-29 68q0 41 29 67.5t71 26.5t71 -26.5
t29 -67.5q0 -42 -29 -68t-71 -26z" />
    <glyph glyph-name="uniFE93" unicode="&#x629;" horiz-adv-x="1015" arabic-form="isolated" 
d="M508 -12q-181 0 -287 109.5t-106 303.5q0 69 15.5 135.5t48 127t78 105.5t110.5 72t141 27t141 -27t110.5 -72t78 -105.5t48 -127t15.5 -135.5q0 -194 -106 -303.5t-287 -109.5zM508 154q115 0 173 69.5t58 175.5q0 53 -13.5 104.5t-40 97t-72.5 73.5t-105 28t-105 -28
t-73 -73.5t-40.5 -97t-13.5 -104.5q0 -106 58.5 -175.5t173.5 -69.5zM641 1094q-42 0 -71 26t-29 68q0 41 29 67.5t71 26.5t71 -26.5t29 -67.5q0 -42 -29 -68t-71 -26zM375 1094q-42 0 -71.5 26t-29.5 68q0 41 29.5 67.5t71.5 26.5t71 -26.5t29 -67.5q0 -42 -29 -68t-71 -26
z" />
    <glyph glyph-name="uniFE94" unicode="&#x629;" horiz-adv-x="1013" arabic-form="final" 
d="M653 860v70q0 21 6 30.5t23 12.5l90 14q39 6 39 -35v-616q0 -91 42.5 -130.5t150.5 -39.5h10v-166h-37q-120 0 -198.5 40t-108.5 114q-110 -52 -242 -52q-63 0 -119.5 15t-104 45t-75 82.5t-27.5 120.5q0 150 138 277.5t413 217.5zM653 307v402q-177 -58 -281 -144.5
t-104 -181.5q0 -52 44 -83.5t132 -31.5q94 0 209 39zM817 1210q-42 0 -71 26.5t-29 68.5q0 41 29 67.5t71 26.5t71.5 -26.5t29.5 -67.5q0 -42 -29.5 -68.5t-71.5 -26.5zM551 1210q-42 0 -71 26.5t-29 68.5q0 41 29 67.5t71 26.5t71 -26.5t29 -67.5q0 -42 -29 -68.5
t-71 -26.5z" />
    <glyph glyph-name="uniFE95" unicode="&#x62a;" horiz-adv-x="1835" arabic-form="isolated" 
d="M625 166h764q85 0 111 29t26 118v478q0 21 9 30.5t30 9.5h77q41 0 41 -40v-555q0 -236 -270 -236h-835q-231 0 -353.5 112t-122.5 312v235q0 41 41 41h78q39 0 39 -41v-133q0 -200 78 -280t287 -80zM1042 956q-42 0 -71 26.5t-29 68.5q0 41 29 67.5t71 26.5t71.5 -26.5
t29.5 -67.5q0 -42 -29.5 -68.5t-71.5 -26.5zM776 956q-42 0 -71 26.5t-29 68.5q0 41 29 67.5t71 26.5t71.5 -26.5t29.5 -67.5q0 -42 -29.5 -68.5t-71.5 -26.5z" />
    <glyph glyph-name="uniFE96" unicode="&#x62a;" horiz-adv-x="1906" arabic-form="final" 
d="M625 166h764q85 0 111 29t26 118v478q0 21 9 30.5t30 9.5h77q41 0 41 -40v-545q74 -80 203 -80h21v-166h-21q-148 0 -229 111q-59 -111 -244 -111h-835q-231 0 -353.5 112t-122.5 312v235q0 41 41 41h78q39 0 39 -41v-133q0 -200 78 -280t287 -80zM1024 956
q-42 0 -71 26.5t-29 68.5q0 41 29 67.5t71 26.5t71 -26.5t29 -67.5q0 -42 -29 -68.5t-71 -26.5zM758 956q-42 0 -71.5 26.5t-29.5 68.5q0 41 29.5 67.5t71.5 26.5t71 -26.5t29 -67.5q0 -42 -29 -68.5t-71 -26.5z" />
    <glyph glyph-name="uniFE97" unicode="&#x62a;" horiz-adv-x="565" arabic-form="initial" 
d="M-20 166h139q85 0 111 29t26 118v478q0 21 9 30.5t30 9.5h78q41 0 41 -40v-555q0 -236 -271 -236h-163q-28 0 -45 16.5t-17 65.5q0 50 16.5 67t45.5 17zM465 1077q-42 0 -71 26t-29 68q0 41 29 68t71 27t71 -27t29 -68q0 -42 -29 -68t-71 -26zM199 1077q-42 0 -71.5 26
t-29.5 68q0 41 29.5 68t71.5 27t71 -27t29 -68q0 -42 -29 -68t-71 -26z" />
    <glyph glyph-name="uniFE98" unicode="&#x62a;" horiz-adv-x="657" arabic-form="medial" 
d="M-20 166h159q85 0 111 29t26 118v478q0 21 9 30.5t30 9.5h78q41 0 41 -40v-545q74 -80 203 -80h20v-166h-20q-148 0 -229 111q-58 -111 -244 -111h-184q-28 0 -45 16.5t-17 65.5q0 50 16.5 67t45.5 17zM500 1077q-42 0 -71.5 26t-29.5 68q0 41 29.5 68t71.5 27t71 -27
t29 -68q0 -42 -29 -68t-71 -26zM233 1077q-42 0 -71 26t-29 68q0 41 29 68t71 27t71.5 -27t29.5 -68q0 -42 -29.5 -68t-71.5 -26z" />
    <glyph glyph-name="uniFE99" unicode="&#x62b;" horiz-adv-x="1835" arabic-form="isolated" 
d="M625 166h764q85 0 111 29t26 118v478q0 21 9 30.5t30 9.5h77q41 0 41 -40v-555q0 -236 -270 -236h-835q-231 0 -353.5 112t-122.5 312v235q0 41 41 41h78q39 0 39 -41v-133q0 -200 78 -280t287 -80zM1034 956q-42 0 -71 26.5t-29 68.5q0 41 29 67.5t71 26.5t71.5 -26.5
t29.5 -67.5q0 -42 -29.5 -68.5t-71.5 -26.5zM768 956q-42 0 -71 26.5t-29 68.5q0 41 29 67.5t71 26.5t71 -26.5t29 -67.5q0 -42 -29 -68.5t-71 -26.5zM901 1190q-42 0 -71 26t-29 68q0 41 29 67.5t71 26.5t71 -26.5t29 -67.5q0 -42 -29 -68t-71 -26z" />
    <glyph glyph-name="uniFE9A" unicode="&#x62b;" horiz-adv-x="1906" arabic-form="final" 
d="M625 166h764q85 0 111 29t26 118v478q0 21 9 30.5t30 9.5h77q41 0 41 -40v-545q74 -80 203 -80h21v-166h-21q-148 0 -229 111q-59 -111 -244 -111h-835q-231 0 -353.5 112t-122.5 312v235q0 41 41 41h78q39 0 39 -41v-133q0 -200 78 -280t287 -80zM1016 956
q-42 0 -71.5 26.5t-29.5 68.5q0 41 29.5 67.5t71.5 26.5t71 -26.5t29 -67.5q0 -42 -29 -68.5t-71 -26.5zM750 956q-42 0 -71.5 26.5t-29.5 68.5q0 41 29.5 67.5t71.5 26.5t71 -26.5t29 -67.5q0 -42 -29 -68.5t-71 -26.5zM883 1190q-42 0 -71.5 26t-29.5 68q0 41 29.5 67.5
t71.5 26.5t71 -26.5t29 -67.5q0 -42 -29 -68t-71 -26z" />
    <glyph glyph-name="uniFE9B" unicode="&#x62b;" horiz-adv-x="565" arabic-form="initial" 
d="M-20 166h139q85 0 111 29t26 118v478q0 21 9 30.5t30 9.5h78q41 0 41 -40v-555q0 -236 -271 -236h-163q-28 0 -45 16.5t-17 65.5q0 50 16.5 67t45.5 17zM469 1077q-42 0 -71 26t-29 68q0 41 29 68t71 27t71 -27t29 -68q0 -42 -29 -68t-71 -26zM203 1077q-42 0 -71.5 26
t-29.5 68q0 41 29.5 68t71.5 27t71 -27t29 -68q0 -42 -29 -68t-71 -26zM336 1311q-42 0 -71 26t-29 68q0 41 29 67.5t71 26.5t71 -26.5t29 -67.5q0 -42 -29 -68t-71 -26z" />
    <glyph glyph-name="uniFE9C" unicode="&#x62b;" horiz-adv-x="657" arabic-form="medial" 
d="M-20 166h159q85 0 111 29t26 118v478q0 21 9 30.5t30 9.5h78q41 0 41 -40v-545q74 -80 203 -80h20v-166h-20q-148 0 -229 111q-58 -111 -244 -111h-184q-28 0 -45 16.5t-17 65.5q0 50 16.5 67t45.5 17zM500 1077q-42 0 -71.5 26t-29.5 68q0 41 29.5 68t71.5 27t71 -27
t29 -68q0 -42 -29 -68t-71 -26zM233 1077q-42 0 -71 26t-29 68q0 41 29 68t71 27t71.5 -27t29.5 -68q0 -42 -29.5 -68t-71.5 -26zM367 1311q-42 0 -71.5 26t-29.5 68q0 41 29.5 67.5t71.5 26.5t71 -26.5t29 -67.5q0 -42 -29 -68t-71 -26z" />
    <glyph glyph-name="uniFE9D" unicode="&#x62c;" horiz-adv-x="1163" arabic-form="isolated" 
d="M498 705q-109 0 -238 -72q-19 -11 -28.5 -8t-16.5 22l-37 82q-11 22 17 41q140 98 315 98q188 0 288.5 -109.5t141.5 -312.5q35 -168 104 -231q25 -24 31 -35.5t6 -34.5v-104q0 -41 -41 -41h-454q-176 0 -259 -46t-83 -161q0 -59 27.5 -102.5t77.5 -69t113.5 -37.5
t143.5 -12q158 0 322 49q27 6 34.5 2.5t14.5 -20.5l29 -76q7 -24 0.5 -35t-29.5 -20q-63 -29 -168 -47.5t-213 -18.5q-244 0 -379 98.5t-135 288.5t124 281.5t380 91.5h309q-44 46 -68 99.5t-49 162.5q-33 156 -96 216.5t-184 60.5zM618 -313q-42 0 -71 26t-29 68
q0 41 29 67.5t71 26.5t71.5 -26.5t29.5 -67.5q0 -42 -29.5 -68t-71.5 -26z" />
    <glyph glyph-name="uniFE9E" unicode="&#x62c;" horiz-adv-x="1202" arabic-form="final" 
d="M510 868q97 0 171.5 -30t125 -88t82.5 -132t51 -172q21 -106 56 -167.5t108 -112.5h98v-166h-616q-176 0 -259 -46t-83 -161q0 -59 27.5 -102.5t77.5 -69t113.5 -37.5t143.5 -12q158 0 322 49q27 6 34.5 2.5t14.5 -20.5l29 -76q7 -24 0.5 -35t-29.5 -20
q-63 -29 -168 -47.5t-213 -18.5q-244 0 -379 98.5t-135 288.5t124 281.5t380 91.5h309q-44 46 -68 99.5t-49 162.5q-33 156 -96 216.5t-184 60.5q-109 0 -238 -72q-19 -11 -28.5 -8t-16.5 22l-37 82q-11 22 17 41q140 98 315 98zM618 -313q-42 0 -71 26t-29 68q0 41 29 67.5
t71 26.5t71.5 -26.5t29.5 -67.5q0 -42 -29.5 -68t-71.5 -26z" />
    <glyph glyph-name="uniFE9F" unicode="&#x62c;" horiz-adv-x="1099" arabic-form="initial" 
d="M-20 166h851q-44 45 -67.5 98.5t-48.5 163.5q-33 156 -96.5 216.5t-184.5 60.5q-108 0 -237 -72q-19 -11 -28.5 -8t-16.5 22l-37 82q-11 23 16 41q140 98 315 98q188 0 289 -109.5t142 -312.5q35 -168 104 -231q25 -24 31 -35.5t6 -34.5v-104q0 -41 -41 -41h-997
q-28 0 -45 16.5t-17 65.5q0 50 16.5 67t45.5 17zM424 -434q-42 0 -71 26t-29 68q0 41 29 67.5t71 26.5t71 -26.5t29 -67.5q0 -42 -29 -68t-71 -26z" />
    <glyph glyph-name="uniFEA0" unicode="&#x62c;" horiz-adv-x="1138" arabic-form="medial" 
d="M-20 166h851q-44 45 -67.5 98.5t-48.5 163.5q-33 156 -96.5 216.5t-184.5 60.5q-108 0 -237 -72q-19 -11 -28.5 -8t-16.5 22l-37 82q-11 23 16 41q140 98 315 98q97 0 171.5 -30t125 -88t83 -132t51.5 -172q21 -106 55.5 -167.5t107.5 -112.5h99v-166h-1159
q-28 0 -45 16.5t-17 65.5q0 50 16.5 67t45.5 17zM424 -434q-42 0 -71 26t-29 68q0 41 29 67.5t71 26.5t71 -26.5t29 -67.5q0 -42 -29 -68t-71 -26z" />
    <glyph glyph-name="uniFEA1" unicode="&#x62d;" horiz-adv-x="1163" arabic-form="isolated" 
d="M498 705q-109 0 -238 -72q-19 -11 -28.5 -8t-16.5 22l-37 82q-11 22 17 41q140 98 315 98q188 0 288.5 -109.5t141.5 -312.5q35 -168 104 -231q25 -24 31 -35.5t6 -34.5v-104q0 -41 -41 -41h-454q-176 0 -259 -46t-83 -161q0 -59 27.5 -102.5t77.5 -69t113.5 -37.5
t143.5 -12q158 0 322 49q27 6 34.5 2.5t14.5 -20.5l29 -76q7 -24 0.5 -35t-29.5 -20q-63 -29 -168 -47.5t-213 -18.5q-244 0 -379 98.5t-135 288.5t124 281.5t380 91.5h309q-44 46 -68 99.5t-49 162.5q-33 156 -96 216.5t-184 60.5z" />
    <glyph glyph-name="uniFEA2" unicode="&#x62d;" horiz-adv-x="1202" arabic-form="final" 
d="M510 868q97 0 171.5 -30t125 -88t82.5 -132t51 -172q21 -106 56 -167.5t108 -112.5h98v-166h-616q-176 0 -259 -46t-83 -161q0 -59 27.5 -102.5t77.5 -69t113.5 -37.5t143.5 -12q158 0 322 49q27 6 34.5 2.5t14.5 -20.5l29 -76q7 -24 0.5 -35t-29.5 -20
q-63 -29 -168 -47.5t-213 -18.5q-244 0 -379 98.5t-135 288.5t124 281.5t380 91.5h309q-44 46 -68 99.5t-49 162.5q-33 156 -96 216.5t-184 60.5q-109 0 -238 -72q-19 -11 -28.5 -8t-16.5 22l-37 82q-11 22 17 41q140 98 315 98z" />
    <glyph glyph-name="uniFEA3" unicode="&#x62d;" horiz-adv-x="1099" arabic-form="initial" 
d="M-20 166h851q-44 45 -67.5 98.5t-48.5 163.5q-33 156 -96.5 216.5t-184.5 60.5q-108 0 -237 -72q-19 -11 -28.5 -8t-16.5 22l-37 82q-11 23 16 41q140 98 315 98q188 0 289 -109.5t142 -312.5q35 -168 104 -231q25 -24 31 -35.5t6 -34.5v-104q0 -41 -41 -41h-997
q-28 0 -45 16.5t-17 65.5q0 50 16.5 67t45.5 17z" />
    <glyph glyph-name="uniFEA4" unicode="&#x62d;" horiz-adv-x="1138" arabic-form="medial" 
d="M-20 166h851q-44 45 -67.5 98.5t-48.5 163.5q-33 156 -96.5 216.5t-184.5 60.5q-108 0 -237 -72q-19 -11 -28.5 -8t-16.5 22l-37 82q-11 23 16 41q140 98 315 98q97 0 171.5 -30t125 -88t83 -132t51.5 -172q21 -106 55.5 -167.5t107.5 -112.5h99v-166h-1159
q-28 0 -45 16.5t-17 65.5q0 50 16.5 67t45.5 17z" />
    <glyph glyph-name="uniFEA5" unicode="&#x62e;" horiz-adv-x="1163" arabic-form="isolated" 
d="M498 705q-109 0 -238 -72q-19 -11 -28.5 -8t-16.5 22l-37 82q-11 22 17 41q140 98 315 98q188 0 288.5 -109.5t141.5 -312.5q35 -168 104 -231q25 -24 31 -35.5t6 -34.5v-104q0 -41 -41 -41h-454q-176 0 -259 -46t-83 -161q0 -59 27.5 -102.5t77.5 -69t113.5 -37.5
t143.5 -12q158 0 322 49q27 6 34.5 2.5t14.5 -20.5l29 -76q7 -24 0.5 -35t-29.5 -20q-63 -29 -168 -47.5t-213 -18.5q-244 0 -379 98.5t-135 288.5t124 281.5t380 91.5h309q-44 46 -68 99.5t-49 162.5q-33 156 -96 216.5t-184 60.5zM504 1094q-42 0 -71.5 26t-29.5 68
q0 41 29.5 67.5t71.5 26.5t71 -26.5t29 -67.5q0 -42 -29 -68t-71 -26z" />
    <glyph glyph-name="uniFEA6" unicode="&#x62e;" horiz-adv-x="1202" arabic-form="final" 
d="M510 868q97 0 171.5 -30t125 -88t82.5 -132t51 -172q21 -106 56 -167.5t108 -112.5h98v-166h-616q-176 0 -259 -46t-83 -161q0 -59 27.5 -102.5t77.5 -69t113.5 -37.5t143.5 -12q158 0 322 49q27 6 34.5 2.5t14.5 -20.5l29 -76q7 -24 0.5 -35t-29.5 -20
q-63 -29 -168 -47.5t-213 -18.5q-244 0 -379 98.5t-135 288.5t124 281.5t380 91.5h309q-44 46 -68 99.5t-49 162.5q-33 156 -96 216.5t-184 60.5q-109 0 -238 -72q-19 -11 -28.5 -8t-16.5 22l-37 82q-11 22 17 41q140 98 315 98zM504 1094q-42 0 -71.5 26t-29.5 68
q0 41 29.5 67.5t71.5 26.5t71 -26.5t29 -67.5q0 -42 -29 -68t-71 -26z" />
    <glyph glyph-name="uniFEA7" unicode="&#x62e;" horiz-adv-x="1099" arabic-form="initial" 
d="M-20 166h851q-44 45 -67.5 98.5t-48.5 163.5q-33 156 -96.5 216.5t-184.5 60.5q-108 0 -237 -72q-19 -11 -28.5 -8t-16.5 22l-37 82q-11 23 16 41q140 98 315 98q188 0 289 -109.5t142 -312.5q35 -168 104 -231q25 -24 31 -35.5t6 -34.5v-104q0 -41 -41 -41h-997
q-28 0 -45 16.5t-17 65.5q0 50 16.5 67t45.5 17zM446 1094q-42 0 -71 26t-29 68q0 41 29 67.5t71 26.5t71.5 -26.5t29.5 -67.5q0 -42 -29.5 -68t-71.5 -26z" />
    <glyph glyph-name="uniFEA8" unicode="&#x62e;" horiz-adv-x="1138" arabic-form="medial" 
d="M-20 166h851q-44 45 -67.5 98.5t-48.5 163.5q-33 156 -96.5 216.5t-184.5 60.5q-108 0 -237 -72q-19 -11 -28.5 -8t-16.5 22l-37 82q-11 23 16 41q140 98 315 98q97 0 171.5 -30t125 -88t83 -132t51.5 -172q21 -106 55.5 -167.5t107.5 -112.5h99v-166h-1159
q-28 0 -45 16.5t-17 65.5q0 50 16.5 67t45.5 17zM446 1094q-42 0 -71 26t-29 68q0 41 29 67.5t71 26.5t71.5 -26.5t29.5 -67.5q0 -42 -29.5 -68t-71.5 -26z" />
    <glyph glyph-name="uniFEA9" unicode="&#x62f;" horiz-adv-x="1099" arabic-form="isolated" 
d="M694 0h-571q-41 0 -41 41v86q0 39 41 39h539q90 0 117.5 29t27.5 118v95q0 162 -72.5 228t-257.5 66q-81 0 -192 -12q-16 -2 -29 -2q-41 0 -41 35v76q0 30 31 39q108 30 239 30q117 0 202.5 -22t149.5 -72t96 -136.5t32 -211.5v-190q0 -236 -271 -236z" />
    <glyph glyph-name="uniFEAA" unicode="&#x62f;" horiz-adv-x="1187" arabic-form="final" 
d="M1188 0h-1065q-41 0 -41 41v86q0 39 41 39h684v242q0 162 -72.5 228t-257.5 66q-81 0 -192 -12q-16 -2 -29 -2q-41 0 -41 35v76q0 30 31 39q108 30 239 30q117 0 202.5 -22t149.5 -72t96 -136.5t32 -211.5v-260h223v-166z" />
    <glyph glyph-name="uniFEAB" unicode="&#x630;" horiz-adv-x="1099" arabic-form="isolated" 
d="M694 0h-571q-41 0 -41 41v86q0 39 41 39h539q90 0 117.5 29t27.5 118v95q0 162 -72.5 228t-257.5 66q-81 0 -192 -12q-16 -2 -29 -2q-41 0 -41 35v76q0 30 31 39q108 30 239 30q117 0 202.5 -22t149.5 -72t96 -136.5t32 -211.5v-190q0 -236 -271 -236zM479 1094
q-42 0 -71 26t-29 68q0 41 29 67.5t71 26.5t71.5 -26.5t29.5 -67.5q0 -42 -29.5 -68t-71.5 -26z" />
    <glyph glyph-name="uniFEAC" unicode="&#x630;" horiz-adv-x="1187" arabic-form="final" 
d="M1188 0h-1065q-41 0 -41 41v86q0 39 41 39h684v242q0 162 -72.5 228t-257.5 66q-81 0 -192 -12q-16 -2 -29 -2q-41 0 -41 35v76q0 30 31 39q108 30 239 30q117 0 202.5 -22t149.5 -72t96 -136.5t32 -211.5v-260h223v-166zM514 1094q-42 0 -71 26t-29 68q0 41 29 67.5
t71 26.5t71 -26.5t29 -67.5q0 -42 -29 -68t-71 -26z" />
    <glyph glyph-name="uniFEAD" unicode="&#x631;" horiz-adv-x="643" arabic-form="isolated" 
d="M334 248v543q0 21 9 30.5t30 9.5h78q41 0 41 -40v-572q0 -180 -36.5 -296t-118 -199.5t-233.5 -167.5q-34 -18 -49 16l-37 70q-7 18 -1.5 27.5t26.5 21.5q115 67 173.5 129t88 162.5t29.5 265.5z" />
    <glyph glyph-name="uniFEAE" unicode="&#x631;" horiz-adv-x="679" arabic-form="final" 
d="M680 166v-166h-207q-27 -150 -111.5 -249t-257.5 -195q-34 -18 -49 16l-37 70q-7 18 -1.5 27.5t26.5 21.5q115 67 173.5 129t88 162.5t29.5 265.5v543q0 21 9 30.5t30 9.5h78q41 0 41 -40v-625h188z" />
    <glyph glyph-name="uniFEAF" unicode="&#x632;" horiz-adv-x="643" arabic-form="isolated" 
d="M334 248v543q0 21 9 30.5t30 9.5h78q41 0 41 -40v-572q0 -180 -36.5 -296t-118 -199.5t-233.5 -167.5q-34 -18 -49 16l-37 70q-7 18 -1.5 27.5t26.5 21.5q115 67 173.5 129t88 162.5t29.5 265.5zM414 1077q-42 0 -71.5 26t-29.5 68q0 41 29.5 68t71.5 27t71 -27t29 -68
q0 -42 -29 -68t-71 -26z" />
    <glyph glyph-name="uniFEB0" unicode="&#x632;" horiz-adv-x="679" arabic-form="final" 
d="M680 166v-166h-207q-27 -150 -111.5 -249t-257.5 -195q-34 -18 -49 16l-37 70q-7 18 -1.5 27.5t26.5 21.5q115 67 173.5 129t88 162.5t29.5 265.5v543q0 21 9 30.5t30 9.5h78q41 0 41 -40v-625h188zM414 1077q-42 0 -71.5 26t-29.5 68q0 41 29.5 68t71.5 27t71 -27
t29 -68q0 -42 -29 -68t-71 -26z" />
    <glyph glyph-name="uniFEB1" unicode="&#x633;" horiz-adv-x="2406" arabic-form="isolated" 
d="M2263 791v-510q0 -116 -77 -198.5t-224 -82.5q-177 0 -272 131q-74 -131 -256 -131q-145 0 -236 88v-12q0 -262 -142.5 -394.5t-408.5 -132.5q-262 0 -403.5 133t-141.5 381q0 174 74 322q11 23 21 29t32 -2l72 -29q20 -8 24 -18t-6 -35q-55 -129 -55 -269
q0 -166 96.5 -256t288.5 -90q199 0 295 91t96 282v518q0 41 39 41h78q41 0 41 -41v-358q88 -82 203 -82q81 0 124.5 41t43.5 135v264q0 41 39 41h78q40 0 40 -41v-325q0 -23 -2 -33q91 -82 205 -82q176 0 176 176v449q0 21 9.5 30.5t29.5 9.5h78q41 0 41 -40z" />
    <glyph glyph-name="uniFEB2" unicode="&#x633;" horiz-adv-x="2482" arabic-form="final" 
d="M1731 606v-325q0 -23 -2 -33q91 -82 200 -82q172 0 172 176v449q0 21 9.5 30.5t29.5 9.5h78q41 0 41 -40v-510q0 -23 -2 -33q76 -82 205 -82h20v-166h-20q-164 0 -244 129q-73 -129 -256 -129q-175 0 -270 131q-74 -131 -258 -131q-145 0 -236 88v-12
q0 -262 -142.5 -394.5t-408.5 -132.5q-262 0 -403.5 133t-141.5 381q0 174 74 322q11 23 21 29t32 -2l72 -29q20 -8 24 -18t-6 -35q-55 -129 -55 -269q0 -166 96.5 -256t288.5 -90q199 0 295 91t96 282v518q0 41 39 41h78q41 0 41 -41v-358q88 -82 203 -82q172 0 172 176
v264q0 41 39 41h78q41 0 41 -41z" />
    <glyph glyph-name="uniFEB3" unicode="&#x633;" horiz-adv-x="1736" arabic-form="initial" 
d="M-20 166h217q178 0 178 176v264q0 41 39 41h78q40 0 40 -41v-325q0 -5 -1 -15.5t-1 -15.5q93 -84 205 -84q178 0 178 176v264q0 41 39 41h78q41 0 41 -41v-325q0 -5 -1 -16.5t-1 -16.5q85 -82 195 -82q172 0 172 176v449q0 21 9 30.5t30 9.5h77q41 0 41 -40v-510
q0 -55 -17.5 -104t-52 -89t-93.5 -64t-134 -24q-173 0 -264 133q-35 -61 -102 -97t-162 -36q-180 0 -274 133q-77 -133 -265 -133h-249q-28 0 -45 16.5t-17 65.5q0 50 16.5 67t45.5 17z" />
    <glyph glyph-name="uniFEB4" unicode="&#x633;" horiz-adv-x="1796" arabic-form="medial" 
d="M-20 166h196q178 0 178 176v264q0 41 39 41h78q41 0 41 -41v-325q0 -5 -1 -15.5t-1 -15.5q93 -84 205 -84q172 0 172 176v264q0 41 39 41h78q40 0 40 -41v-325q0 -23 -2 -33q91 -82 201 -82q172 0 172 176v449q0 21 9.5 30.5t29.5 9.5h78q41 0 41 -40v-510q0 -23 -2 -33
q76 -82 205 -82h20v-166h-20q-164 0 -244 129q-73 -129 -256 -129q-175 0 -270 131q-74 -131 -258 -131q-181 0 -275 133q-77 -133 -264 -133h-229q-28 0 -45 16.5t-17 65.5q0 50 16.5 67t45.5 17z" />
    <glyph glyph-name="uniFEB5" unicode="&#x634;" horiz-adv-x="2406" arabic-form="isolated" 
d="M2263 791v-510q0 -116 -77 -198.5t-224 -82.5q-177 0 -272 131q-74 -131 -256 -131q-145 0 -236 88v-12q0 -262 -142.5 -394.5t-408.5 -132.5q-262 0 -403.5 133t-141.5 381q0 174 74 322q11 23 21 29t32 -2l72 -29q20 -8 24 -18t-6 -35q-55 -129 -55 -269
q0 -166 96.5 -256t288.5 -90q199 0 295 91t96 282v518q0 41 39 41h78q41 0 41 -41v-358q88 -82 203 -82q81 0 124.5 41t43.5 135v264q0 41 39 41h78q40 0 40 -41v-325q0 -23 -2 -33q91 -82 205 -82q176 0 176 176v449q0 21 9.5 30.5t29.5 9.5h78q41 0 41 -40zM1786 1077
q-42 0 -71 26t-29 68q0 41 29 68t71 27t71 -27t29 -68q0 -42 -29 -68t-71 -26zM1520 1077q-42 0 -71.5 26t-29.5 68q0 41 29.5 68t71.5 27t71 -27t29 -68q0 -42 -29 -68t-71 -26zM1653 1311q-42 0 -71.5 26t-29.5 68q0 41 29.5 67.5t71.5 26.5t71 -26.5t29 -67.5
q0 -42 -29 -68t-71 -26z" />
    <glyph glyph-name="uniFEB6" unicode="&#x634;" horiz-adv-x="2482" arabic-form="final" 
d="M1731 606v-325q0 -23 -2 -33q91 -82 200 -82q172 0 172 176v449q0 21 9.5 30.5t29.5 9.5h78q41 0 41 -40v-510q0 -23 -2 -33q76 -82 205 -82h20v-166h-20q-164 0 -244 129q-73 -129 -256 -129q-175 0 -270 131q-74 -131 -258 -131q-145 0 -236 88v-12
q0 -262 -142.5 -394.5t-408.5 -132.5q-262 0 -403.5 133t-141.5 381q0 174 74 322q11 23 21 29t32 -2l72 -29q20 -8 24 -18t-6 -35q-55 -129 -55 -269q0 -166 96.5 -256t288.5 -90q199 0 295 91t96 282v518q0 41 39 41h78q41 0 41 -41v-358q88 -82 203 -82q172 0 172 176
v264q0 41 39 41h78q41 0 41 -41zM1790 1077q-42 0 -71 26t-29 68q0 41 29 68t71 27t71 -27t29 -68q0 -42 -29 -68t-71 -26zM1524 1077q-42 0 -71.5 26t-29.5 68q0 41 29.5 68t71.5 27t71 -27t29 -68q0 -42 -29 -68t-71 -26zM1657 1311q-42 0 -71.5 26t-29.5 68
q0 41 29.5 67.5t71.5 26.5t71 -26.5t29 -67.5q0 -42 -29 -68t-71 -26z" />
    <glyph glyph-name="uniFEB7" unicode="&#x634;" horiz-adv-x="1736" arabic-form="initial" 
d="M-20 166h217q178 0 178 176v264q0 41 39 41h78q40 0 40 -41v-325q0 -5 -1 -15.5t-1 -15.5q93 -84 205 -84q178 0 178 176v264q0 41 39 41h78q41 0 41 -41v-325q0 -5 -1 -16.5t-1 -16.5q85 -82 195 -82q172 0 172 176v449q0 21 9 30.5t30 9.5h77q41 0 41 -40v-510
q0 -55 -17.5 -104t-52 -89t-93.5 -64t-134 -24q-173 0 -264 133q-35 -61 -102 -97t-162 -36q-180 0 -274 133q-77 -133 -265 -133h-249q-28 0 -45 16.5t-17 65.5q0 50 16.5 67t45.5 17zM1135 1077q-42 0 -71.5 26t-29.5 68q0 41 29.5 68t71.5 27t71 -27t29 -68
q0 -42 -29 -68t-71 -26zM868 1077q-42 0 -71 26t-29 68q0 41 29 68t71 27t71.5 -27t29.5 -68q0 -42 -29.5 -68t-71.5 -26zM1001 1311q-42 0 -71 26t-29 68q0 41 29 67.5t71 26.5t71.5 -26.5t29.5 -67.5q0 -42 -29.5 -68t-71.5 -26z" />
    <glyph glyph-name="uniFEB8" unicode="&#x634;" horiz-adv-x="1796" arabic-form="medial" 
d="M-20 166h196q178 0 178 176v264q0 41 39 41h78q41 0 41 -41v-325q0 -5 -1 -15.5t-1 -15.5q93 -84 205 -84q172 0 172 176v264q0 41 39 41h78q40 0 40 -41v-325q0 -23 -2 -33q91 -82 201 -82q172 0 172 176v449q0 21 9.5 30.5t29.5 9.5h78q41 0 41 -40v-510q0 -23 -2 -33
q76 -82 205 -82h20v-166h-20q-164 0 -244 129q-73 -129 -256 -129q-175 0 -270 131q-74 -131 -258 -131q-181 0 -275 133q-77 -133 -264 -133h-229q-28 0 -45 16.5t-17 65.5q0 50 16.5 67t45.5 17zM1108 1077q-42 0 -71 26t-29 68q0 41 29 68t71 27t71 -27t29 -68
q0 -42 -29 -68t-71 -26zM842 1077q-42 0 -71.5 26t-29.5 68q0 41 29.5 68t71.5 27t71 -27t29 -68q0 -42 -29 -68t-71 -26zM975 1311q-42 0 -71.5 26t-29.5 68q0 41 29.5 67.5t71.5 26.5t71 -26.5t29 -67.5q0 -42 -29 -68t-71 -26z" />
    <glyph glyph-name="uniFEB9" unicode="&#x635;" horiz-adv-x="2336" arabic-form="isolated" 
d="M1804 0h-610q-20 -225 -160.5 -338t-386.5 -113q-262 0 -403.5 133t-141.5 381q0 174 74 322q11 23 21 29t32 -2l72 -29q20 -8 24 -18t-6 -35q-55 -129 -55 -269q0 -166 96.5 -256t288.5 -90q199 0 295 91t96 282v703q0 21 9 30.5t30 9.5h78q41 0 41 -40v-347
q54 88 116 160.5t137 133.5t164 95.5t181 34.5q196 0 311 -139t115 -381q0 -186 -99.5 -267t-318.5 -81zM1792 702q-308 0 -598 -536h657q117 0 163 50.5t46 162.5q0 147 -69.5 235t-198.5 88z" />
    <glyph glyph-name="uniFEBA" unicode="&#x635;" horiz-adv-x="2385" arabic-form="final" 
d="M1198 791v-347q54 88 116 160.5t137 133.5t164 95.5t181 34.5q196 0 311 -139t115 -381v-182h164v-166h-1192q-20 -225 -160.5 -338t-386.5 -113q-262 0 -403.5 133t-141.5 381q0 174 74 322q11 23 21 29t32 -2l72 -29q20 -8 24 -18t-6 -35q-55 -129 -55 -269
q0 -166 96.5 -256t288.5 -90q199 0 295 91t96 282v703q0 21 9 30.5t30 9.5h78q41 0 41 -40zM2064 166v160q0 376 -272 376q-308 0 -598 -536h870z" />
    <glyph glyph-name="uniFEBB" unicode="&#x635;" horiz-adv-x="1476" arabic-form="initial" 
d="M-20 166h200v625q0 21 9 30.5t30 9.5h78q41 0 41 -40v-347q54 88 116 160.5t137 133.5t164 95.5t181 34.5q196 0 311 -139t115 -381q0 -186 -99.5 -267t-318.5 -81h-964q-28 0 -45 16.5t-17 65.5q0 50 16.5 67t45.5 17zM932 702q-308 0 -598 -536h657q117 0 163 50.5
t46 162.5q0 147 -69.5 235t-198.5 88z" />
    <glyph glyph-name="uniFEBC" unicode="&#x635;" horiz-adv-x="1525" arabic-form="medial" 
d="M-20 166h200v625q0 21 9 30.5t30 9.5h78q41 0 41 -40v-347q54 88 116 160.5t137 133.5t164 95.5t181 34.5q196 0 311 -139t115 -381v-182h164v-166h-1546q-28 0 -45 16.5t-17 65.5q0 50 16.5 67t45.5 17zM1204 166v160q0 376 -272 376q-308 0 -598 -536h870z" />
    <glyph glyph-name="uniFEBD" unicode="&#x636;" horiz-adv-x="2336" arabic-form="isolated" 
d="M1804 0h-610q-20 -225 -160.5 -338t-386.5 -113q-262 0 -403.5 133t-141.5 381q0 174 74 322q11 23 21 29t32 -2l72 -29q20 -8 24 -18t-6 -35q-55 -129 -55 -269q0 -166 96.5 -256t288.5 -90q199 0 295 91t96 282v703q0 21 9 30.5t30 9.5h78q41 0 41 -40v-347
q54 88 116 160.5t137 133.5t164 95.5t181 34.5q196 0 311 -139t115 -381q0 -186 -99.5 -267t-318.5 -81zM1792 702q-308 0 -598 -536h657q117 0 163 50.5t46 162.5q0 147 -69.5 235t-198.5 88zM1743 1094q-42 0 -71.5 26t-29.5 68q0 41 29.5 67.5t71.5 26.5t71 -26.5
t29 -67.5q0 -42 -29 -68t-71 -26z" />
    <glyph glyph-name="uniFEBE" unicode="&#x636;" horiz-adv-x="2385" arabic-form="final" 
d="M1198 791v-347q54 88 116 160.5t137 133.5t164 95.5t181 34.5q196 0 311 -139t115 -381v-182h164v-166h-1192q-20 -225 -160.5 -338t-386.5 -113q-262 0 -403.5 133t-141.5 381q0 174 74 322q11 23 21 29t32 -2l72 -29q20 -8 24 -18t-6 -35q-55 -129 -55 -269
q0 -166 96.5 -256t288.5 -90q199 0 295 91t96 282v703q0 21 9 30.5t30 9.5h78q41 0 41 -40zM2064 166v160q0 376 -272 376q-308 0 -598 -536h870zM1759 1094q-42 0 -71 26t-29 68q0 41 29 67.5t71 26.5t71.5 -26.5t29.5 -67.5q0 -42 -29.5 -68t-71.5 -26z" />
    <glyph glyph-name="uniFEBF" unicode="&#x636;" horiz-adv-x="1476" arabic-form="initial" 
d="M-20 166h200v625q0 21 9 30.5t30 9.5h78q41 0 41 -40v-347q54 88 116 160.5t137 133.5t164 95.5t181 34.5q196 0 311 -139t115 -381q0 -186 -99.5 -267t-318.5 -81h-964q-28 0 -45 16.5t-17 65.5q0 50 16.5 67t45.5 17zM932 702q-308 0 -598 -536h657q117 0 163 50.5
t46 162.5q0 147 -69.5 235t-198.5 88zM911 1094q-42 0 -71 26t-29 68q0 41 29 67.5t71 26.5t71.5 -26.5t29.5 -67.5q0 -42 -29.5 -68t-71.5 -26z" />
    <glyph glyph-name="uniFEC0" unicode="&#x636;" horiz-adv-x="1525" arabic-form="medial" 
d="M-20 166h200v625q0 21 9 30.5t30 9.5h78q41 0 41 -40v-347q54 88 116 160.5t137 133.5t164 95.5t181 34.5q196 0 311 -139t115 -381v-182h164v-166h-1546q-28 0 -45 16.5t-17 65.5q0 50 16.5 67t45.5 17zM1204 166v160q0 376 -272 376q-308 0 -598 -536h870zM891 1094
q-42 0 -71 26t-29 68q0 41 29 67.5t71 26.5t71 -26.5t29 -67.5q0 -42 -29 -68t-71 -26z" />
    <glyph glyph-name="uniFEC1" unicode="&#x637;" horiz-adv-x="1636" arabic-form="isolated" 
d="M1104 0h-981q-41 0 -41 41v86q0 39 41 39h217v1233q0 21 6 30.5t23 12.5l90 14q39 6 39 -35v-977q54 88 116 160.5t137 133.5t164 95.5t181 34.5q196 0 311 -139t115 -381q0 -186 -99.5 -267t-318.5 -81zM1092 702q-308 0 -598 -536h657q117 0 163 50.5t46 162.5
q0 147 -69.5 235t-198.5 88z" />
    <glyph glyph-name="uniFEC2" unicode="&#x637;" horiz-adv-x="1685" arabic-form="final" 
d="M1522 348v-182h164v-166h-1563q-41 0 -41 41v86q0 39 41 39h217v1233q0 21 6 30.5t23 12.5l90 14q39 6 39 -35v-977q54 88 116 160.5t137 133.5t164 95.5t181 34.5q196 0 311 -139t115 -381zM1364 166v160q0 376 -272 376q-308 0 -598 -536h870z" />
    <glyph glyph-name="uniFEC3" unicode="&#x637;" horiz-adv-x="1476" arabic-form="initial" 
d="M-20 166h200v1233q0 21 6 30.5t23 12.5l90 14q39 6 39 -35v-977q54 88 116 160.5t137 133.5t164 95.5t181 34.5q196 0 311 -139t115 -381q0 -186 -99.5 -267t-318.5 -81h-964q-28 0 -45 16.5t-17 65.5q0 50 16.5 67t45.5 17zM932 702q-308 0 -598 -536h657
q117 0 163 50.5t46 162.5q0 147 -69.5 235t-198.5 88z" />
    <glyph glyph-name="uniFEC4" unicode="&#x637;" horiz-adv-x="1525" arabic-form="medial" 
d="M-20 166h200v1233q0 21 6 30.5t23 12.5l90 14q39 6 39 -35v-977q54 88 116 160.5t137 133.5t164 95.5t181 34.5q196 0 311 -139t115 -381v-182h164v-166h-1546q-28 0 -45 16.5t-17 65.5q0 50 16.5 67t45.5 17zM1204 166v160q0 376 -272 376q-308 0 -598 -536h870z" />
    <glyph glyph-name="uniFEC5" unicode="&#x638;" horiz-adv-x="1636" arabic-form="isolated" 
d="M1104 0h-981q-41 0 -41 41v86q0 39 41 39h217v1233q0 21 6 30.5t23 12.5l90 14q39 6 39 -35v-977q54 88 116 160.5t137 133.5t164 95.5t181 34.5q196 0 311 -139t115 -381q0 -186 -99.5 -267t-318.5 -81zM1092 702q-308 0 -598 -536h657q117 0 163 50.5t46 162.5
q0 147 -69.5 235t-198.5 88zM1065 1094q-42 0 -71 26t-29 68q0 41 29 67.5t71 26.5t71 -26.5t29 -67.5q0 -42 -29 -68t-71 -26z" />
    <glyph glyph-name="uniFEC6" unicode="&#x638;" horiz-adv-x="1685" arabic-form="final" 
d="M1522 348v-182h164v-166h-1563q-41 0 -41 41v86q0 39 41 39h217v1233q0 21 6 30.5t23 12.5l90 14q39 6 39 -35v-977q54 88 116 160.5t137 133.5t164 95.5t181 34.5q196 0 311 -139t115 -381zM1364 166v160q0 376 -272 376q-308 0 -598 -536h870zM1065 1094q-42 0 -71 26
t-29 68q0 41 29 67.5t71 26.5t71 -26.5t29 -67.5q0 -42 -29 -68t-71 -26z" />
    <glyph glyph-name="uniFEC7" unicode="&#x638;" horiz-adv-x="1476" arabic-form="initial" 
d="M-20 166h200v1233q0 21 6 30.5t23 12.5l90 14q39 6 39 -35v-977q54 88 116 160.5t137 133.5t164 95.5t181 34.5q196 0 311 -139t115 -381q0 -186 -99.5 -267t-318.5 -81h-964q-28 0 -45 16.5t-17 65.5q0 50 16.5 67t45.5 17zM932 702q-308 0 -598 -536h657
q117 0 163 50.5t46 162.5q0 147 -69.5 235t-198.5 88zM905 1094q-42 0 -71 26t-29 68q0 41 29 67.5t71 26.5t71.5 -26.5t29.5 -67.5q0 -42 -29.5 -68t-71.5 -26z" />
    <glyph glyph-name="uniFEC8" unicode="&#x638;" horiz-adv-x="1525" arabic-form="medial" 
d="M-20 166h200v1233q0 21 6 30.5t23 12.5l90 14q39 6 39 -35v-977q54 88 116 160.5t137 133.5t164 95.5t181 34.5q196 0 311 -139t115 -381v-182h164v-166h-1546q-28 0 -45 16.5t-17 65.5q0 50 16.5 67t45.5 17zM1204 166v160q0 376 -272 376q-308 0 -598 -536h870z
M905 1094q-42 0 -71 26t-29 68q0 41 29 67.5t71 26.5t71.5 -26.5t29.5 -67.5q0 -42 -29.5 -68t-71.5 -26z" />
    <glyph glyph-name="uniFEC9" unicode="&#x639;" horiz-adv-x="1112" arabic-form="isolated" 
d="M541 166h448q41 0 41 -39v-86q0 -41 -41 -41h-403q-176 0 -259 -46t-83 -161q0 -59 27.5 -102.5t77.5 -69t113.5 -37.5t143.5 -12q158 0 322 49q27 6 34.5 2.5t14.5 -20.5l29 -76q7 -24 0.5 -35t-29.5 -20q-63 -29 -168 -47.5t-213 -18.5q-244 0 -379 98t-135 289
q0 146 73 233t224 119q-79 81 -118.5 174.5t-39.5 180.5q0 91 31.5 162.5t86 115.5t122.5 67t145 23q158 0 285 -80q26 -17 16 -40l-37 -80q-7 -18 -17.5 -21t-29.5 6q-110 49 -207 49q-118 0 -175.5 -60.5t-57.5 -156.5q0 -73 38.5 -156t119.5 -163z" />
    <glyph glyph-name="uniFECA" unicode="&#x639;" horiz-adv-x="1128" arabic-form="final" 
d="M186 623q-26 10 -18 45l22 112q6 28 33 33q257 59 426 59q367 0 367 -233q0 -102 -63 -193t-222 -206q57 -40 140 -57t216 -17h41v-166h-41q-170 0 -287 37t-202 113q-205 -136 -279.5 -214.5t-74.5 -166.5q0 -93 90 -144t231 -53q169 0 334 49q27 6 34.5 2.5t14.5 -20.5
l29 -76q7 -24 0.5 -35t-29.5 -20q-69 -31 -166 -48.5t-194 -17.5q-103 0 -190 19t-160 60t-114.5 113.5t-41.5 170.5q0 71 27.5 134.5t86 125t127.5 115.5t175 124q-11 14 -27 41q-105 174 -152.5 227.5t-132.5 86.5zM854 600q0 107 -197 107q-139 0 -282 -31
q59 -39 106 -98.5t117 -176.5q2 -3 12.5 -21t16.5 -26q126 88 176.5 143t50.5 103z" />
    <glyph glyph-name="uniFECB" unicode="&#x639;" horiz-adv-x="1036" arabic-form="initial" 
d="M-20 166h323q-137 156 -137 334q0 91 31.5 162.5t86 115.5t122.5 67t145 23q158 0 285 -80q26 -17 16 -40l-37 -80q-7 -18 -17.5 -21t-29.5 6q-110 49 -207 49q-118 0 -175.5 -60.5t-57.5 -156.5q0 -74 38 -156.5t119 -162.5h449q41 0 41 -39v-86q0 -41 -41 -41h-954
q-28 0 -45 16.5t-17 65.5q0 50 16.5 67t45.5 17z" />
    <glyph glyph-name="uniFECC" unicode="&#x639;" horiz-adv-x="1138" arabic-form="medial" 
d="M-20 166h40q269 0 490 98q-22 30 -29 45q-106 175 -153 228t-131 86q-27 11 -19 45l23 112q6 28 32 33q257 59 426 59q367 0 367 -233q0 -97 -71 -207t-195 -203q104 -63 338 -63h41v-166h-41q-167 0 -283 34t-199 105q-268 -139 -581 -139h-55q-28 0 -45 16.5t-17 65.5
q0 50 16.5 67t45.5 17zM864 600q0 107 -196 107q-140 0 -283 -31q59 -39 106 -98.5t117 -176.5q20 -39 39 -63q101 66 159 137.5t58 124.5z" />
    <glyph glyph-name="uniFECD" unicode="&#x63a;" horiz-adv-x="1112" arabic-form="isolated" 
d="M541 166h448q41 0 41 -39v-86q0 -41 -41 -41h-403q-176 0 -259 -46t-83 -161q0 -59 27.5 -102.5t77.5 -69t113.5 -37.5t143.5 -12q158 0 322 49q27 6 34.5 2.5t14.5 -20.5l29 -76q7 -24 0.5 -35t-29.5 -20q-63 -29 -168 -47.5t-213 -18.5q-244 0 -379 98t-135 289
q0 146 73 233t224 119q-79 81 -118.5 174.5t-39.5 180.5q0 91 31.5 162.5t86 115.5t122.5 67t145 23q158 0 285 -80q26 -17 16 -40l-37 -80q-7 -18 -17.5 -21t-29.5 6q-110 49 -207 49q-118 0 -175.5 -60.5t-57.5 -156.5q0 -73 38.5 -156t119.5 -163zM582 1094
q-42 0 -71.5 26t-29.5 68q0 41 29.5 67.5t71.5 26.5t71 -26.5t29 -67.5q0 -42 -29 -68t-71 -26z" />
    <glyph glyph-name="uniFECE" unicode="&#x63a;" horiz-adv-x="1128" arabic-form="final" 
d="M186 623q-26 10 -18 45l22 112q6 28 33 33q257 59 426 59q367 0 367 -233q0 -102 -63 -193t-222 -206q57 -40 140 -57t216 -17h41v-166h-41q-170 0 -287 37t-202 113q-205 -136 -279.5 -214.5t-74.5 -166.5q0 -93 90 -144t231 -53q169 0 334 49q27 6 34.5 2.5t14.5 -20.5
l29 -76q7 -24 0.5 -35t-29.5 -20q-69 -31 -166 -48.5t-194 -17.5q-103 0 -190 19t-160 60t-114.5 113.5t-41.5 170.5q0 71 27.5 134.5t86 125t127.5 115.5t175 124q-11 14 -27 41q-105 174 -152.5 227.5t-132.5 86.5zM854 600q0 107 -197 107q-139 0 -282 -31
q59 -39 106 -98.5t117 -176.5q2 -3 12.5 -21t16.5 -26q126 88 176.5 143t50.5 103zM600 1094q-42 0 -71 26t-29 68q0 41 29 67.5t71 26.5t71 -26.5t29 -67.5q0 -42 -29 -68t-71 -26z" />
    <glyph glyph-name="uniFECF" unicode="&#x63a;" horiz-adv-x="1036" arabic-form="initial" 
d="M-20 166h323q-137 156 -137 334q0 91 31.5 162.5t86 115.5t122.5 67t145 23q158 0 285 -80q26 -17 16 -40l-37 -80q-7 -18 -17.5 -21t-29.5 6q-110 49 -207 49q-118 0 -175.5 -60.5t-57.5 -156.5q0 -74 38 -156.5t119 -162.5h449q41 0 41 -39v-86q0 -41 -41 -41h-954
q-28 0 -45 16.5t-17 65.5q0 50 16.5 67t45.5 17zM543 1094q-42 0 -71.5 26t-29.5 68q0 41 29.5 67.5t71.5 26.5t71 -26.5t29 -67.5q0 -42 -29 -68t-71 -26z" />
    <glyph glyph-name="uniFED0" unicode="&#x63a;" horiz-adv-x="1138" arabic-form="medial" 
d="M-20 166h40q269 0 490 98q-22 30 -29 45q-106 175 -153 228t-131 86q-27 11 -19 45l23 112q6 28 32 33q257 59 426 59q367 0 367 -233q0 -97 -71 -207t-195 -203q104 -63 338 -63h41v-166h-41q-167 0 -283 34t-199 105q-268 -139 -581 -139h-55q-28 0 -45 16.5t-17 65.5
q0 50 16.5 67t45.5 17zM864 600q0 107 -196 107q-140 0 -283 -31q59 -39 106 -98.5t117 -176.5q20 -39 39 -63q101 66 159 137.5t58 124.5zM618 1094q-42 0 -71 26t-29 68q0 41 29 67.5t71 26.5t71.5 -26.5t29.5 -67.5q0 -42 -29.5 -68t-71.5 -26z" />
    <glyph glyph-name="uniFED1" unicode="&#x641;" horiz-adv-x="2043" arabic-form="isolated" 
d="M1180 438q0 186 101.5 289.5t272.5 103.5q175 0 275 -106.5t100 -302.5q0 -209 -109 -315.5t-309 -106.5h-933q-231 0 -353.5 112t-122.5 312v235q0 41 41 41h78q39 0 39 -41v-133q0 -200 78 -280t287 -80h639q-40 54 -62 126t-22 146zM1341 416q0 -149 84 -250h111
q106 0 168.5 61t62.5 189q0 51 -10 93.5t-33 80.5t-66.5 59t-103.5 21t-103.5 -21t-66.5 -59t-33 -80.5t-10 -93.5zM1552 1057q-42 0 -71 26t-29 68q0 41 29 67.5t71 26.5t71.5 -26.5t29.5 -67.5q0 -42 -29.5 -68t-71.5 -26z" />
    <glyph glyph-name="uniFED2" unicode="&#x641;" horiz-adv-x="2041" arabic-form="final" 
d="M1767 530q0 77 -61.5 128t-169.5 51t-169.5 -51t-61.5 -128q0 -71 56.5 -154t174.5 -138q118 55 174.5 138t56.5 154zM1929 541q0 -93 -53.5 -189t-149.5 -172q80 -14 195 -14h121v-166h-121q-207 0 -385 72q-178 -72 -385 -72h-573q-231 0 -353.5 112t-122.5 312v235
q0 41 41 41h78q39 0 39 -41v-133q0 -200 78 -280t287 -80h526q115 0 195 14q-96 76 -149.5 172t-53.5 189q0 139 106 235t287 96t287 -96t106 -235zM1536 1094q-42 0 -71 26t-29 68q0 41 29 67.5t71 26.5t71 -26.5t29 -67.5q0 -42 -29 -68t-71 -26z" />
    <glyph glyph-name="uniFED3" unicode="&#x641;" horiz-adv-x="1017" arabic-form="initial" 
d="M-20 166h258q-40 54 -62 126t-22 146q0 186 101.5 289.5t272.5 103.5q175 0 275 -106.5t100 -302.5q0 -209 -109 -315.5t-309 -106.5h-505q-28 0 -45 16.5t-17 65.5q0 50 16.5 67t45.5 17zM315 416q0 -149 84 -250h111q106 0 168.5 61t62.5 189q0 51 -10 93.5t-33 80.5
t-66.5 59t-103.5 21t-103.5 -21t-66.5 -59t-33 -80.5t-10 -93.5zM526 1057q-42 0 -71 26t-29 68q0 41 29 67.5t71 26.5t71.5 -26.5t29.5 -67.5q0 -42 -29.5 -68t-71.5 -26z" />
    <glyph glyph-name="uniFED4" unicode="&#x641;" horiz-adv-x="1013" arabic-form="medial" 
d="M-20 166h143q114 0 194 14q-96 76 -149 172t-53 189q0 139 106 235t287 96t287 -96t106 -235q0 -93 -53.5 -189t-149.5 -172q80 -14 195 -14h121v-166h-121q-207 0 -385 72q-178 -72 -385 -72h-143q-28 0 -45 16.5t-17 65.5q0 50 16.5 67t45.5 17zM739 530
q0 77 -61.5 128t-169.5 51q-109 0 -170.5 -51t-61.5 -128q0 -71 57 -154t175 -138q118 55 174.5 138t56.5 154zM508 1094q-42 0 -71 26t-29 68q0 41 29 67.5t71 26.5t71 -26.5t29 -67.5q0 -42 -29 -68t-71 -26z" />
    <glyph glyph-name="uniFED5" unicode="&#x642;" horiz-adv-x="1675" arabic-form="isolated" 
d="M336 371q-72 -144 -72 -291q0 -365 533 -365q290 0 429.5 95t139.5 253v5q-98 -68 -225 -68q-165 0 -264 113t-99 309q0 187 101.5 298t275.5 111q171 0 270 -98t99 -291v-364q0 -263 -189 -396t-536 -133q-113 0 -211 15.5t-189 53t-155.5 95.5t-103 148t-38.5 205
q0 178 93 362q11 24 22 30t35 -3l65 -31q20 -9 24.5 -20t-5.5 -33zM940 424q0 -131 55 -194.5t170 -63.5q110 0 201 65v211q0 106 -50 165t-155 59q-107 0 -164 -65.5t-57 -176.5zM1309 1057q-42 0 -71.5 26t-29.5 68q0 41 29.5 67.5t71.5 26.5t71 -26.5t29 -67.5
q0 -42 -29 -68t-71 -26zM1042 1057q-42 0 -71 26t-29 68q0 41 29 67.5t71 26.5t71.5 -26.5t29.5 -67.5q0 -42 -29.5 -68t-71.5 -26z" />
    <glyph glyph-name="uniFED6" unicode="&#x642;" horiz-adv-x="1726" arabic-form="final" 
d="M797 -285q258 0 397.5 77t165.5 208h-195q-187 0 -287 104.5t-100 317.5q0 187 101.5 298t275.5 111q171 0 270 -98t99 -291v-276h202v-166h-206q-29 -224 -215 -337.5t-506 -113.5q-113 0 -211 15.5t-189 53t-155.5 95.5t-103 148t-38.5 205q0 178 93 362q11 24 22 30
t35 -3l65 -31q20 -9 24.5 -20t-5.5 -33q-72 -144 -72 -291q0 -365 533 -365zM1204 166h162v276q0 106 -50 165t-155 59q-107 0 -164 -65.5t-57 -176.5q0 -150 60 -204t204 -54zM1309 1057q-42 0 -71.5 26t-29.5 68q0 41 29.5 67.5t71.5 26.5t71 -26.5t29 -67.5
q0 -42 -29 -68t-71 -26zM1042 1057q-42 0 -71 26t-29 68q0 41 29 67.5t71 26.5t71.5 -26.5t29.5 -67.5q0 -42 -29.5 -68t-71.5 -26z" />
    <glyph glyph-name="uniFED7" unicode="&#x642;" horiz-adv-x="1017" arabic-form="initial" 
d="M-20 166h258q-40 54 -62 126t-22 146q0 186 101.5 289.5t272.5 103.5q175 0 275 -106.5t100 -302.5q0 -209 -109 -315.5t-309 -106.5h-505q-28 0 -45 16.5t-17 65.5q0 50 16.5 67t45.5 17zM315 416q0 -149 84 -250h111q106 0 168.5 61t62.5 189q0 51 -10 93.5t-33 80.5
t-66.5 59t-103.5 21t-103.5 -21t-66.5 -59t-33 -80.5t-10 -93.5zM659 1057q-42 0 -71 26t-29 68q0 41 29 67.5t71 26.5t71.5 -26.5t29.5 -67.5q0 -42 -29.5 -68t-71.5 -26zM393 1057q-42 0 -71 26t-29 68q0 41 29 67.5t71 26.5t71.5 -26.5t29.5 -67.5q0 -42 -29.5 -68
t-71.5 -26z" />
    <glyph glyph-name="uniFED8" unicode="&#x642;" horiz-adv-x="1013" arabic-form="medial" 
d="M-20 166h143q114 0 194 14q-96 76 -149 172t-53 189q0 139 106 235t287 96t287 -96t106 -235q0 -93 -53.5 -189t-149.5 -172q80 -14 195 -14h121v-166h-121q-207 0 -385 72q-178 -72 -385 -72h-143q-28 0 -45 16.5t-17 65.5q0 50 16.5 67t45.5 17zM739 530
q0 77 -61.5 128t-169.5 51q-109 0 -170.5 -51t-61.5 -128q0 -71 57 -154t175 -138q118 55 174.5 138t56.5 154zM639 1094q-42 0 -71 26t-29 68q0 41 29 67.5t71 26.5t71 -26.5t29 -67.5q0 -42 -29 -68t-71 -26zM373 1094q-42 0 -71.5 26t-29.5 68q0 41 29.5 67.5t71.5 26.5
t71 -26.5t29 -67.5q0 -42 -29 -68t-71 -26z" />
    <glyph glyph-name="uniFED9" unicode="&#x643;" horiz-adv-x="1835" arabic-form="isolated" 
d="M625 166h764q85 0 111 29t26 118v1086q0 21 5.5 30.5t22.5 12.5l91 14q38 6 38 -35v-1185q0 -236 -270 -236h-835q-231 0 -353.5 112t-122.5 312v235q0 41 41 41h78q39 0 39 -41v-133q0 -200 78 -280t287 -80zM700 760h76q-39 56 -39 125q0 76 53.5 121t131.5 45
q80 0 143 -37q19 -11 10 -29l-12 -41q-10 -18 -27 -8q-52 25 -104 25q-41 0 -68.5 -26t-27.5 -69q0 -55 38 -106h207q19 0 19 -21v-47q0 -22 -19 -22h-381q-18 0 -18 22v47q0 12 4 16.5t14 4.5z" />
    <glyph glyph-name="uniFEDA" unicode="&#x643;" horiz-adv-x="1906" arabic-form="final" 
d="M625 166h764q85 0 111 29t26 118v1086q0 21 5.5 30.5t22.5 12.5l91 14q38 6 38 -35v-1175q74 -80 203 -80h21v-166h-21q-148 0 -229 111q-59 -111 -244 -111h-835q-231 0 -353.5 112t-122.5 312v235q0 41 41 41h78q39 0 39 -41v-133q0 -200 78 -280t287 -80zM700 760h76
q-39 56 -39 125q0 76 53.5 121t131.5 45q80 0 143 -37q19 -11 10 -29l-12 -41q-10 -18 -27 -8q-52 25 -104 25q-41 0 -68.5 -26t-27.5 -69q0 -55 38 -106h207q19 0 19 -21v-47q0 -22 -19 -22h-381q-18 0 -18 22v47q0 12 4 16.5t14 4.5z" />
    <glyph glyph-name="uniFEDB" unicode="&#x643;" horiz-adv-x="905" arabic-form="initial" 
d="M-20 166h419q222 0 222 143q0 108 -163 224t-472 208q-37 11 -37 37v84q0 24 24 45l602 537q30 27 50 4l57 -66q23 -26 0 -49l-545 -485q326 -118 485.5 -253.5t159.5 -309.5q0 -69 -24.5 -121t-62.5 -82.5t-92 -49.5t-105.5 -25.5t-110.5 -6.5h-407q-28 0 -45 16.5
t-17 65.5q0 50 16.5 67t45.5 17z" />
    <glyph glyph-name="uniFEDC" unicode="&#x643;" horiz-adv-x="1005" arabic-form="medial" 
d="M-20 166h419q222 0 222 143q0 108 -163 224t-472 208q-37 11 -37 37v84q0 24 24 45l602 537q30 27 50 4l57 -66q23 -26 0 -49l-545 -485q326 -118 485.5 -253.5t159.5 -309.5q0 -20 -4 -56q69 -63 187 -63h41v-166h-41q-152 0 -236 117q-92 -117 -342 -117h-407
q-28 0 -45 16.5t-17 65.5q0 50 16.5 67t45.5 17z" />
    <glyph glyph-name="uniFEDD" unicode="&#x644;" horiz-adv-x="1349" arabic-form="isolated" 
d="M1040 88v1315q0 32 25 39l98 14q35 6 35 -31v-1349q0 -262 -142.5 -394.5t-408.5 -132.5q-262 0 -403.5 133t-141.5 381q0 174 74 322q11 23 21 29t32 -2l72 -29q20 -8 24 -18t-6 -35q-55 -129 -55 -269q0 -166 96.5 -256t288.5 -90q199 0 295 91t96 282z" />
    <glyph glyph-name="uniFEDE" unicode="&#x644;" horiz-adv-x="1406" arabic-form="final" 
d="M1040 88v1311q0 21 6 30.5t23 12.5l90 14q39 6 39 -35v-1255h209v-166h-213q-20 -225 -160.5 -338t-386.5 -113q-262 0 -403.5 133t-141.5 381q0 174 74 322q11 23 21 29t32 -2l72 -29q20 -8 24 -18t-6 -35q-55 -129 -55 -269q0 -166 96.5 -256t288.5 -90q199 0 295 91
t96 282z" />
    <glyph glyph-name="uniFEDF" unicode="&#x644;" horiz-adv-x="569" arabic-form="initial" 
d="M-20 166h137q89 0 116 30t27 123v1080q0 21 6 30.5t23 12.5l90 14q39 6 39 -35v-1188q0 -117 -65 -175t-203 -58h-170q-28 0 -45 16.5t-17 65.5q0 50 16.5 67t45.5 17z" />
    <glyph glyph-name="uniFEE0" unicode="&#x644;" horiz-adv-x="657" arabic-form="medial" 
d="M-20 166h159q85 0 111 29t26 118v1086q0 21 6 30.5t23 12.5l90 14q39 6 39 -35v-1175q74 -80 203 -80h20v-166h-20q-148 0 -229 111q-58 -111 -244 -111h-184q-28 0 -45 16.5t-17 65.5q0 50 16.5 67t45.5 17z" />
    <glyph glyph-name="uniFEE1" unicode="&#x645;" horiz-adv-x="1193" arabic-form="isolated" 
d="M223 -172q0 -166 51 -373q6 -23 -2.5 -33.5t-29.5 -13.5l-76 -10q-25 -3 -34 4t-15 35q-56 254 -56 405q0 93 23 156.5t70.5 99.5t109.5 51t150 17q-40 54 -62 126t-22 146q0 186 101.5 289.5t273.5 103.5q175 0 274.5 -106.5t99.5 -302.5q0 -209 -108.5 -315.5
t-308.5 -106.5h-185q-108 0 -161.5 -15.5t-73 -50.5t-19.5 -106zM492 416q0 -150 83 -250h111q106 0 169 61.5t63 188.5q0 51 -10 93.5t-33 80.5t-66.5 59t-103.5 21t-103.5 -21t-66.5 -59t-33 -80.5t-10 -93.5z" />
    <glyph glyph-name="uniFEE2" unicode="&#x645;" horiz-adv-x="1232" arabic-form="final" 
d="M1079 422q0 -158 -86 -256h240v-166h-756q-108 0 -161.5 -15.5t-73 -50.5t-19.5 -106q0 -166 51 -373q6 -23 -2.5 -33.5t-29.5 -13.5l-76 -10q-25 -3 -34 4t-15 35q-56 254 -56 405q0 93 23 156.5t70.5 99.5t109.5 51t150 17q-40 54 -62 126t-22 146q0 186 101.5 289.5
t273.5 103.5q175 0 274.5 -106.5t99.5 -302.5zM492 416q0 -150 83 -250h111q106 0 169 61.5t63 188.5q0 51 -10 93.5t-33 80.5t-66.5 59t-103.5 21t-103.5 -21t-66.5 -59t-33 -80.5t-10 -93.5z" />
    <glyph glyph-name="uniFEE3" unicode="&#x645;" horiz-adv-x="1017" arabic-form="initial" 
d="M-20 166h258q-40 54 -62 126t-22 146q0 186 101.5 289.5t272.5 103.5q175 0 275 -106.5t100 -302.5q0 -209 -109 -315.5t-309 -106.5h-505q-28 0 -45 16.5t-17 65.5q0 50 16.5 67t45.5 17zM315 416q0 -149 84 -250h111q106 0 168.5 61t62.5 189q0 51 -10 93.5t-33 80.5
t-66.5 59t-103.5 21t-103.5 -21t-66.5 -59t-33 -80.5t-10 -93.5z" />
    <glyph glyph-name="uniFEE4" unicode="&#x645;" horiz-adv-x="1077" arabic-form="medial" 
d="M-20 166h188q-4 46 -4 72q0 186 101.5 289.5t273.5 103.5q175 0 274.5 -107t99.5 -303q0 -11 -1 -29t-1 -26h166v-166h-207q-47 -99 -142.5 -150t-231.5 -51h-148q-23 0 -35.5 8.5t-23.5 28.5q-44 71 -80 164h-229q-28 0 -45 16.5t-17 65.5q0 50 16.5 67t45.5 17z
M326 215q0 -130 69 -250h125q106 0 169 61.5t63 188.5q0 51 -10 93.5t-33 80.5t-66.5 59t-103.5 21t-103.5 -21t-66.5 -59t-33 -80.5t-10 -93.5z" />
    <glyph glyph-name="uniFEE5" unicode="&#x646;" horiz-adv-x="1353" arabic-form="isolated" 
d="M1053 88v518q0 41 39 41h77q41 0 41 -41v-530q0 -262 -142.5 -394.5t-408.5 -132.5q-262 0 -403 133t-141 381q0 176 73 322q11 23 21.5 29t32.5 -2l71 -29q20 -8 24 -18t-5 -35q-56 -131 -56 -269q0 -166 97 -256t289 -90q199 0 295 91t96 282zM721 809q-42 0 -71 26
t-29 68q0 41 29 67.5t71 26.5t71 -26.5t29 -67.5q0 -42 -29 -68t-71 -26z" />
    <glyph glyph-name="uniFEE6" unicode="&#x646;" horiz-adv-x="1378" arabic-form="final" 
d="M1053 88v518q0 41 39 41h77q41 0 41 -41v-440h168v-166h-172q-20 -225 -160.5 -338t-386.5 -113q-262 0 -403 133t-141 381q0 176 73 322q11 23 21.5 29t32.5 -2l71 -29q20 -8 24 -18t-5 -35q-56 -131 -56 -269q0 -166 97 -256t289 -90q199 0 295 91t96 282zM721 809
q-42 0 -71 26t-29 68q0 41 29 67.5t71 26.5t71 -26.5t29 -67.5q0 -42 -29 -68t-71 -26z" />
    <glyph glyph-name="uniFEE7" unicode="&#x646;" horiz-adv-x="565" arabic-form="initial" 
d="M-20 166h139q85 0 111 29t26 118v478q0 21 9 30.5t30 9.5h78q41 0 41 -40v-555q0 -236 -271 -236h-163q-28 0 -45 16.5t-17 65.5q0 50 16.5 67t45.5 17zM332 1077q-42 0 -71.5 26t-29.5 68q0 41 29.5 68t71.5 27t71 -27t29 -68q0 -42 -29 -68t-71 -26z" />
    <glyph glyph-name="uniFEE8" unicode="&#x646;" horiz-adv-x="657" arabic-form="medial" 
d="M-20 166h159q85 0 111 29t26 118v478q0 21 9 30.5t30 9.5h78q41 0 41 -40v-545q74 -80 203 -80h20v-166h-20q-148 0 -229 111q-58 -111 -244 -111h-184q-28 0 -45 16.5t-17 65.5q0 50 16.5 67t45.5 17zM348 1077q-42 0 -71 26t-29 68q0 41 29 68t71 27t71.5 -27t29.5 -68
q0 -42 -29.5 -68t-71.5 -26z" />
    <glyph glyph-name="uniFEE9" unicode="&#x647;" horiz-adv-x="1554" arabic-form="isolated" 
d="M958 553q0 67 -72 118.5t-159 51.5q-73 0 -124.5 -45t-51.5 -115q0 -64 50 -134.5t149 -137.5q101 55 154.5 125t53.5 137zM1137 156q133 0 133 96q0 60 -52.5 144.5t-130.5 148.5v-2q3 -15 3 -21q0 -80 -48.5 -164.5t-132.5 -150.5q124 -51 228 -51zM453 893l41 80
q13 29 43 20q181 -51 343.5 -134t285 -183.5t194.5 -219t72 -233.5t-71 -172.5t-190 -60.5q-96 -1 -208 30.5t-215 88.5q-240 -109 -574 -109h-51q-41 0 -41 41v86q0 39 41 39h51q234 0 412 55q-176 159 -176 332q0 86 45.5 162t115.5 100l2 2l-90 31q-45 15 -30 45z" />
    <glyph glyph-name="uniFEEA" unicode="&#x647;" horiz-adv-x="1013" arabic-form="final" 
d="M653 860v70q0 21 6 30.5t23 12.5l90 14q39 6 39 -35v-616q0 -91 42.5 -130.5t150.5 -39.5h10v-166h-37q-120 0 -198.5 40t-108.5 114q-110 -52 -242 -52q-63 0 -119.5 15t-104 45t-75 82.5t-27.5 120.5q0 150 138 277.5t413 217.5zM653 307v402q-177 -58 -281 -144.5
t-104 -181.5q0 -52 44 -83.5t132 -31.5q94 0 209 39z" />
    <glyph glyph-name="uniFEEB" unicode="&#x647;" horiz-adv-x="1409" arabic-form="initial" 
d="M-20 166h49q233 0 411 55q-176 159 -176 332q0 86 46 162t116 100l2 2l-90 31q-46 15 -31 45l41 80q13 29 43 20q181 -51 343.5 -134t285 -183.5t194.5 -219t72 -233.5q0 -111 -71 -172t-197 -61q-95 0 -204.5 31.5t-211.5 87.5q-240 -109 -573 -109h-49q-28 0 -45 16.5
t-17 65.5q0 50 16.5 67t45.5 17zM813 553q0 67 -72 118.5t-159 51.5q-73 0 -124.5 -45t-51.5 -115q0 -64 49.5 -134.5t148.5 -137.5q101 55 155 125t54 137zM991 156q133 0 133 96q0 60 -52 144.5t-130 148.5v-2q2 -10 2 -21q0 -80 -48 -165t-132 -150q124 -51 227 -51z" />
    <glyph glyph-name="uniFEEC" unicode="&#x647;" horiz-adv-x="1171" arabic-form="medial" 
d="M-20 166h49q102 0 213 20q31 313 158.5 497.5t310.5 184.5q120 0 201 -78.5t81 -209.5q0 -120 -79.5 -224.5t-229.5 -162.5v-3q159 -24 444 -24h43v-166h-43q-114 0 -217 14t-161 33v-2q129 -57 196.5 -150t67.5 -190q0 -123 -86 -211t-221 -88q-88 0 -167 41
t-142.5 117.5t-106 193.5t-55.5 262q-120 -20 -207 -20h-49q-28 0 -45 16.5t-17 65.5q0 50 16.5 67t45.5 17zM397 59q3 -205 93 -346t215 -141q63 0 105 41.5t42 107.5q0 44 -24 89t-75 91.5t-142.5 88t-213.5 69.5zM401 209q115 28 203.5 73.5t136.5 96.5t71.5 98.5
t23.5 89.5q0 62 -36 98.5t-91 36.5q-102 0 -184 -121.5t-124 -371.5z" />
    <glyph glyph-name="uniFEED" unicode="&#x648;" horiz-adv-x="1011" arabic-form="isolated" 
d="M328 -309q174 87 252 165t104 201q-92 -57 -207 -57q-164 0 -263 113t-99 309q0 187 101.5 298t275.5 111q170 0 269 -98t99 -291v-192q0 -110 -11.5 -189.5t-41 -153t-83 -131.5t-135 -112t-200.5 -108q-33 -14 -49 16l-37 70q-15 30 25 49zM702 442q0 106 -49.5 165
t-154.5 59q-107 0 -164.5 -65.5t-57.5 -176.5q0 -131 55.5 -194.5t170.5 -63.5q109 0 200 65v211z" />
    <glyph glyph-name="uniFEEE" unicode="&#x648;" horiz-adv-x="1062" arabic-form="final" 
d="M328 -309q155 78 232 146t110 163h-168q-187 0 -287 104.5t-100 317.5q0 187 101.5 298t275.5 111q170 0 269 -98t99 -291v-192q0 -15 -1 -43t-1 -41h205v-166h-225q-34 -144 -136 -246t-313 -198q-33 -14 -49 16l-37 70q-15 30 25 49zM702 279v163q0 106 -49.5 165
t-154.5 59q-107 0 -164.5 -65.5t-57.5 -176.5q0 -150 60.5 -204t204.5 -54h157q4 70 4 113z" />
    <glyph glyph-name="uniFEEF" unicode="&#x649;" horiz-adv-x="1703" arabic-form="isolated" 
d="M797 -285q137 0 259.5 26t203.5 78t81 120q0 41 -29.5 76t-76.5 62.5t-103.5 56t-113 62.5t-103.5 75t-76.5 101.5t-29.5 133.5q0 95 34.5 170t93.5 120.5t133.5 69t158.5 23.5q182 0 340 -103q27 -18 16 -41l-37 -81q-8 -19 -18 -22t-29 7q-137 76 -274 76
q-115 0 -185.5 -55.5t-70.5 -163.5q0 -53 29.5 -96t76.5 -73.5t103.5 -59t113 -59t103.5 -66.5t76.5 -89t29.5 -118q0 -174 -194.5 -285t-509.5 -111q-113 0 -211 15.5t-189 53t-155.5 95.5t-103 148t-38.5 205q0 178 93 362q11 24 22 30t35 -3l65 -31q20 -9 24.5 -20
t-5.5 -33q-72 -144 -72 -291q0 -365 533 -365z" />
    <glyph glyph-name="uniFEF0" unicode="&#x649;" horiz-adv-x="1550" arabic-form="final" 
d="M1092 96l-166 62q-32 11 -21 47l25 76q14 38 53 24l150 -55q228 -84 364 -84h53v-166h-80q39 -48 39 -102q0 -105 -104.5 -186.5t-264.5 -122t-341 -40.5q-113 0 -211 15.5t-189 53t-155.5 95.5t-103 148t-38.5 205q0 178 93 362q11 24 22 30t35 -3l65 -31
q20 -9 24.5 -20t-5.5 -33q-72 -144 -72 -291q0 -365 533 -365q124 0 231 19t175 49.5t106.5 66.5t38.5 72q0 50 -61.5 87t-194.5 87z" />
    <glyph glyph-name="uniFEF1" unicode="&#x64a;" horiz-adv-x="1703" arabic-form="isolated" 
d="M797 -285q137 0 259.5 26t203.5 78t81 120q0 41 -29.5 76t-76.5 62.5t-103.5 56t-113 62.5t-103.5 75t-76.5 101.5t-29.5 133.5q0 95 34.5 170t93.5 120.5t133.5 69t158.5 23.5q182 0 340 -103q27 -18 16 -41l-37 -81q-8 -19 -18 -22t-29 7q-137 76 -274 76
q-115 0 -185.5 -55.5t-70.5 -163.5q0 -53 29.5 -96t76.5 -73.5t103.5 -59t113 -59t103.5 -66.5t76.5 -89t29.5 -118q0 -174 -194.5 -285t-509.5 -111q-113 0 -211 15.5t-189 53t-155.5 95.5t-103 148t-38.5 205q0 178 93 362q11 24 22 30t35 -3l65 -31q20 -9 24.5 -20
t-5.5 -33q-72 -144 -72 -291q0 -365 533 -365zM965 -864q-42 0 -71.5 26t-29.5 68q0 41 29.5 67.5t71.5 26.5t71 -26.5t29 -67.5q0 -42 -29 -68t-71 -26zM698 -864q-42 0 -71 26t-29 68q0 41 29 67.5t71 26.5t71.5 -26.5t29.5 -67.5q0 -42 -29.5 -68t-71.5 -26z" />
    <glyph glyph-name="uniFEF2" unicode="&#x64a;" horiz-adv-x="1550" arabic-form="final" 
d="M1092 96l-166 62q-32 11 -21 47l25 76q14 38 53 24l150 -55q228 -84 364 -84h53v-166h-80q39 -48 39 -102q0 -105 -104.5 -186.5t-264.5 -122t-341 -40.5q-113 0 -211 15.5t-189 53t-155.5 95.5t-103 148t-38.5 205q0 178 93 362q11 24 22 30t35 -3l65 -31
q20 -9 24.5 -20t-5.5 -33q-72 -144 -72 -291q0 -365 533 -365q124 0 231 19t175 49.5t106.5 66.5t38.5 72q0 50 -61.5 87t-194.5 87zM965 -864q-42 0 -71.5 26t-29.5 68q0 41 29.5 67.5t71.5 26.5t71 -26.5t29 -67.5q0 -42 -29 -68t-71 -26zM698 -864q-42 0 -71 26t-29 68
q0 41 29 67.5t71 26.5t71.5 -26.5t29.5 -67.5q0 -42 -29.5 -68t-71.5 -26z" />
    <glyph glyph-name="uniFEF3" unicode="&#x64a;" horiz-adv-x="565" arabic-form="initial" 
d="M-20 166h139q85 0 111 29t26 118v478q0 21 9 30.5t30 9.5h78q41 0 41 -40v-555q0 -236 -271 -236h-163q-28 0 -45 16.5t-17 65.5q0 50 16.5 67t45.5 17zM252 -434q-42 0 -71 26t-29 68q0 41 29 67.5t71 26.5t71 -26.5t29 -67.5q0 -42 -29 -68t-71 -26zM-14 -434
q-42 0 -71.5 26t-29.5 68q0 41 29.5 67.5t71.5 26.5t71 -26.5t29 -67.5q0 -42 -29 -68t-71 -26z" />
    <glyph glyph-name="uniFEF4" unicode="&#x64a;" horiz-adv-x="657" arabic-form="medial" 
d="M-20 166h159q85 0 111 29t26 118v478q0 21 9 30.5t30 9.5h78q41 0 41 -40v-545q74 -80 203 -80h20v-166h-20q-148 0 -229 111q-58 -111 -244 -111h-184q-28 0 -45 16.5t-17 65.5q0 50 16.5 67t45.5 17zM272 -434q-42 0 -71 26t-29 68q0 41 29 67.5t71 26.5t71.5 -26.5
t29.5 -67.5q0 -42 -29.5 -68t-71.5 -26zM6 -434q-42 0 -71 26t-29 68q0 41 29 67.5t71 26.5t71 -26.5t29 -67.5q0 -42 -29 -68t-71 -26z" />
    <glyph glyph-name=".notdef" horiz-adv-x="1095" 
d="M41 0v1419h1014v-1419h-1014zM549 801l344 518h-690zM608 711l346 -518v1034zM203 102h690l-344 516zM143 1227v-1034l344 518z" />
    <glyph glyph-name=".null" 
 />
    <glyph glyph-name=".null" 
 />
    <glyph glyph-name="nonmarkingreturn" horiz-adv-x="682" 
 />
    <glyph glyph-name="CR" unicode="&#xd;" horiz-adv-x="475" 
 />
    <glyph glyph-name="DLE" 
 />
    <glyph glyph-name="space" unicode=" " horiz-adv-x="475" 
 />
    <glyph glyph-name="exclam" unicode="!" horiz-adv-x="505" 
d="M348 1370l-20 -1030q0 -19 -8 -27t-27 -8h-72q-21 0 -29 7.5t-8 27.5l-18 1030q0 41 39 41h102q22 0 31.5 -9t9.5 -32zM254 203q47 0 82 -30t35 -81q0 -53 -35 -82.5t-84 -29.5q-48 0 -82.5 29.5t-34.5 80.5q0 53 35 83t84 30z" />
    <glyph glyph-name="quotedbl" unicode="&#x22;" horiz-adv-x="651" 
d="M113 1436h102q35 0 33 -37l-12 -295q0 -37 -39 -37h-68q-20 0 -28.5 8.5t-8.5 28.5l-12 295q-2 20 5 28.5t28 8.5zM436 1436h103q34 0 32 -37l-12 -295q0 -37 -39 -37h-67q-20 0 -28.5 8.5t-8.5 28.5l-13 295q-2 20 5 28.5t28 8.5z" />
    <glyph glyph-name="numbersign" unicode="#" horiz-adv-x="1126" 
d="M883 967h170q22 0 27.5 -7.5t2.5 -23.5l-12 -78q-3 -18 -11 -24.5t-32 -6.5h-170l-43 -280h172q22 0 28 -7.5t3 -23.5l-12 -78q-3 -18 -11 -24t-32 -6h-172l-58 -367q-3 -23 -12.5 -32t-36.5 -9h-82q-42 0 -35 41l62 367h-226l-61 -367q-3 -23 -12.5 -32t-36.5 -9h-84
q-42 0 -35 41l59 367h-161q-22 0 -28 7t-3 23l12 78q3 18 11 24.5t32 6.5h166l43 280h-170q-22 0 -28 7.5t-3 23.5l13 78q3 18 11 24.5t32 6.5h172l59 403q3 23 12.5 32t36.5 9h82q42 0 35 -41l-61 -403h217l63 403q3 23 12.5 32t36.5 9h82q42 0 35 -41zM649 547l45 280
h-221l-45 -280h221z" />
    <glyph glyph-name="dollar" unicode="$" horiz-adv-x="1126" 
d="M639 1602v-168q162 -6 283 -64q33 -16 22 -49l-31 -82q-12 -36 -53 -18q-114 51 -221 57v-469l90 -47q66 -35 113.5 -69.5t86.5 -80t59 -103t20 -126.5q0 -164 -103 -266.5t-266 -128.5v-166q0 -29 -29 -29h-51q-29 0 -29 29v158q-180 0 -342 57q-36 11 -26 51l26 92
q11 38 54 21q146 -60 288 -60v518l-151 82q-225 121 -225 332q0 78 31 143.5t84 109.5t119.5 71t141.5 35v170q0 28 29 28h51q29 0 29 -28zM819 369q0 81 -44 133t-136 100v-448q80 22 130 76t50 139zM350 1090q0 -74 39.5 -121.5t120.5 -89.5l20 -13v408
q-78 -15 -129 -60.5t-51 -123.5z" />
    <glyph glyph-name="percent" unicode="%" horiz-adv-x="1552" 
d="M362 797q61 0 91 69t30 191t-30 191t-91 69t-90.5 -69t-29.5 -191t29.5 -191t90.5 -69zM362 688q-129 0 -194.5 101.5t-65.5 267.5q0 165 65.5 266.5t194.5 101.5t195 -101.5t66 -266.5t-66 -267t-195 -102zM1190 100q61 0 91 69t30 191t-30 191.5t-91 69.5t-91 -69.5
t-30 -191.5t30 -191t91 -69zM1190 -8q-129 0 -194.5 101t-65.5 267t65.5 267.5t194.5 101.5t194.5 -101.5t65.5 -267.5t-65.5 -267t-194.5 -101zM1282 1389l-854 -1371q-13 -23 -27 -30.5t-43 -7.5h-59q-55 0 -27 47l854 1370q15 25 28 32t42 7h57q59 0 29 -47z" />
    <glyph glyph-name="ampersand" unicode="&#x26;" horiz-adv-x="1398" 
d="M973 166q-199 -186 -469 -186q-183 0 -304.5 106.5t-121.5 282.5q0 62 19.5 117.5t47 97t76.5 85.5t90 73.5t105 70.5l-64 76q-57 67 -85.5 126.5t-28.5 131.5q0 123 93 206t230 83q139 0 229.5 -77.5t90.5 -207.5q0 -52 -19.5 -100.5t-57.5 -92.5t-76.5 -77.5
t-92.5 -73.5l354 -418q64 90 107 208t53 247q1 18 8 24t23 6h86q28 0 28 -28q0 -138 -59 -298.5t-148 -264.5q106 -104 263 -154q21 -7 25 -18.5t-3 -28.5l-24 -70q-7 -19 -19.5 -24t-32.5 0q-87 19 -172 65.5t-151 112.5zM553 907q78 58 123 116t45 124q0 72 -42.5 114
t-113.5 42q-67 0 -110 -41.5t-43 -110.5q0 -80 88 -182zM877 266l-377 447q-112 -77 -174 -154.5t-62 -171.5q0 -118 78.5 -188t194.5 -70q200 0 340 137z" />
    <glyph glyph-name="quotesingle" unicode="'" horiz-adv-x="327" 
d="M113 1436h102q35 0 33 -37l-12 -295q0 -37 -39 -37h-68q-20 0 -28.5 8.5t-8.5 28.5l-12 295q-2 20 5 28.5t28 8.5z" />
    <glyph glyph-name="parenleft" unicode="(" horiz-adv-x="665" 
d="M553 1464l57 -34q11 -6 12.5 -14.5t-1 -14.5t-9.5 -17q-135 -204 -194.5 -383t-59.5 -413q0 -216 61.5 -398t186.5 -352q19 -27 -10 -49l-49 -33q-17 -11 -27.5 -8.5t-23.5 19.5q-310 408 -310 847q0 417 322 840q20 25 45 10z" />
    <glyph glyph-name="parenright" unicode=")" horiz-adv-x="663" 
d="M477 604q0 -421 -319 -840q-19 -25 -45 -10l-58 35q-24 14 -6 43q137 205 197.5 385.5t60.5 411.5q0 216 -59 391.5t-187 355.5q-22 31 7 51l51 35q29 20 49 -6q309 -410 309 -852z" />
    <glyph glyph-name="asterisk" unicode="*" horiz-adv-x="681" 
d="M371 1217l161 98q13 8 21.5 10.5t17 -2t13.5 -20.5l26 -84q7 -22 2 -31t-26 -12l-187 -23l138 -139q23 -25 -9 -51l-57 -45q-36 -24 -49 10l-82 194l-78 -196q-15 -35 -43 -13l-72 52q-27 22 0 49l142 141l-201 21q-26 3 -18 30l32 103q8 32 41 12l170 -104l-39 190
q-4 20 -4 29q0 20 25 20h88q18 0 24.5 -4.5t6.5 -15.5q0 -8 -6 -35z" />
    <glyph glyph-name="plus" unicode="+" horiz-adv-x="1126" 
d="M1010 580v-86q0 -33 -37 -33h-328v-350q0 -35 -37 -35h-88q-37 0 -37 35v350h-329q-37 0 -37 33v86q0 18 8.5 25t28.5 7h329v355q0 34 37 34h88q37 0 37 -34v-355h328q20 0 28.5 -7t8.5 -25z" />
    <glyph glyph-name="comma" unicode="," horiz-adv-x="411" 
d="M336 63q0 -90 -51.5 -181.5t-122.5 -133.5q-27 -15 -41 2l-21 23q-17 20 4 37q72 68 72 135q0 27 -35 72.5t-35 76.5q0 47 32 78t79 31q52 0 85.5 -43t33.5 -97z" />
    <glyph glyph-name="hyphen" unicode="-" horiz-adv-x="567" 
d="M123 616h321q22 0 30.5 -9t8.5 -32v-79q0 -22 -8.5 -30.5t-30.5 -8.5h-321q-22 0 -30.5 8.5t-8.5 30.5v79q0 23 8.5 32t30.5 9z" />
    <glyph glyph-name="period" unicode="." horiz-adv-x="417" 
d="M221 203q47 0 82 -30t35 -81q0 -53 -35 -82.5t-84 -29.5q-48 0 -82.5 29.5t-34.5 80.5q0 53 35 83t84 30z" />
    <glyph glyph-name="slash" unicode="/" horiz-adv-x="669" 
d="M66 20l413 1381q6 21 16 28t31 7h82q23 0 28.5 -10.5t-1.5 -30.5l-410 -1381q-6 -21 -16 -27.5t-31 -6.5h-86q-23 0 -28 10t2 30z" />
    <glyph glyph-name="zero" unicode="0" horiz-adv-x="1126" 
d="M1049 711q0 -103 -14.5 -201.5t-50.5 -196t-90.5 -170.5t-140 -118t-192.5 -45t-192 44.5t-138.5 116t-89 168.5t-49.5 194.5t-14 201.5q0 102 15 200.5t51.5 196t91 170.5t140 118.5t191.5 45.5q77 0 143 -23t115 -63.5t87.5 -96.5t63.5 -119.5t42 -136.5t24 -143
t7 -143zM850 709q0 79 -7.5 153t-27.5 151.5t-51 134t-82.5 92.5t-116.5 36q-67 0 -119 -36.5t-83.5 -93.5t-51.5 -134.5t-27.5 -151t-7.5 -151.5q0 -79 7 -152.5t27 -151.5t51 -134.5t83 -93t119 -36.5t119 36.5t83 93.5t51 135t27 151t7 152z" />
    <glyph glyph-name="one" unicode="1" horiz-adv-x="1126" 
d="M547 1208l-301 -186q-38 -23 -56 14l-36 62q-11 18 -8.5 31.5t22.5 25.5l369 229q46 27 86 27h69q39 0 39 -41v-1329q0 -41 -39 -41h-104q-22 0 -31.5 9t-9.5 32v1167z" />
    <glyph glyph-name="two" unicode="2" horiz-adv-x="1126" 
d="M352 158h590q21 0 30 -7.5t9 -25.5v-92q0 -18 -9 -25.5t-30 -7.5h-788q-21 0 -30 7.5t-9 25.5v76q0 41 30 71q49 52 161.5 163t168.5 171q157 168 233 292.5t76 235.5q0 107 -68 169.5t-177 62.5q-144 0 -293 -86q-34 -17 -49 18l-31 66q-15 35 16 55q174 109 383 109
q178 0 297 -99.5t119 -275.5q0 -152 -89 -297t-292 -356q-41 -43 -248 -250z" />
    <glyph glyph-name="three" unicode="3" horiz-adv-x="1126" 
d="M684 768q125 -30 205 -128t80 -228q0 -127 -66 -227t-174 -152.5t-237 -52.5q-208 0 -349 71q-30 15 -18 49l29 74q11 33 57 12q123 -55 266 -55q133 0 215 76.5t82 204.5q0 93 -47.5 156.5t-121 91.5t-167.5 28h-57q-20 0 -28.5 8t-8.5 27v72q0 19 8.5 26.5t28.5 7.5h55
q132 0 208.5 61t76.5 183q0 104 -68.5 159.5t-179.5 55.5q-130 0 -250 -69q-30 -17 -43 12l-33 74q-8 22 15 38q151 93 344 93q107 0 198.5 -40t151 -121.5t59.5 -189.5t-66 -197t-165 -120z" />
    <glyph glyph-name="four" unicode="4" horiz-adv-x="1126" 
d="M797 328h-666q-43 0 -43 43v57q0 32 31 102l385 846q15 35 53 35h102q27 0 32 -13t-5 -32l-393 -881h504v326q0 41 39 41h104q22 0 31.5 -9t9.5 -32v-770q0 -41 -39 -41h-104q-22 0 -31.5 9t-9.5 32v287z" />
    <glyph glyph-name="five" unicode="5" horiz-adv-x="1126" 
d="M893 1255h-494v-381h62q89 0 167.5 -15.5t148 -50t119.5 -85t79 -125.5t29 -168q0 -140 -67 -243t-180 -155t-257 -52q-168 0 -334 86q-37 18 -21 53l33 76q14 33 55 12q134 -70 279 -70q127 0 212 75t85 210q0 311 -403 311h-130q-61 0 -61 62v569q0 47 43 47h635
q21 0 30 -7.5t9 -25.5v-90q0 -18 -9 -25.5t-30 -7.5z" />
    <glyph glyph-name="six" unicode="6" horiz-adv-x="1126" 
d="M1030 465q0 -135 -52 -244.5t-153 -175t-233 -65.5q-102 0 -182.5 33t-133 89.5t-86.5 136.5t-48.5 169t-14.5 192q0 351 117 563q70 128 189 200.5t282 72.5q89 0 172 -25q24 -7 30 -16t3 -25l-19 -78q-4 -21 -15 -26.5t-28 0.5q-68 18 -137 18q-116 0 -198.5 -59
t-127.5 -162q-47 -109 -61 -295q61 60 138.5 89.5t154.5 29.5q176 0 289.5 -113t113.5 -309zM834 449q0 57 -13 106t-39.5 90t-72.5 64.5t-107 23.5q-67 0 -142.5 -33t-133.5 -98q-2 -18 -2 -47q0 -198 66.5 -310t203.5 -112q64 0 113 30t75.5 78t39 101t12.5 107z" />
    <glyph glyph-name="seven" unicode="7" horiz-adv-x="1126" 
d="M827 1251h-657q-21 0 -30 7.5t-9 25.5v94q0 18 9 25.5t30 7.5h821q25 0 35 -10t10 -33v-61q0 -39 -20 -84l-549 -1182q-11 -22 -25.5 -31.5t-40.5 -9.5h-112q-49 0 -27 53z" />
    <glyph glyph-name="eight" unicode="8" horiz-adv-x="1126" 
d="M1030 401q0 -188 -136.5 -304.5t-334.5 -116.5q-131 0 -235 44t-167 136.5t-63 220.5q0 124 86.5 220.5t218.5 150.5q-110 49 -177.5 136.5t-67.5 194.5q0 154 119 253.5t294 99.5q173 0 286.5 -94t113.5 -252q0 -95 -71 -185t-175 -139q154 -64 231.5 -157t77.5 -208z
M567 829q38 19 71 42.5t65 55.5t50.5 73.5t18.5 86.5q0 94 -56.5 150.5t-156.5 56.5q-91 0 -151 -57t-60 -145q0 -90 58.5 -151.5t160.5 -111.5zM547 686q-258 -107 -258 -297q0 -122 82.5 -195t193.5 -73q112 0 191.5 70t79.5 194q0 48 -17.5 89.5t-43 71t-67 57t-76.5 45
t-85 38.5z" />
    <glyph glyph-name="nine" unicode="9" horiz-adv-x="1126" 
d="M793 649q-61 -60 -138.5 -89.5t-154.5 -29.5q-176 0 -290 113t-114 309q0 135 52 244t153.5 174.5t233.5 65.5q102 0 182.5 -33t132.5 -89t86 -136t48.5 -168.5t14.5 -192.5q0 -350 -116 -563q-70 -128 -189 -201t-282 -73q-98 0 -174 22q-38 11 -31 45l18 76q8 36 43 27
q71 -19 138 -19q115 0 197.5 60t127.5 163q48 112 62 295zM801 815q2 18 2 47q0 197 -66.5 308.5t-204.5 111.5q-64 0 -112.5 -29.5t-75 -77t-39 -100t-12.5 -106.5q0 -57 13 -106t39 -90t72 -65t107 -24q67 0 143 33t134 98z" />
    <glyph glyph-name="colon" unicode=":" horiz-adv-x="438" 
d="M233 209q47 0 83 -31t36 -82q0 -54 -36 -85t-85 -31t-84.5 30.5t-35.5 81.5q0 54 36 85.5t86 31.5zM233 1012q47 0 83 -31t36 -82q0 -54 -36 -85.5t-85 -31.5t-84.5 30.5t-35.5 82.5q0 54 36 85.5t86 31.5z" />
    <glyph glyph-name="semicolon" unicode=";" horiz-adv-x="438" 
d="M352 895q0 -51 -37.5 -83t-83.5 -32q-47 0 -84.5 31.5t-37.5 83.5q0 53 36.5 85t85.5 32t85 -32t36 -85zM342 63q0 -90 -51.5 -181.5t-122.5 -133.5q-27 -15 -41 2l-21 23q-16 19 5 37q71 67 71 135q0 27 -34.5 72.5t-34.5 76.5q0 47 31.5 78t78.5 31q52 0 85.5 -43
t33.5 -97z" />
    <glyph glyph-name="less" unicode="&#x3c;" horiz-adv-x="1126" 
d="M371 537l524 -336q16 -10 17.5 -21.5t-7.5 -25.5l-51 -82q-19 -35 -59 -9l-605 402q-24 16 -24 45v53q0 27 27 45l610 400q33 27 55 -7l53 -79q17 -28 -10 -45z" />
    <glyph glyph-name="equal" unicode="=" horiz-adv-x="1126" 
d="M1010 406v-87q0 -18 -8.5 -25t-28.5 -7h-819q-20 0 -28.5 7t-8.5 25v87q0 18 8.5 25t28.5 7h819q20 0 28.5 -7t8.5 -25zM1010 766v-86q0 -33 -37 -33h-819q-37 0 -37 33v86q0 33 37 33h819q37 0 37 -33z" />
    <glyph glyph-name="greater" unicode="&#x3e;" horiz-adv-x="1126" 
d="M756 537l-525 335q-16 10 -17.5 22t7.5 26l51 81q19 35 60 9l604 -402q25 -17 25 -45v-53q0 -27 -27 -45l-610 -399q-34 -28 -56 6l-53 80q-17 28 10 45z" />
    <glyph glyph-name="question" unicode="?" horiz-adv-x="862" 
d="M776 1114q0 -152 -125 -287l-149 -161q-103 -115 -103 -199q0 -12 7 -68q3 -32 -29 -32h-82q-26 0 -33 28q-10 42 -10 101q0 120 94 221l150 155q110 115 110 218q0 58 -19.5 100t-53.5 64t-72 32t-82 10q-110 0 -201 -51q-10 -6 -22.5 -2t-16.5 17l-26 67q-10 27 14 39
q126 70 289 70q151 0 255.5 -87.5t104.5 -234.5zM348 203q47 0 82 -30t35 -81q0 -53 -35 -82.5t-84 -29.5q-48 0 -82.5 29.5t-34.5 80.5q0 53 35 83t84 30z" />
    <glyph glyph-name="at" unicode="@" horiz-adv-x="1679" 
d="M1581 797q0 -85 -24.5 -171t-70 -160t-120 -120.5t-164.5 -46.5q-85 0 -145 42t-66 132h-2q-85 -137 -225 -137q-111 0 -167 81.5t-56 200.5q0 77 24.5 156t68.5 144.5t112.5 107t148.5 41.5q61 0 112 -32t68 -99l21 78q5 24 32 24h56q21 0 26 -8t0 -22l-94 -406
q-14 -58 -14 -106q0 -55 23 -85t81 -30q55 0 99.5 28t73 72.5t48 101t27.5 111.5t8 107q0 233 -151 372.5t-391 139.5q-182 0 -324.5 -89.5t-218.5 -240.5t-76 -334q0 -260 154.5 -408.5t416.5 -148.5q164 0 338 78q29 14 37 -10l23 -54q10 -23 -17 -36q-179 -90 -401 -90
q-215 0 -380 77t-260 228.5t-95 357.5q0 224 107 406.5t291.5 284.5t408.5 102q190 0 339 -78.5t233.5 -224.5t84.5 -336zM985 602l49 219q-4 54 -32.5 98t-86.5 44q-56 0 -100.5 -37.5t-68.5 -94t-36 -112t-12 -103.5q0 -68 25.5 -114.5t85.5 -46.5q108 0 176 147z" />
    <glyph glyph-name="A" unicode="A" horiz-adv-x="1245" 
d="M348 418l-141 -385q-6 -19 -16.5 -26t-32.5 -7h-113q-41 0 -25 41l515 1341q11 29 36 29h109q28 0 37 -25l506 -1345q16 -41 -27 -41h-131q-22 0 -32.5 7t-16.5 26l-137 385h-531zM397 559h432l-211 608h-2z" />
    <glyph glyph-name="B" unicode="B" horiz-adv-x="1165" 
d="M719 756q155 -6 254.5 -100.5t99.5 -249.5q0 -94 -28.5 -165.5t-76 -116.5t-117 -73.5t-144.5 -39.5t-166 -11h-344q-43 0 -43 47v1317q0 47 43 47h288q480 0 480 -344q0 -116 -64.5 -200.5t-181.5 -108.5v-2zM344 1266v-457h139q60 0 107.5 9.5t92.5 34.5t70 76t25 126
q0 63 -23.5 106t-67.5 65t-94.5 31t-117.5 9h-131zM344 145h178q61 0 108.5 5.5t95.5 22.5t80.5 45t53 75.5t21.5 112.5q0 264 -365 264h-172v-525z" />
    <glyph glyph-name="C" unicode="C" horiz-adv-x="1210" 
d="M756 131q167 0 315 74q38 17 51 -19l25 -61q15 -40 -23 -57q-177 -88 -395 -88q-125 0 -229 37t-177.5 103t-124 157.5t-74.5 199t-24 228.5q0 148 43.5 279.5t123.5 232.5t203.5 160t272.5 59q209 0 377 -93q33 -17 19 -53l-35 -73q-6 -14 -18.5 -18t-26.5 3
q-141 80 -303 80q-111 0 -200 -48.5t-143 -129t-82 -179t-28 -204.5q0 -95 16.5 -181t52.5 -161t88 -130t128 -86.5t168 -31.5z" />
    <glyph glyph-name="D" unicode="D" horiz-adv-x="1372" 
d="M1278 698q0 -174 -54.5 -314.5t-156.5 -233.5q-169 -150 -504 -150h-364q-43 0 -43 47v1317q0 47 43 47h274q200 0 314.5 -21.5t209.5 -80.5q133 -83 207 -240.5t74 -370.5zM1075 700q0 150 -44.5 270.5t-129.5 188.5q-121 98 -360 98h-195v-1105h176q149 0 243 23.5
t161 90.5q149 152 149 434z" />
    <glyph glyph-name="E" unicode="E" horiz-adv-x="1044" 
d="M346 1262v-449h483q21 0 30 -7.5t9 -25.5v-82q0 -18 -9 -25t-30 -7h-483v-516h569q21 0 30 -7.5t9 -25.5v-84q0 -18 -9 -25.5t-30 -7.5h-716q-43 0 -43 47v1317q0 47 43 47h716q41 0 35 -35l-12 -82q-3 -19 -12.5 -25.5t-32.5 -6.5h-547z" />
    <glyph glyph-name="F" unicode="F" horiz-adv-x="1026" 
d="M893 1262h-547v-449h483q21 0 30 -7.5t9 -25.5v-82q0 -18 -9 -25t-30 -7h-483v-625q0 -41 -39 -41h-110q-22 0 -31.5 9t-9.5 32v1323q0 47 43 47h716q41 0 35 -35l-12 -82q-3 -19 -12.5 -25.5t-32.5 -6.5z" />
    <glyph glyph-name="G" unicode="G" horiz-adv-x="1347" 
d="M1016 666h-213q-21 0 -30 7t-9 25v82q0 18 9 25.5t30 7.5h362q21 0 31 -10t10 -35v-616q0 -33 -9 -49t-36 -31q-74 -41 -186.5 -66.5t-214.5 -25.5q-163 0 -290 53.5t-207 150.5t-121.5 228.5t-41.5 292.5q0 156 47.5 290t134 232t216.5 153.5t288 55.5q190 0 340 -66
q19 -9 23.5 -20t-2.5 -29l-29 -80q-11 -32 -47 -18q-58 24 -136 39.5t-142 15.5q-119 0 -213.5 -45t-154 -123t-91 -180.5t-31.5 -220.5t27 -220.5t80 -184t142 -128.5t204 -47q162 0 260 49v488z" />
    <glyph glyph-name="H" unicode="H" horiz-adv-x="1351" 
d="M1006 813v557q0 41 38 41h111q22 0 31.5 -9t9.5 -32v-1329q0 -41 -39 -41h-110q-22 0 -31.5 9t-9.5 32v625h-660v-625q0 -41 -39 -41h-110q-22 0 -31.5 9t-9.5 32v1329q0 41 39 41h110q22 0 31.5 -9t9.5 -32v-557h660z" />
    <glyph glyph-name="I" unicode="I" horiz-adv-x="759" 
d="M473 1284v-1155h119q22 0 30.5 -7t8.5 -26v-63q0 -19 -8.5 -26t-30.5 -7h-418q-22 0 -30.5 7t-8.5 26v63q0 19 8.5 26t30.5 7h115v1155h-123q-22 0 -30.5 7t-8.5 26v61q0 19 8.5 26t30.5 7h428q22 0 30.5 -7t8.5 -26v-61q0 -19 -8.5 -26t-30.5 -7h-121z" />
    <glyph glyph-name="J" unicode="J" horiz-adv-x="780" 
d="M449 1284h-230q-22 0 -30.5 7t-8.5 26v61q0 19 8.5 26t30.5 7h371q43 0 43 -47v-891q0 -126 -16.5 -211.5t-59 -152t-120.5 -98t-195 -31.5q-69 0 -125 16q-20 6 -25 15t-2 26l19 80q7 29 43 22q49 -12 96 -12q54 0 91.5 15.5t59 40t33 67t14.5 82.5t3 100v852z" />
    <glyph glyph-name="K" unicode="K" horiz-adv-x="1132" 
d="M1028 1370l-520 -637l579 -684q9 -10 12 -21.5t-3 -19.5t-23 -8h-135q-28 0 -43.5 7t-30.5 26l-516 620h-2v-612q0 -41 -39 -41h-110q-22 0 -31.5 9t-9.5 32v1329q0 41 39 41h110q22 0 31.5 -9t9.5 -32v-594h2l490 604q24 31 67 31h105q23 0 26.5 -14.5t-8.5 -26.5z" />
    <glyph glyph-name="L" unicode="L" horiz-adv-x="929" 
d="M346 152h514q21 0 30 -7.5t9 -25.5v-86q0 -18 -9 -25.5t-30 -7.5h-661q-43 0 -43 47v1323q0 41 39 41h110q22 0 31.5 -9t9.5 -32v-1218z" />
    <glyph glyph-name="M" unicode="M" horiz-adv-x="1716" 
d="M1335 1049h-4l-391 -1020q-10 -29 -41 -29h-70q-33 0 -45 29l-424 1020h-2l-24 -1012q0 -22 -9 -29.5t-32 -7.5h-100q-21 0 -29.5 8.5t-7.5 30.5l47 1333q1 23 10.5 31t28.5 8h88q24 0 34.5 -6.5t18.5 -24.5l491 -1126h3l454 1124q8 19 17 26t28 7h97q19 0 26.5 -7
t7.5 -26l56 -1337q2 -21 -6.5 -31t-30.5 -10h-117q-23 0 -31 9.5t-8 31.5z" />
    <glyph glyph-name="N" unicode="N" horiz-adv-x="1421" 
d="M1085 311h5v1059q0 41 38 41h97q22 0 31.5 -9t9.5 -32v-1329q0 -41 -39 -41h-90q-44 0 -70 41l-731 1044h-4v-1044q0 -41 -39 -41h-96q-22 0 -31.5 9t-9.5 32v1329q0 41 39 41h81q44 0 70 -41z" />
    <glyph glyph-name="O" unicode="O" horiz-adv-x="1384" 
d="M1284 715q0 -171 -46 -310.5t-127 -232t-191 -142.5t-238 -50q-274 0 -428 192t-154 528q0 332 166 534t434 202q185 0 318 -92t199.5 -253.5t66.5 -375.5zM1083 709q0 271 -100 420t-287 149q-177 0 -286 -158.5t-109 -412.5q0 -269 102.5 -420.5t286.5 -151.5
q175 0 284 156.5t109 417.5z" />
    <glyph glyph-name="P" unicode="P" horiz-adv-x="1062" 
d="M999 981q0 -115 -39 -201.5t-111 -139.5t-167.5 -79t-214.5 -26h-121v-494q0 -41 -39 -41h-110q-22 0 -31.5 9t-9.5 32v1323q0 47 43 47h264q119 0 214 -23.5t168.5 -73.5t113.5 -134.5t40 -198.5zM346 1266v-586h127q161 0 247.5 68t86.5 229q0 157 -92 223t-256 66
h-113z" />
    <glyph glyph-name="Q" unicode="Q" horiz-adv-x="1372" 
d="M975 55q36 -18 92.5 -51t99.5 -53q50 -26 136 -55q36 -11 26 -48l-22 -71q-6 -21 -19 -26t-37 1q-116 18 -278 137q-43 33 -69.5 49.5t-67 31t-82.5 14.5q-16 0 -45 -2t-45 -2q-115 0 -209.5 39t-159.5 106.5t-109.5 159.5t-65 195.5t-20.5 217.5t23 220.5t72 201
t118.5 164.5t169.5 111t219 41q121 0 220 -40t165.5 -107.5t112 -161t66 -197t20.5 -217.5q0 -211 -77.5 -387.5t-233.5 -270.5zM1083 707q0 89 -11.5 168t-39.5 154t-71 129t-111 87t-154 33q-81 0 -148 -34t-111.5 -90t-75.5 -131t-44.5 -154.5t-13.5 -161.5
q0 -88 11.5 -167.5t40 -155.5t71.5 -131t111 -88.5t153 -33.5q102 0 180 51t123 136t67.5 183.5t22.5 205.5z" />
    <glyph glyph-name="R" unicode="R" horiz-adv-x="1136" 
d="M346 573v-532q0 -41 -39 -41h-110q-22 0 -31.5 9t-9.5 32v1323q0 47 43 47h293q516 0 516 -414q0 -142 -80 -245t-207 -146l336 -561q11 -15 4 -30t-31 -15h-117q-44 0 -63 37l-307 536h-197zM346 1266v-549h158q139 0 225 72.5t86 205.5q0 145 -86 208t-252 63h-131z
" />
    <glyph glyph-name="S" unicode="S" horiz-adv-x="1040" 
d="M481 141q74 0 136.5 22t106.5 75.5t44 130.5q0 81 -44 133t-136 100l-260 139q-226 122 -226 332q0 85 37.5 155.5t99.5 115t139 68.5t159 24q198 0 333 -66q34 -16 23 -49l-31 -82q-12 -36 -53 -18q-133 59 -262 59q-62 0 -116 -18t-93 -62.5t-39 -109.5
q0 -74 39.5 -121.5t120.5 -89.5l219 -117q136 -71 207 -158.5t71 -220.5q0 -97 -38.5 -175.5t-104.5 -127t-151 -74.5t-181 -26q-179 0 -344 57q-36 11 -26 51l26 92q11 38 53 21q149 -60 291 -60z" />
    <glyph glyph-name="T" unicode="T" horiz-adv-x="1126" 
d="M463 1262h-389q-21 0 -30 7t-9 25v84q0 18 9 25.5t30 7.5h991q41 0 35 -35l-13 -82q-3 -19 -12.5 -25.5t-32.5 -6.5h-389v-1221q0 -41 -39 -41h-110q-22 0 -31.5 9t-9.5 32v1221z" />
    <glyph glyph-name="U" unicode="U" horiz-adv-x="1423" 
d="M1274 1370v-754q0 -145 -31 -258.5t-96.5 -199.5t-175 -132t-258.5 -46q-131 0 -229 30t-161.5 83t-102 135.5t-54.5 179t-16 221.5v741q0 41 38 41h111q22 0 31.5 -9t9.5 -32v-723q0 -66 3 -115.5t12 -105t25.5 -95.5t44.5 -79t67 -62.5t95.5 -38t127.5 -14.5
q69 0 123.5 15t93 40t66 64t44 80t26 96.5t12.5 105t3 111.5v721q0 41 39 41h111q22 0 31.5 -9t9.5 -32z" />
    <glyph glyph-name="V" unicode="V" horiz-adv-x="1249" 
d="M643 268h4l379 1110q6 19 16.5 26t32.5 7h109q22 0 27 -10.5t-3 -30.5l-475 -1337q-11 -33 -45 -33h-108q-31 0 -43 29l-494 1335q-19 47 27 47h131q41 0 53 -37z" />
    <glyph glyph-name="W" unicode="W" horiz-adv-x="1841" 
d="M1307 291h4l293 1081q6 23 17.5 31t33.5 8h112q43 0 29 -43l-395 -1335q-11 -33 -47 -33h-103q-39 0 -49 35l-280 1071h-2l-283 -1071q-11 -35 -49 -35h-101q-39 0 -47 33l-391 1327q-7 15 -0.5 33t31.5 18h129q25 0 36 -8t17 -31l289 -1081h2l278 1085q11 35 50 35h92
q41 0 49 -35z" />
    <glyph glyph-name="X" unicode="X" horiz-adv-x="1153" 
d="M676 748l430 -699q13 -19 7.5 -34t-30.5 -15h-129q-44 0 -65 37l-318 545h-2l-317 -543q-14 -24 -28 -31.5t-44 -7.5h-106q-21 0 -28 13.5t5 33.5l424 684l-387 637q-10 14 -3.5 28.5t28.5 14.5h120q46 0 64 -35l285 -483h2l282 485q18 33 62 33h116q20 0 26.5 -12
t-3.5 -27z" />
    <glyph glyph-name="Y" unicode="Y" horiz-adv-x="1126" 
d="M479 41v512l-434 809q-11 20 -5 34.5t30 14.5h116q27 0 39 -7t23 -28l336 -663h2l325 663q9 19 22 27t38 8h88q23 0 29.5 -12t-3.5 -31l-415 -811v-516q0 -41 -39 -41h-111q-22 0 -31.5 9t-9.5 32z" />
    <glyph glyph-name="Z" unicode="Z" horiz-adv-x="1107" 
d="M289 152v-2h717q21 0 29.5 -7.5t8.5 -25.5v-84q0 -18 -8.5 -25.5t-29.5 -7.5h-910q-21 0 -30 7.5t-9 25.5v57q0 31 23 64l711 1106v2h-633q-21 0 -30 7t-9 25v84q0 18 9 25.5t30 7.5h827q21 0 30 -7.5t9 -25.5v-61q0 -31 -23 -64z" />
    <glyph glyph-name="bracketleft" unicode="[" horiz-adv-x="638" 
d="M369 -152h215q19 0 25.5 -6.5t6.5 -25.5v-78q0 -19 -6.5 -26t-25.5 -7h-348q-43 0 -43 47v1637q0 47 43 47h348q19 0 25.5 -7t6.5 -26v-78q0 -19 -6.5 -26t-25.5 -7h-215v-1444z" />
    <glyph glyph-name="backslash" unicode="\" horiz-adv-x="714" 
d="M244 1401l401 -1381q7 -20 1.5 -30t-28.5 -10h-94q-21 0 -31 6.5t-16 27.5l-403 1381q-7 20 -2 30.5t28 10.5h97q21 0 31 -7t16 -28z" />
    <glyph glyph-name="bracketright" unicode="]" horiz-adv-x="638" 
d="M55 -152h215v1444h-215q-19 0 -25.5 7t-6.5 26v78q0 19 6.5 26t25.5 7h348q43 0 43 -47v-1637q0 -47 -43 -47h-348q-19 0 -25.5 7t-6.5 26v78q0 19 6.5 25.5t25.5 6.5z" />
    <glyph glyph-name="asciicircum" unicode="^" horiz-adv-x="1126" 
d="M999 803l-79 -41q-39 -19 -56 12l-305 438l-307 -430q-13 -18 -22.5 -20.5t-28.5 6.5l-74 51q-29 20 -8 55l375 508q21 29 51 29h49q28 0 47 -31l367 -534q18 -29 -9 -43z" />
    <glyph glyph-name="underscore" unicode="_" horiz-adv-x="1044" 
d="M41 -170h965q28 0 28 -29v-59q0 -27 -28 -27h-965q-31 0 -31 27v59q0 29 31 29z" />
    <glyph glyph-name="grave" unicode="`" horiz-adv-x="665" 
d="M528 1200l-24 -43q-16 -27 -51 -10l-310 156q-37 18 -12 53l43 65q11 19 25 20.5t34 -11.5l285 -183q26 -18 10 -47z" />
    <glyph glyph-name="a" unicode="a" horiz-adv-x="1112" 
d="M797 152h-4q-36 -69 -126 -120.5t-182 -51.5q-103 0 -182.5 41t-127.5 111.5t-72.5 158t-24.5 186.5q0 125 35.5 227.5t95.5 169t138.5 102.5t166.5 36q80 0 155 -33t119 -92l3 65q0 37 38 37h91q38 0 38 -39v-717q0 -63 8 -86.5t38 -23.5h8q19 0 27 -7t8 -24v-61
q0 -17 -8 -24t-27 -7h-82q-64 0 -98.5 43.5t-34.5 108.5zM784 332v393q-36 68 -104 107.5t-143 39.5q-122 0 -199.5 -102t-77.5 -281q0 -167 70 -265.5t182 -98.5q93 0 167.5 62t104.5 145z" />
    <glyph glyph-name="b" unicode="b" horiz-adv-x="1103" 
d="M311 1421v-526q52 50 129.5 83.5t165.5 33.5q153 0 260 -92q77 -69 116.5 -179.5t39.5 -242.5q0 -143 -48.5 -259t-147 -187.5t-232.5 -71.5q-92 0 -171 34.5t-124 91.5l-4 -73q-1 -19 -10 -26t-31 -7h-78q-21 0 -30 9t-9 30v1360q0 21 6.5 30.5t24.5 12.5l102 14
q41 6 41 -35zM571 868q-68 0 -139.5 -35t-120.5 -88v-489q97 -135 258 -135q131 0 201 105t70 263q0 173 -65.5 276t-203.5 103z" />
    <glyph glyph-name="c" unicode="c" horiz-adv-x="901" 
d="M854 909l-23 -63q-10 -30 -43 -17q-105 48 -208 48q-146 0 -232 -101.5t-86 -273.5q0 -81 18 -149.5t54 -123t96.5 -85.5t140.5 -31q123 0 228 47q31 13 41 -17l18 -57q7 -18 2.5 -29t-24.5 -20q-122 -57 -277 -57q-157 0 -266 65.5t-160 179.5t-51 269q0 230 131.5 374
t357.5 144q148 0 265 -60q29 -16 18 -43z" />
    <glyph glyph-name="d" unicode="d" horiz-adv-x="1105" 
d="M805 113q-50 -59 -132 -96t-169 -37q-107 0 -190 41.5t-132.5 113t-74.5 161.5t-25 193q0 229 123 376t323 147q74 0 149 -30.5t118 -82.5v500q0 21 6 30.5t24 12.5l103 14q41 6 41 -35v-1378q0 -43 -41 -43h-78q-23 0 -33 9.5t-10 31.5zM795 254v477q-33 60 -101 100.5
t-141 40.5q-136 0 -213.5 -101.5t-77.5 -272.5q0 -168 72.5 -273.5t202.5 -105.5q71 0 145 39.5t113 95.5z" />
    <glyph glyph-name="e" unicode="e" horiz-adv-x="1021" 
d="M893 469h-629q5 -152 87 -249t229 -97q154 0 251 43q36 16 46 -14l24 -68q6 -17 1.5 -26.5t-21.5 -18.5q-115 -59 -324 -59q-228 0 -351.5 140t-123.5 376q0 229 127 372.5t344 143.5q97 0 174.5 -34t126.5 -94t74.5 -138t25.5 -168v-52q0 -36 -11 -46.5t-50 -10.5z
M268 588h514v37q0 110 -61 181t-176 71q-122 0 -194 -82t-83 -207z" />
    <glyph glyph-name="f" unicode="f" horiz-adv-x="706" 
d="M362 989h252q17 0 24 -7t7 -24v-61q0 -17 -7 -24t-24 -7h-252v-823q0 -43 -40 -43h-93q-41 0 -41 43v823h-116q-17 0 -24 7t-7 24v61q0 17 7 24t24 7h116v39q0 81 9 164q19 136 101 210.5t222 74.5q111 0 193 -37q19 -8 22.5 -20t-2.5 -21l-20 -68q-8 -30 -43 -18
q-66 24 -129 24q-100 0 -139.5 -62.5t-39.5 -189.5v-96z" />
    <glyph glyph-name="g" unicode="g" horiz-adv-x="1105" 
d="M801 891l2 63q0 35 41 35h90q20 0 28.5 -9.5t8.5 -31.5v-895q0 -246 -110.5 -375t-350.5 -129q-156 0 -293 70q-18 10 -23 19t1 28l30 74q12 31 45 14q119 -61 236 -61q163 0 227 82.5t64 251.5v94q-48 -54 -131 -87.5t-162 -33.5q-106 0 -188 39t-132.5 107.5t-76 156.5
t-25.5 191q0 104 29.5 196.5t84 165t141 114.5t193.5 42q76 0 152 -32.5t119 -88.5zM797 270v461q-34 61 -103 101t-143 40q-75 0 -132.5 -31t-90 -84t-48.5 -116.5t-16 -136.5q0 -69 14 -130.5t44 -115.5t84 -85.5t126 -31.5q74 0 150.5 37t114.5 92z" />
    <glyph glyph-name="h" unicode="h" horiz-adv-x="1101" 
d="M311 748v-705q0 -43 -41 -43h-92q-41 0 -41 43v1356q0 21 6.5 30.5t24.5 12.5l102 14q41 6 41 -35v-530q65 58 156 89.5t180 31.5q322 0 322 -367v-602q0 -43 -41 -43h-92q-41 0 -41 43v573q0 120 -43 185t-156 65q-69 0 -149.5 -34t-135.5 -84z" />
    <glyph glyph-name="i" unicode="i" horiz-adv-x="481" 
d="M240 1329q45 0 75.5 -27.5t30.5 -70.5q0 -44 -29.5 -71t-74.5 -27t-76 27.5t-31 70.5q0 44 30 71t75 27zM328 948v-905q0 -43 -41 -43h-92q-41 0 -41 43v905q0 41 41 41h94q39 0 39 -41z" />
    <glyph glyph-name="j" unicode="j" horiz-adv-x="536" 
d="M381 950v-901q0 -93 -10 -165.5t-36 -137.5t-68 -107t-109.5 -66t-157.5 -24q-64 0 -115 13q-17 4 -22 12t-2 23l12 75q5 31 33 23q46 -10 100 -10q52 0 89.5 18.5t59 47.5t33.5 76t15.5 91t3.5 105v927q0 39 39 39h98q37 0 37 -39zM295 1329q45 0 75.5 -27.5t30.5 -70.5
q0 -44 -29.5 -71t-74.5 -27t-76 27.5t-31 70.5q0 44 30 71t75 27z" />
    <glyph glyph-name="k" unicode="k" horiz-adv-x="907" 
d="M311 403v-360q0 -43 -41 -43h-92q-41 0 -41 43v1356q0 21 6.5 30.5t24.5 12.5l102 14q41 6 41 -35v-827h4l314 367q22 28 57 28h96q26 0 33 -14t-10 -33l-309 -352l366 -539q15 -20 9.5 -35.5t-31.5 -15.5h-111q-45 0 -67 35l-289 434z" />
    <glyph glyph-name="l" unicode="l" horiz-adv-x="448" 
d="M311 1421v-1378q0 -43 -41 -43h-92q-41 0 -41 43v1356q0 21 6.5 30.5t24.5 12.5l102 14q41 6 41 -35z" />
    <glyph glyph-name="m" unicode="m" horiz-adv-x="1693" 
d="M311 748v-705q0 -43 -41 -43h-92q-41 0 -41 43v905q0 41 39 41h88q41 0 41 -37l2 -63q64 58 146 90.5t165 32.5q88 0 158 -32t109 -95q69 62 159 94.5t181 32.5q76 0 134.5 -20.5t96 -55.5t61.5 -87t34 -110t10 -129v-567q0 -43 -41 -43h-93q-41 0 -41 43v573
q0 125 -43 188.5t-159 63.5q-61 0 -130.5 -26.5t-125.5 -69.5q16 -52 16 -225v-504q0 -43 -41 -43h-92q-41 0 -41 43v575q0 58 -7.5 99.5t-27.5 77.5t-59 54.5t-98 18.5q-68 0 -138 -33t-129 -87z" />
    <glyph glyph-name="n" unicode="n" horiz-adv-x="1101" 
d="M311 748v-705q0 -43 -41 -43h-92q-41 0 -41 43v905q0 22 9 31.5t30 9.5h90q39 0 39 -37l2 -63q70 59 158 91t178 32q326 0 326 -367v-602q0 -43 -41 -43h-92q-41 0 -41 43v573q0 58 -8.5 100.5t-30 78t-62 53.5t-100.5 18q-69 0 -148.5 -33.5t-134.5 -84.5z" />
    <glyph glyph-name="o" unicode="o" horiz-adv-x="1095" 
d="M1014 496q0 -146 -53.5 -261.5t-162.5 -185t-257 -69.5q-116 0 -205 39.5t-144 110t-82.5 163.5t-27.5 205q0 146 53 261t161.5 184t256.5 69q154 0 259.5 -68t153.5 -182t48 -266zM834 494q0 75 -15 140.5t-46.5 121.5t-88 88.5t-133.5 32.5q-64 0 -114.5 -22t-83 -58
t-53.5 -85.5t-29.5 -101t-8.5 -108.5q0 -59 8 -112.5t28.5 -104.5t51.5 -88t80.5 -59.5t112.5 -22.5q77 0 135.5 32t91 87t48.5 120t16 140z" />
    <glyph glyph-name="p" unicode="p" horiz-adv-x="1107" 
d="M1026 504q0 -104 -28 -197t-82 -166.5t-140 -117t-194 -43.5q-79 0 -153 29.5t-118 84.5v-491q0 -43 -41 -43h-92q-41 0 -41 43v1345q0 22 9 31.5t30 9.5h84q39 0 39 -37l2 -71q50 59 133.5 95t171.5 36q105 0 187.5 -42t132 -113.5t75 -161t25.5 -191.5zM844 500
q0 72 -13.5 134t-43 118t-85 88t-131.5 32q-72 0 -147 -37.5t-113 -93.5v-481q33 -61 103.5 -102t144.5 -41q76 0 133 33.5t89 90.5t47.5 122t15.5 137z" />
    <glyph glyph-name="q" unicode="q" horiz-adv-x="1103" 
d="M801 893l2 63q0 33 41 33h84q39 0 39 -41v-1345q0 -43 -41 -43h-92q-41 0 -41 43v503q-53 -59 -131.5 -92.5t-163.5 -33.5q-87 0 -157 27.5t-118 75t-80 113.5t-46.5 140t-14.5 158q0 105 28 197.5t82 164.5t140 114t194 42q78 0 154 -31t121 -88zM793 260v465
q-36 62 -106 104.5t-142 42.5q-77 0 -133.5 -31.5t-88 -86.5t-46.5 -118.5t-15 -137.5q0 -55 7.5 -105.5t26.5 -100.5t48.5 -86.5t76.5 -59.5t107 -23q73 0 147.5 40t117.5 97z" />
    <glyph glyph-name="r" unicode="r" horiz-adv-x="651" 
d="M311 741v-698q0 -43 -41 -43h-92q-41 0 -41 43v905q0 22 9 31.5t30 9.5h90q39 0 39 -37l2 -69q93 129 240 129q38 0 56 -7.5t15 -29.5l-14 -92q-4 -25 -29 -25q-2 0 -21.5 3t-37.5 3q-54 0 -109.5 -33t-95.5 -90z" />
    <glyph glyph-name="s" unicode="s" horiz-adv-x="821" 
d="M426 428l-137 53q-94 36 -149.5 101t-55.5 157q0 129 98.5 201t241.5 72q144 0 264 -56q28 -12 19 -38l-25 -68q-9 -29 -41 -16q-111 49 -213 49q-86 0 -130 -37t-44 -94q0 -49 31.5 -79.5t101.5 -60.5l158 -67q207 -86 207 -260q0 -139 -105 -222t-270 -83
q-74 0 -150.5 18.5t-130.5 46.5q-29 16 -18 41l26 70q10 30 39 18q137 -61 238 -61q90 0 144.5 42t54.5 113q0 57 -38.5 93.5t-115.5 66.5z" />
    <glyph glyph-name="t" unicode="t" horiz-adv-x="714" 
d="M180 989v232q0 21 6.5 30.5t24.5 12.5l102 14q41 6 41 -35v-254h240q17 0 24 -7t7 -24v-61q0 -17 -7 -24t-24 -7h-240v-551q0 -106 30 -152t116 -46q61 0 125 22q35 14 43 -18l18 -62q4 -17 -2 -26t-25 -17q-94 -36 -192 -36q-88 0 -145 20t-88 64t-42.5 99.5
t-11.5 139.5v563h-112q-17 0 -24 7t-7 24v61q0 17 7 24t24 7h112z" />
    <glyph glyph-name="u" unicode="u" horiz-adv-x="1093" 
d="M778 250v698q0 41 41 41h94q39 0 39 -41v-907q0 -22 -9 -31.5t-30 -9.5h-90q-39 0 -39 37l-2 65q-143 -122 -323 -122q-322 0 -322 370v598q0 41 41 41h94q39 0 39 -41v-571q0 -122 41.5 -185t155.5 -63q64 0 140.5 36t129.5 85z" />
    <glyph glyph-name="v" unicode="v" horiz-adv-x="929" 
d="M473 193h2l246 763q6 18 17.5 25.5t33.5 7.5h94q41 0 27 -41l-334 -915q-13 -33 -47 -33h-98q-38 0 -49 33l-332 919q-6 17 1.5 27t26.5 10h113q41 0 49 -28z" />
    <glyph glyph-name="w" unicode="w" horiz-adv-x="1415" 
d="M1012 201h4l192 753q9 35 49 35h97q36 0 24 -41l-270 -911q-12 -37 -49 -37h-111q-40 0 -49 37l-194 694h-3l-188 -696q-10 -35 -51 -35h-109q-39 0 -49 37l-270 911q-12 41 31 41h106q43 0 49 -28l195 -758h4l209 755q8 31 41 31h92q30 0 37 -24z" />
    <glyph glyph-name="x" unicode="x" horiz-adv-x="962" 
d="M492 649h2l211 312q20 28 53 28h108q22 0 27 -11t-8 -30l-305 -416l333 -487q12 -19 6.5 -32t-28.5 -13h-121q-45 0 -65 33l-230 366h-2l-240 -368q-19 -31 -59 -31h-117q-15 0 -18 13t6 26l342 475l-291 434q-10 14 -4 27.5t25 13.5h123q36 0 53 -28z" />
    <glyph glyph-name="y" unicode="y" horiz-adv-x="978" 
d="M518 197l258 759q6 18 17.5 25.5t33.5 7.5h99q40 0 26 -41l-395 -1067q-68 -184 -159 -258t-255 -74q-44 0 -94 13q-29 7 -24 37l14 82q6 29 33 26q58 -8 78 -8q84 0 137 38t86 118l51 129l-367 968q-6 17 2 27t27 10h117q41 0 49 -28z" />
    <glyph glyph-name="z" unicode="z" horiz-adv-x="849" 
d="M264 127v-2h492q17 0 23.5 -7t6.5 -24v-63q0 -17 -6.5 -24t-23.5 -7h-652q-34 0 -34 35v55q0 29 26 70l467 704v2h-430q-17 0 -24 7t-7 24v61q0 17 7 24t24 7h594q35 0 35 -35v-49q0 -27 -27 -69z" />
    <glyph glyph-name="braceleft" unicode="{" horiz-adv-x="688" 
d="M229 588v-2q142 -10 150 -305l6 -261q4 -182 141 -182h90q30 0 35 -22l15 -60q3 -16 -4.5 -24t-32.5 -8h-119q-133 0 -208.5 71t-78.5 219l-6 301q-2 104 -25 156t-83 59q-24 3 -29.5 9.5t-5.5 23.5v45q0 16 6.5 24t25.5 9q60 6 84.5 58t26.5 143l6 315q3 144 81 217.5
t206 73.5h131q18 0 24.5 -6t2.5 -23l-15 -59q-5 -27 -28 -27h-99q-138 0 -141 -184l-6 -272q-3 -135 -43.5 -209.5t-106.5 -79.5z" />
    <glyph glyph-name="bar" unicode="|" horiz-adv-x="421" 
d="M129 2v1411q0 43 41 43h82q41 0 41 -43v-1411q0 -43 -41 -43h-82q-41 0 -41 43z" />
    <glyph glyph-name="braceright" unicode="}" horiz-adv-x="688" 
d="M459 584v2q-142 10 -150 305l-6 260q-4 182 -141 182h-90q-29 0 -35 23l-14 59q-3 17 4 25t32 8h119q133 0 208.5 -71t78.5 -220l6 -301q2 -103 25.5 -155.5t83.5 -59.5q17 -2 24.5 -6.5t8.5 -9t1 -17.5v-45q0 -16 -6.5 -24t-25.5 -9q-60 -6 -84.5 -57.5t-26.5 -142.5
l-6 -316q-3 -144 -80.5 -217t-206.5 -73h-131q-18 0 -24.5 6t-2.5 22l15 60q5 26 28 26h99q138 0 141 185l6 272q3 135 43.5 209.5t106.5 79.5z" />
    <glyph glyph-name="asciitilde" unicode="~" horiz-adv-x="1126" 
d="M563 510l-71 41q-65 35 -115 35q-99 0 -141 -66q-11 -20 -22 -25.5t-34 3.5l-53 26q-28 15 -12 54q36 79 113 120t163 41q82 0 166 -51l72 -41q59 -35 119 -35q91 0 135 72q16 34 53 18l57 -24q36 -14 17 -53q-44 -85 -117.5 -125.5t-163.5 -40.5q-77 0 -166 51z" />
    <glyph glyph-name="nbspace" unicode="&#xa0;" horiz-adv-x="475" 
 />
    <glyph glyph-name="exclamdown" unicode="&#xa1;" horiz-adv-x="505" 
d="M158 -379l20 1030q0 19 8 27t27 8h72q21 0 29 -7.5t8 -27.5l18 -1030q0 -41 -39 -41h-102q-22 0 -31.5 9t-9.5 32zM252 788q-47 0 -82 30t-35 81q0 53 35 83t84 30q47 0 82 -30t35 -81q0 -53 -35 -83t-84 -30z" />
    <glyph glyph-name="cent" unicode="&#xa2;" horiz-adv-x="1126" 
d="M938 909l-23 -63q-10 -30 -43 -17q-85 37 -159 45v-759q87 6 170 45q31 13 41 -17l18 -57q7 -18 2.5 -29t-24.5 -20q-95 -43 -207 -53v-154q0 -29 -29 -29h-51q-29 0 -29 29v152q-216 12 -327 148.5t-111 363.5q0 216 117 356.5t321 157.5v168q0 28 29 28h51q29 0 29 -28
v-166q117 -12 207 -58q29 -16 18 -43zM346 502q0 -100 26 -180t85 -136t147 -69v753q-121 -20 -189.5 -117.5t-68.5 -250.5z" />
    <glyph glyph-name="sterling" unicode="&#xa3;" horiz-adv-x="1126" 
d="M811 659h-319v-208q0 -216 -111 -295v-6h604q21 0 30 -7.5t9 -25.5v-84q0 -18 -9 -25.5t-30 -7.5h-819q-21 0 -30 7.5t-9 25.5v59q0 20 6 30.5t27 20.5q147 75 147 295v221h-102q-21 0 -29 6.5t-8 24.5v74q0 18 8 24.5t29 6.5h102v192q0 209 100.5 329t301.5 120
q155 0 272 -56q21 -9 12 -39l-24 -75q-8 -32 -37 -21q-103 39 -201 39q-239 0 -239 -283v-206h319q21 0 29 -6.5t8 -24.5v-74q0 -18 -8 -24.5t-29 -6.5z" />
    <glyph glyph-name="currency" unicode="&#xa4;" horiz-adv-x="1126" 
d="M399 709q0 -79 41.5 -129t122.5 -50t122.5 50t41.5 129t-41.5 128.5t-122.5 49.5t-122.5 -49.5t-41.5 -128.5zM874 709q0 -84 -34 -148l96 -98q17 -18 16.5 -29.5t-16.5 -27.5l-45 -46q-15 -15 -27.5 -15t-29.5 17l-91 91q-80 -58 -180 -58t-180 58l-90 -91
q-17 -17 -29.5 -17t-27.5 15l-46 46q-16 16 -16.5 27.5t16.5 29.5l97 98q-35 65 -35 148q0 82 35 147l-97 98q-17 18 -16.5 30t16.5 28l46 45q15 15 27.5 15t29.5 -17l90 -90q79 57 180 57t180 -57l91 90q17 17 29.5 17t27.5 -15l45 -45q16 -16 16.5 -28t-16.5 -30l-96 -98
q34 -64 34 -147z" />
    <glyph glyph-name="yen" unicode="&#xa5;" horiz-adv-x="1126" 
d="M725 662h178q20 0 26.5 -7t6.5 -28v-47q0 -23 -7 -29t-30 -6h-227v-103h231q20 0 26.5 -7t6.5 -27v-48q0 -22 -7 -28t-30 -6h-227v-285q0 -41 -39 -41h-111q-22 0 -31.5 9t-9.5 32v285h-219q-23 0 -29 7.5t-6 31.5v41q0 23 7.5 29.5t29.5 6.5h217v103h-219q-23 0 -29 7.5
t-6 31.5v41q0 23 7.5 30t29.5 7h158l-375 700q-11 20 -5 34.5t30 14.5h116q27 0 39 -7t23 -28l336 -663h2l325 663q9 19 22 27t38 8h88q23 0 29.5 -12t-3.5 -31z" />
    <glyph glyph-name="brokenbar" unicode="&#xa6;" horiz-adv-x="421" 
d="M129 2v473q0 43 41 43h82q41 0 41 -43v-473q0 -43 -41 -43h-82q-41 0 -41 43zM129 940v473q0 43 41 43h82q41 0 41 -43v-473q0 -43 -41 -43h-82q-41 0 -41 43z" />
    <glyph glyph-name="section" unicode="&#xa7;" horiz-adv-x="952" 
d="M725 479q96 -83 96 -194q0 -138 -103.5 -221.5t-268.5 -83.5q-163 0 -281 53q-19 7 -23 16.5t2 26.5l25 69q11 33 39 19q53 -23 121 -37t121 -14q88 0 144 42t56 111q0 56 -38 93t-115 69l-140 57q-210 87 -210 258q0 70 33 125t91 90q-114 80 -114 205q0 128 102 200.5
t246 72.5q143 0 260 -47q24 -9 18 -33l-24 -78q-8 -25 -41 -14q-100 41 -205 41q-80 0 -128 -36.5t-48 -90.5q0 -48 31.5 -83t97.5 -63l158 -67q209 -88 209 -260q0 -139 -111 -226zM672 684q0 56 -39 92.5t-123 71.5l-92 39q-44 -20 -71.5 -53t-27.5 -72q0 -50 32 -83.5
t100 -64.5l143 -61q78 51 78 131z" />
    <glyph glyph-name="dieresis" unicode="&#xa8;" horiz-adv-x="665" 
d="M154 1436q42 0 72 -27t30 -72q0 -47 -30 -73.5t-74 -26.5q-42 0 -73.5 26.5t-31.5 71.5q0 47 31.5 74t75.5 27zM516 1436q42 0 72 -27t30 -72q0 -47 -30 -73.5t-74 -26.5q-42 0 -73 26.5t-31 71.5q0 47 31 74t75 27z" />
    <glyph glyph-name="copyright" unicode="&#xa9;" horiz-adv-x="1703" 
d="M666 711q0 -122 56 -202.5t163 -80.5q91 0 157 35q23 11 31 -8l17 -41q10 -22 -17 -35q-82 -43 -203 -43q-158 0 -239.5 104.5t-81.5 266.5q0 156 89 264t241 108q109 0 192 -45q23 -13 12 -37l-16 -34q-4 -12 -14.5 -15.5t-20.5 2.5q-70 37 -147 37q-106 0 -162.5 -80
t-56.5 -196zM1591 711q0 -210 -97 -378t-265.5 -260.5t-376.5 -92.5q-158 0 -295 54.5t-234.5 150.5t-153.5 232.5t-56 293.5q0 158 56 293.5t154 230t235 148t294 53.5q209 0 377.5 -91t265 -257.5t96.5 -376.5zM1456 709q0 175 -77.5 312.5t-215.5 212.5t-311 75t-311 -75
t-215.5 -212.5t-77.5 -312.5t77.5 -313t215.5 -214t311 -76t311 76t215.5 214t77.5 313z" />
    <glyph glyph-name="ordfeminine" unicode="&#xaa;" horiz-adv-x="612" 
d="M412 721l-6 31q-64 -64 -162 -64q-78 0 -132.5 45.5t-54.5 126.5q0 190 342 176v6q0 56 -24 84.5t-86 28.5q-63 0 -139 -27q-21 -7 -27.5 -4.5t-11.5 15.5l-15 39q-6 21 -3 29t18 14q83 39 188 39q125 0 180 -58q53 -56 53 -176v-305q0 -13 -5 -19t-21 -6h-64
q-16 0 -21.5 5.5t-8.5 19.5zM399 840v116q-206 9 -206 -92q0 -32 23.5 -54t64.5 -22q32 0 64.5 15t53.5 37z" />
    <glyph glyph-name="guillemotleft" unicode="&#xab;" horiz-adv-x="948" 
d="M276 469l168 -276q18 -29 -8 -43l-49 -29q-27 -15 -45 8l-225 301q-13 19 -13 33q0 23 15 41l221 291q19 25 43 12l55 -31q24 -15 8 -41zM637 469l168 -276q18 -29 -8 -43l-49 -29q-28 -15 -46 8l-225 301q-12 18 -12 33q0 24 14 41l221 291q19 25 43 12l56 -31
q24 -15 8 -41z" />
    <glyph glyph-name="logicalnot" unicode="&#xac;" horiz-adv-x="1126" 
d="M807 592h-660q-19 0 -27.5 7.5t-8.5 25.5v86q0 18 8.5 25t27.5 7h766q30 0 41 -10t11 -35v-364q0 -35 -37 -35h-84q-37 0 -37 35v258z" />
    <glyph glyph-name="uni00AD" unicode="&#xad;" horiz-adv-x="567" 
d="M123 616h321q22 0 30.5 -9t8.5 -32v-79q0 -22 -8.5 -30.5t-30.5 -8.5h-321q-22 0 -30.5 8.5t-8.5 30.5v79q0 23 8.5 32t30.5 9z" />
    <glyph glyph-name="registered" unicode="&#xae;" horiz-adv-x="1703" 
d="M1591 711q0 -210 -97 -378t-265.5 -260.5t-376.5 -92.5q-158 0 -295 54.5t-234.5 150.5t-153.5 232.5t-56 293.5q0 158 56 293.5t154 230t235 148t294 53.5q209 0 377.5 -91t265 -257.5t96.5 -376.5zM1456 709q0 175 -77.5 312.5t-215.5 212.5t-311 75t-311 -75
t-215.5 -212.5t-77.5 -312.5t77.5 -313t215.5 -214t311 -76t311 76t215.5 214t77.5 313zM754 631v-260q0 -27 -25 -27h-61q-25 0 -25 27v669q0 27 27 27h149q266 0 266 -215q0 -71 -39 -124t-102 -77l168 -280q15 -27 -14 -27h-70q-25 0 -35 18l-153 269h-86zM754 719h71
q67 0 107.5 34t40.5 97q0 68 -41 97.5t-121 29.5h-57v-258z" />
    <glyph glyph-name="macron" unicode="&#xaf;" horiz-adv-x="665" 
d="M100 1341h465q22 0 30.5 -9t8.5 -32v-49q0 -22 -8.5 -30.5t-30.5 -8.5h-465q-22 0 -30.5 8.5t-8.5 30.5v49q0 23 8.5 32t30.5 9z" />
    <glyph glyph-name="degree" unicode="&#xb0;" horiz-adv-x="595" 
d="M518 1219q0 -103 -62.5 -160.5t-154.5 -57.5q-95 0 -159 57.5t-64 160.5q0 102 64 159.5t159 57.5q92 0 154.5 -57.5t62.5 -159.5zM403 1219q0 51 -29 77.5t-73 26.5q-46 0 -76 -26.5t-30 -77.5q0 -54 30 -80.5t76 -26.5q45 0 73.5 26.5t28.5 80.5z" />
    <glyph glyph-name="plusminus" unicode="&#xb1;" horiz-adv-x="1126" 
d="M989 119v-86q0 -33 -37 -33h-778q-37 0 -37 33v86q0 33 37 33h778q37 0 37 -33zM989 793v-86q0 -33 -37 -33h-307v-330q0 -35 -37 -35h-88q-37 0 -37 35v330h-309q-37 0 -37 33v86q0 18 8.5 25t28.5 7h309v334q0 35 37 35h88q37 0 37 -35v-334h307q20 0 28.5 -7t8.5 -25z
" />
    <glyph glyph-name="twosuperior" unicode="&#xb2;" horiz-adv-x="618" 
d="M68 936v27q0 27 9.5 43.5t45.5 52.5q155 155 210.5 228.5t55.5 142.5q0 50 -27.5 77t-78.5 27q-63 0 -144 -43q-20 -10 -33 12l-24 41q-14 25 8 39q96 59 207 59q105 0 168 -54t63 -146q0 -86 -66 -181t-229 -239h271q17 0 22.5 -6t5.5 -21v-55q0 -15 -5 -21t-21 -6h-412
q-26 0 -26 23z" />
    <glyph glyph-name="threesuperior" unicode="&#xb3;" horiz-adv-x="618" 
d="M184 1274v45q0 24 25 24h22q80 0 113 33q27 27 27 68q0 43 -30 66.5t-79 23.5q-53 0 -127 -31q-22 -10 -31 8l-20 50q-12 26 12 38q87 43 185 43q117 0 178 -61q47 -47 47 -123q0 -104 -107 -153q61 -15 99.5 -64t38.5 -115q0 -95 -66 -155q-72 -66 -197 -66
q-106 0 -194 45q-24 12 -14 35l20 51q11 25 37 13q73 -33 141 -33q62 0 97.5 30t35.5 82q0 55 -30 82q-42 39 -140 39h-16q-27 0 -27 25z" />
    <glyph glyph-name="acute" unicode="&#xb4;" horiz-adv-x="665" 
d="M494 1417l41 -67q11 -13 8 -29t-21 -23l-313 -161q-31 -15 -49 12l-25 41q-18 32 10 49l289 186q18 13 32.5 12t27.5 -20z" />
    <glyph glyph-name="mu" unicode="&#xb5;" horiz-adv-x="1142" 
d="M780 236v712q0 23 10 32t31 9h92q21 0 31 -9t10 -32v-672q0 -81 9 -110t38 -29t52 15q8 8 25 5t24 -20l24 -53q13 -30 -18 -49q-67 -45 -154 -45q-128 0 -159 114q-59 -59 -136 -91.5t-155 -32.5q-137 0 -195 61v-346q0 -23 -10 -32t-31 -9h-90q-21 0 -31 9t-10 32v1253
q0 23 10 32t31 9h92q21 0 31 -9t10 -32v-577q0 -143 51 -199q47 -53 150 -53q68 0 139.5 32.5t128.5 84.5z" />
    <glyph glyph-name="paragraph" unicode="&#xb6;" horiz-adv-x="1067" 
d="M590 1272v-1518q0 -43 -41 -43h-88q-41 0 -41 43v996q-139 8 -232.5 101.5t-93.5 227.5q0 138 98 235t236 97h432q41 0 41 -43v-1614q0 -43 -39 -43h-57q-39 0 -39 43v1518h-176z" />
    <glyph glyph-name="periodcentered" unicode="&#xb7;" horiz-adv-x="417" 
d="M211 702q48 0 82.5 -29.5t34.5 -80.5q0 -53 -35 -83t-84 -30q-47 0 -82 30t-35 81q0 53 35 82.5t84 29.5z" />
    <glyph glyph-name="cedilla" unicode="&#xb8;" horiz-adv-x="665" 
d="M356 -88h25q86 0 133 -40.5t47 -121.5q0 -74 -54.5 -121t-164.5 -47q-94 0 -149 27q-27 13 -19 37l16 47q10 30 41 16q44 -18 107 -18q34 0 54 14.5t20 42.5q0 59 -82 59h-60q-37 0 -47.5 15t-5.5 51l16 150h132z" />
    <glyph glyph-name="onesuperior" unicode="&#xb9;" horiz-adv-x="618" 
d="M338 1634h55q16 0 21.5 -5.5t5.5 -18.5v-672q0 -13 -5.5 -19t-21.5 -6h-82q-16 0 -21 6t-5 19v557l-135 -80q-26 -14 -37 8l-31 50q-13 22 10 36l178 105q36 20 68 20z" />
    <glyph glyph-name="ordmasculine" unicode="&#xba;" horiz-adv-x="638" 
d="M594 973q0 -126 -74 -205.5t-201 -79.5q-126 0 -200 79.5t-74 205.5t74 206.5t200 80.5t200.5 -80.5t74.5 -206.5zM457 973q0 87 -36 135.5t-102 48.5t-101.5 -48.5t-35.5 -135.5t35.5 -134.5t101.5 -47.5t102 48t36 134z" />
    <glyph glyph-name="guillemotright" unicode="&#xbb;" horiz-adv-x="948" 
d="M313 459l-168 276q-18 28 9 43l49 29q27 15 45 -8l225 -301q12 -18 12 -35q0 -22 -14 -39l-221 -293q-19 -25 -43 -12l-55 33q-25 16 -9 41zM672 459l-168 276q-18 29 8 43l49 29q27 15 45 -8l225 -301q13 -20 13 -35q0 -21 -15 -39l-221 -293q-19 -25 -43 -12l-55 33
q-24 15 -8 41z" />
    <glyph glyph-name="onequarter" unicode="&#xbc;" horiz-adv-x="1613" 
d="M381 1417h55q16 0 21.5 -5.5t5.5 -18.5v-672q0 -13 -5.5 -19t-21.5 -6h-82q-16 0 -21 6t-5 19v557l-135 -80q-26 -14 -37 8l-31 49q-13 23 10 37l178 105q36 20 68 20zM1319 266v144q0 13 5.5 18.5t21.5 5.5h79q16 0 21.5 -5.5t5.5 -18.5v-385q0 -13 -5.5 -19t-21.5 -6
h-79q-16 0 -21.5 6t-5.5 19v133h-334q-17 0 -23 6.5t-6 21.5v17q0 42 19 88l176 405q11 25 37 25h78q18 0 22.5 -7t-2.5 -26l-182 -422h215zM1300 1389l-854 -1371q-14 -23 -27 -30.5t-42 -7.5h-60q-54 0 -26 47l854 1370q15 25 27.5 32t41.5 7h58q58 0 28 -47z" />
    <glyph glyph-name="onehalf" unicode="&#xbd;" horiz-adv-x="1613" 
d="M381 1417h55q16 0 21.5 -5.5t5.5 -18.5v-672q0 -13 -5.5 -19t-21.5 -6h-82q-16 0 -21 6t-5 19v557l-135 -80q-26 -14 -37 8l-31 49q-13 23 10 37l178 105q36 20 68 20zM1014 23v26q0 27 9.5 43.5t45.5 52.5q155 155 210.5 228.5t55.5 142.5q0 50 -27.5 77.5t-78.5 27.5
q-63 0 -144 -43q-20 -10 -32 12l-25 41q-14 25 8 39q96 59 207 59q105 0 168.5 -54.5t63.5 -146.5q0 -86 -65.5 -180.5t-229.5 -238.5h270q17 0 23 -6t6 -21v-55q0 -15 -5.5 -21t-21.5 -6h-412q-26 0 -26 23zM1300 1389l-854 -1371q-14 -23 -27 -30.5t-42 -7.5h-60
q-54 0 -26 47l854 1370q15 25 27.5 32t41.5 7h58q58 0 28 -47z" />
    <glyph glyph-name="threequarters" unicode="&#xbe;" horiz-adv-x="1613" 
d="M233 1057v45q0 24 25 24h23q79 0 112 33q27 27 27 68q0 43 -30 66.5t-79 23.5q-53 0 -127 -31q-21 -9 -30 8l-21 49q-12 27 12 39q87 43 185 43q117 0 178 -61q47 -47 47 -123q0 -106 -106 -154q61 -15 99 -63.5t38 -114.5q0 -95 -66 -155q-72 -66 -196 -66
q-107 0 -195 45q-24 12 -14 35l20 51q11 24 37 12q71 -32 141 -32q62 0 97.5 30t35.5 82q0 55 -30 82q-42 39 -140 39h-16q-27 0 -27 25zM1319 266v144q0 13 5.5 18.5t21.5 5.5h79q16 0 21.5 -5.5t5.5 -18.5v-385q0 -13 -5.5 -19t-21.5 -6h-79q-16 0 -21.5 6t-5.5 19v133
h-334q-17 0 -23 6.5t-6 21.5v17q0 42 19 88l176 405q11 25 37 25h78q18 0 22.5 -7t-2.5 -26l-182 -422h215zM1309 1389l-854 -1371q-13 -23 -27 -30.5t-43 -7.5h-59q-55 0 -27 47l854 1370q15 25 28 32t42 7h57q59 0 29 -47z" />
    <glyph glyph-name="questiondown" unicode="&#xbf;" horiz-adv-x="862" 
d="M109 -129q0 153 124 287l150 161q102 114 102 199q0 20 -6 68q-3 32 29 32h82q26 0 33 -28q10 -42 10 -101q0 -120 -94 -221l-150 -155q-110 -115 -110 -217q0 -58 19.5 -100t53.5 -64.5t72 -32.5t82 -10q110 0 201 51q10 6 22 2.5t16 -16.5l27 -68q10 -27 -14 -39
q-126 -70 -289 -70q-151 0 -255.5 87.5t-104.5 234.5zM537 788q-47 0 -82 30t-35 81q0 53 35 83t84 30q47 0 81.5 -30t34.5 -81q0 -53 -34.5 -83t-83.5 -30z" />
    <glyph glyph-name="Agrave" unicode="&#xc0;" horiz-adv-x="1245" 
d="M348 418l-141 -385q-6 -19 -16.5 -26t-32.5 -7h-113q-41 0 -25 41l515 1341q11 29 36 29h109q28 0 37 -25l506 -1345q16 -41 -27 -41h-131q-22 0 -32.5 7t-16.5 26l-137 385h-531zM397 559h432l-211 608h-2zM813 1610l-25 -43q-17 -28 -51 -11l-309 156q-37 18 -12 53
l43 66q11 19 25 20t34 -12l285 -182q26 -18 10 -47z" />
    <glyph glyph-name="Aacute" unicode="&#xc1;" horiz-adv-x="1245" 
d="M348 418l-141 -385q-6 -19 -16.5 -26t-32.5 -7h-113q-41 0 -25 41l515 1341q11 29 36 29h109q28 0 37 -25l506 -1345q16 -41 -27 -41h-131q-22 0 -32.5 7t-16.5 26l-137 385h-531zM397 559h432l-211 608h-2zM791 1833l40 -68q11 -13 8.5 -28.5t-20.5 -22.5l-313 -162
q-30 -15 -49 13l-25 41q-18 32 10 49l289 186q18 13 32.5 12t27.5 -20z" />
    <glyph glyph-name="Acircumflex" unicode="&#xc2;" horiz-adv-x="1245" 
d="M348 418l-141 -385q-6 -19 -16.5 -26t-32.5 -7h-113q-41 0 -25 41l515 1341q11 29 36 29h109q28 0 37 -25l506 -1345q16 -41 -27 -41h-131q-22 0 -32.5 7t-16.5 26l-137 385h-531zM397 559h432l-211 608h-2zM614 1710l-198 -156q-30 -24 -51 0l-29 31q-19 22 2 43
l215 195q19 16 43 16h37q24 0 41 -14l225 -201q21 -21 2 -43l-31 -33q-23 -23 -45 -4z" />
    <glyph glyph-name="Atilde" unicode="&#xc3;" horiz-adv-x="1245" 
d="M348 418l-141 -385q-6 -19 -16.5 -26t-32.5 -7h-113q-41 0 -25 41l515 1341q11 29 36 29h109q28 0 37 -25l506 -1345q16 -41 -27 -41h-131q-22 0 -32.5 7t-16.5 26l-137 385h-531zM397 559h432l-211 608h-2zM606 1610l-47 22q-60 29 -90 29q-37 0 -54.5 -12t-33.5 -43
q-18 -36 -53 -19l-41 21q-32 13 -17 49q26 69 83.5 102t131.5 33q39 0 70 -8.5t80 -32.5l49 -25q54 -26 96 -26q46 0 74 47q23 41 59 22l41 -20q23 -12 13 -43q-24 -69 -79 -105t-124 -36q-63 0 -158 45z" />
    <glyph glyph-name="Adieresis" unicode="&#xc4;" horiz-adv-x="1245" 
d="M348 418l-141 -385q-6 -19 -16.5 -26t-32.5 -7h-113q-41 0 -25 41l515 1341q11 29 36 29h109q28 0 37 -25l506 -1345q16 -41 -27 -41h-131q-22 0 -32.5 7t-16.5 26l-137 385h-531zM397 559h432l-211 608h-2zM440 1772q42 0 72.5 -27t30.5 -72q0 -47 -30.5 -73.5
t-74.5 -26.5q-42 0 -73 26.5t-31 71.5q0 47 31 74t75 27zM803 1772q42 0 72 -27t30 -72q0 -47 -30 -73.5t-74 -26.5q-42 0 -73.5 26.5t-31.5 71.5q0 47 31.5 74t75.5 27z" />
    <glyph glyph-name="Aring" unicode="&#xc5;" horiz-adv-x="1245" 
d="M348 418l-141 -385q-6 -19 -16.5 -26t-32.5 -7h-113q-41 0 -25 41l515 1341q11 29 36 29h109q28 0 37 -25l506 -1345q16 -41 -27 -41h-131q-22 0 -32.5 7t-16.5 26l-137 385h-531zM397 559h432l-211 608h-2zM813 1679q0 -80 -55 -136t-140 -56q-82 0 -138 56.5t-56 135.5
t56.5 136t137.5 57q85 0 140 -56.5t55 -136.5zM696 1679q0 32 -23 54t-55 22t-54.5 -22t-22.5 -54t22.5 -53.5t54.5 -21.5q33 0 55.5 21.5t22.5 53.5z" />
    <glyph glyph-name="AE" unicode="&#xc6;" horiz-adv-x="1800" 
d="M1102 1262v-449h483q21 0 30 -7.5t9 -25.5v-82q0 -18 -9 -25t-30 -7h-483v-516h569q21 0 30 -7.5t9 -25.5v-84q0 -18 -9 -25.5t-30 -7.5h-717q-43 0 -43 47v373h-456l-246 -385q-21 -35 -62 -35h-114q-21 0 -25 13t8 30l852 1327q25 41 80 41h723q41 0 35 -35l-12 -82
q-3 -19 -12.5 -25.5t-32.5 -6.5h-547zM535 561h376v594z" />
    <glyph glyph-name="Ccedilla" unicode="&#xc7;" horiz-adv-x="1210" 
d="M778 -88h25q86 0 133 -40.5t47 -121.5q0 -74 -54.5 -121t-164.5 -47q-95 0 -150 27q-26 13 -18 37l16 47q10 30 41 16q44 -18 107 -18q34 0 54 14.5t20 42.5q0 59 -82 59h-60q-37 0 -47.5 15t-5.5 51l12 111q-137 14 -243.5 75.5t-173 159t-100.5 220.5t-34 266
q0 148 43.5 279.5t123.5 232.5t203.5 160t272.5 59q209 0 377 -93q33 -17 19 -53l-35 -73q-6 -14 -18.5 -18t-26.5 3q-141 80 -303 80q-111 0 -200 -48.5t-143 -129t-82 -179t-28 -204.5q0 -95 16.5 -181t52.5 -161t88 -130t128 -86.5t168 -31.5q167 0 315 74q38 17 51 -19
l25 -61q15 -40 -23 -57q-155 -77 -342 -86z" />
    <glyph glyph-name="Egrave" unicode="&#xc8;" horiz-adv-x="1044" 
d="M346 1262v-449h483q21 0 30 -7.5t9 -25.5v-82q0 -18 -9 -25t-30 -7h-483v-516h569q21 0 30 -7.5t9 -25.5v-84q0 -18 -9 -25.5t-30 -7.5h-716q-43 0 -43 47v1317q0 47 43 47h716q41 0 35 -35l-12 -82q-3 -19 -12.5 -25.5t-32.5 -6.5h-547zM748 1610l-25 -43
q-17 -28 -51 -11l-310 156q-37 18 -12 53l43 66q11 19 25.5 20t34.5 -12l284 -182q27 -19 11 -47z" />
    <glyph glyph-name="Eacute" unicode="&#xc9;" horiz-adv-x="1044" 
d="M346 1262v-449h483q21 0 30 -7.5t9 -25.5v-82q0 -18 -9 -25t-30 -7h-483v-516h569q21 0 30 -7.5t9 -25.5v-84q0 -18 -9 -25.5t-30 -7.5h-716q-43 0 -43 47v1317q0 47 43 47h716q41 0 35 -35l-12 -82q-3 -19 -12.5 -25.5t-32.5 -6.5h-547zM737 1833l41 -68
q11 -13 8.5 -28.5t-20.5 -22.5l-313 -162q-31 -16 -50 13l-24 41q-18 32 10 49l289 186q18 13 32 12t27 -20z" />
    <glyph glyph-name="Ecircumflex" unicode="&#xca;" horiz-adv-x="1044" 
d="M346 1262v-449h483q21 0 30 -7.5t9 -25.5v-82q0 -18 -9 -25t-30 -7h-483v-516h569q21 0 30 -7.5t9 -25.5v-84q0 -18 -9 -25.5t-30 -7.5h-716q-43 0 -43 47v1317q0 47 43 47h716q41 0 35 -35l-12 -82q-3 -19 -12.5 -25.5t-32.5 -6.5h-547zM565 1710l-198 -156
q-31 -24 -52 0l-28 31q-19 22 2 43l215 195q19 16 43 16h37q24 0 41 -14l225 -201q21 -21 2 -43l-31 -33q-23 -23 -45 -4z" />
    <glyph glyph-name="Edieresis" unicode="&#xcb;" horiz-adv-x="1044" 
d="M346 1262v-449h483q21 0 30 -7.5t9 -25.5v-82q0 -18 -9 -25t-30 -7h-483v-516h569q21 0 30 -7.5t9 -25.5v-84q0 -18 -9 -25.5t-30 -7.5h-716q-43 0 -43 47v1317q0 47 43 47h716q41 0 35 -35l-12 -82q-3 -19 -12.5 -25.5t-32.5 -6.5h-547zM391 1772q42 0 72.5 -27
t30.5 -72q0 -47 -30.5 -73.5t-74.5 -26.5q-42 0 -73 26.5t-31 71.5q0 47 31 74t75 27zM754 1772q42 0 72 -27t30 -72q0 -47 -30 -73.5t-74 -26.5q-42 0 -73.5 26.5t-31.5 71.5q0 47 31.5 74t75.5 27z" />
    <glyph glyph-name="Igrave" unicode="&#xcc;" horiz-adv-x="759" 
d="M473 1284v-1155h119q22 0 30.5 -7t8.5 -26v-63q0 -19 -8.5 -26t-30.5 -7h-418q-22 0 -30.5 7t-8.5 26v63q0 19 8.5 26t30.5 7h115v1155h-123q-22 0 -30.5 7t-8.5 26v61q0 19 8.5 26t30.5 7h428q22 0 30.5 -7t8.5 -26v-61q0 -19 -8.5 -26t-30.5 -7h-121zM573 1610l-24 -43
q-17 -28 -51 -11l-310 156q-37 18 -12 53l43 66q11 19 25.5 20t34.5 -12l284 -182q26 -18 10 -47z" />
    <glyph glyph-name="Iacute" unicode="&#xcd;" horiz-adv-x="759" 
d="M473 1284v-1155h119q22 0 30.5 -7t8.5 -26v-63q0 -19 -8.5 -26t-30.5 -7h-418q-22 0 -30.5 7t-8.5 26v63q0 19 8.5 26t30.5 7h115v1155h-123q-22 0 -30.5 7t-8.5 26v61q0 19 8.5 26t30.5 7h428q22 0 30.5 -7t8.5 -26v-61q0 -19 -8.5 -26t-30.5 -7h-121zM573 1833l41 -68
q11 -13 8.5 -28.5t-20.5 -22.5l-313 -162q-30 -15 -49 13l-25 41q-18 32 10 49l289 186q18 13 32 12t27 -20z" />
    <glyph glyph-name="Icircumflex" unicode="&#xce;" horiz-adv-x="759" 
d="M473 1284v-1155h119q22 0 30.5 -7t8.5 -26v-63q0 -19 -8.5 -26t-30.5 -7h-418q-22 0 -30.5 7t-8.5 26v63q0 19 8.5 26t30.5 7h115v1155h-123q-22 0 -30.5 7t-8.5 26v61q0 19 8.5 26t30.5 7h428q22 0 30.5 -7t8.5 -26v-61q0 -19 -8.5 -26t-30.5 -7h-121zM379 1710
l-199 -156q-30 -24 -51 0l-29 31q-19 22 2 43l215 195q19 16 43 16h37q24 0 41 -14l226 -201q21 -21 2 -43l-31 -33q-23 -23 -45 -4z" />
    <glyph glyph-name="Idieresis" unicode="&#xcf;" horiz-adv-x="759" 
d="M473 1284v-1155h119q22 0 30.5 -7t8.5 -26v-63q0 -19 -8.5 -26t-30.5 -7h-418q-22 0 -30.5 7t-8.5 26v63q0 19 8.5 26t30.5 7h115v1155h-123q-22 0 -30.5 7t-8.5 26v61q0 19 8.5 26t30.5 7h428q22 0 30.5 -7t8.5 -26v-61q0 -19 -8.5 -26t-30.5 -7h-121zM205 1772
q42 0 72 -27t30 -72q0 -47 -30 -73.5t-74 -26.5q-42 0 -73.5 26.5t-31.5 71.5q0 47 31.5 74t75.5 27zM567 1772q42 0 72.5 -27t30.5 -72q0 -47 -30.5 -73.5t-74.5 -26.5q-42 0 -73 26.5t-31 71.5q0 47 31 74t75 27z" />
    <glyph glyph-name="Eth" unicode="&#xd0;" horiz-adv-x="1404" 
d="M188 768v596q0 47 43 47h275q200 0 314.5 -21.5t209.5 -80.5q133 -83 207 -240.5t74 -370.5q0 -174 -54.5 -314.5t-156.5 -233.5q-169 -150 -504 -150h-365q-43 0 -43 47v576h-139q-24 0 -33.5 9.5t-9.5 33.5v57q0 26 9 35.5t34 9.5h139zM1108 700q0 150 -44.5 270.5
t-129.5 188.5q-121 98 -361 98h-194v-489h254q25 0 34 -9.5t9 -35.5v-57q0 -24 -9.5 -33.5t-33.5 -9.5h-254v-471h176q149 0 242.5 23.5t160.5 90.5q150 153 150 434z" />
    <glyph glyph-name="Ntilde" unicode="&#xd1;" horiz-adv-x="1421" 
d="M1085 311h5v1059q0 41 38 41h97q22 0 31.5 -9t9.5 -32v-1329q0 -41 -39 -41h-90q-44 0 -70 41l-731 1044h-4v-1044q0 -41 -39 -41h-96q-22 0 -31.5 9t-9.5 32v1329q0 41 39 41h81q44 0 70 -41zM711 1610l-47 22q-60 29 -91 29q-37 0 -54.5 -12t-33.5 -43q-18 -36 -53 -19
l-41 21q-31 12 -16 49q26 69 83.5 102t131.5 33q39 0 69.5 -8.5t79.5 -32.5l49 -25q54 -26 97 -26q45 0 73 47q23 41 60 22l41 -20q22 -11 12 -43q-24 -69 -79 -105t-124 -36q-62 0 -157 45z" />
    <glyph glyph-name="Ograve" unicode="&#xd2;" horiz-adv-x="1384" 
d="M1284 715q0 -171 -46 -310.5t-127 -232t-191 -142.5t-238 -50q-274 0 -428 192t-154 528q0 332 166 534t434 202q185 0 318 -92t199.5 -253.5t66.5 -375.5zM1083 709q0 271 -100 420t-287 149q-177 0 -286 -158.5t-109 -412.5q0 -269 102.5 -420.5t286.5 -151.5
q175 0 284 156.5t109 417.5zM885 1610l-25 -43q-17 -28 -51 -11l-309 156q-37 18 -13 53l43 66q11 19 25.5 20t34.5 -12l284 -182q27 -19 11 -47z" />
    <glyph glyph-name="Oacute" unicode="&#xd3;" horiz-adv-x="1384" 
d="M1284 715q0 -171 -46 -310.5t-127 -232t-191 -142.5t-238 -50q-274 0 -428 192t-154 528q0 332 166 534t434 202q185 0 318 -92t199.5 -253.5t66.5 -375.5zM1083 709q0 271 -100 420t-287 149q-177 0 -286 -158.5t-109 -412.5q0 -269 102.5 -420.5t286.5 -151.5
q175 0 284 156.5t109 417.5zM885 1833l41 -68q11 -13 8 -28.5t-21 -22.5l-313 -162q-30 -15 -49 13l-25 41q-18 32 11 49l288 186q18 13 32.5 12t27.5 -20z" />
    <glyph glyph-name="Ocircumflex" unicode="&#xd4;" horiz-adv-x="1384" 
d="M1284 715q0 -171 -46 -310.5t-127 -232t-191 -142.5t-238 -50q-274 0 -428 192t-154 528q0 332 166 534t434 202q185 0 318 -92t199.5 -253.5t66.5 -375.5zM1083 709q0 271 -100 420t-287 149q-177 0 -286 -158.5t-109 -412.5q0 -269 102.5 -420.5t286.5 -151.5
q175 0 284 156.5t109 417.5zM696 1710l-198 -156q-31 -24 -52 0l-28 31q-19 22 2 43l215 195q19 16 43 16h37q24 0 41 -14l225 -201q21 -21 2 -43l-31 -33q-23 -23 -45 -4z" />
    <glyph glyph-name="Otilde" unicode="&#xd5;" horiz-adv-x="1384" 
d="M1284 715q0 -171 -46 -310.5t-127 -232t-191 -142.5t-238 -50q-274 0 -428 192t-154 528q0 332 166 534t434 202q185 0 318 -92t199.5 -253.5t66.5 -375.5zM1083 709q0 271 -100 420t-287 149q-177 0 -286 -158.5t-109 -412.5q0 -269 102.5 -420.5t286.5 -151.5
q175 0 284 156.5t109 417.5zM688 1610l-47 22q-60 29 -90 29q-37 0 -54.5 -12t-33.5 -43q-18 -36 -53 -19l-41 21q-32 13 -17 49q26 69 83.5 102t131.5 33q39 0 70 -8.5t80 -32.5l49 -25q54 -26 96 -26q46 0 74 47q23 41 59 22l41 -20q23 -12 13 -43q-24 -69 -79 -105
t-124 -36q-63 0 -158 45z" />
    <glyph glyph-name="Odieresis" unicode="&#xd6;" horiz-adv-x="1384" 
d="M1284 715q0 -171 -46 -310.5t-127 -232t-191 -142.5t-238 -50q-274 0 -428 192t-154 528q0 332 166 534t434 202q185 0 318 -92t199.5 -253.5t66.5 -375.5zM1083 709q0 271 -100 420t-287 149q-177 0 -286 -158.5t-109 -412.5q0 -269 102.5 -420.5t286.5 -151.5
q175 0 284 156.5t109 417.5zM522 1772q42 0 72.5 -27t30.5 -72q0 -47 -30.5 -73.5t-74.5 -26.5q-42 0 -73 26.5t-31 71.5q0 47 31 74t75 27zM885 1772q42 0 72 -27t30 -72q0 -47 -30 -73.5t-74 -26.5q-42 0 -73.5 26.5t-31.5 71.5q0 47 31.5 74t75.5 27z" />
    <glyph glyph-name="multiply" unicode="&#xd7;" horiz-adv-x="1126" 
d="M561 422l-262 -260q-27 -26 -53 0l-56 57q-23 25 3 51l260 260l-265 265q-25 25 -2 51l62 63q26 27 53 0l266 -264l258 258q27 27 54 0l57 -57q23 -26 -2 -51l-260 -260l262 -261q25 -25 2 -51l-61 -63q-27 -27 -54 0z" />
    <glyph glyph-name="Oslash" unicode="&#xd8;" horiz-adv-x="1384" 
d="M1284 715q0 -171 -46 -310.5t-127 -232t-191 -142.5t-238 -50q-182 0 -315 88l-84 -129q-23 -36 -54 -19l-53 35q-28 17 -6 51l98 150q-168 193 -168 544q0 332 166 534t434 202q198 0 336 -107l99 150q14 22 27 25t26 -7l53 -35q28 -17 6 -51l-114 -176
q151 -196 151 -520zM301 707q0 -237 78 -381l561 856q-99 96 -244 96q-177 0 -286 -158.5t-109 -412.5zM1083 709q0 213 -63 354l-555 -848q89 -80 225 -80q175 0 284 156.5t109 417.5z" />
    <glyph glyph-name="Ugrave" unicode="&#xd9;" horiz-adv-x="1423" 
d="M1274 1370v-754q0 -145 -31 -258.5t-96.5 -199.5t-175 -132t-258.5 -46q-131 0 -229 30t-161.5 83t-102 135.5t-54.5 179t-16 221.5v741q0 41 38 41h111q22 0 31.5 -9t9.5 -32v-723q0 -66 3 -115.5t12 -105t25.5 -95.5t44.5 -79t67 -62.5t95.5 -38t127.5 -14.5
q69 0 123.5 15t93 40t66 64t44 80t26 96.5t12.5 105t3 111.5v721q0 41 39 41h111q22 0 31.5 -9t9.5 -32zM901 1610l-24 -43q-17 -28 -52 -11l-309 156q-37 18 -12 53l43 66q11 19 25 20t34 -12l285 -182q26 -18 10 -47z" />
    <glyph glyph-name="Uacute" unicode="&#xda;" horiz-adv-x="1423" 
d="M1274 1370v-754q0 -145 -31 -258.5t-96.5 -199.5t-175 -132t-258.5 -46q-131 0 -229 30t-161.5 83t-102 135.5t-54.5 179t-16 221.5v741q0 41 38 41h111q22 0 31.5 -9t9.5 -32v-723q0 -66 3 -115.5t12 -105t25.5 -95.5t44.5 -79t67 -62.5t95.5 -38t127.5 -14.5
q69 0 123.5 15t93 40t66 64t44 80t26 96.5t12.5 105t3 111.5v721q0 41 39 41h111q22 0 31.5 -9t9.5 -32zM899 1833l41 -68q11 -13 8.5 -28.5t-20.5 -22.5l-314 -162q-30 -15 -49 13l-24 41q-18 32 10 49l289 186q18 13 32 12t27 -20z" />
    <glyph glyph-name="Ucircumflex" unicode="&#xdb;" horiz-adv-x="1423" 
d="M1274 1370v-754q0 -145 -31 -258.5t-96.5 -199.5t-175 -132t-258.5 -46q-131 0 -229 30t-161.5 83t-102 135.5t-54.5 179t-16 221.5v741q0 41 38 41h111q22 0 31.5 -9t9.5 -32v-723q0 -66 3 -115.5t12 -105t25.5 -95.5t44.5 -79t67 -62.5t95.5 -38t127.5 -14.5
q69 0 123.5 15t93 40t66 64t44 80t26 96.5t12.5 105t3 111.5v721q0 41 39 41h111q22 0 31.5 -9t9.5 -32zM709 1710l-199 -156q-30 -24 -51 0l-29 31q-19 22 2 43l215 195q19 16 43 16h37q24 0 41 -14l225 -201q21 -21 2 -43l-30 -33q-23 -23 -45 -4z" />
    <glyph glyph-name="Udieresis" unicode="&#xdc;" horiz-adv-x="1423" 
d="M1274 1370v-754q0 -145 -31 -258.5t-96.5 -199.5t-175 -132t-258.5 -46q-131 0 -229 30t-161.5 83t-102 135.5t-54.5 179t-16 221.5v741q0 41 38 41h111q22 0 31.5 -9t9.5 -32v-723q0 -66 3 -115.5t12 -105t25.5 -95.5t44.5 -79t67 -62.5t95.5 -38t127.5 -14.5
q69 0 123.5 15t93 40t66 64t44 80t26 96.5t12.5 105t3 111.5v721q0 41 39 41h111q22 0 31.5 -9t9.5 -32zM535 1772q42 0 72 -27t30 -72q0 -47 -30.5 -73.5t-74.5 -26.5q-42 0 -73 26.5t-31 71.5q0 47 31.5 74t75.5 27zM897 1772q42 0 72 -27t30 -72q0 -47 -30 -73.5
t-74 -26.5q-42 0 -73 26.5t-31 71.5q0 47 31 74t75 27z" />
    <glyph glyph-name="Yacute" unicode="&#xdd;" horiz-adv-x="1126" 
d="M479 41v512l-434 809q-11 20 -5 34.5t30 14.5h116q27 0 39 -7t23 -28l336 -663h2l325 663q9 19 22 27t38 8h88q23 0 29.5 -12t-3.5 -31l-415 -811v-516q0 -41 -39 -41h-111q-22 0 -31.5 9t-9.5 32zM768 1833l41 -68q11 -13 8.5 -28.5t-20.5 -22.5l-314 -162
q-30 -15 -49 13l-24 41q-18 32 10 49l289 186q18 13 32 12t27 -20z" />
    <glyph glyph-name="Thorn" unicode="&#xde;" horiz-adv-x="1062" 
d="M346 1370v-174h117q119 0 214 -23.5t168.5 -73.5t113.5 -134.5t40 -198.5q0 -115 -39 -201.5t-111 -139.5t-167.5 -79.5t-214.5 -26.5h-121v-278q0 -41 -39 -41h-110q-22 0 -31.5 9t-9.5 32v1329q0 41 39 41h110q22 0 31.5 -9t9.5 -32zM459 1051h-113v-586h127
q161 0 247.5 68t86.5 229q0 157 -92 223t-256 66z" />
    <glyph glyph-name="germandbls" unicode="&#xdf;" horiz-adv-x="1142" 
d="M1073 420q0 -111 -39 -197t-106 -138t-150 -78.5t-178 -26.5q-72 0 -102 6q-25 6 -32 14t-7 29v57q0 22 9 28.5t32 6.5q6 0 38.5 -3t49.5 -3q153 0 229 87.5t76 221.5q0 72 -28.5 128t-75.5 89t-103 49.5t-117 16.5h-77q-18 0 -25.5 7.5t-7.5 24.5v66q0 18 7.5 25.5
t25.5 7.5h30q107 0 190 71t83 191q0 121 -64.5 181t-185.5 60q-110 0 -172 -74.5t-62 -217.5v-1199q0 -43 -41 -43h-92q-41 0 -41 43v1178q0 102 22.5 181.5t71 140.5t130.5 94t194 33q86 0 160 -21t133 -63t93 -112.5t34 -162.5q0 -108 -65.5 -202t-172.5 -121v-2
q145 -18 240.5 -120.5t95.5 -252.5z" />
    <glyph glyph-name="agrave" unicode="&#xe0;" horiz-adv-x="1112" 
d="M797 152h-4q-36 -69 -126 -120.5t-182 -51.5q-103 0 -182.5 41t-127.5 111.5t-72.5 158t-24.5 186.5q0 125 35.5 227.5t95.5 169t138.5 102.5t166.5 36q80 0 155 -33t119 -92l3 65q0 37 38 37h91q38 0 38 -39v-717q0 -63 8 -86.5t38 -23.5h8q19 0 27 -7t8 -24v-61
q0 -17 -8 -24t-27 -7h-82q-64 0 -98.5 43.5t-34.5 108.5zM784 332v393q-36 68 -104 107.5t-143 39.5q-122 0 -199.5 -102t-77.5 -281q0 -167 70 -265.5t182 -98.5q93 0 167.5 62t104.5 145zM723 1200l-25 -43q-16 -27 -51 -10l-309 156q-37 18 -12 53l43 65q11 19 25 20.5
t34 -11.5l285 -183q26 -18 10 -47z" />
    <glyph glyph-name="aacute" unicode="&#xe1;" horiz-adv-x="1112" 
d="M797 152h-4q-36 -69 -126 -120.5t-182 -51.5q-103 0 -182.5 41t-127.5 111.5t-72.5 158t-24.5 186.5q0 125 35.5 227.5t95.5 169t138.5 102.5t166.5 36q80 0 155 -33t119 -92l3 65q0 37 38 37h91q38 0 38 -39v-717q0 -63 8 -86.5t38 -23.5h8q19 0 27 -7t8 -24v-61
q0 -17 -8 -24t-27 -7h-82q-64 0 -98.5 43.5t-34.5 108.5zM784 332v393q-36 68 -104 107.5t-143 39.5q-122 0 -199.5 -102t-77.5 -281q0 -167 70 -265.5t182 -98.5q93 0 167.5 62t104.5 145zM723 1417l41 -67q11 -13 8.5 -29t-20.5 -23l-314 -161q-31 -15 -49 12l-24 41
q-18 32 10 49l289 186q18 13 32 12t27 -20z" />
    <glyph glyph-name="acircumflex" unicode="&#xe2;" horiz-adv-x="1112" 
d="M797 152h-4q-36 -69 -126 -120.5t-182 -51.5q-103 0 -182.5 41t-127.5 111.5t-72.5 158t-24.5 186.5q0 125 35.5 227.5t95.5 169t138.5 102.5t166.5 36q80 0 155 -33t119 -92l3 65q0 37 38 37h91q38 0 38 -39v-717q0 -63 8 -86.5t38 -23.5h8q19 0 27 -7t8 -24v-61
q0 -17 -8 -24t-27 -7h-82q-64 0 -98.5 43.5t-34.5 108.5zM784 332v393q-36 68 -104 107.5t-143 39.5q-122 0 -199.5 -102t-77.5 -281q0 -167 70 -265.5t182 -98.5q93 0 167.5 62t104.5 145zM524 1300l-198 -155q-31 -24 -52 0l-28 31q-19 22 2 43l215 194q20 17 43 17h37
q23 0 41 -15l225 -201q21 -21 2 -43l-31 -32q-23 -23 -45 -4z" />
    <glyph glyph-name="atilde" unicode="&#xe3;" horiz-adv-x="1112" 
d="M797 152h-4q-36 -69 -126 -120.5t-182 -51.5q-103 0 -182.5 41t-127.5 111.5t-72.5 158t-24.5 186.5q0 125 35.5 227.5t95.5 169t138.5 102.5t166.5 36q80 0 155 -33t119 -92l3 65q0 37 38 37h91q38 0 38 -39v-717q0 -63 8 -86.5t38 -23.5h8q19 0 27 -7t8 -24v-61
q0 -17 -8 -24t-27 -7h-82q-64 0 -98.5 43.5t-34.5 108.5zM784 332v393q-36 68 -104 107.5t-143 39.5q-122 0 -199.5 -102t-77.5 -281q0 -167 70 -265.5t182 -98.5q93 0 167.5 62t104.5 145zM526 1210l-47 23q-60 29 -90 29q-36 0 -54 -12.5t-34 -43.5q-18 -35 -53 -18
l-41 20q-32 13 -17 49q26 69 84 102.5t132 33.5q39 0 69.5 -8.5t79.5 -32.5l49 -25q56 -27 96 -27q46 0 74 48q23 41 60 22l40 -20q23 -12 13 -43q-24 -69 -79 -105.5t-124 -36.5q-63 0 -158 45z" />
    <glyph glyph-name="adieresis" unicode="&#xe4;" horiz-adv-x="1112" 
d="M797 152h-4q-36 -69 -126 -120.5t-182 -51.5q-103 0 -182.5 41t-127.5 111.5t-72.5 158t-24.5 186.5q0 125 35.5 227.5t95.5 169t138.5 102.5t166.5 36q80 0 155 -33t119 -92l3 65q0 37 38 37h91q38 0 38 -39v-717q0 -63 8 -86.5t38 -23.5h8q19 0 27 -7t8 -24v-61
q0 -17 -8 -24t-27 -7h-82q-64 0 -98.5 43.5t-34.5 108.5zM784 332v393q-36 68 -104 107.5t-143 39.5q-122 0 -199.5 -102t-77.5 -281q0 -167 70 -265.5t182 -98.5q93 0 167.5 62t104.5 145zM344 1393q42 0 72 -27t30 -72q0 -47 -30 -73.5t-74 -26.5q-42 0 -73 26.5t-31 71.5
q0 47 31 74t75 27zM707 1393q42 0 72 -27t30 -72q0 -47 -30 -73.5t-74 -26.5q-42 0 -73.5 26.5t-31.5 71.5q0 47 31.5 74t75.5 27z" />
    <glyph glyph-name="aring" unicode="&#xe5;" horiz-adv-x="1112" 
d="M797 152h-4q-36 -69 -126 -120.5t-182 -51.5q-103 0 -182.5 41t-127.5 111.5t-72.5 158t-24.5 186.5q0 125 35.5 227.5t95.5 169t138.5 102.5t166.5 36q80 0 155 -33t119 -92l3 65q0 37 38 37h91q38 0 38 -39v-717q0 -63 8 -86.5t38 -23.5h8q19 0 27 -7t8 -24v-61
q0 -17 -8 -24t-27 -7h-82q-64 0 -98.5 43.5t-34.5 108.5zM784 332v393q-36 68 -104 107.5t-143 39.5q-122 0 -199.5 -102t-77.5 -281q0 -167 70 -265.5t182 -98.5q93 0 167.5 62t104.5 145zM725 1270q0 -80 -55 -136.5t-140 -56.5q-82 0 -138 57t-56 136t56.5 135.5
t137.5 56.5q85 0 140 -56t55 -136zM608 1270q0 32 -23 54t-55 22t-54.5 -22t-22.5 -54t22.5 -54t54.5 -22t55 22t23 54z" />
    <glyph glyph-name="ae" unicode="&#xe6;" horiz-adv-x="1579" 
d="M1450 469h-612q5 -152 84.5 -249t222.5 -97q150 0 244 43q35 15 45 -14l24 -68q6 -17 1.5 -26.5t-21.5 -18.5q-115 -59 -318 -59q-234 0 -356 153q-63 -69 -161 -111t-222 -42q-83 0 -151.5 30.5t-112 96.5t-43.5 157q0 79 33.5 141.5t86 100t124 62t140 33.5t142.5 9h64
v58q0 103 -45 157t-148 54q-140 0 -270 -66q-30 -15 -41 10l-27 64q-10 29 19 43q157 82 335 82q204 0 291 -146q127 146 340 146q126 0 216.5 -59.5t133.5 -156t43 -218.5v-52q0 -36 -11 -46.5t-50 -10.5zM655 489h-86q-60 0 -111.5 -9.5t-99.5 -32t-76 -67t-28 -106.5
q0 -79 49.5 -119t122.5 -40q75 0 155 37t124 81q-50 112 -50 256zM842 588h497v37q0 110 -59 181t-170 71q-118 0 -187.5 -82t-80.5 -207z" />
    <glyph glyph-name="ccedilla" unicode="&#xe7;" horiz-adv-x="901" 
d="M608 -88h25q86 0 133 -40.5t47 -121.5q0 -74 -54.5 -121t-164.5 -47q-95 0 -150 27q-26 13 -18 37l16 47q10 30 41 16q44 -18 107 -18q34 0 54 14.5t20 42.5q0 59 -82 59h-60q-37 0 -47.5 15t-5.5 51l12 111q-196 23 -297.5 158t-101.5 352q0 230 131.5 374t357.5 144
q148 0 265 -60q29 -16 18 -43l-23 -63q-10 -30 -43 -17q-105 48 -208 48q-146 0 -232 -101.5t-86 -273.5q0 -81 18 -149.5t54 -123t96.5 -85.5t140.5 -31q123 0 228 47q31 13 41 -17l18 -57q7 -18 2.5 -29t-24.5 -20q-98 -45 -224 -55z" />
    <glyph glyph-name="egrave" unicode="&#xe8;" horiz-adv-x="1021" 
d="M893 469h-629q5 -152 87 -249t229 -97q154 0 251 43q36 16 46 -14l24 -68q6 -17 1.5 -26.5t-21.5 -18.5q-115 -59 -324 -59q-228 0 -351.5 140t-123.5 376q0 229 127 372.5t344 143.5q97 0 174.5 -34t126.5 -94t74.5 -138t25.5 -168v-52q0 -36 -11 -46.5t-50 -10.5z
M268 588h514v37q0 110 -61 181t-176 71q-122 0 -194 -82t-83 -207zM729 1200l-24 -43q-17 -28 -52 -10l-309 156q-37 18 -12 53l43 65q11 19 25 20.5t34 -11.5l285 -183q26 -18 10 -47z" />
    <glyph glyph-name="eacute" unicode="&#xe9;" horiz-adv-x="1021" 
d="M893 469h-629q5 -152 87 -249t229 -97q154 0 251 43q36 16 46 -14l24 -68q6 -17 1.5 -26.5t-21.5 -18.5q-115 -59 -324 -59q-228 0 -351.5 140t-123.5 376q0 229 127 372.5t344 143.5q97 0 174.5 -34t126.5 -94t74.5 -138t25.5 -168v-52q0 -36 -11 -46.5t-50 -10.5z
M268 588h514v37q0 110 -61 181t-176 71q-122 0 -194 -82t-83 -207zM713 1417l41 -67q11 -13 8 -29t-21 -23l-313 -161q-31 -15 -49 12l-25 41q-18 32 11 49l288 186q18 13 32.5 12t27.5 -20z" />
    <glyph glyph-name="ecircumflex" unicode="&#xea;" horiz-adv-x="1021" 
d="M893 469h-629q5 -152 87 -249t229 -97q154 0 251 43q36 16 46 -14l24 -68q6 -17 1.5 -26.5t-21.5 -18.5q-115 -59 -324 -59q-228 0 -351.5 140t-123.5 376q0 229 127 372.5t344 143.5q97 0 174.5 -34t126.5 -94t74.5 -138t25.5 -168v-52q0 -36 -11 -46.5t-50 -10.5z
M268 588h514v37q0 110 -61 181t-176 71q-122 0 -194 -82t-83 -207zM539 1300l-199 -155q-30 -24 -51 0l-29 31q-19 22 2 43l215 194q20 17 43 17h37q23 0 41 -15l225 -201q21 -21 2 -43l-30 -32q-23 -23 -45 -4z" />
    <glyph glyph-name="edieresis" unicode="&#xeb;" horiz-adv-x="1021" 
d="M893 469h-629q5 -152 87 -249t229 -97q154 0 251 43q36 16 46 -14l24 -68q6 -17 1.5 -26.5t-21.5 -18.5q-115 -59 -324 -59q-228 0 -351.5 140t-123.5 376q0 229 127 372.5t344 143.5q97 0 174.5 -34t126.5 -94t74.5 -138t25.5 -168v-52q0 -36 -11 -46.5t-50 -10.5z
M268 588h514v37q0 110 -61 181t-176 71q-122 0 -194 -82t-83 -207zM362 1395q42 0 72.5 -27t30.5 -72q0 -47 -30.5 -73.5t-74.5 -26.5q-42 0 -73 26.5t-31 71.5q0 47 31 74t75 27zM725 1395q42 0 72 -27t30 -72q0 -47 -30 -73.5t-74 -26.5q-42 0 -73.5 26.5t-31.5 71.5
q0 47 31.5 74t75.5 27z" />
    <glyph glyph-name="igrave" unicode="&#xec;" horiz-adv-x="481" 
d="M328 948v-905q0 -43 -41 -43h-92q-41 0 -41 43v905q0 41 41 41h94q39 0 39 -41zM434 1200l-24 -43q-17 -28 -52 -10l-309 156q-37 18 -12 53l43 65q11 19 25 20.5t34 -11.5l285 -183q26 -18 10 -47z" />
    <glyph glyph-name="iacute" unicode="&#xed;" horiz-adv-x="481" 
d="M328 948v-905q0 -43 -41 -43h-92q-41 0 -41 43v905q0 41 41 41h94q39 0 39 -41zM426 1417l41 -67q11 -13 8.5 -29t-20.5 -23l-314 -161q-31 -15 -49 12l-24 41q-18 32 10 49l289 186q18 13 32 12t27 -20z" />
    <glyph glyph-name="icircumflex" unicode="&#xee;" horiz-adv-x="481" 
d="M328 948v-905q0 -43 -41 -43h-92q-41 0 -41 43v905q0 41 41 41h94q39 0 39 -41zM238 1300l-199 -155q-30 -24 -51 0l-29 31q-19 22 2 43l215 194q20 17 43 17h37q23 0 41 -15l225 -201q21 -21 2 -43l-30 -32q-23 -23 -45 -4z" />
    <glyph glyph-name="idieresis" unicode="&#xef;" horiz-adv-x="481" 
d="M328 948v-905q0 -43 -41 -43h-92q-41 0 -41 43v905q0 41 41 41h94q39 0 39 -41zM66 1393q42 0 72 -27t30 -72q0 -47 -30.5 -73.5t-74.5 -26.5q-42 0 -73 26.5t-31 71.5q0 47 31.5 74t75.5 27zM428 1393q42 0 72 -27t30 -72q0 -47 -30 -73.5t-74 -26.5q-42 0 -73 26.5
t-31 71.5q0 47 31 74t75 27z" />
    <glyph glyph-name="eth" unicode="&#xf0;" horiz-adv-x="1099" 
d="M309 1257l146 93q-55 40 -144 82q-30 13 -16 41l27 47q9 17 18.5 20.5t24.5 -2.5q104 -39 208 -113l148 93q17 11 28 9t23 -20l19 -28q11 -19 8 -28.5t-23 -20.5l-114 -74q147 -134 249.5 -363.5t102.5 -468.5q0 -113 -30 -210.5t-87 -172.5t-148.5 -118t-207.5 -43
t-205 39.5t-144 110t-82.5 163.5t-27.5 205q0 146 53 261t161.5 184t256.5 69q144 0 229 -78q-32 85 -102.5 184.5t-140.5 159.5l-172 -109q-18 -12 -29 -10.5t-23 19.5l-18 26q-11 19 -8.5 30t20.5 23zM834 494q0 75 -15 140.5t-46.5 121.5t-88 88.5t-133.5 32.5
q-64 0 -114.5 -22t-83 -58t-53.5 -85.5t-29.5 -101t-8.5 -108.5q0 -59 8 -112.5t28.5 -104.5t51.5 -88t80.5 -59.5t112.5 -22.5q77 0 135.5 32t91 87t48.5 120t16 140z" />
    <glyph glyph-name="ntilde" unicode="&#xf1;" horiz-adv-x="1101" 
d="M311 748v-705q0 -43 -41 -43h-92q-41 0 -41 43v905q0 22 9 31.5t30 9.5h90q39 0 39 -37l2 -63q70 59 158 91t178 32q326 0 326 -367v-602q0 -43 -41 -43h-92q-41 0 -41 43v573q0 58 -8.5 100.5t-30 78t-62 53.5t-100.5 18q-69 0 -148.5 -33.5t-134.5 -84.5zM549 1210
l-47 23q-60 29 -90 29q-36 0 -54 -12.5t-34 -43.5q-18 -35 -54 -18l-41 20q-31 12 -16 49q26 69 84 102.5t131 33.5q39 0 70 -8.5t80 -32.5l49 -25q56 -27 96 -27q46 0 74 48q23 41 59 22l41 -20q22 -11 12 -43q-24 -69 -78.5 -105.5t-123.5 -36.5q-63 0 -158 45z" />
    <glyph glyph-name="ograve" unicode="&#xf2;" horiz-adv-x="1095" 
d="M1014 496q0 -146 -53.5 -261.5t-162.5 -185t-257 -69.5q-116 0 -205 39.5t-144 110t-82.5 163.5t-27.5 205q0 146 53 261t161.5 184t256.5 69q154 0 259.5 -68t153.5 -182t48 -266zM834 494q0 75 -15 140.5t-46.5 121.5t-88 88.5t-133.5 32.5q-64 0 -114.5 -22t-83 -58
t-53.5 -85.5t-29.5 -101t-8.5 -108.5q0 -59 8 -112.5t28.5 -104.5t51.5 -88t80.5 -59.5t112.5 -22.5q77 0 135.5 32t91 87t48.5 120t16 140zM739 1200l-24 -43q-16 -27 -51 -10l-310 156q-37 18 -12 53l43 65q11 19 25 20.5t34 -11.5l285 -183q26 -18 10 -47z" />
    <glyph glyph-name="oacute" unicode="&#xf3;" horiz-adv-x="1095" 
d="M1014 496q0 -146 -53.5 -261.5t-162.5 -185t-257 -69.5q-116 0 -205 39.5t-144 110t-82.5 163.5t-27.5 205q0 146 53 261t161.5 184t256.5 69q154 0 259.5 -68t153.5 -182t48 -266zM834 494q0 75 -15 140.5t-46.5 121.5t-88 88.5t-133.5 32.5q-64 0 -114.5 -22t-83 -58
t-53.5 -85.5t-29.5 -101t-8.5 -108.5q0 -59 8 -112.5t28.5 -104.5t51.5 -88t80.5 -59.5t112.5 -22.5q77 0 135.5 32t91 87t48.5 120t16 140zM743 1417l41 -67q11 -13 8.5 -29t-20.5 -23l-313 -161q-31 -15 -49 12l-25 41q-18 32 10 49l289 186q18 13 32 12t27 -20z" />
    <glyph glyph-name="ocircumflex" unicode="&#xf4;" horiz-adv-x="1095" 
d="M1014 496q0 -146 -53.5 -261.5t-162.5 -185t-257 -69.5q-116 0 -205 39.5t-144 110t-82.5 163.5t-27.5 205q0 146 53 261t161.5 184t256.5 69q154 0 259.5 -68t153.5 -182t48 -266zM834 494q0 75 -15 140.5t-46.5 121.5t-88 88.5t-133.5 32.5q-64 0 -114.5 -22t-83 -58
t-53.5 -85.5t-29.5 -101t-8.5 -108.5q0 -59 8 -112.5t28.5 -104.5t51.5 -88t80.5 -59.5t112.5 -22.5q77 0 135.5 32t91 87t48.5 120t16 140zM551 1300l-199 -155q-30 -24 -51 0l-29 31q-19 22 2 43l215 194q20 17 43 17h37q23 0 41 -15l226 -201q21 -21 2 -43l-31 -32
q-23 -23 -45 -4z" />
    <glyph glyph-name="otilde" unicode="&#xf5;" horiz-adv-x="1095" 
d="M1014 496q0 -146 -53.5 -261.5t-162.5 -185t-257 -69.5q-116 0 -205 39.5t-144 110t-82.5 163.5t-27.5 205q0 146 53 261t161.5 184t256.5 69q154 0 259.5 -68t153.5 -182t48 -266zM834 494q0 75 -15 140.5t-46.5 121.5t-88 88.5t-133.5 32.5q-64 0 -114.5 -22t-83 -58
t-53.5 -85.5t-29.5 -101t-8.5 -108.5q0 -59 8 -112.5t28.5 -104.5t51.5 -88t80.5 -59.5t112.5 -22.5q77 0 135.5 32t91 87t48.5 120t16 140zM541 1208l-47 23q-60 29 -91 29q-36 0 -54 -12.5t-34 -43.5q-18 -35 -53 -18l-41 20q-31 12 -16 49q26 69 84 102.5t131 33.5
q39 0 69.5 -8.5t79.5 -32.5l49 -25q56 -27 97 -27q45 0 73 48q23 41 60 22l41 -20q22 -11 12 -43q-24 -69 -79 -105.5t-124 -36.5q-62 0 -157 45z" />
    <glyph glyph-name="odieresis" unicode="&#xf6;" horiz-adv-x="1095" 
d="M1014 496q0 -146 -53.5 -261.5t-162.5 -185t-257 -69.5q-116 0 -205 39.5t-144 110t-82.5 163.5t-27.5 205q0 146 53 261t161.5 184t256.5 69q154 0 259.5 -68t153.5 -182t48 -266zM834 494q0 75 -15 140.5t-46.5 121.5t-88 88.5t-133.5 32.5q-64 0 -114.5 -22t-83 -58
t-53.5 -85.5t-29.5 -101t-8.5 -108.5q0 -59 8 -112.5t28.5 -104.5t51.5 -88t80.5 -59.5t112.5 -22.5q77 0 135.5 32t91 87t48.5 120t16 140zM375 1395q42 0 72 -27t30 -72q0 -47 -30 -73.5t-74 -26.5q-42 0 -73.5 26.5t-31.5 71.5q0 47 31.5 74t75.5 27zM737 1395
q42 0 72.5 -27t30.5 -72q0 -47 -30.5 -73.5t-74.5 -26.5q-42 0 -73 26.5t-31 71.5q0 47 31 74t75 27z" />
    <glyph glyph-name="divide" unicode="&#xf7;" horiz-adv-x="1126" 
d="M1010 580v-86q0 -33 -37 -33h-819q-37 0 -37 33v86q0 18 8.5 25t28.5 7h819q20 0 28.5 -7t8.5 -25zM565 297q47 0 82 -30t35 -81q0 -53 -35 -82.5t-84 -29.5q-48 0 -82.5 29.5t-34.5 80.5q0 53 35 83t84 30zM565 1008q47 0 82 -30t35 -81q0 -53 -35 -83t-84 -30
q-47 0 -82 30t-35 81q0 53 35 83t84 30z" />
    <glyph glyph-name="oslash" unicode="&#xf8;" horiz-adv-x="1107" 
d="M758 975l41 67q20 36 55 17l55 -31q32 -17 13 -51l-48 -76q146 -137 146 -405q0 -146 -53.5 -261.5t-162.5 -185t-257 -69.5q-117 0 -211 40l-43 -71q-20 -33 -49 -15l-58 35q-36 19 -14 51l49 82q-133 139 -133 396q0 146 53 261t161.5 184t256.5 69q115 0 199 -37z
M840 494q0 154 -58 256l-368 -603q59 -32 135 -32q77 0 135.5 32t91 87t48.5 120t16 140zM268 502q0 -149 47 -246l365 594q-59 27 -123 27t-114.5 -22t-83 -58t-53.5 -85.5t-29.5 -101t-8.5 -108.5z" />
    <glyph glyph-name="ugrave" unicode="&#xf9;" horiz-adv-x="1093" 
d="M778 250v698q0 41 41 41h94q39 0 39 -41v-907q0 -22 -9 -31.5t-30 -9.5h-90q-39 0 -39 37l-2 65q-143 -122 -323 -122q-322 0 -322 370v598q0 41 41 41h94q39 0 39 -41v-571q0 -122 41.5 -185t155.5 -63q64 0 140.5 36t129.5 85zM725 1200l-25 -43q-16 -27 -51 -10
l-309 156q-37 18 -12 53l43 65q11 19 25 20.5t34 -11.5l285 -183q26 -18 10 -47z" />
    <glyph glyph-name="uacute" unicode="&#xfa;" horiz-adv-x="1093" 
d="M778 250v698q0 41 41 41h94q39 0 39 -41v-907q0 -22 -9 -31.5t-30 -9.5h-90q-39 0 -39 37l-2 65q-143 -122 -323 -122q-322 0 -322 370v598q0 41 41 41h94q39 0 39 -41v-571q0 -122 41.5 -185t155.5 -63q64 0 140.5 36t129.5 85zM711 1417l41 -67q11 -13 8 -29t-21 -23
l-313 -161q-31 -15 -49 12l-25 41q-18 32 10 49l289 186q18 13 32.5 12t27.5 -20z" />
    <glyph glyph-name="ucircumflex" unicode="&#xfb;" horiz-adv-x="1093" 
d="M778 250v698q0 41 41 41h94q39 0 39 -41v-907q0 -22 -9 -31.5t-30 -9.5h-90q-39 0 -39 37l-2 65q-143 -122 -323 -122q-322 0 -322 370v598q0 41 41 41h94q39 0 39 -41v-571q0 -122 41.5 -185t155.5 -63q64 0 140.5 36t129.5 85zM543 1300l-199 -155q-30 -24 -51 0
l-29 31q-19 22 2 43l215 194q20 17 43 17h37q23 0 41 -15l225 -201q21 -21 2 -43l-30 -32q-23 -23 -45 -4z" />
    <glyph glyph-name="udieresis" unicode="&#xfc;" horiz-adv-x="1093" 
d="M778 250v698q0 41 41 41h94q39 0 39 -41v-907q0 -22 -9 -31.5t-30 -9.5h-90q-39 0 -39 37l-2 65q-143 -122 -323 -122q-322 0 -322 370v598q0 41 41 41h94q39 0 39 -41v-571q0 -122 41.5 -185t155.5 -63q64 0 140.5 36t129.5 85zM358 1391q42 0 72.5 -27t30.5 -72
q0 -47 -30.5 -73.5t-74.5 -26.5q-42 0 -73 26.5t-31 71.5q0 47 31 74t75 27zM721 1391q42 0 72 -27t30 -72q0 -47 -30 -73.5t-74 -26.5q-42 0 -73.5 26.5t-31.5 71.5q0 47 31.5 74t75.5 27z" />
    <glyph glyph-name="yacute" unicode="&#xfd;" horiz-adv-x="978" 
d="M518 197l258 759q6 18 17.5 25.5t33.5 7.5h99q40 0 26 -41l-395 -1067q-68 -184 -159 -258t-255 -74q-44 0 -94 13q-29 7 -24 37l14 82q6 29 33 26q58 -8 78 -8q84 0 137 38t86 118l51 129l-367 968q-6 17 2 27t27 10h117q41 0 49 -28zM700 1417l41 -67q11 -13 8.5 -29
t-20.5 -23l-313 -161q-31 -15 -49 12l-25 41q-18 32 10 49l289 186q18 13 32 12t27 -20z" />
    <glyph glyph-name="thorn" unicode="&#xfe;" horiz-adv-x="1107" 
d="M1026 504q0 -104 -28 -197t-82 -166.5t-140 -117t-194 -43.5q-79 0 -153 29.5t-118 84.5v-491q0 -43 -41 -43h-92q-41 0 -41 43v1796q0 21 6.5 30.5t24.5 12.5l102 14q41 6 41 -35v-530q51 54 131.5 87.5t163.5 33.5q105 0 187.5 -42t132 -113.5t75 -161t25.5 -191.5z
M844 500q0 72 -13.5 134t-43 118t-85 88t-131.5 32q-72 0 -147 -37.5t-113 -93.5v-481q33 -61 103.5 -102t144.5 -41q76 0 133 33.5t89 90.5t47.5 122t15.5 137z" />
    <glyph glyph-name="ydieresis" unicode="&#xff;" horiz-adv-x="978" 
d="M518 197l258 759q6 18 17.5 25.5t33.5 7.5h99q40 0 26 -41l-395 -1067q-68 -184 -159 -258t-255 -74q-44 0 -94 13q-29 7 -24 37l14 82q6 29 33 26q58 -8 78 -8q84 0 137 38t86 118l51 129l-367 968q-6 17 2 27t27 10h117q41 0 49 -28zM342 1393q42 0 72 -27t30 -72
q0 -47 -30 -73.5t-74 -26.5q-42 0 -73 26.5t-31 71.5q0 47 31 74t75 27zM705 1393q42 0 72 -27t30 -72q0 -47 -30.5 -73.5t-74.5 -26.5q-42 0 -73 26.5t-31 71.5q0 47 31.5 74t75.5 27z" />
    <glyph glyph-name="dotlessi" unicode="&#x131;" horiz-adv-x="481" 
d="M328 948v-905q0 -43 -41 -43h-92q-41 0 -41 43v905q0 41 41 41h94q39 0 39 -41z" />
    <glyph glyph-name="Lslash" unicode="&#x141;" horiz-adv-x="929" 
d="M346 152h514q21 0 30 -7.5t9 -25.5v-86q0 -18 -9 -25.5t-30 -7.5h-661q-43 0 -43 47v481l-117 -96q-13 -11 -24 -5t-11 28v71q0 19 6.5 31t24.5 27l121 100v686q0 41 39 41h110q22 0 31.5 -9t9.5 -32v-528l154 127q14 11 24.5 5t10.5 -28v-72q0 -19 -6 -30.5t-25 -26.5
l-158 -131v-534z" />
    <glyph glyph-name="lslash" unicode="&#x142;" horiz-adv-x="495" 
d="M332 1421v-581l133 110q22 18 33.5 12t11.5 -32v-66q0 -16 -6 -28t-12.5 -18t-22.5 -19l-137 -115v-641q0 -43 -41 -43h-92q-41 0 -41 43v498l-123 -103q-22 -15 -30.5 -7.5t-8.5 30.5v65q0 37 35 64l127 104v705q0 21 6 30.5t24 12.5l103 14q41 6 41 -35z" />
    <glyph glyph-name="OE" unicode="&#x152;" horiz-adv-x="1914" 
d="M1217 1262v-449h483q21 0 30 -7.5t9 -25.5v-82q0 -18 -9 -25t-30 -7h-483v-516h569q21 0 30 -7.5t9 -25.5v-84q0 -18 -9 -25.5t-30 -7.5h-717q-43 0 -43 47v59q-67 -59 -160.5 -92.5t-195.5 -33.5q-273 0 -421.5 189.5t-148.5 530.5q0 334 166.5 535t435.5 201
q96 0 182 -33.5t142 -89.5v51q0 47 43 47h717q41 0 35 -35l-13 -82q-3 -19 -12.5 -25.5t-32.5 -6.5h-546zM686 135q97 0 187.5 37t152.5 102v879q-48 55 -133.5 91t-185.5 36q-79 0 -149.5 -33.5t-121.5 -95.5q-133 -158 -133 -444q0 -267 100 -419.5t283 -152.5z" />
    <glyph glyph-name="oe" unicode="&#x153;" horiz-adv-x="1757" 
d="M1628 469h-629q5 -152 87 -249t229 -97q155 0 252 43q35 15 45 -14l24 -68q6 -17 1.5 -26.5t-21.5 -18.5q-115 -59 -324 -59q-265 0 -387 204q-121 -207 -362 -207q-116 0 -205.5 40t-144.5 111t-83 164t-28 204q0 145 53.5 261t162.5 185.5t257 69.5q252 0 360 -201
q133 201 373 201q129 0 221.5 -59.5t136.5 -156t44 -218.5v-52q0 -36 -11.5 -46.5t-50.5 -10.5zM836 492q0 58 -8.5 111.5t-30 105t-53 89t-80.5 60.5t-111 23q-64 0 -115 -23t-83 -60t-53.5 -87.5t-30.5 -102.5t-9 -108q0 -59 8.5 -112.5t29 -105.5t52 -89.5t81 -60.5
t112.5 -23q77 0 135.5 33t91 89t48.5 121.5t16 139.5zM1004 588h514v37q0 110 -61.5 181t-176.5 71q-122 0 -193.5 -82t-82.5 -207z" />
    <glyph glyph-name="Scaron" unicode="&#x160;" horiz-adv-x="1040" 
d="M481 141q74 0 136.5 22t106.5 75.5t44 130.5q0 81 -44 133t-136 100l-260 139q-226 122 -226 332q0 85 37.5 155.5t99.5 115t139 68.5t159 24q198 0 333 -66q34 -16 23 -49l-31 -82q-12 -36 -53 -18q-133 59 -262 59q-62 0 -116 -18t-93 -62.5t-39 -109.5
q0 -74 39.5 -121.5t120.5 -89.5l219 -117q136 -71 207 -158.5t71 -220.5q0 -97 -38.5 -175.5t-104.5 -127t-151 -74.5t-181 -26q-179 0 -344 57q-36 11 -26 51l26 92q11 38 53 21q149 -60 291 -60zM526 1669l207 162q28 21 49 0l27 -29q23 -24 -2 -49l-221 -201
q-21 -18 -45 -18h-29q-24 0 -47 20l-213 195q-24 24 -4 47l24 27q25 25 58 2z" />
    <glyph glyph-name="scaron" unicode="&#x161;" horiz-adv-x="821" 
d="M426 428l-137 53q-94 36 -149.5 101t-55.5 157q0 129 98.5 201t241.5 72q144 0 264 -56q28 -12 19 -38l-25 -68q-9 -29 -41 -16q-111 49 -213 49q-86 0 -130 -37t-44 -94q0 -49 31.5 -79.5t101.5 -60.5l158 -67q207 -86 207 -260q0 -139 -105 -222t-270 -83
q-74 0 -150.5 18.5t-130.5 46.5q-29 16 -18 41l26 70q10 30 39 18q137 -61 238 -61q90 0 144.5 42t54.5 113q0 57 -38.5 93.5t-115.5 66.5zM406 1260l206 161q28 22 50 0l26 -28q24 -24 -2 -50l-221 -200q-22 -19 -45 -19h-29q-23 0 -47 21l-213 194q-24 24 -4 47l25 27
q25 25 57 2z" />
    <glyph glyph-name="Ydieresis" unicode="&#x178;" horiz-adv-x="1126" 
d="M479 41v512l-434 809q-11 20 -5 34.5t30 14.5h116q27 0 39 -7t23 -28l336 -663h2l325 663q9 19 22 27t38 8h88q23 0 29.5 -12t-3.5 -31l-415 -811v-516q0 -41 -39 -41h-111q-22 0 -31.5 9t-9.5 32zM408 1772q42 0 72 -27t30 -72q0 -47 -30 -73.5t-74 -26.5
q-42 0 -73.5 26.5t-31.5 71.5q0 47 31.5 74t75.5 27zM770 1772q42 0 72 -27t30 -72q0 -47 -30 -73.5t-74 -26.5q-42 0 -73 26.5t-31 71.5q0 47 31 74t75 27z" />
    <glyph glyph-name="Zcaron" unicode="&#x17d;" horiz-adv-x="1107" 
d="M289 152v-2h717q21 0 29.5 -7.5t8.5 -25.5v-84q0 -18 -8.5 -25.5t-29.5 -7.5h-910q-21 0 -30 7.5t-9 25.5v57q0 31 23 64l711 1106v2h-633q-21 0 -30 7t-9 25v84q0 18 9 25.5t30 7.5h827q21 0 30 -7.5t9 -25.5v-61q0 -31 -23 -64zM549 1669l207 162q28 21 49 0l26 -29
q23 -24 -2 -49l-221 -201q-21 -18 -45 -18h-28q-25 0 -48 20l-213 195q-24 24 -4 47l25 27q25 25 57 2z" />
    <glyph glyph-name="zcaron" unicode="&#x17e;" horiz-adv-x="849" 
d="M264 127v-2h492q17 0 23.5 -7t6.5 -24v-63q0 -17 -6.5 -24t-23.5 -7h-652q-34 0 -34 35v55q0 29 26 70l467 704v2h-430q-17 0 -24 7t-7 24v61q0 17 7 24t24 7h594q35 0 35 -35v-49q0 -27 -27 -69zM430 1260l207 161q28 21 49 0l27 -28q24 -24 -2 -50l-222 -200
q-22 -19 -45 -19h-28q-22 0 -47 21l-213 194q-24 24 -4 47l24 27q25 25 57 2z" />
    <glyph glyph-name="florin" unicode="&#x192;" horiz-adv-x="1126" 
d="M256 778h205l41 209q16 82 36.5 146t54.5 123t78.5 97t108.5 60.5t144 22.5q104 0 176 -35q24 -10 14 -39l-24 -72q-4 -12 -10.5 -17t-14.5 -4t-21 5q-70 24 -126 24q-48 0 -84.5 -15.5t-59 -39t-40 -63.5t-27 -74.5t-19.5 -87.5l-47 -240h279q17 0 22.5 -6.5t1.5 -21.5
l-14 -60q-6 -26 -39 -26h-273l-116 -615q-19 -103 -49 -178.5t-78.5 -136t-121.5 -91t-171 -30.5q-99 0 -174 35q-15 7 -17.5 17.5t3.5 27.5l24 67q8 27 39 15q66 -27 129 -27q58 0 99.5 21.5t67 65.5t39 88.5t27.5 113.5l119 627h-211q-17 0 -22.5 6.5t-1.5 21.5l14 60
q6 26 39 26z" />
    <glyph glyph-name="circumflex" unicode="&#x2c6;" horiz-adv-x="665" 
d="M328 1300l-199 -155q-30 -24 -51 0l-29 31q-19 22 2 43l215 194q20 17 43 17h37q23 0 41 -15l225 -201q21 -21 2 -43l-30 -32q-23 -23 -45 -4z" />
    <glyph glyph-name="caron" unicode="&#x2c7;" horiz-adv-x="665" 
d="M330 1260l207 161q28 21 49 0l26 -28q24 -24 -2 -50l-221 -200q-22 -19 -45 -19h-29q-23 0 -47 21l-213 194q-24 24 -4 47l25 27q25 25 57 2z" />
    <glyph glyph-name="uni02C9" unicode="&#x2c9;" horiz-adv-x="665" 
d="M100 1341h465q22 0 30.5 -9t8.5 -32v-49q0 -22 -8.5 -30.5t-30.5 -8.5h-465q-22 0 -30.5 8.5t-8.5 30.5v49q0 23 8.5 32t30.5 9z" />
    <glyph glyph-name="breve" unicode="&#x2d8;" horiz-adv-x="665" 
d="M598 1407q0 -94 -72 -152.5t-188 -58.5q-119 0 -193.5 56.5t-74.5 154.5q0 18 9.5 23.5t29.5 5.5h59q20 0 29 -6t10 -27q4 -43 40.5 -66.5t90.5 -23.5q55 0 88 23.5t39 66.5q3 21 12.5 27t32.5 6h53q35 0 35 -29z" />
    <glyph glyph-name="dotaccent" unicode="&#x2d9;" horiz-adv-x="665" 
d="M336 1430q48 0 82.5 -30.5t34.5 -82.5q0 -53 -34.5 -84t-84.5 -31q-48 0 -83.5 30.5t-35.5 82.5q0 53 35.5 84t85.5 31z" />
    <glyph glyph-name="ring" unicode="&#x2da;" horiz-adv-x="665" 
d="M528 1270q0 -80 -55 -136.5t-139 -56.5q-82 0 -138.5 57t-56.5 136t57 135.5t138 56.5q85 0 139.5 -56t54.5 -136zM412 1270q0 32 -23 54t-55 22t-55 -22t-23 -54t23 -54t55 -22t55 22t23 54z" />
    <glyph glyph-name="ogonek" unicode="&#x2db;" horiz-adv-x="665" 
d="M340 18h145q-100 -73 -142 -131t-42 -114q0 -38 21 -55t67 -17q51 0 109 20q33 11 39 -16l16 -61q5 -23 -23 -35q-83 -31 -176 -31q-113 0 -166 47t-53 123q0 86 59 156.5t146 113.5z" />
    <glyph glyph-name="tilde" unicode="&#x2dc;" horiz-adv-x="665" 
d="M322 1260l-48 22q-60 29 -90 29q-36 0 -54 -12.5t-34 -43.5q-18 -35 -53 -18l-41 20q-31 12 -16 50q26 69 83.5 102t131.5 33q39 0 69.5 -8.5t79.5 -32.5l49 -25q54 -26 97 -26q45 0 73 47q23 41 60 22l41 -20q22 -11 12 -43q-24 -69 -79 -105.5t-124 -36.5
q-60 0 -157 46z" />
    <glyph glyph-name="hungarumlaut" unicode="&#x2dd;" horiz-adv-x="665" 
d="M-49 1237l287 188q37 26 57 -10l37 -63q22 -37 -17 -54l-303 -151q-16 -9 -29.5 -8t-23.5 18l-18 33q-19 30 10 47zM408 1237l286 188q38 26 58 -10l36 -63q22 -37 -16 -54l-303 -151q-16 -9 -29.5 -8t-23.5 18l-19 33q-18 29 11 47z" />
    <glyph glyph-name="uni0308" unicode="&#x308;" horiz-adv-x="665" 
d="M154 1436q42 0 72 -27t30 -72q0 -47 -30 -73.5t-74 -26.5q-42 0 -73.5 26.5t-31.5 71.5q0 47 31.5 74t75.5 27zM516 1436q42 0 72 -27t30 -72q0 -47 -30 -73.5t-74 -26.5q-42 0 -73 26.5t-31 71.5q0 47 31 74t75 27z" />
    <glyph glyph-name="uni037E" unicode="&#x37e;" horiz-adv-x="438" 
d="M352 895q0 -51 -37.5 -83t-83.5 -32q-47 0 -84.5 31.5t-37.5 83.5q0 53 36.5 85t85.5 32t85 -32t36 -85zM342 63q0 -90 -51.5 -181.5t-122.5 -133.5q-27 -15 -41 2l-21 23q-16 19 5 37q71 67 71 135q0 27 -34.5 72.5t-34.5 76.5q0 47 31.5 78t78.5 31q52 0 85.5 -43
t33.5 -97z" />
    <glyph glyph-name="uni0394" unicode="&#x394;" horiz-adv-x="1185" 
d="M78 215l418 1159q11 37 45 37h112q18 0 31 -10t18 -23l406 -1157q29 -89 29 -110v-74q0 -37 -39 -37h-1010q-39 0 -39 37v72q0 29 29 106zM238 152h696l-336 1044h-4z" />
    <glyph glyph-name="Omega" unicode="&#x3a9;" horiz-adv-x="1435" 
d="M606 141q19 -6 25 -11.5t6 -20.5v-74q0 -35 -31 -35h-477q-19 0 -27 8t-8 27v74q0 32 35 32h207q-100 85 -154.5 228t-54.5 336q0 330 167 525t435 195q276 0 431 -192.5t155 -517.5q0 -197 -61.5 -342t-168.5 -232h226q30 0 30 -32v-74q0 -35 -30 -35h-484q-30 0 -30 35
v74q0 16 6 22.5t24 9.5q143 28 218 182.5t75 385.5q0 274 -105.5 415.5t-293.5 141.5q-179 0 -292.5 -149t-113.5 -406q0 -235 72.5 -384.5t218.5 -185.5z" />
    <glyph glyph-name="uni03BC" unicode="&#x3bc;" horiz-adv-x="1142" 
d="M780 236v712q0 23 10 32t31 9h92q21 0 31 -9t10 -32v-672q0 -81 9 -110t38 -29t52 15q8 8 25 5t24 -20l24 -53q13 -30 -18 -49q-67 -45 -154 -45q-128 0 -159 114q-59 -59 -136 -91.5t-155 -32.5q-137 0 -195 61v-346q0 -23 -10 -32t-31 -9h-90q-21 0 -31 9t-10 32v1253
q0 23 10 32t31 9h92q21 0 31 -9t10 -32v-577q0 -143 51 -199q47 -53 150 -53q68 0 139.5 32.5t128.5 84.5z" />
    <glyph glyph-name="pi" unicode="&#x3c0;" horiz-adv-x="1265" 
d="M1124 858h-196v-520q0 -44 1.5 -71t6 -54.5t13.5 -41.5t25 -23t40 -9q43 0 88 25q15 10 30.5 6.5t22.5 -20.5l25 -56q11 -28 -19 -49q-83 -55 -192 -55q-55 0 -94 16t-62 43t-36.5 70.5t-18 89.5t-4.5 110v539h-340v-817q0 -23 -10 -32t-31 -9h-92q-21 0 -31 9t-10 32
v817h-152q-31 0 -31 29v74q0 28 33 28h1036q31 0 31 -28v-74q0 -29 -33 -29z" />
    <glyph glyph-name="uni060C" unicode="&#x60c;" horiz-adv-x="661" 
d="M442 518q-58 -63 -86 -123.5t-28 -99.5q0 -40 44 -96.5t44 -96.5q0 -48 -37.5 -85t-91.5 -37q-61 0 -100.5 48.5t-39.5 133.5q0 105 65.5 225.5t164.5 198.5q31 25 51 -2l18 -23q16 -21 -4 -43z" />
    <glyph glyph-name="uni0615" unicode="&#x615;" 
d="M-74 1540v-231q78 65 154 65q143 0 143 -155q0 -84 -34 -116t-128 -32h-258q-20 0 -20 21v38q0 7 5 13t15 6h41v377q0 17 15 20l47 10q20 3 20 -16zM-74 1149h148q38 0 52.5 14t14.5 56q0 77 -78 77q-61 0 -137 -79v-68z" />
    <glyph glyph-name="uni061B" unicode="&#x61b;" horiz-adv-x="661" 
d="M410 98q0 -54 -38 -86t-85 -32t-85 32t-38 86t38 86.5t85 32.5t85 -32.5t38 -86.5zM442 1047q-58 -63 -86 -124t-28 -100q0 -40 44 -96t44 -96q0 -49 -37.5 -86t-91.5 -37q-61 0 -100.5 48.5t-39.5 133.5q0 105 65.5 225.5t164.5 198.5q31 25 51 -2l18 -22q16 -21 -4 -43
z" />
    <glyph glyph-name="uni061F" unicode="&#x61f;" horiz-adv-x="1013" 
d="M410 573l-152 158q-111 117 -111 260q0 136 104 231t271 95q148 0 273 -70q8 -5 11.5 -15.5t0.5 -19.5l-27 -67q-9 -23 -35 -12q-102 51 -204 51t-167 -56t-65 -141q0 -107 99 -209l151 -157q107 -111 107 -232v-20q0 -43 -39 -43h-68q-33 0 -33 32q0 93 -116 215z
M575 203q47 0 82 -30t35 -81q0 -53 -35 -82.5t-84 -29.5q-47 0 -81.5 29.5t-34.5 80.5q0 53 34.5 83t83.5 30z" />
    <glyph glyph-name="uni0621" unicode="&#x621;" horiz-adv-x="1050" 
d="M530 150h361q20 0 28.5 -8t8.5 -27v-78q0 -37 -37 -37h-731q-37 0 -37 37v78q0 19 8.5 27t28.5 8h207q-101 118 -101 251q0 127 85 207t222 80q128 0 228 -65q31 -19 18 -48l-28 -61q-18 -41 -52 -25q-85 43 -157 43q-77 0 -117.5 -41t-40.5 -108q0 -56 27 -117.5
t79 -115.5z" />
    <glyph glyph-name="uni0622" unicode="&#x622;" horiz-adv-x="460" 
d="M152 43v1356q0 21 5.5 30.5t22.5 12.5l90 14q39 6 39 -35v-1378q0 -43 -39 -43h-80q-38 0 -38 43zM362 1638q-56 0 -135 37q-87 41 -131 41q-45 0 -80 -43q-15 -15 -26 -2l-29 33q-11 17 0 31q60 84 139 84q62 0 138 -39q5 -2 23 -10.5t26 -11.5t22.5 -8t26.5 -7t24 -2
q45 0 80 43q16 16 27 2l29 -33q11 -17 0 -31q-31 -43 -62 -63.5t-72 -20.5z" />
    <glyph glyph-name="uni0623" unicode="&#x623;" horiz-adv-x="460" 
d="M152 43v1356q0 21 5.5 30.5t22.5 12.5l90 14q39 6 39 -35v-1378q0 -43 -39 -43h-80q-38 0 -38 43zM39 1729h76q-39 56 -39 124q0 76 53 121t131 45q80 0 143 -37q19 -12 11 -28l-13 -41q-6 -11 -10.5 -12.5t-15.5 4.5q-49 24 -105 24q-41 0 -68.5 -25.5t-27.5 -68.5
q0 -54 39 -106h207q10 0 14 -4.5t4 -16.5v-47q0 -23 -18 -23h-381q-19 0 -19 23v47q0 21 19 21z" />
    <glyph glyph-name="uni0624" unicode="&#x624;" horiz-adv-x="1011" 
d="M328 -309q174 87 252 165t104 201q-92 -57 -207 -57q-164 0 -263 113t-99 309q0 187 101.5 298t275.5 111q170 0 269 -98t99 -291v-192q0 -110 -11.5 -189.5t-41 -153t-83 -131.5t-135 -112t-200.5 -108q-33 -14 -49 16l-37 70q-15 30 25 49zM702 442q0 106 -49.5 165
t-154.5 59q-107 0 -164.5 -65.5t-57.5 -176.5q0 -131 55.5 -194.5t170.5 -63.5q109 0 200 65v211zM303 1161h76q-39 56 -39 125q0 76 53 121t131 45q81 0 144 -37q19 -11 10 -29l-12 -40q-6 -11 -11 -13t-16 4q-52 25 -104 25q-41 0 -69 -25.5t-28 -68.5q0 -55 39 -107h207
q11 0 14.5 -4t3.5 -16v-47q0 -23 -18 -23h-381q-18 0 -18 23v47q0 12 3.5 16t14.5 4z" />
    <glyph glyph-name="uni0625" unicode="&#x625;" horiz-adv-x="460" 
d="M152 43v1356q0 21 5.5 30.5t22.5 12.5l90 14q39 6 39 -35v-1378q0 -43 -39 -43h-80q-38 0 -38 43zM31 -516h75q-38 58 -38 125q0 76 53 121t131 45q80 0 143 -37q20 -12 11 -29l-13 -41q-6 -11 -10.5 -12.5t-15.5 4.5q-52 25 -105 25q-41 0 -68.5 -26t-27.5 -69
q0 -54 39 -106h207q10 0 14 -4.5t4 -16.5v-47q0 -22 -18 -22h-381q-19 0 -19 22v47q0 21 19 21z" />
    <glyph glyph-name="uni0626" unicode="&#x626;" horiz-adv-x="1703" 
d="M797 -285q137 0 259.5 26t203.5 78t81 120q0 41 -29.5 76t-76.5 62.5t-103.5 56t-113 62.5t-103.5 75t-76.5 101.5t-29.5 133.5q0 95 34.5 170t93.5 120.5t133.5 69t158.5 23.5q182 0 340 -103q27 -18 16 -41l-37 -81q-8 -19 -18 -22t-29 7q-137 76 -274 76
q-115 0 -185.5 -55.5t-70.5 -163.5q0 -53 29.5 -96t76.5 -73.5t103.5 -59t113 -59t103.5 -66.5t76.5 -89t29.5 -118q0 -174 -194.5 -285t-509.5 -111q-113 0 -211 15.5t-189 53t-155.5 95.5t-103 148t-38.5 205q0 178 93 362q11 24 22 30t35 -3l65 -31q20 -9 24.5 -20
t-5.5 -33q-72 -144 -72 -291q0 -365 533 -365zM68 797h75q-39 56 -39 125q0 75 53.5 120t131.5 45q82 0 143 -36q19 -11 10 -29l-12 -41q-10 -18 -27 -8q-49 24 -104 24q-41 0 -68.5 -25.5t-27.5 -68.5q0 -54 39 -106h207q10 0 14 -4.5t4 -16.5v-47q0 -22 -18 -22h-381
q-19 0 -19 22v47q0 21 19 21z" />
    <glyph glyph-name="uni0627" unicode="&#x627;" horiz-adv-x="460" 
d="M152 43v1356q0 21 5.5 30.5t22.5 12.5l90 14q39 6 39 -35v-1378q0 -43 -39 -43h-80q-38 0 -38 43z" />
    <glyph glyph-name="uni0628" unicode="&#x628;" horiz-adv-x="1835" 
d="M625 166h764q85 0 111 29t26 118v478q0 21 9 30.5t30 9.5h77q41 0 41 -40v-555q0 -236 -270 -236h-835q-231 0 -353.5 112t-122.5 312v235q0 41 41 41h78q39 0 39 -41v-133q0 -200 78 -280t287 -80zM911 -434q-42 0 -71 26t-29 68q0 41 29 67.5t71 26.5t71.5 -26.5
t29.5 -67.5q0 -42 -29.5 -68t-71.5 -26z" />
    <glyph glyph-name="uni0629" unicode="&#x629;" horiz-adv-x="1015" 
d="M508 -12q-181 0 -287 109.5t-106 303.5q0 69 15.5 135.5t48 127t78 105.5t110.5 72t141 27t141 -27t110.5 -72t78 -105.5t48 -127t15.5 -135.5q0 -194 -106 -303.5t-287 -109.5zM508 154q115 0 173 69.5t58 175.5q0 53 -13.5 104.5t-40 97t-72.5 73.5t-105 28t-105 -28
t-73 -73.5t-40.5 -97t-13.5 -104.5q0 -106 58.5 -175.5t173.5 -69.5zM641 1094q-42 0 -71 26t-29 68q0 41 29 67.5t71 26.5t71 -26.5t29 -67.5q0 -42 -29 -68t-71 -26zM375 1094q-42 0 -71.5 26t-29.5 68q0 41 29.5 67.5t71.5 26.5t71 -26.5t29 -67.5q0 -42 -29 -68t-71 -26
z" />
    <glyph glyph-name="uni062A" unicode="&#x62a;" horiz-adv-x="1835" 
d="M625 166h764q85 0 111 29t26 118v478q0 21 9 30.5t30 9.5h77q41 0 41 -40v-555q0 -236 -270 -236h-835q-231 0 -353.5 112t-122.5 312v235q0 41 41 41h78q39 0 39 -41v-133q0 -200 78 -280t287 -80zM1042 956q-42 0 -71 26.5t-29 68.5q0 41 29 67.5t71 26.5t71.5 -26.5
t29.5 -67.5q0 -42 -29.5 -68.5t-71.5 -26.5zM776 956q-42 0 -71 26.5t-29 68.5q0 41 29 67.5t71 26.5t71.5 -26.5t29.5 -67.5q0 -42 -29.5 -68.5t-71.5 -26.5z" />
    <glyph glyph-name="uni062B" unicode="&#x62b;" horiz-adv-x="1835" 
d="M625 166h764q85 0 111 29t26 118v478q0 21 9 30.5t30 9.5h77q41 0 41 -40v-555q0 -236 -270 -236h-835q-231 0 -353.5 112t-122.5 312v235q0 41 41 41h78q39 0 39 -41v-133q0 -200 78 -280t287 -80zM1034 956q-42 0 -71 26.5t-29 68.5q0 41 29 67.5t71 26.5t71.5 -26.5
t29.5 -67.5q0 -42 -29.5 -68.5t-71.5 -26.5zM768 956q-42 0 -71 26.5t-29 68.5q0 41 29 67.5t71 26.5t71 -26.5t29 -67.5q0 -42 -29 -68.5t-71 -26.5zM901 1190q-42 0 -71 26t-29 68q0 41 29 67.5t71 26.5t71 -26.5t29 -67.5q0 -42 -29 -68t-71 -26z" />
    <glyph glyph-name="uni062C" unicode="&#x62c;" horiz-adv-x="1163" 
d="M498 705q-109 0 -238 -72q-19 -11 -28.5 -8t-16.5 22l-37 82q-11 22 17 41q140 98 315 98q188 0 288.5 -109.5t141.5 -312.5q35 -168 104 -231q25 -24 31 -35.5t6 -34.5v-104q0 -41 -41 -41h-454q-176 0 -259 -46t-83 -161q0 -59 27.5 -102.5t77.5 -69t113.5 -37.5
t143.5 -12q158 0 322 49q27 6 34.5 2.5t14.5 -20.5l29 -76q7 -24 0.5 -35t-29.5 -20q-63 -29 -168 -47.5t-213 -18.5q-244 0 -379 98.5t-135 288.5t124 281.5t380 91.5h309q-44 46 -68 99.5t-49 162.5q-33 156 -96 216.5t-184 60.5zM618 -313q-42 0 -71 26t-29 68
q0 41 29 67.5t71 26.5t71.5 -26.5t29.5 -67.5q0 -42 -29.5 -68t-71.5 -26z" />
    <glyph glyph-name="uni062D" unicode="&#x62d;" horiz-adv-x="1163" 
d="M498 705q-109 0 -238 -72q-19 -11 -28.5 -8t-16.5 22l-37 82q-11 22 17 41q140 98 315 98q188 0 288.5 -109.5t141.5 -312.5q35 -168 104 -231q25 -24 31 -35.5t6 -34.5v-104q0 -41 -41 -41h-454q-176 0 -259 -46t-83 -161q0 -59 27.5 -102.5t77.5 -69t113.5 -37.5
t143.5 -12q158 0 322 49q27 6 34.5 2.5t14.5 -20.5l29 -76q7 -24 0.5 -35t-29.5 -20q-63 -29 -168 -47.5t-213 -18.5q-244 0 -379 98.5t-135 288.5t124 281.5t380 91.5h309q-44 46 -68 99.5t-49 162.5q-33 156 -96 216.5t-184 60.5z" />
    <glyph glyph-name="uni062E" unicode="&#x62e;" horiz-adv-x="1163" 
d="M498 705q-109 0 -238 -72q-19 -11 -28.5 -8t-16.5 22l-37 82q-11 22 17 41q140 98 315 98q188 0 288.5 -109.5t141.5 -312.5q35 -168 104 -231q25 -24 31 -35.5t6 -34.5v-104q0 -41 -41 -41h-454q-176 0 -259 -46t-83 -161q0 -59 27.5 -102.5t77.5 -69t113.5 -37.5
t143.5 -12q158 0 322 49q27 6 34.5 2.5t14.5 -20.5l29 -76q7 -24 0.5 -35t-29.5 -20q-63 -29 -168 -47.5t-213 -18.5q-244 0 -379 98.5t-135 288.5t124 281.5t380 91.5h309q-44 46 -68 99.5t-49 162.5q-33 156 -96 216.5t-184 60.5zM504 1094q-42 0 -71.5 26t-29.5 68
q0 41 29.5 67.5t71.5 26.5t71 -26.5t29 -67.5q0 -42 -29 -68t-71 -26z" />
    <glyph glyph-name="uni062F" unicode="&#x62f;" horiz-adv-x="1099" 
d="M694 0h-571q-41 0 -41 41v86q0 39 41 39h539q90 0 117.5 29t27.5 118v95q0 162 -72.5 228t-257.5 66q-81 0 -192 -12q-16 -2 -29 -2q-41 0 -41 35v76q0 30 31 39q108 30 239 30q117 0 202.5 -22t149.5 -72t96 -136.5t32 -211.5v-190q0 -236 -271 -236z" />
    </font>
</defs>
</svg>
