<?xml version="1.0" standalone="no"?>
<!DOCTYPE svg PUBLIC "-//W3C//DTD SVG 1.1//EN" "http://www.w3.org/Graphics/SVG/1.1/DTD/svg11.dtd" >
<svg xmlns="http://www.w3.org/2000/svg" xmlns:xlink="http://www.w3.org/1999/xlink" version="1.1">
<metadata>
Created by FontForge 20201107 at Sun Jul 21 08:41:48 2024
 By 
</metadata>
<defs>
<font id="FSAlbertArabic-Bold" horiz-adv-x="2048" >
  <font-face 
    font-family="FS Albert Arabic"
    font-weight="700"
    font-stretch="normal"
    units-per-em="2048"
    panose-1="2 11 8 3 4 5 2 2 8 4"
    ascent="1638"
    descent="-410"
    x-height="993"
    cap-height="1417"
    bbox="-384.348 -1125 2845 2202.29"
    underline-thickness="102"
    underline-position="-307"
    unicode-range="U+000D-FEFC"
  />
<missing-glyph horiz-adv-x="1095" 
d="M41 0v1419h1014v-1419h-1014zM549 801l344 518h-690zM608 711l346 -518v1034zM203 102h690l-344 516zM143 1227v-1034l344 518z" />
    <glyph glyph-name="fi" unicode="fi" horiz-adv-x="1183" 
d="M1042 946v-895q0 -28 -11.5 -39.5t-37.5 -11.5h-145q-28 0 -39.5 11.5t-11.5 39.5v772h-357v-766q0 -29 -11.5 -43t-39.5 -14h-147q-49 0 -49 53v770h-111q-28 0 -36.5 9.5t-8.5 41.5v78q0 41 39 41h117v60q0 189 83 299q104 139 351 139q156 0 258 -41q23 -9 29.5 -20
t3.5 -33l-17 -105q-3 -20 -13.5 -27t-35.5 -1q-106 24 -186 24q-112 0 -166 -51q-60 -57 -60 -178v-66h553q26 0 37.5 -10t11.5 -37z" />
    <glyph glyph-name="fl" unicode="fl" horiz-adv-x="1198" 
d="M1069 1423v-1372q0 -51 -47 -51h-154q-47 0 -47 49v1211q-94 28 -178 28q-95 0 -143 -45q-60 -55 -60 -188v-62h201q21 0 31 -7.5t10 -27.5v-96q0 -39 -39 -39h-203v-766q0 -29 -11.5 -43t-39.5 -14h-147q-49 0 -49 53v770h-111q-28 0 -36.5 9.5t-8.5 41.5v78q0 41 39 41
h117v56q0 119 28.5 203t91.5 143q104 96 285 96q140 0 281 -49l143 20q28 4 37.5 -4.5t9.5 -34.5z" />
    <glyph glyph-name="uniFEF5" unicode="&#xfedf;&#xfe82;" horiz-adv-x="1339" arabic-form="isolated" 
d="M803 225h76q60 0 79 21t19 84v1063q0 25 9 35.5t30 13.5l147 20q21 3 32 -8t11 -35v-1163q0 -128 -74 -192t-231 -64h-760q-27 0 -38 12.5t-11 38.5v123q0 26 11 38.5t38 12.5h424l-233 828q-8 29 0.5 45.5t36.5 25.5l108 37q57 18 72 -41zM246 1509q55 0 131 -39
q87 -38 127 -38q46 0 84 49q17 21 30 2l41 -49q14 -18 0 -37q-37 -56 -72.5 -81.5t-82.5 -25.5q-58 0 -131 39q-84 41 -129 41q-46 0 -84 -49q-18 -22 -31 -2l-41 47q-15 19 0 39q64 104 158 104z" />
    <glyph glyph-name="uniFEF6" unicode="&#xfee0;&#xfe82;" horiz-adv-x="1431" arabic-form="final" 
d="M803 225h76q60 0 79 21t19 84v1063q0 25 9 35.5t30 13.5l147 20q21 3 32 -8t11 -35v-1134q66 -60 213 -60h13v-225h-13q-173 0 -252 102q-67 -102 -266 -102h-760q-27 0 -38 12.5t-11 38.5v123q0 26 11 38.5t38 12.5h424l-233 828q-8 29 0.5 45.5t36.5 25.5l108 37
q57 18 72 -41zM246 1509q55 0 131 -39q87 -38 127 -38q46 0 84 49q17 21 30 2l41 -49q14 -18 0 -37q-37 -56 -72.5 -81.5t-82.5 -25.5q-58 0 -131 39q-84 41 -129 41q-46 0 -84 -49q-18 -22 -31 -2l-41 47q-15 19 0 39q64 104 158 104z" />
    <glyph glyph-name="uniFEF7" unicode="&#xfedf;&#xfe84;" horiz-adv-x="1339" arabic-form="isolated" 
d="M803 225h76q60 0 79 21t19 84v1063q0 25 9 35.5t30 13.5l147 20q21 3 32 -8t11 -35v-1163q0 -128 -74 -192t-231 -64h-760q-27 0 -38 12.5t-11 38.5v123q0 26 11 38.5t38 12.5h424l-233 828q-8 29 0.5 45.5t36.5 25.5l108 37q57 18 72 -41zM176 1438h60q-37 53 -37 118
q0 85 59.5 137t147.5 52q86 0 159 -47q29 -21 15 -43l-21 -51q-7 -15 -13 -18.5t-22 3.5q-60 29 -104 29q-39 0 -63.5 -24.5t-24.5 -65.5q0 -46 33 -90h208q17 0 23 -6.5t6 -22.5v-70q0 -28 -29 -28h-397q-17 0 -23 7t-6 23v68q0 16 6 22.5t23 6.5z" />
    <glyph glyph-name="uniFEF8" unicode="&#xfee0;&#xfe84;" horiz-adv-x="1431" arabic-form="final" 
d="M803 225h76q60 0 79 21t19 84v1063q0 25 9 35.5t30 13.5l147 20q21 3 32 -8t11 -35v-1134q66 -60 213 -60h13v-225h-13q-173 0 -252 102q-67 -102 -266 -102h-760q-27 0 -38 12.5t-11 38.5v123q0 26 11 38.5t38 12.5h424l-233 828q-8 29 0.5 45.5t36.5 25.5l108 37
q57 18 72 -41zM176 1438h60q-37 53 -37 118q0 85 59.5 137t147.5 52q86 0 159 -47q29 -21 15 -43l-21 -51q-7 -15 -13 -18.5t-22 3.5q-60 29 -104 29q-39 0 -63.5 -24.5t-24.5 -65.5q0 -46 33 -90h208q17 0 23 -6.5t6 -22.5v-70q0 -28 -29 -28h-397q-17 0 -23 7t-6 23v68
q0 16 6 22.5t23 6.5z" />
    <glyph glyph-name="uniFEF9" unicode="&#xfedf;&#xfe88;" horiz-adv-x="1339" arabic-form="isolated" 
d="M803 225h76q60 0 79 21t19 84v1063q0 25 9 35.5t30 13.5l147 20q21 3 32 -8t11 -35v-1163q0 -128 -74 -192t-231 -64h-760q-27 0 -38 12.5t-11 38.5v123q0 26 11 38.5t38 12.5h424l-289 1028q-17 55 37 72l109 37q57 18 72 -41zM326 -532h59q-37 60 -37 120
q0 83 59.5 135t147.5 52q87 0 160 -47q27 -19 14 -43l-20 -52q-6 -14 -13 -17.5t-22 3.5q-60 29 -105 29q-39 0 -63.5 -24.5t-24.5 -65.5q0 -43 33 -90h209q17 0 23 -6.5t6 -22.5v-70q0 -28 -29 -28h-397q-17 0 -23 7t-6 23v68q0 17 6 23t23 6z" />
    <glyph glyph-name="uniFEFA" unicode="&#xfee0;&#xfe88;" horiz-adv-x="1431" arabic-form="final" 
d="M803 225h76q60 0 79 21t19 84v1063q0 25 9 35.5t30 13.5l147 20q21 3 32 -8t11 -35v-1134q66 -60 213 -60h13v-225h-13q-173 0 -252 102q-67 -102 -266 -102h-760q-27 0 -38 12.5t-11 38.5v123q0 26 11 38.5t38 12.5h424l-289 1028q-17 55 37 72l109 37q57 18 72 -41z
M326 -532h59q-37 60 -37 120q0 83 59.5 135t147.5 52q87 0 160 -47q27 -19 14 -43l-20 -52q-6 -14 -13 -17.5t-22 3.5q-60 29 -105 29q-39 0 -63.5 -24.5t-24.5 -65.5q0 -43 33 -90h209q17 0 23 -6.5t6 -22.5v-70q0 -28 -29 -28h-397q-17 0 -23 7t-6 23v68q0 17 6 23t23 6z
" />
    <glyph glyph-name="uniFEFB" unicode="&#xfedf;&#xfe8e;" horiz-adv-x="1339" arabic-form="isolated" 
d="M803 225h76q60 0 79 21t19 84v1063q0 25 9 35.5t30 13.5l147 20q21 3 32 -8t11 -35v-1163q0 -128 -74 -192t-231 -64h-760q-27 0 -38 12.5t-11 38.5v123q0 26 11 38.5t38 12.5h424l-289 1028q-17 55 37 72l109 37q57 18 72 -41z" />
    <glyph glyph-name="uniFEFC" unicode="&#xfee0;&#xfe8e;" horiz-adv-x="1431" arabic-form="final" 
d="M803 225h76q60 0 79 21t19 84v1063q0 25 9 35.5t30 13.5l147 20q21 3 32 -8t11 -35v-1134q66 -60 213 -60h13v-225h-13q-173 0 -252 102q-67 -102 -266 -102h-760q-27 0 -38 12.5t-11 38.5v123q0 26 11 38.5t38 12.5h424l-289 1028q-17 55 37 72l109 37q57 18 72 -41z
" />
    <glyph glyph-name="uni06440671" unicode="&#xfedf;&#xfb51;" horiz-adv-x="1339" 
d="M803 225h76q60 0 79 21t19 84v1063q0 25 9 35.5t30 13.5l147 20q21 3 32 -8t11 -35v-1163q0 -128 -74 -192t-231 -64h-760q-27 0 -38 12.5t-11 38.5v123q0 26 11 38.5t38 12.5h424l-233 828q-8 29 0.5 45.5t36.5 25.5l108 37q57 18 72 -41zM309 1624v-47q79 59 148 59
q157 0 157 -174q0 -97 -41.5 -133.5t-156.5 -36.5h-275q-24 0 -24 23v69q0 23 24 23h39v201q0 27 25 30l71 15q33 7 33 -29zM309 1407h127q29 0 42.5 12.5t13.5 46.5q0 56 -60 56q-20 0 -56 -14t-67 -46v-55z" />
    <glyph glyph-name="uni06440671.fina" unicode="&#xfee0;&#xfb51;" horiz-adv-x="1431" 
d="M803 225h76q60 0 79 21t19 84v1063q0 25 9 35.5t30 13.5l147 20q21 3 32 -8t11 -35v-1134q66 -60 213 -60h13v-225h-13q-173 0 -252 102q-67 -102 -266 -102h-760q-27 0 -38 12.5t-11 38.5v123q0 26 11 38.5t38 12.5h424l-233 828q-8 29 0.5 45.5t36.5 25.5l108 37
q57 18 72 -41zM309 1624v-47q79 59 148 59q157 0 157 -174q0 -97 -41.5 -133.5t-156.5 -36.5h-275q-24 0 -24 23v69q0 23 24 23h39v201q0 27 25 30l71 15q33 7 33 -29zM309 1407h127q29 0 42.5 12.5t13.5 46.5q0 56 -60 56q-20 0 -56 -14t-67 -46v-55z" />
    <glyph glyph-name="uniFB50" unicode="&#x671;" horiz-adv-x="495" arabic-form="isolated" 
d="M309 0h-123q-28 0 -40.5 12t-12.5 39v1342q0 25 9 35.5t30 13.5l147 20q21 3 32 -8t11 -35v-1368q0 -27 -12.5 -39t-40.5 -12zM190 1968v-47q79 59 148 59q67 0 112.5 -38.5t45.5 -135.5t-42 -133.5t-157 -36.5h-274q-25 0 -25 23v70q0 22 25 22h38v201q0 27 25 30l72 15
q32 7 32 -29zM190 1751h127q29 0 42.5 12.5t13.5 46.5q0 56 -60 56q-20 0 -56 -14t-67 -46v-55z" />
    <glyph glyph-name="uniFB51" unicode="&#x671;" horiz-adv-x="565" arabic-form="final" 
d="M133 256v1137q0 25 9 35.5t30 13.5l147 20q21 3 32 -8t11 -35v-1089q0 -63 19.5 -84t79.5 -21h104v-225h-127q-157 0 -231 64t-74 192zM201 1968v-47q79 59 147 59q67 0 112.5 -38.5t45.5 -135.5t-42 -133.5t-157 -36.5h-274q-25 0 -25 23v70q0 22 25 22h39v201
q0 27 24 30l72 15q33 7 33 -29zM201 1751h127q29 0 42 12.5t13 46.5q0 56 -59 56q-20 0 -56 -14t-67 -46v-55z" />
    <glyph glyph-name="uniFB56" unicode="&#x67e;" horiz-adv-x="1863" arabic-form="isolated" 
d="M1425 0h-821q-245 0 -374.5 114t-129.5 318v236q0 27 13 39t41 12h122q28 0 41 -12t13 -39v-136q0 -171 69.5 -239t251.5 -68h752q60 0 79 21t19 84v463q0 27 12.5 39t40.5 12h123q28 0 41 -12t13 -39v-537q0 -128 -74.5 -192t-231.5 -64zM926 -727q-51 0 -84 30.5
t-33 80.5t33 80t84 30q52 0 85 -30t33 -80t-33 -80.5t-85 -30.5zM776 -469q-52 0 -85.5 30.5t-33.5 80.5t33.5 81t85.5 31q50 0 83.5 -31t33.5 -81t-33 -80.5t-84 -30.5zM1077 -469q-52 0 -85.5 30.5t-33.5 80.5t33.5 81t85.5 31q50 0 83.5 -31t33.5 -81t-33 -80.5
t-84 -30.5z" />
    <glyph glyph-name="uniFB57" unicode="&#x67e;" horiz-adv-x="1955" arabic-form="final" 
d="M1425 0h-821q-245 0 -374.5 114t-129.5 318v236q0 27 13 39t41 12h122q28 0 41 -12t13 -39v-136q0 -171 69.5 -239t251.5 -68h752q60 0 79 21t19 84v463q0 27 12.5 39t40.5 12h123q28 0 41 -12t13 -39v-508q66 -60 213 -60h12v-225h-12q-173 0 -252 102
q-68 -102 -267 -102zM905 -727q-51 0 -84 30.5t-33 80.5t33 80t84 30q52 0 85.5 -30t33.5 -80t-33.5 -80.5t-85.5 -30.5zM756 -469q-52 0 -85.5 30.5t-33.5 80.5t33.5 81t85.5 31q50 0 83 -31t33 -81t-33 -80.5t-83 -30.5zM1057 -469q-52 0 -85.5 30.5t-33.5 80.5t33.5 81
t85.5 31q50 0 83.5 -31t33.5 -81t-33 -80.5t-84 -30.5z" />
    <glyph glyph-name="uniFB58" unicode="&#x67e;" horiz-adv-x="622" arabic-form="initial" 
d="M-20 225h180q60 0 79 21t19 84v463q0 27 12.5 39t40.5 12h123q28 0 40.5 -12t12.5 -39v-537q0 -128 -74 -192t-231 -64h-202q-66 0 -66 113q0 112 66 112zM156 -727q-51 0 -84 30.5t-33 80.5t33 80t84 30q52 0 85 -30t33 -80t-33 -80.5t-85 -30.5zM6 -469
q-52 0 -85.5 30.5t-33.5 80.5t33.5 81t85.5 31q50 0 83.5 -31t33.5 -81t-33 -80.5t-84 -30.5zM307 -469q-52 0 -85.5 30.5t-33.5 80.5t33.5 81t85.5 31q50 0 83.5 -31t33.5 -81t-33 -80.5t-84 -30.5z" />
    <glyph glyph-name="uniFB59" unicode="&#x67e;" horiz-adv-x="733" arabic-form="medial" 
d="M203 0h-223q-66 0 -66 113q0 112 66 112h200q60 0 79.5 21t19.5 84v463q0 27 12.5 39t40.5 12h123q28 0 40.5 -12t12.5 -39v-508q66 -60 213 -60h12v-225h-12q-173 0 -252 102q-67 -102 -266 -102zM176 -727q-51 0 -84 30.5t-33 80.5t33 80t84 30q52 0 85.5 -30t33.5 -80
t-33.5 -80.5t-85.5 -30.5zM27 -469q-52 0 -85.5 30.5t-33.5 80.5t33.5 81t85.5 31q50 0 83 -31t33 -81t-33 -80.5t-83 -30.5zM328 -469q-52 0 -85.5 30.5t-33.5 80.5t33.5 81t85.5 31q50 0 83 -31t33 -81t-33 -80.5t-83 -30.5z" />
    <glyph glyph-name="uniFB66" unicode="&#x679;" horiz-adv-x="1863" arabic-form="isolated" 
d="M1425 0h-821q-245 0 -374.5 114t-129.5 318v236q0 27 13 39t41 12h122q28 0 41 -12t13 -39v-136q0 -171 69.5 -239t251.5 -68h752q60 0 79 21t19 84v463q0 27 12.5 39t40.5 12h123q28 0 41 -12t13 -39v-537q0 -128 -74.5 -192t-231.5 -64zM862 1571v-215q79 59 148 59
q159 0 159 -174q0 -97 -42.5 -133.5t-157.5 -36.5h-277q-22 0 -22 25v67q0 25 22 25h39v366q0 25 25 31l71 14q35 8 35 -28zM862 1188h127q31 0 44.5 11.5t13.5 45.5q0 60 -64 60q-62 0 -121 -62v-55z" />
    <glyph glyph-name="uniFB67" unicode="&#x679;" horiz-adv-x="1955" arabic-form="final" 
d="M1425 0h-821q-245 0 -374.5 114t-129.5 318v236q0 27 13 39t41 12h122q28 0 41 -12t13 -39v-136q0 -171 69.5 -239t251.5 -68h752q60 0 79 21t19 84v463q0 27 12.5 39t40.5 12h123q28 0 41 -12t13 -39v-508q66 -60 213 -60h12v-225h-12q-173 0 -252 102
q-68 -102 -267 -102zM862 1571v-215q79 59 148 59q159 0 159 -174q0 -97 -42.5 -133.5t-157.5 -36.5h-277q-22 0 -22 25v67q0 25 22 25h39v366q0 25 25 31l71 14q35 8 35 -28zM862 1188h127q31 0 44.5 11.5t13.5 45.5q0 60 -64 60q-62 0 -121 -62v-55z" />
    <glyph glyph-name="uniFB68" unicode="&#x679;" horiz-adv-x="622" arabic-form="initial" 
d="M-20 225h180q60 0 79 21t19 84v463q0 27 12.5 39t40.5 12h123q28 0 40.5 -12t12.5 -39v-537q0 -128 -74 -192t-231 -64h-202q-66 0 -66 113q0 112 66 112zM303 1571v-215q79 59 148 59q159 0 159 -174q0 -97 -42.5 -133.5t-157.5 -36.5h-277q-22 0 -22 25v67q0 25 22 25
h39v366q0 25 25 31l71 14q35 8 35 -28zM303 1188h127q31 0 44 11.5t13 45.5q0 60 -63 60q-62 0 -121 -62v-55z" />
    <glyph glyph-name="uniFB69" unicode="&#x679;" horiz-adv-x="733" arabic-form="medial" 
d="M203 0h-223q-66 0 -66 113q0 112 66 112h200q60 0 79.5 21t19.5 84v463q0 27 12.5 39t40.5 12h123q28 0 40.5 -12t12.5 -39v-508q66 -60 213 -60h12v-225h-12q-173 0 -252 102q-67 -102 -266 -102zM334 1571v-215q79 59 147 59q160 0 160 -174q0 -97 -43 -133.5
t-158 -36.5h-276q-23 0 -23 25v67q0 25 23 25h39v366q0 25 24 31l72 14q35 8 35 -28zM334 1188h127q31 0 44 11.5t13 45.5q0 60 -63 60q-62 0 -121 -62v-55z" />
    <glyph glyph-name="uniFB6A" unicode="&#x6a4;" horiz-adv-x="2078" arabic-form="isolated" 
d="M1470 225h84q84 0 134.5 48.5t50.5 150.5q0 88 -39 145.5t-129 57.5q-60 0 -98.5 -30.5t-52 -73.5t-13.5 -99q0 -121 63 -199zM651 225h586q-63 101 -63 232q0 173 106 280t293 107q188 0 293.5 -108.5t105.5 -307.5q0 -212 -114.5 -320t-325.5 -108h-928
q-245 0 -374.5 114t-129.5 318v236q0 27 13 39t41 12h122q28 0 41 -12t13 -39v-136q0 -171 69.5 -239t251.5 -68zM1583 1329q-51 0 -84 30t-33 81q0 50 33 80t84 30q52 0 85.5 -30t33.5 -80q0 -51 -33.5 -81t-85.5 -30zM1434 1069q-52 0 -85.5 30.5t-33.5 80.5t33.5 81
t85.5 31q50 0 83 -31t33 -81t-33 -80.5t-83 -30.5zM1735 1069q-52 0 -85.5 30.5t-33.5 80.5t33.5 81t85.5 31q50 0 83 -31t33 -81t-33 -80.5t-83 -30.5z" />
    <glyph glyph-name="uniFB6B" unicode="&#x6a4;" horiz-adv-x="2082" arabic-form="final" 
d="M1554 289q90 48 136.5 113t46.5 122q0 62 -49 103t-134 41t-133.5 -41t-48.5 -103q0 -57 46 -122t136 -113zM2083 225v-225h-125q-225 0 -404 70q-179 -70 -403 -70h-549q-245 0 -374.5 114t-129.5 318v236q0 27 13 39t41 12h122q28 0 41 -12t13 -39v-136
q0 -171 69.5 -239t251.5 -68h502q107 0 156 6q-83 68 -126.5 152.5t-43.5 165.5q0 142 114 240t303 98t303.5 -98t114.5 -240q0 -81 -43.5 -165.5t-126.5 -152.5q49 -6 156 -6h125zM1565 1366q-51 0 -84 30t-33 81q0 50 33 80t84 30q52 0 85 -30t33 -80q0 -51 -33 -81
t-85 -30zM1415 1106q-52 0 -85.5 30.5t-33.5 80.5t33.5 81t85.5 31q50 0 83.5 -31t33.5 -81t-33 -80.5t-84 -30.5zM1716 1106q-52 0 -85.5 30.5t-33.5 80.5t33.5 81t85.5 31q50 0 83.5 -31t33.5 -81t-33 -80.5t-84 -30.5z" />
    <glyph glyph-name="uniFB6C" unicode="&#x6a4;" horiz-adv-x="1067" arabic-form="initial" 
d="M-20 225h237q-63 101 -63 232q0 173 107.5 280t297.5 107q189 0 296.5 -108.5t107.5 -307.5q0 -212 -116.5 -320t-330.5 -108h-536q-66 0 -66 113q0 112 66 112zM453 225h88q85 0 136.5 48.5t51.5 150.5q0 41 -8.5 75.5t-27 64t-53 46.5t-81.5 17q-63 0 -103 -30.5
t-54.5 -73.5t-14.5 -99q0 -118 66 -199zM559 1329q-51 0 -84 30t-33 81q0 50 33 80t84 30q52 0 85.5 -30t33.5 -80q0 -51 -33.5 -81t-85.5 -30zM410 1069q-52 0 -85.5 30.5t-33.5 80.5t33.5 81t85.5 31q50 0 83 -31t33 -81t-33 -80.5t-83 -30.5zM711 1069q-52 0 -85.5 30.5
t-33.5 80.5t33.5 81t85.5 31q50 0 83 -31t33 -81t-33 -80.5t-83 -30.5z" />
    <glyph glyph-name="uniFB6D" unicode="&#x6a4;" horiz-adv-x="1058" arabic-form="medial" 
d="M-20 225h145q107 0 156 6q-83 68 -126.5 152.5t-43.5 165.5q0 142 113.5 240t301.5 98q190 0 305 -98t115 -240q0 -81 -43.5 -165.5t-126.5 -152.5q49 -6 156 -6h127v-225h-127q-225 0 -406 70q-179 -70 -401 -70h-145q-66 0 -66 113q0 112 66 112zM528 289
q91 47 137 112.5t46 122.5q0 63 -48 103.5t-135 40.5t-134.5 -40.5t-47.5 -103.5q0 -57 45.5 -122.5t136.5 -112.5zM535 1366q-51 0 -84 30t-33 81q0 50 33 80t84 30q52 0 85 -30t33 -80q0 -51 -33 -81t-85 -30zM385 1106q-52 0 -85.5 30.5t-33.5 80.5t33.5 81t85.5 31
q50 0 83.5 -31t33.5 -81t-33 -80.5t-84 -30.5zM686 1106q-52 0 -85.5 30.5t-33.5 80.5t33.5 81t85.5 31q50 0 83.5 -31t33.5 -81t-33 -80.5t-84 -30.5z" />
    <glyph glyph-name="uniFB7A" unicode="&#x686;" horiz-adv-x="1181" arabic-form="isolated" 
d="M625 -178q0 43 29 69.5t71 26.5q44 0 73 -26.5t29 -69.5q0 -42 -29.5 -69t-72.5 -27q-42 0 -71 27t-29 69zM885 -178q0 43 29 69.5t73 26.5t72 -26t28 -70q0 -42 -28.5 -69t-71.5 -27t-72.5 27t-29.5 69zM756 -397q0 44 28 70t72 26t73 -26.5t29 -69.5q0 -42 -29.5 -69.5
t-72.5 -27.5t-71.5 27.5t-28.5 69.5zM184 772q73 51 166 80t178 29q183 0 288 -99t147 -297q19 -88 42.5 -137.5t65.5 -87.5q26 -23 32.5 -38t6.5 -40v-129q0 -53 -45 -53h-481q-148 0 -214.5 -42.5t-66.5 -133.5q0 -93 77.5 -145t221.5 -52h25q35 0 49 -13.5t14 -45.5v-80
q0 -42 -9 -55.5t-36 -18.5q-41 -8 -100 -8q-210 0 -343.5 112t-133.5 308q0 399 522 399h241q-36 37 -55 80t-39 131q-26 122 -78.5 174t-148.5 52q-102 0 -236 -76q-26 -13 -38 -9.5t-23 27.5l-49 111q-9 17 -5 30.5t25 26.5z" />
    <glyph glyph-name="uniFB7B" unicode="&#x686;" horiz-adv-x="1224" arabic-form="final" 
d="M184 772q73 51 166 80t178 29q183 0 288 -99t147 -297q21 -95 51 -153t96 -107h115v-225h-641q-148 0 -214.5 -42.5t-66.5 -133.5q0 -93 77.5 -145t221.5 -52h25q35 0 49 -13.5t14 -45.5v-80q0 -42 -9 -55.5t-36 -18.5q-41 -8 -100 -8q-210 0 -343.5 112t-133.5 308
q0 399 522 399h241q-36 37 -55 80t-39 131q-26 122 -78.5 174t-148.5 52q-102 0 -236 -76q-26 -13 -38 -9.5t-23 27.5l-49 111q-9 17 -5 30.5t25 26.5zM885 -178q0 43 29 69.5t73 26.5t72 -26t28 -70q0 -42 -28.5 -69t-71.5 -27t-72.5 27t-29.5 69zM756 -397q0 44 28 70
t72 26t73 -26.5t29 -69.5q0 -42 -29.5 -69.5t-72.5 -27.5t-71.5 27.5t-28.5 69.5zM625 -178q0 43 29 69.5t71 26.5q44 0 73 -26.5t29 -69.5q0 -42 -29.5 -69t-72.5 -27q-42 0 -71 27t-29 69z" />
    <glyph glyph-name="uniFB7C" unicode="&#x686;" horiz-adv-x="1126" arabic-form="initial" 
d="M1010 0h-1030q-66 0 -66 111q0 114 66 114h798q-35 37 -54.5 80t-39.5 131q-26 123 -78.5 174.5t-150.5 51.5q-105 0 -234 -76q-18 -9 -29 -10t-18.5 5.5t-13.5 22.5l-49 111q-14 33 22 57q166 109 342 109q183 0 287.5 -99t146.5 -297q19 -87 43 -137.5t66 -87.5
q26 -25 32.5 -39t6.5 -39v-129q0 -53 -47 -53zM455 -727q-51 0 -84 30.5t-33 80.5t33 80t84 30q52 0 85 -30t33 -80t-33 -80.5t-85 -30.5zM305 -469q-52 0 -85.5 30.5t-33.5 80.5t33.5 81t85.5 31q50 0 83.5 -31t33.5 -81t-33 -80.5t-84 -30.5zM606 -469q-52 0 -85.5 30.5
t-33.5 80.5t33.5 81t85.5 31q50 0 83.5 -31t33.5 -81t-33 -80.5t-84 -30.5z" />
    <glyph glyph-name="uniFB7D" unicode="&#x686;" horiz-adv-x="1167" arabic-form="medial" 
d="M1167 0h-1187q-66 0 -66 111q0 114 66 114h798q-35 37 -54 80.5t-38 130.5q-28 122 -82 174t-151 52q-104 0 -236 -76q-18 -9 -29 -10t-18.5 5.5t-13.5 22.5l-47 111q-14 32 20 57q166 109 344 109q182 0 286.5 -99t145.5 -297q21 -99 53.5 -156.5t98.5 -103.5h110v-225z
M455 -727q-51 0 -84 30.5t-33 80.5t33 80t84 30q52 0 85 -30t33 -80t-33 -80.5t-85 -30.5zM305 -469q-52 0 -85.5 30.5t-33.5 80.5t33.5 81t85.5 31q50 0 83.5 -31t33.5 -81t-33 -80.5t-84 -30.5zM606 -469q-52 0 -85.5 30.5t-33.5 80.5t33.5 81t85.5 31q50 0 83.5 -31
t33.5 -81t-33 -80.5t-84 -30.5z" />
    <glyph glyph-name="uniFB88" unicode="&#x688;" horiz-adv-x="1112" arabic-form="isolated" 
d="M229 836q45 20 129.5 32.5t155.5 12.5q246 0 363.5 -105t117.5 -342v-178q0 -128 -72.5 -192t-226.5 -64h-579q-27 0 -38 12.5t-11 38.5v123q0 26 11 38.5t38 12.5h532q71 0 94 23.5t23 93.5v82q0 132 -63.5 185t-213.5 53q-49 0 -133.5 -10.5t-115.5 -10.5q-43 0 -43 45
v96q0 23 6.5 35t25.5 19zM475 1571v-215q79 59 148 59q159 0 159 -174q0 -97 -42.5 -133.5t-157.5 -36.5h-277q-22 0 -22 25v67q0 25 22 25h39v366q0 25 25 31l71 14q35 8 35 -28zM475 1188h127q31 0 44 11.5t13 45.5q0 60 -63 60q-62 0 -121 -62v-55z" />
    <glyph glyph-name="uniFB89" unicode="&#x688;" horiz-adv-x="1214" arabic-form="final" 
d="M766 225v199q0 132 -62.5 185t-211.5 53q-50 0 -135.5 -10.5t-116.5 -10.5q-43 0 -43 45v96q0 23 6.5 35t25.5 19q45 19 130.5 32t156.5 13q244 0 361.5 -105t117.5 -342v-209h219v-225h-1099q-47 0 -47 51v121q0 53 47 53h651zM475 1571v-215q79 59 148 59
q159 0 159 -174q0 -97 -42.5 -133.5t-157.5 -36.5h-277q-22 0 -22 25v67q0 25 22 25h39v366q0 25 25 31l71 14q35 8 35 -28zM475 1188h127q31 0 44 11.5t13 45.5q0 60 -63 60q-62 0 -121 -62v-55z" />
    <glyph glyph-name="uniFB8A" unicode="&#x698;" horiz-adv-x="659" arabic-form="isolated" 
d="M526 793v-562q0 -136 -17.5 -227t-66.5 -171t-129 -142.5t-211 -132.5q-43 -24 -67 22l-58 105q-11 24 -2.5 38.5t37.5 30.5q116 65 174 125t84.5 147.5t26.5 231.5v535q0 27 12.5 39t40.5 12h123q28 0 40.5 -12t12.5 -39zM403 1350q-51 0 -83.5 29.5t-32.5 80.5
q0 50 33 80.5t83 30.5q52 0 85.5 -30.5t33.5 -80.5q0 -51 -33.5 -80.5t-85.5 -29.5zM254 1090q-52 0 -85.5 30t-33.5 80t33.5 81.5t85.5 31.5q50 0 83.5 -31.5t33.5 -81.5t-33 -80t-84 -30zM555 1090q-52 0 -85.5 30t-33.5 80t33.5 81.5t85.5 31.5q50 0 83.5 -31.5
t33.5 -81.5t-33 -80t-84 -30z" />
    <glyph glyph-name="uniFB8B" unicode="&#x698;" horiz-adv-x="718" arabic-form="final" 
d="M526 793v-568h193v-225h-213q-29 -143 -120 -241t-284 -201q-43 -24 -67 22l-58 105q-11 24 -2.5 38.5t37.5 30.5q116 65 174 125t84.5 147.5t26.5 231.5v535q0 27 12.5 39t40.5 12h123q28 0 40.5 -12t12.5 -39zM403 1350q-51 0 -83.5 29.5t-32.5 80.5q0 50 33 80.5
t83 30.5q52 0 85.5 -30.5t33.5 -80.5q0 -51 -33.5 -80.5t-85.5 -29.5zM254 1090q-52 0 -85.5 30t-33.5 80t33.5 81.5t85.5 31.5q50 0 83.5 -31.5t33.5 -81.5t-33 -80t-84 -30zM555 1090q-52 0 -85.5 30t-33.5 80t33.5 81.5t85.5 31.5q50 0 83.5 -31.5t33.5 -81.5t-33 -80
t-84 -30z" />
    <glyph glyph-name="uniFB8C" unicode="&#x691;" horiz-adv-x="659" arabic-form="isolated" 
d="M526 793v-562q0 -136 -17.5 -227t-66.5 -171t-129 -142.5t-211 -132.5q-43 -24 -67 22l-58 105q-11 24 -2.5 38.5t37.5 30.5q116 65 174 125t84.5 147.5t26.5 231.5v535q0 27 12.5 39t40.5 12h123q28 0 40.5 -12t12.5 -39zM350 1571v-215q79 59 148 59q159 0 159 -174
q0 -97 -42.5 -133.5t-157.5 -36.5h-277q-22 0 -22 25v67q0 25 22 25h39v366q0 25 25 31l71 14q35 8 35 -28zM350 1188h127q31 0 44.5 11.5t13.5 45.5q0 60 -64 60q-62 0 -121 -62v-55z" />
    <glyph glyph-name="uniFB8D" unicode="&#x691;" horiz-adv-x="718" arabic-form="final" 
d="M526 793v-568h193v-225h-213q-29 -143 -120 -241t-284 -201q-43 -24 -67 22l-58 105q-11 24 -2.5 38.5t37.5 30.5q116 65 174 125t84.5 147.5t26.5 231.5v535q0 27 12.5 39t40.5 12h123q28 0 40.5 -12t12.5 -39zM350 1571v-215q79 59 148 59q159 0 159 -174
q0 -97 -42.5 -133.5t-157.5 -36.5h-277q-22 0 -22 25v67q0 25 22 25h39v366q0 25 25 31l71 14q35 8 35 -28zM350 1188h127q31 0 44.5 11.5t13.5 45.5q0 60 -64 60q-62 0 -121 -62v-55z" />
    <glyph glyph-name="uniFB8E" unicode="&#x6a9;" horiz-adv-x="1918" arabic-form="isolated" 
d="M1196 870q306 -117 456 -253.5t150 -307.5q0 -74 -26.5 -130t-67.5 -89.5t-99.5 -54t-114.5 -28t-120 -7.5h-780q-240 0 -367 114t-127 318v240q0 47 52 47h127q26 0 38.5 -10t12.5 -37v-140q0 -170 68 -238.5t245 -68.5h746q88 0 133 25t45 84q0 96 -154.5 203.5
t-456.5 191.5q-25 8 -35 18t-10 31v96q0 31 29 54l600 522q43 37 72 4l76 -86q18 -21 18 -37.5t-20 -34.5z" />
    <glyph glyph-name="uniFB8F" unicode="&#x6a9;" horiz-adv-x="2025" arabic-form="final" 
d="M1196 870q306 -117 456 -253.5t150 -307.5q0 -15 -4 -43q61 -41 195 -41h32v-225h-32q-178 0 -260 113q-105 -113 -359 -113h-780q-240 0 -367 114t-127 318v240q0 47 52 47h127q26 0 38.5 -10t12.5 -37v-140q0 -170 68 -238.5t245 -68.5h746q88 0 133 25t45 84
q0 96 -154.5 203.5t-456.5 191.5q-25 8 -35 18t-10 31v96q0 31 29 54l600 522q43 37 72 4l76 -86q18 -21 18 -37.5t-20 -34.5z" />
    <glyph glyph-name="uniFB90" unicode="&#x6a9;" horiz-adv-x="948" arabic-form="initial" 
d="M412 0h-432q-66 0 -66 111q0 114 66 114h446q87 0 132.5 25t45.5 84q0 95 -153.5 202t-456.5 193q-25 8 -35 18t-10 31v96q0 35 28 54l601 522q43 37 71 4l76 -86q18 -21 18 -37.5t-20 -34.5l-490 -426q307 -117 457 -253.5t150 -307.5q0 -74 -26.5 -130t-67.5 -89.5
t-99.5 -54t-114.5 -28t-120 -7.5z" />
    <glyph glyph-name="uniFB91" unicode="&#x6a9;" horiz-adv-x="1062" arabic-form="medial" 
d="M412 0h-432q-66 0 -66 111q0 114 66 114h446q87 0 132.5 25t45.5 84q0 95 -153.5 202t-456.5 193q-25 8 -35 18t-10 31v96q0 35 28 54l601 522q43 37 71 4l76 -86q18 -21 18 -37.5t-20 -34.5l-490 -426q307 -117 457 -253.5t150 -307.5q0 -13 -4 -41q60 -43 194 -43h33
v-225h-33q-179 0 -260 115q-105 -115 -358 -115z" />
    <glyph glyph-name="uniFB92" unicode="&#x6af;" horiz-adv-x="1918" arabic-form="isolated" 
d="M1196 870q306 -117 456 -253.5t150 -307.5q0 -74 -26.5 -130t-67.5 -89.5t-99.5 -54t-114.5 -28t-120 -7.5h-780q-240 0 -367 114t-127 318v240q0 47 52 47h127q26 0 38.5 -10t12.5 -37v-140q0 -170 68 -238.5t245 -68.5h746q88 0 133 25t45 84q0 96 -154.5 203.5
t-456.5 191.5q-25 8 -35 18t-10 31v96q0 31 29 54l600 522q43 37 72 4l76 -86q18 -21 18 -37.5t-20 -34.5zM887 1231l418 362q39 31 61 6l51 -57q30 -35 -2 -61l-418 -363q-39 -31 -61 -6l-51 57q-31 36 2 62z" />
    <glyph glyph-name="uniFB93" unicode="&#x6af;" horiz-adv-x="2025" arabic-form="final" 
d="M1196 870q306 -117 456 -253.5t150 -307.5q0 -15 -4 -43q61 -41 195 -41h32v-225h-32q-178 0 -260 113q-105 -113 -359 -113h-780q-240 0 -367 114t-127 318v240q0 47 52 47h127q26 0 38.5 -10t12.5 -37v-140q0 -170 68 -238.5t245 -68.5h746q88 0 133 25t45 84
q0 96 -154.5 203.5t-456.5 191.5q-25 8 -35 18t-10 31v96q0 31 29 54l600 522q43 37 72 4l76 -86q18 -21 18 -37.5t-20 -34.5zM887 1231l418 362q39 31 61 6l51 -57q30 -35 -2 -61l-418 -363q-39 -31 -61 -6l-51 57q-31 36 2 62z" />
    <glyph glyph-name="uniFB94" unicode="&#x6af;" horiz-adv-x="948" arabic-form="initial" 
d="M412 0h-432q-66 0 -66 111q0 114 66 114h446q87 0 132.5 25t45.5 84q0 95 -153.5 202t-456.5 193q-25 8 -35 18t-10 31v96q0 35 28 54l601 522q43 37 71 4l76 -86q18 -21 18 -37.5t-20 -34.5l-490 -426q307 -117 457 -253.5t150 -307.5q0 -74 -26.5 -130t-67.5 -89.5
t-99.5 -54t-114.5 -28t-120 -7.5zM-82 1231l418 362q39 31 61 6l52 -57q30 -35 -3 -61l-417 -363q-39 -31 -62 -6l-51 57q-31 36 2 62z" />
    <glyph glyph-name="uniFB95" unicode="&#x6af;" horiz-adv-x="1062" arabic-form="medial" 
d="M412 0h-432q-66 0 -66 111q0 114 66 114h446q87 0 132.5 25t45.5 84q0 95 -153.5 202t-456.5 193q-25 8 -35 18t-10 31v96q0 35 28 54l601 522q43 37 71 4l76 -86q18 -21 18 -37.5t-20 -34.5l-490 -426q307 -117 457 -253.5t150 -307.5q0 -13 -4 -41q60 -43 194 -43h33
v-225h-33q-179 0 -260 115q-105 -115 -358 -115zM-82 1231l418 362q39 31 61 6l52 -57q30 -35 -3 -61l-417 -363q-39 -31 -62 -6l-51 57q-31 36 2 62z" />
    <glyph glyph-name="uniFB9E" unicode="&#x6ba;" horiz-adv-x="1363" arabic-form="isolated" 
d="M1235 612v-522q0 -264 -146 -402.5t-427 -138.5q-267 0 -417.5 130.5t-150.5 386.5q0 166 82 333q18 33 33 41t47 -4l96 -43q27 -11 33.5 -26.5t-4.5 -49.5q-53 -126 -53 -249q0 -147 87 -223t253 -76q173 0 255.5 81.5t82.5 247.5v514q0 47 49 47h131q26 0 37.5 -10
t11.5 -37z" />
    <glyph glyph-name="uniFB9F" unicode="&#x6ba;" horiz-adv-x="1404" arabic-form="final" 
d="M1231 0v6q-23 -224 -167.5 -340.5t-401.5 -116.5q-267 0 -417.5 130.5t-150.5 386.5q0 166 82 333q18 33 33 41t47 -4l96 -43q27 -11 33.5 -26.5t-4.5 -49.5q-53 -126 -53 -249q0 -147 87 -223t253 -76q173 0 255.5 81.5t82.5 247.5v514q0 47 49 47h131q26 0 37.5 -10
t11.5 -37v-387h170v-225h-174z" />
    <glyph glyph-name="uniFBA4" unicode="&#x6c0;" horiz-adv-x="1056" arabic-form="isolated" 
d="M528 -20q-194 0 -308 113t-114 313q0 88 27 171t77.5 152t133 110.5t184.5 41.5q101 0 183.5 -41.5t133.5 -110.5t78 -152t27 -171q0 -200 -114 -313t-308 -113zM528 659q-64 0 -108 -41t-62 -97t-18 -118q0 -89 46.5 -145.5t141.5 -56.5t142 56.5t47 145.5q0 62 -18 118
t-62.5 97t-108.5 41zM330 1198h59q-37 53 -37 119q0 84 59.5 136t147.5 52q87 0 160 -47q28 -20 14 -43l-20 -51q-7 -15 -13 -18.5t-22 4.5q-58 28 -105 28q-39 0 -63.5 -24.5t-24.5 -65.5q0 -46 33 -90h209q17 0 23 -6.5t6 -22.5v-69q0 -29 -29 -29h-397q-29 0 -29 31v67
q0 16 6 22.5t23 6.5z" />
    <glyph glyph-name="uniFBA5" unicode="&#x6c0;" horiz-adv-x="1071" arabic-form="final" 
d="M868 977v-623q0 -69 31.5 -99t112.5 -30h59v-225h-74q-254 0 -329 143q-100 -41 -226 -41q-68 0 -128 15t-110.5 46.5t-80 87t-29.5 128.5q0 66 28 130t89 130t170 128.5t258 113.5v67q0 26 8 37t29 14l147 19q45 6 45 -41zM328 414q0 -44 36.5 -68t104.5 -24
q76 0 170 32v320q-144 -51 -227.5 -119t-83.5 -141zM537 1358h59q-37 53 -37 119q0 84 59.5 136t147.5 52q87 0 160 -47q28 -20 14 -43l-20 -51q-7 -15 -13 -18.5t-22 3.5q-60 29 -105 29q-39 0 -63.5 -24.5t-24.5 -65.5q0 -46 33 -90h209q17 0 23 -6.5t6 -22.5v-69
q0 -29 -29 -29h-397q-29 0 -29 31v67q0 16 6 22.5t23 6.5z" />
    <glyph glyph-name="uniFBA6" unicode="&#x6c1;" horiz-adv-x="1056" arabic-form="isolated" 
d="M528 -20q-194 0 -308 113t-114 313q0 88 27 171t77.5 152t133 110.5t184.5 41.5q101 0 183.5 -41.5t133.5 -110.5t78 -152t27 -171q0 -200 -114 -313t-308 -113zM528 659q-64 0 -108 -41t-62 -97t-18 -118q0 -89 46.5 -145.5t141.5 -56.5t142 56.5t47 145.5q0 62 -18 118
t-62.5 97t-108.5 41z" />
    <glyph glyph-name="uniFBA7" unicode="&#x6c1;" horiz-adv-x="1083" arabic-form="final" 
d="M322 164v-223q0 -52 -54 -52h-123q-28 0 -40.5 12t-12.5 40v229q0 78 24.5 139t66 97.5t93 55.5t109.5 19q34 0 63 -3.5t59.5 -16t48.5 -20t52.5 -31.5t48 -34.5t56.5 -43.5q74 -58 138 -82.5t159 -24.5h73v-225h-45q-150 0 -248.5 38.5t-203.5 127.5q-45 37 -67.5 53.5
t-52 29.5t-58.5 13q-86 0 -86 -98z" />
    <glyph glyph-name="uniFBA8" unicode="&#x6c1;" horiz-adv-x="622" arabic-form="initial" 
d="M281 -92h65q52 0 31 -41q-74 -139 -74 -197q0 -59 78 -59q41 0 41 -27q0 -46 -46 -90.5t-116 -44.5t-113 46.5t-43 121.5q0 121 107 262q20 29 70 29zM-20 225h180q60 0 79 21t19 84v463q0 27 12.5 39t40.5 12h123q28 0 40.5 -12t12.5 -39v-537q0 -128 -74 -192t-231 -64
h-202q-66 0 -66 113q0 112 66 112z" />
    <glyph glyph-name="uniFBA9" unicode="&#x6c1;" horiz-adv-x="1157" arabic-form="medial" 
d="M-20 225h57q144 0 209 56v391q0 27 12.5 39t40.5 12h123q28 0 40.5 -12t12.5 -39v-219q0 -232 33.5 -374t128.5 -274q-8 36 -8 89q0 158 112 244.5t336 86.5h80v-225h-76q-139 0 -191 -41.5t-52 -136.5q0 -118 57 -303q12 -43 -18 -56l-103 -45q-26 -12 -33.5 -12
t-27.5 12q-376 305 -449 658q-79 -76 -227 -76h-57q-66 0 -66 113q0 112 66 112z" />
    <glyph glyph-name="uniFBAA" unicode="&#x6be;" horiz-adv-x="1617" arabic-form="isolated" 
d="M950 561q0 61 -59.5 103.5t-130.5 42.5q-61 0 -101.5 -35.5t-40.5 -96.5q0 -123 162 -235q83 48 126.5 106.5t43.5 114.5zM1155 201q117 0 117 90q0 102 -135 233v-2q2 -10 2 -24q0 -130 -150 -265q91 -32 166 -32zM551 823l-78 31q-54 19 -33 59l52 97q11 22 21.5 27.5
t37.5 -1.5q232 -66 417.5 -162t300.5 -201t175.5 -213.5t60.5 -209.5q0 -124 -84.5 -191t-232.5 -67q-202 0 -410 108q-238 -100 -563 -100h-86q-27 0 -37 11.5t-10 37.5v125q0 51 47 51h98q179 0 328 33q-149 152 -149 320q0 72 45 140.5t98 102.5z" />
    <glyph glyph-name="uniFBAB" unicode="&#x6be;" horiz-adv-x="1370" arabic-form="final" 
d="M176 0h-35q-27 0 -38 12.5t-11 38.5v123q0 26 11 38.5t38 12.5h35q123 0 191 8q33 300 172 474t331 174q143 0 233.5 -88.5t90.5 -219.5q0 -101 -70 -194.5t-188 -145.5v-2q102 -6 367 -6h67v-225h-67q-133 0 -287 29v-2q85 -52 141.5 -135.5t56.5 -163.5
q0 -137 -100.5 -229.5t-247.5 -92.5q-86 0 -167 38t-150 110.5t-118 190.5t-66 267q-132 -12 -189 -12zM874 -373q50 0 83.5 32.5t33.5 82.5q0 36 -22.5 75.5t-67 81t-125 77.5t-184.5 57q5 -98 38.5 -188.5t98 -154t145.5 -63.5zM596 244q98 22 172 60.5t114 82.5
t59.5 85.5t19.5 80.5q0 49 -28 77.5t-71 28.5q-100 0 -168.5 -114t-97.5 -301z" />
    <glyph glyph-name="uniFBAC" unicode="&#x6be;" horiz-adv-x="1454" arabic-form="initial" 
d="M786 561q0 61 -59.5 103.5t-130.5 42.5q-61 0 -101 -35.5t-40 -96.5q0 -124 161 -235q83 48 126.5 106.5t43.5 114.5zM991 201q117 0 117 90q0 102 -135 233v-2q2 -10 2 -24q0 -130 -150 -265q91 -32 166 -32zM51 0h-71q-66 0 -66 113q0 112 66 112h83q179 0 328 33
q-149 152 -149 320q0 72 45 140.5t98 102.5l2 2l-78 31q-54 19 -33 59l52 97q11 22 21.5 27.5t37.5 -1.5q232 -66 417.5 -162t300.5 -201t175.5 -213.5t60.5 -209.5q0 -124 -84.5 -191t-232.5 -67q-202 0 -410 108q-238 -100 -563 -100z" />
    <glyph glyph-name="uniFBAD" unicode="&#x6be;" horiz-adv-x="1241" arabic-form="medial" 
d="M47 0h-67q-66 0 -66 113q0 112 66 112h67q123 0 191 8q33 300 172 474t331 174q143 0 233.5 -88.5t90.5 -219.5q0 -101 -70 -194.5t-188 -145.5v-2q102 -6 367 -6h67v-225h-67q-133 0 -287 29v-2q85 -52 141.5 -135.5t56.5 -163.5q0 -137 -100.5 -229.5t-247.5 -92.5
q-86 0 -167 38t-150 110.5t-118 190.5t-66 267q-132 -12 -189 -12zM745 -373q50 0 83.5 32.5t33.5 82.5q0 36 -22.5 75.5t-67 81t-125 77.5t-184.5 57q5 -98 38.5 -188.5t98 -154t145.5 -63.5zM467 244q98 22 172 60.5t114 82.5t59 85.5t19 80.5q0 50 -27.5 78t-70.5 28
q-100 0 -168.5 -114t-97.5 -301z" />
    <glyph glyph-name="uniFBAE" unicode="&#x6d2;" horiz-adv-x="1894" arabic-form="isolated" 
d="M678 825l90 -69q23 -18 24.5 -35t-16.5 -37q-92 -107 -252 -211q-111 -71 -144.5 -102.5t-33.5 -71.5q0 -33 26 -53.5t72 -20.5h1309q27 0 38 -12.5t11 -38.5v-123q0 -26 -11 -38.5t-38 -12.5h-1278q-362 0 -362 274q0 101 60 180t173 154q161 108 256 199q24 24 39.5 28
t36.5 -10z" />
    <glyph glyph-name="uniFBAF" unicode="&#x6d2;" horiz-adv-x="1263" arabic-form="final" 
d="M571 -285h963q27 0 38 -12.5t11 -38.5v-123q0 -26 -11 -38.5t-38 -12.5h-930q-249 0 -370 90t-121 277q0 176 105 272t312 96h734v-225h-738q-98 0 -139 -36t-41 -107q0 -76 56 -109t169 -33z" />
    <glyph glyph-name="uniFBB0" unicode="&#x6d3;" horiz-adv-x="1894" arabic-form="isolated" 
d="M678 825l90 -69q23 -18 24.5 -35t-16.5 -37q-92 -107 -252 -211q-111 -71 -144.5 -102.5t-33.5 -71.5q0 -33 26 -53.5t72 -20.5h1309q27 0 38 -12.5t11 -38.5v-123q0 -26 -11 -38.5t-38 -12.5h-1278q-362 0 -362 274q0 101 60 180t173 154q161 108 256 199q24 24 39.5 28
t36.5 -10zM188 1198h60q-37 53 -37 119q0 84 59.5 136t147.5 52q87 0 160 -47q28 -20 14 -43l-21 -51q-7 -15 -12.5 -18t-21.5 4q-58 28 -105 28q-39 0 -63.5 -24.5t-24.5 -65.5q0 -46 33 -90h209q17 0 22.5 -6.5t5.5 -22.5v-69q0 -29 -28 -29h-398q-16 0 -22 7.5t-6 23.5
v67q0 16 5.5 22.5t22.5 6.5z" />
    <glyph glyph-name="uniFBB1" unicode="&#x6d3;" horiz-adv-x="1263" arabic-form="final" 
d="M571 -285h963q27 0 38 -12.5t11 -38.5v-123q0 -26 -11 -38.5t-38 -12.5h-930q-249 0 -370 90t-121 277q0 176 105 272t312 96h734v-225h-738q-98 0 -139 -36t-41 -107q0 -76 56 -109t169 -33zM248 592h59q-37 53 -37 119q0 84 59.5 136t147.5 52q87 0 160 -47
q28 -20 14 -43l-20 -51q-7 -15 -13 -18.5t-22 3.5q-60 29 -104 29q-39 0 -64 -24.5t-25 -65.5q0 -46 33 -90h209q17 0 23 -6.5t6 -22.5v-69q0 -29 -29 -29h-397q-29 0 -29 31v67q0 16 6 22.5t23 6.5z" />
    <glyph glyph-name="uniFBFC" unicode="&#x6cc;" horiz-adv-x="1748" arabic-form="isolated" 
d="M1522 606q-149 76 -281 76q-104 0 -162.5 -47t-58.5 -117q0 -59 49 -108t186 -123q53 -29 89.5 -51t79.5 -55t69 -63.5t43.5 -71t17.5 -83.5q0 -182 -203 -298t-530 -116q-352 0 -542.5 132.5t-190.5 388.5q0 176 98 370q13 24 22 34t25 13.5t37 -8.5l99 -45
q28 -12 33.5 -28t-9.5 -48q-71 -145 -71 -272q0 -315 501 -315q217 0 357.5 54t140.5 126q0 21 -14.5 41.5t-46.5 44t-61 41t-79 45.5q-58 33 -96.5 57.5t-88 63.5t-78.5 76t-50 87.5t-21 104.5q0 123 63 213t163.5 133t224.5 43q191 0 360 -102q31 -19 38 -33t-3 -39
l-47 -106q-16 -38 -63 -15z" />
    <glyph glyph-name="uniFBFD" unicode="&#x6cc;" horiz-adv-x="1589" arabic-form="final" 
d="M823 -229q229 0 366.5 49t137.5 117q0 37 -48 70.5t-155 70.5l-190 65q-48 16 -33 66l33 104q17 59 76 39l118 -41q145 -51 233 -68.5t187 -17.5h41v-225h-49q21 -37 21 -74q0 -162 -205 -269.5t-535 -107.5q-352 0 -542.5 132.5t-190.5 388.5q0 176 98 370q13 24 22 34
t25 13.5t37 -8.5l99 -45q28 -12 33.5 -28t-9.5 -48q-71 -145 -71 -272q0 -315 501 -315z" />
    <glyph glyph-name="uniFBFE" unicode="&#x6cc;" horiz-adv-x="622" arabic-form="initial" 
d="M-20 225h180q60 0 79 21t19 84v463q0 27 12.5 39t40.5 12h123q28 0 40.5 -12t12.5 -39v-537q0 -128 -74 -192t-231 -64h-202q-66 0 -66 113q0 112 66 112zM6 -469q-52 0 -85.5 30.5t-33.5 80.5t33.5 81t85.5 31q50 0 83.5 -31t33.5 -81t-33 -80.5t-84 -30.5zM307 -469
q-52 0 -85.5 30.5t-33.5 80.5t33.5 81t85.5 31q50 0 83.5 -31t33.5 -81t-33 -80.5t-84 -30.5z" />
    <glyph glyph-name="uniFBFF" unicode="&#x6cc;" horiz-adv-x="733" arabic-form="medial" 
d="M203 0h-223q-66 0 -66 113q0 112 66 112h200q60 0 79.5 21t19.5 84v463q0 27 12.5 39t40.5 12h123q28 0 40.5 -12t12.5 -39v-508q66 -60 213 -60h12v-225h-12q-173 0 -252 102q-67 -102 -266 -102zM27 -469q-52 0 -85.5 30.5t-33.5 80.5t33.5 81t85.5 31q50 0 83 -31
t33 -81t-33 -80.5t-83 -30.5zM328 -469q-52 0 -85.5 30.5t-33.5 80.5t33.5 81t85.5 31q50 0 83 -31t33 -81t-33 -80.5t-83 -30.5z" />
    <glyph glyph-name="uniFC5E" unicode="&#xfc5e;" arabic-form="isolated" 
d="M51 1425v-174q0 -43 41 -43t41 47v197q0 23 19 23h65q21 0 21 -23v-217q0 -74 -27.5 -107.5t-93.5 -33.5q-75 0 -107 59q-29 -82 -125 -82q-59 0 -91 37.5t-32 101.5v189q0 22 21 22h67q10 0 13.5 -5t3.5 -17v-168q0 -45 39 -45q19 0 31 13t12 34v192q0 23 18 23h66
q18 0 18 -23zM-133 1561q-51 -12 -51 30q0 14 8 58.5t8 66.5q0 39 -33 39q-10 0 -30 -4q-21 -6 -21 12v52q0 19 19 24q30 12 69 12q36 0 64 -20.5t28 -65.5q0 -37 -6 -77q66 20 113 55q-103 33 -103 137q0 77 46.5 118.5t113.5 41.5q70 0 110 -43.5t40 -122.5
q0 -53 -28 -100.5t-67.5 -80t-94.5 -61t-97.5 -43.5t-87.5 -28zM39 1886q0 -56 72 -74q20 29 20 72q0 60 -47 60q-21 0 -33 -15.5t-12 -42.5z" />
    <glyph glyph-name="uniFC5F" unicode="&#xfc5f;" arabic-form="isolated" 
d="M225 1210v-57q0 -17 -6.5 -24.5t-25.5 -8.5l-383 -45q-35 -6 -35 29v57q0 17 6.5 24.5t25.5 8.5l383 45q35 6 35 -29zM225 1411v-57q0 -17 -6.5 -24.5t-25.5 -8.5l-383 -45q-35 -6 -35 29v57q0 17 6.5 24.5t25.5 8.5l383 45q35 6 35 -29zM51 1907v-174q0 -43 41 -43
t41 47v196q0 23 19 23h65q21 0 21 -23v-217q0 -74 -27.5 -107.5t-93.5 -33.5q-75 0 -107 59q-29 -82 -125 -82q-59 0 -91 38t-32 102v188q0 23 21 23h67q17 0 17 -23v-168q0 -45 39 -45q19 0 31 13t12 34v193q0 22 18 22h66q18 0 18 -22z" />
    <glyph glyph-name="uniFC60" unicode="&#xfc60;" arabic-form="isolated" 
d="M51 1425v-174q0 -43 41 -43t41 47v197q0 23 19 23h65q21 0 21 -23v-217q0 -74 -27.5 -107.5t-93.5 -33.5q-75 0 -107 59q-29 -82 -125 -82q-59 0 -91 37.5t-32 101.5v189q0 22 21 22h67q10 0 13.5 -5t3.5 -17v-168q0 -45 39 -45q19 0 31 13t12 34v192q0 23 18 23h66
q18 0 18 -23zM225 1720v-57q0 -17 -6.5 -24.5t-25.5 -8.5l-383 -45q-35 -6 -35 29v57q0 17 6.5 24.5t25.5 8.5l383 45q35 6 35 -29z" />
    <glyph glyph-name="uniFC61" unicode="&#xfc61;" arabic-form="isolated" 
d="M51 1425v-174q0 -43 41 -43t41 47v197q0 23 19 23h65q21 0 21 -23v-217q0 -74 -27.5 -107.5t-93.5 -33.5q-75 0 -107 59q-29 -82 -125 -82q-59 0 -91 37.5t-32 101.5v189q0 22 21 22h67q10 0 13.5 -5t3.5 -17v-168q0 -45 39 -45q19 0 31 13t12 34v192q0 23 18 23h66
q18 0 18 -23zM-201 1665q126 31 213 82q-100 36 -100 135q0 77 47.5 118.5t114.5 41.5q71 0 110 -43.5t39 -122.5q0 -52 -26.5 -98.5t-65.5 -79t-94 -61.5t-101.5 -46t-99.5 -32q-20 -5 -31 -1.5t-14 19.5l-12 53q-7 30 20 35zM23 1888q0 -58 71 -73q21 31 21 67
q0 62 -45 62q-47 0 -47 -56z" />
    <glyph glyph-name="uniFC62" unicode="&#xfc62;" arabic-form="isolated" 
d="M225 1210v-57q0 -17 -6.5 -24.5t-25.5 -8.5l-383 -45q-35 -6 -35 29v57q0 17 6.5 24.5t25.5 8.5l383 45q35 6 35 -29zM51 1706v-174q0 -43 41 -43t41 47v197q0 22 19 22h65q21 0 21 -22v-217q0 -74 -27.5 -108t-93.5 -34q-74 0 -107 60q-29 -82 -125 -82q-59 0 -91 37.5
t-32 101.5v188q0 23 21 23h67q17 0 17 -23v-168q0 -45 39 -45q19 0 31 13t12 34v193q0 23 18 23h66q18 0 18 -23z" />
    <glyph glyph-name="uniFC63" unicode="&#xfc63;" arabic-form="isolated" 
d="M51 1425v-174q0 -43 41 -43t41 47v197q0 23 19 23h65q21 0 21 -23v-217q0 -74 -27.5 -107.5t-93.5 -33.5q-75 0 -107 59q-29 -82 -125 -82q-59 0 -91 37.5t-32 101.5v189q0 22 21 22h67q10 0 13.5 -5t3.5 -17v-168q0 -45 39 -45q19 0 31 13t12 34v192q0 23 18 23h66
q18 0 18 -23zM63 1942v-343q0 -28 -26 -28h-72q-28 0 -28 28v328q0 28 22 31l76 8q28 4 28 -24z" />
    <glyph glyph-name="uniFDF2" unicode="&#xfdf2;" horiz-adv-x="2711" arabic-form="isolated" 
d="M893 991v-637q0 -69 32 -99t115 -30h140q60 0 79 21t19 84v723q0 25 9 35.5t30 13.5l147 20q21 3 32 -8t11 -35v-794q66 -60 213 -60h47q60 0 79.5 21t19.5 84v827q0 25 9 35.5t30 13.5l147 21q21 3 32 -8t11 -35v-928q0 -128 -74 -192t-231 -64h-70q-173 0 -252 102
q-68 -102 -266 -102h-176q-255 0 -330 143q-112 -41 -231 -41q-72 0 -134 16.5t-111.5 48.5t-78 86.5t-28.5 125.5q0 66 28.5 130t90 130t171.5 128.5t261 113.5v84q0 25 8.5 35.5t29.5 13.5l148 20q21 3 32 -8t11 -35zM664 354v320q-145 -51 -229.5 -119t-84.5 -141
q0 -92 142 -92q87 0 172 32zM1591 1524v164q0 28 29 28h61q29 0 29 -28v-162q0 -193 -166 -193q-87 0 -141 68q-27 -44 -69.5 -66t-90.5 -22q-83 0 -125.5 50t-42.5 142v129q0 29 29 29h61q29 0 29 -29v-129q0 -78 70 -78q69 0 69 76v158q0 29 29 29h61q29 0 29 -29v-135
q0 -78 70 -78q69 0 69 76zM1354 2191l69 11q29 3 29 -25v-342q0 -29 -25 -29h-67q-27 0 -27 29v328q0 25 21 28zM2525 0h-123q-28 0 -40.5 12t-12.5 39v1342q0 25 9 35.5t30 13.5l147 20q21 3 32 -8t11 -35v-1368q0 -27 -12.5 -39t-40.5 -12z" />
    <glyph glyph-name="uniFDFA" unicode="&#xfdfa;" horiz-adv-x="2975" arabic-form="isolated" 
d="M2730 -152v-79q0 -105 -38.5 -164.5t-162.5 -122.5q-24 -10 -35 12l-24 47q-8 19 16 33q97 52 119 98q-21 -8 -55 -8q-68 0 -112 47.5t-44 128.5q0 78 46 126t124 48q75 0 120.5 -42t45.5 -124zM1430 1032v535q0 19 18 22l68 10q10 1 15 -4t5 -16v-547q0 -24 -25 -24h-57
q-24 0 -24 24zM2324 1114h236q33 0 46 12.5t13 42.5q0 46 -22 74.5t-60 28.5q-104 0 -213 -158zM2623 -219v67q0 64 -57 64q-30 0 -45.5 -19t-15.5 -51q0 -75 63 -75q30 0 55 14zM479 -229h31q30 0 47.5 17t17.5 52q0 72 -59 72t-59 -72q0 -38 22 -69zM455 1161v111
q-47 -18 -78 -42.5t-31 -47.5q0 -31 49 -31q30 0 60 10zM901 336h-412q-96 0 -131 57q-43 -16 -90 -16q-61 0 -103 29t-42 88q0 57 51 111t166 95v25q0 20 18 23l68 10q10 1 15 -4.5t5 -16.5v-252q0 -43 48 -43h399q19 0 25 6.5t6 26.5v187q0 24 24 24h58q24 0 24 -24v-201
q22 -19 82 -19h821q19 0 25 6.5t6 26.5v420q0 20 18 23l68 10q10 1 15.5 -4.5t5.5 -16.5v-446q22 -19 81 -19h363q-33 47 -33 103q0 68 49 111.5t125 43.5q23 0 57.5 -7.5t62 -23t20.5 -34.5l-23 -49q-9 -21 -31 -8q-45 20 -78 20q-73 0 -73 -66q0 -50 43 -90h186
q25 0 25 -26v-54q0 -26 -25 -26h-670q-68 0 -102 37q-30 -37 -106 -37h-832q-68 0 -102 37q-30 -37 -107 -37zM1036 1491v-373q0 -58 -33.5 -84t-105.5 -26q-81 0 -117 36q-29 -36 -106 -36h-70q-96 0 -131 57q-43 -16 -90 -16q-62 0 -103.5 28.5t-41.5 87.5q0 57 51 111.5
t166 95.5v25q0 19 18 22l68 11q10 1 15 -4.5t5 -16.5v-252q0 -22 10.5 -32.5t36.5 -10.5h58q19 0 24.5 6.5t5.5 26.5v291q0 19 19 22l67 10q21 3 21 -20v-317q22 -19 90 -19q23 0 30 6.5t7 26.5v332q0 19 18 22l68 10q10 1 15 -4t5 -16zM340 489v111q-47 -18 -78 -42.5
t-31 -47.5q0 -31 50 -31q29 0 59 10zM958 203q0 -24 -15.5 -38.5t-39.5 -14.5t-39.5 14.5t-15.5 38.5t15.5 38.5t39.5 14.5t39.5 -14.5t15.5 -38.5zM1104 203q0 -24 -15.5 -38.5t-39.5 -14.5t-40 14.5t-16 38.5t16 38.5t40 14.5t39.5 -14.5t15.5 -38.5zM1608 1096l14 47
q8 30 39 20l47 -16q89 -33 176 -33h49q19 0 25 6.5t6 26.5v420q0 19 18 22l68 10q21 3 21 -20v-446q22 -19 81 -19h68v219q0 25 25 25h57q25 0 25 -25v-82q42 55 100.5 89t114.5 34q88 0 138 -56.5t50 -152.5q0 -86 -42 -121.5t-146 -35.5h-392q-69 0 -102 36
q-29 -36 -106 -36h-62q4 -12 4 -23q0 -69 -92 -112.5t-246 -43.5q-167 0 -251.5 55t-84.5 160q0 83 43 154q13 24 39 14l45 -20q13 -6 15.5 -12.5t-4.5 -24.5q-27 -62 -27 -104q0 -62 53.5 -90.5t173.5 -28.5q74 0 127 8.5t76 21t23 27.5q0 19 -62 41l-88 31q-25 8 -16 35z
M1640 625l-278 -35q-23 -4 -23 20v19q0 12 4.5 16t18.5 6l278 35q23 4 23 -20v-19q0 -12 -4.5 -16t-18.5 -6zM1874 96l-279 -35q-22 -4 -22 21v18q0 12 4.5 17t17.5 6l279 35q22 4 22 -21v-18q0 -12 -4.5 -17t-17.5 -6zM2746 823l-278 -35q-23 -4 -23 21v18q0 12 4.5 16.5
t18.5 6.5l278 35q23 4 23 -21v-18q0 -12 -4.5 -17t-18.5 -6zM2456 1513l-279 -34q-23 -4 -23 20v19q0 12 4.5 16t18.5 6l279 35q22 4 22 -21v-18q0 -12 -4.5 -17t-17.5 -6zM1286 -563h293q31 0 31 20v68q0 16 16 16h39q16 0 16 -16v-76q12 -12 27 -12h16q15 3 15 24v64
q0 16 16 16h39q16 0 16 -16v-78q12 -12 29 -12q23 0 23 26v109q0 16 16 16h39q16 0 16 -16v-121q0 -35 -21.5 -57.5t-60.5 -22.5q-38 0 -63 25q-25 -25 -62 -25q-33 0 -63 23q-20 -23 -66 -23h-311q-14 0 -14 15v36q0 17 14 17zM293 -575q-15 -2 -21 3t-12 23
q-9 33 -15.5 87.5t-6.5 80.5q0 144 131 150q-23 42 -23 86q0 70 46 114.5t124 44.5t123 -45.5t45 -128.5q0 -40 -14 -69h563q19 0 25 6t6 26v420q0 20 18 23l68 10q10 1 15 -4t5 -16v-447q21 -18 82 -18h207q21 0 30 8.5t9 30.5v106q0 25 24 25h58q24 0 24 -25v-123
q28 -22 60 -22q45 0 45 49v96q0 25 24 25h58q24 0 24 -25v-123q25 -22 56 -22q43 0 43 49v170q0 24 24 24h57q25 0 25 -24v-197q0 -55 -34 -92t-97 -37q-67 0 -107 43q-32 -43 -100 -43q-60 0 -104 41q-33 -41 -136 -41h-192q-68 0 -102 37q-30 -37 -107 -37h-821
q-43 0 -58.5 -10t-15.5 -41q0 -45 21 -150q5 -27 -23 -30zM678 1683v-57q0 -22 24 -22q21 0 21 20v70q0 14 14 14h29q14 0 14 -14v-60q0 -22 25 -22q20 0 20 20v72q0 14 15 14h28q15 0 15 -14v-72q0 -40 -18 -61t-50 -21t-57 25q-22 -33 -66 -33q-32 0 -51.5 20.5
t-19.5 65.5v55q0 15 14 15h29q14 0 14 -15zM780 1896v-135q0 -14 -14 -14h-29q-14 0 -14 14v127q0 14 10 17l33 6q7 1 10.5 -3t3.5 -12zM1729 1430q0 56 -31 116q-5 7 -2.5 14.5t12.5 8.5l23 4q8 1 13 -1.5t7.5 -5.5t7.5 -12q29 -54 29 -124q0 -71 -29 -125q-5 -9 -7.5 -12
t-7.5 -5.5t-13 -1.5l-23 4q-10 1 -12.5 8.5t2.5 14.5q31 60 31 117z" />
    <glyph glyph-name="uniFE80" unicode="&#x621;" horiz-adv-x="1036" arabic-form="isolated" 
d="M608 485q-65 0 -98 -33t-33 -87q0 -85 62 -156h350q43 0 43 -49v-113q0 -24 -10 -35.5t-35 -11.5h-742q-23 0 -32 11.5t-9 35.5v113q0 49 41 49h168q-65 91 -65 197q0 130 92 209t225 79q143 0 246 -69q32 -19 18 -58l-43 -100q-7 -20 -17.5 -23.5t-29.5 5.5
q-71 36 -131 36z" />
    <glyph glyph-name="uniFE81" unicode="&#x622;" horiz-adv-x="495" arabic-form="isolated" 
d="M309 0h-123q-28 0 -40.5 12t-12.5 39v1342q0 25 9 35.5t30 13.5l147 20q21 3 32 -8t11 -35v-1368q0 -27 -12.5 -39t-40.5 -12zM119 1855q57 0 131 -38q4 -2 17 -7.5t18.5 -8t17 -7t19 -7t17.5 -5t19.5 -3.5t18.5 -1q46 0 84 49q18 22 31 2l40 -49q14 -18 0 -37
q-37 -56 -72.5 -81.5t-82.5 -25.5q-58 0 -131 39q-84 41 -129 41q-46 0 -84 -49q-18 -22 -31 -2l-41 47q-15 19 0 39q64 104 158 104z" />
    <glyph glyph-name="uniFE82" unicode="&#x622;" horiz-adv-x="565" arabic-form="final" 
d="M133 256v1137q0 25 9 35.5t30 13.5l147 20q21 3 32 -8t11 -35v-1089q0 -63 19.5 -84t79.5 -21h104v-225h-127q-157 0 -231 64t-74 192zM121 1855q57 0 131 -38q4 -2 17 -7.5t18.5 -8t17 -7t19 -7t17.5 -5t19.5 -3.5t18.5 -1q46 0 84 49q18 22 31 2l41 -49q14 -18 0 -37
q-37 -55 -73 -81t-83 -26q-58 0 -131 39q-84 41 -129 41q-46 0 -84 -49q-18 -22 -31 -2l-41 47q-15 19 0 39q64 104 158 104z" />
    <glyph glyph-name="uniFE83" unicode="&#x623;" horiz-adv-x="495" arabic-form="isolated" 
d="M309 0h-123q-28 0 -40.5 12t-12.5 39v1342q0 25 9 35.5t30 13.5l147 20q21 3 32 -8t11 -35v-1368q0 -27 -12.5 -39t-40.5 -12zM49 1763h60q-37 53 -37 119q0 85 59.5 137t147.5 52q85 0 159 -48q29 -21 15 -43l-21 -51q-7 -15 -13 -18.5t-22 4.5q-60 29 -104 29
q-39 0 -63.5 -25t-24.5 -66q0 -46 33 -90h208q17 0 23 -6.5t6 -21.5v-70q0 -29 -29 -29h-397q-29 0 -29 31v68q0 15 6 21.5t23 6.5z" />
    <glyph glyph-name="uniFE84" unicode="&#x623;" horiz-adv-x="565" arabic-form="final" 
d="M133 256v1137q0 25 9 35.5t30 13.5l147 20q21 3 32 -8t11 -35v-1089q0 -63 19.5 -84t79.5 -21h104v-225h-127q-157 0 -231 64t-74 192zM51 1763h60q-37 53 -37 119q0 85 59.5 137t147.5 52q85 0 159 -48q29 -21 15 -43l-21 -51q-7 -15 -13 -18.5t-22 4.5q-60 29 -104 29
q-39 0 -63.5 -25t-24.5 -66q0 -46 33 -90h209q17 0 22.5 -6t5.5 -22v-70q0 -29 -28 -29h-398q-16 0 -22 7.5t-6 23.5v68q0 16 5.5 22t22.5 6z" />
    <glyph glyph-name="uniFE85" unicode="&#x624;" horiz-adv-x="1040" arabic-form="isolated" 
d="M680 266v183q0 176 -162 176q-88 0 -134 -52.5t-46 -142.5q0 -106 44.5 -157.5t139.5 -51.5q87 0 158 45zM649 37q-78 -37 -170 -37q-167 0 -271 114.5t-104 313.5q0 189 109.5 302.5t298.5 113.5q184 0 290.5 -100t106.5 -298v-198q0 -111 -11 -188.5t-40.5 -150
t-85 -130.5t-138.5 -115t-208 -119q-45 -22 -68 23l-57 104q-11 24 -3 39.5t38 30.5q143 76 214 141t99 154zM309 1198h60q-37 53 -37 119q0 84 59.5 136t147.5 52q86 0 159 -47q29 -21 15 -43l-21 -51q-7 -15 -13 -18.5t-22 4.5q-58 28 -104 28q-39 0 -63.5 -24.5
t-24.5 -65.5q0 -46 33 -90h209q17 0 22.5 -6.5t5.5 -22.5v-69q0 -29 -28 -29h-398q-16 0 -22 7.5t-6 23.5v67q0 16 5.5 22.5t22.5 6.5z" />
    <glyph glyph-name="uniFE86" unicode="&#x624;" horiz-adv-x="1114" arabic-form="final" 
d="M426 -455q-45 -22 -68 23l-57 104q-11 24 -3 39.5t38 30.5q128 69 197 127t102 131h-113q-202 0 -310 106t-108 322q0 189 109.5 302.5t298.5 113.5q184 0 290.5 -100t106.5 -298v-221h205v-225h-227q-34 -140 -136.5 -241.5t-324.5 -213.5zM559 225h121v224
q0 176 -162 176q-88 0 -134 -52.5t-46 -142.5q0 -119 50 -162t171 -43zM309 1198h60q-37 53 -37 119q0 84 59.5 136t147.5 52q86 0 159 -47q29 -21 15 -43l-21 -51q-7 -15 -13 -18.5t-22 4.5q-58 28 -104 28q-39 0 -63.5 -24.5t-24.5 -65.5q0 -46 33 -90h209q17 0 22.5 -6.5
t5.5 -22.5v-69q0 -29 -28 -29h-398q-16 0 -22 7.5t-6 23.5v67q0 16 5.5 22.5t22.5 6.5z" />
    <glyph glyph-name="uniFE87" unicode="&#x625;" horiz-adv-x="495" arabic-form="isolated" 
d="M309 0h-123q-28 0 -40.5 12t-12.5 39v1342q0 25 9 35.5t30 13.5l147 20q21 3 32 -8t11 -35v-1368q0 -27 -12.5 -39t-40.5 -12zM49 -532h60q-37 60 -37 120q0 83 59.5 135t147.5 52q86 0 159 -47q28 -20 15 -43l-21 -52q-6 -14 -13 -17.5t-22 3.5q-60 29 -104 29
q-39 0 -63.5 -24.5t-24.5 -65.5q0 -43 33 -90h208q17 0 23 -6.5t6 -22.5v-70q0 -28 -29 -28h-397q-17 0 -23 7t-6 23v68q0 17 6 23t23 6z" />
    <glyph glyph-name="uniFE88" unicode="&#x625;" horiz-adv-x="565" arabic-form="final" 
d="M133 256v1137q0 25 9 35.5t30 13.5l147 20q21 3 32 -8t11 -35v-1089q0 -63 19.5 -84t79.5 -21h104v-225h-127q-157 0 -231 64t-74 192zM49 -532h60q-37 60 -37 120q0 83 59.5 135t147.5 52q86 0 159 -47q28 -20 15 -43l-21 -52q-6 -14 -13 -17.5t-22 3.5q-60 29 -104 29
q-39 0 -63.5 -24.5t-24.5 -65.5q0 -43 33 -90h208q17 0 23 -6.5t6 -22.5v-70q0 -28 -29 -28h-397q-17 0 -23 7t-6 23v68q0 17 6 23t23 6z" />
    <glyph glyph-name="uniFE89" unicode="&#x626;" horiz-adv-x="1748" arabic-form="isolated" 
d="M1522 606q-149 76 -281 76q-104 0 -162.5 -47t-58.5 -117q0 -59 49 -108t186 -123q53 -29 89.5 -51t79.5 -55t69 -63.5t43.5 -71t17.5 -83.5q0 -182 -203 -298t-530 -116q-352 0 -542.5 132.5t-190.5 388.5q0 176 98 370q13 24 22 34t25 13.5t37 -8.5l99 -45
q28 -12 33.5 -28t-9.5 -48q-71 -145 -71 -272q0 -315 501 -315q217 0 357.5 54t140.5 126q0 21 -14.5 41.5t-46.5 44t-61 41t-79 45.5q-58 33 -96.5 57.5t-88 63.5t-78.5 76t-50 87.5t-21 104.5q0 123 63 213t163.5 133t224.5 43q191 0 360 -102q31 -19 38 -33t-3 -39
l-47 -106q-16 -38 -63 -15zM80 852h59q-37 53 -37 119q0 84 59.5 136t147.5 52q87 0 160 -47q28 -20 14 -43l-20 -51q-7 -15 -13 -18.5t-22 4.5q-58 28 -104 28q-39 0 -63.5 -24.5t-24.5 -65.5q0 -47 32 -90h209q17 0 23 -6.5t6 -22.5v-69q0 -29 -29 -29h-397q-29 0 -29 31
v67q0 16 6 22.5t23 6.5z" />
    <glyph glyph-name="uniFE8A" unicode="&#x626;" horiz-adv-x="1589" arabic-form="final" 
d="M823 -229q229 0 366.5 49t137.5 117q0 37 -48 70.5t-155 70.5l-190 65q-48 16 -33 66l33 104q17 59 76 39l118 -41q145 -51 233 -68.5t187 -17.5h41v-225h-49q21 -37 21 -74q0 -162 -205 -269.5t-535 -107.5q-352 0 -542.5 132.5t-190.5 388.5q0 176 98 370q13 24 22 34
t25 13.5t37 -8.5l99 -45q28 -12 33.5 -28t-9.5 -48q-71 -145 -71 -272q0 -315 501 -315zM80 852h59q-37 53 -37 119q0 84 59.5 136t147.5 52q87 0 160 -47q28 -20 14 -43l-20 -51q-7 -15 -13 -18.5t-22 4.5q-58 28 -104 28q-39 0 -63.5 -24.5t-24.5 -65.5q0 -47 32 -90h209
q17 0 23 -6.5t6 -22.5v-69q0 -29 -29 -29h-397q-29 0 -29 31v67q0 16 6 22.5t23 6.5z" />
    <glyph glyph-name="uniFE8B" unicode="&#x626;" horiz-adv-x="622" arabic-form="initial" 
d="M-20 225h180q60 0 79 21t19 84v463q0 27 12.5 39t40.5 12h123q28 0 40.5 -12t12.5 -39v-537q0 -128 -74 -192t-231 -64h-202q-66 0 -66 113q0 112 66 112zM170 1198h59q-36 52 -36 119q0 85 59 136.5t147 51.5q87 0 160 -47q28 -20 14 -43l-20 -51q-7 -15 -13 -18.5
t-22 4.5q-58 28 -104 28q-39 0 -63.5 -24.5t-24.5 -65.5q0 -47 32 -90h209q17 0 23 -6.5t6 -22.5v-69q0 -29 -29 -29h-397q-29 0 -29 31v67q0 16 6 22.5t23 6.5z" />
    <glyph glyph-name="uniFE8C" unicode="&#x626;" horiz-adv-x="733" arabic-form="medial" 
d="M203 0h-223q-66 0 -66 113q0 112 66 112h200q60 0 79.5 21t19.5 84v463q0 27 12.5 39t40.5 12h123q28 0 40.5 -12t12.5 -39v-508q66 -60 213 -60h12v-225h-12q-173 0 -252 102q-67 -102 -266 -102zM188 1198h60q-37 53 -37 119q0 84 59.5 136t147.5 52q87 0 160 -47
q28 -20 14 -43l-21 -51q-7 -15 -12.5 -18t-21.5 4q-58 28 -105 28q-39 0 -63.5 -24.5t-24.5 -65.5q0 -46 33 -90h209q17 0 22.5 -6.5t5.5 -22.5v-69q0 -29 -28 -29h-398q-16 0 -22 7.5t-6 23.5v67q0 16 5.5 22.5t22.5 6.5z" />
    <glyph glyph-name="uniFE8D" unicode="&#x627;" horiz-adv-x="495" arabic-form="isolated" 
d="M309 0h-123q-28 0 -40.5 12t-12.5 39v1342q0 25 9 35.5t30 13.5l147 20q21 3 32 -8t11 -35v-1368q0 -27 -12.5 -39t-40.5 -12z" />
    <glyph glyph-name="uniFE8E" unicode="&#x627;" horiz-adv-x="565" arabic-form="final" 
d="M133 256v1137q0 25 9 35.5t30 13.5l147 20q21 3 32 -8t11 -35v-1089q0 -63 19.5 -84t79.5 -21h104v-225h-127q-157 0 -231 64t-74 192z" />
    <glyph glyph-name="uniFE8F" unicode="&#x628;" horiz-adv-x="1863" arabic-form="isolated" 
d="M1425 0h-821q-245 0 -374.5 114t-129.5 318v236q0 27 13 39t41 12h122q28 0 41 -12t13 -39v-136q0 -171 69.5 -239t251.5 -68h752q60 0 79 21t19 84v463q0 27 12.5 39t40.5 12h123q28 0 41 -12t13 -39v-537q0 -128 -74.5 -192t-231.5 -64zM928 -469q-51 0 -84 31t-33 82
q0 50 33 80t84 30q52 0 85.5 -30t33.5 -80q0 -52 -33.5 -82.5t-85.5 -30.5z" />
    <glyph glyph-name="uniFE90" unicode="&#x628;" horiz-adv-x="1955" arabic-form="final" 
d="M1425 0h-821q-245 0 -374.5 114t-129.5 318v236q0 27 13 39t41 12h122q28 0 41 -12t13 -39v-136q0 -171 69.5 -239t251.5 -68h752q60 0 79 21t19 84v463q0 27 12.5 39t40.5 12h123q28 0 41 -12t13 -39v-508q66 -60 213 -60h12v-225h-12q-173 0 -252 102
q-68 -102 -267 -102zM903 -469q-51 0 -84 31t-33 82q0 50 33 80t84 30q52 0 85.5 -30t33.5 -80q0 -52 -33.5 -82.5t-85.5 -30.5z" />
    <glyph glyph-name="uniFE91" unicode="&#x628;" horiz-adv-x="622" arabic-form="initial" 
d="M-20 225h180q60 0 79 21t19 84v463q0 27 12.5 39t40.5 12h123q28 0 40.5 -12t12.5 -39v-537q0 -128 -74 -192t-231 -64h-202q-66 0 -66 113q0 112 66 112zM119 -469q-51 0 -84 31t-33 82q0 50 33 80t84 30q52 0 85.5 -30t33.5 -80q0 -52 -33.5 -82.5t-85.5 -30.5z" />
    <glyph glyph-name="uniFE92" unicode="&#x628;" horiz-adv-x="733" arabic-form="medial" 
d="M203 0h-223q-66 0 -66 113q0 112 66 112h200q60 0 79.5 21t19.5 84v463q0 27 12.5 39t40.5 12h123q28 0 40.5 -12t12.5 -39v-508q66 -60 213 -60h12v-225h-12q-173 0 -252 102q-67 -102 -266 -102zM139 -469q-51 0 -83.5 30.5t-32.5 82.5q0 50 32.5 80t83.5 30
q52 0 85.5 -30t33.5 -80q0 -52 -33.5 -82.5t-85.5 -30.5z" />
    <glyph glyph-name="uniFE93" unicode="&#x629;" horiz-adv-x="1056" arabic-form="isolated" 
d="M528 -20q-194 0 -308 113t-114 313q0 88 27 171t77.5 152t133 110.5t184.5 41.5q101 0 183.5 -41.5t133.5 -110.5t78 -152t27 -171q0 -200 -114 -313t-308 -113zM528 659q-64 0 -108 -41t-62 -97t-18 -118q0 -89 46.5 -145.5t141.5 -56.5t142 56.5t47 145.5q0 62 -18 118
t-62.5 97t-108.5 41zM395 1106q-52 0 -85.5 30.5t-33.5 80.5t33.5 81t85.5 31q50 0 83.5 -31t33.5 -81t-33 -80.5t-84 -30.5zM696 1106q-52 0 -85 30.5t-33 80.5t33 81t85 31q50 0 83.5 -31t33.5 -81t-33 -80.5t-84 -30.5z" />
    <glyph glyph-name="uniFE94" unicode="&#x629;" horiz-adv-x="1071" arabic-form="final" 
d="M868 977v-623q0 -69 31.5 -99t112.5 -30h59v-225h-74q-254 0 -329 143q-100 -41 -226 -41q-68 0 -128 15t-110.5 46.5t-80 87t-29.5 128.5q0 66 28 130t89 130t170 128.5t258 113.5v67q0 26 8 37t29 14l147 19q45 6 45 -41zM328 414q0 -44 36.5 -68t104.5 -24
q76 0 170 32v320q-144 -51 -227.5 -119t-83.5 -141zM588 1260q-52 0 -85.5 30t-33.5 80t33.5 81.5t85.5 31.5q50 0 83.5 -31.5t33.5 -81.5t-33 -80t-84 -30zM889 1260q-52 0 -85.5 30t-33.5 80t33.5 81.5t85.5 31.5q50 0 83.5 -31.5t33.5 -81.5t-33 -80t-84 -30z" />
    <glyph glyph-name="uniFE95" unicode="&#x62a;" horiz-adv-x="1863" arabic-form="isolated" 
d="M1425 0h-821q-245 0 -374.5 114t-129.5 318v236q0 27 13 39t41 12h122q28 0 41 -12t13 -39v-136q0 -171 69.5 -239t251.5 -68h752q60 0 79 21t19 84v463q0 27 12.5 39t40.5 12h123q28 0 41 -12t13 -39v-537q0 -128 -74.5 -192t-231.5 -64zM780 969q-52 0 -85 30t-33 80
t33 81.5t85 31.5q50 0 83.5 -31.5t33.5 -81.5t-33 -80t-84 -30zM1081 969q-52 0 -85 30t-33 80t33 81.5t85 31.5q50 0 83.5 -31.5t33.5 -81.5t-33 -80t-84 -30z" />
    <glyph glyph-name="uniFE96" unicode="&#x62a;" horiz-adv-x="1955" arabic-form="final" 
d="M1425 0h-821q-245 0 -374.5 114t-129.5 318v236q0 27 13 39t41 12h122q28 0 41 -12t13 -39v-136q0 -171 69.5 -239t251.5 -68h752q60 0 79 21t19 84v463q0 27 12.5 39t40.5 12h123q28 0 41 -12t13 -39v-508q66 -60 213 -60h12v-225h-12q-173 0 -252 102
q-68 -102 -267 -102zM762 969q-52 0 -85.5 30t-33.5 80t33.5 81.5t85.5 31.5q50 0 83.5 -31.5t33.5 -81.5t-33 -80t-84 -30zM1063 969q-52 0 -85.5 30t-33.5 80t33.5 81.5t85.5 31.5q50 0 83.5 -31.5t33.5 -81.5t-33 -80t-84 -30z" />
    <glyph glyph-name="uniFE97" unicode="&#x62a;" horiz-adv-x="622" arabic-form="initial" 
d="M-20 225h180q60 0 79 21t19 84v463q0 27 12.5 39t40.5 12h123q28 0 40.5 -12t12.5 -39v-537q0 -128 -74 -192t-231 -64h-202q-66 0 -66 113q0 112 66 112zM211 1090q-52 0 -85.5 30t-33.5 80t33.5 81.5t85.5 31.5q50 0 83.5 -31.5t33.5 -81.5t-33 -80t-84 -30zM512 1090
q-52 0 -85.5 30t-33.5 80t33.5 81.5t85.5 31.5q50 0 83.5 -31.5t33.5 -81.5t-33 -80t-84 -30z" />
    <glyph glyph-name="uniFE98" unicode="&#x62a;" horiz-adv-x="733" arabic-form="medial" 
d="M203 0h-223q-66 0 -66 113q0 112 66 112h200q60 0 79.5 21t19.5 84v463q0 27 12.5 39t40.5 12h123q28 0 40.5 -12t12.5 -39v-508q66 -60 213 -60h12v-225h-12q-173 0 -252 102q-67 -102 -266 -102zM246 1090q-52 0 -85.5 30t-33.5 80t33.5 81.5t85.5 31.5q50 0 83 -31.5
t33 -81.5t-32.5 -80t-83.5 -30zM547 1090q-52 0 -85.5 30t-33.5 80t33.5 81.5t85.5 31.5q50 0 83.5 -31.5t33.5 -81.5t-33 -80t-84 -30z" />
    <glyph glyph-name="uniFE99" unicode="&#x62b;" horiz-adv-x="1863" arabic-form="isolated" 
d="M1425 0h-821q-245 0 -374.5 114t-129.5 318v236q0 27 13 39t41 12h122q28 0 41 -12t13 -39v-136q0 -171 69.5 -239t251.5 -68h752q60 0 79 21t19 84v463q0 27 12.5 39t40.5 12h123q28 0 41 -12t13 -39v-537q0 -128 -74.5 -192t-231.5 -64zM922 1229q-51 0 -84 29.5
t-33 80.5q0 50 33 80.5t84 30.5q52 0 85 -30.5t33 -80.5q0 -51 -33 -80.5t-85 -29.5zM772 969q-52 0 -85.5 30t-33.5 80t33.5 81.5t85.5 31.5q50 0 83.5 -31.5t33.5 -81.5t-33 -80t-84 -30zM1073 969q-52 0 -85.5 30t-33.5 80t33.5 81.5t85.5 31.5q50 0 83.5 -31.5
t33.5 -81.5t-33 -80t-84 -30z" />
    <glyph glyph-name="uniFE9A" unicode="&#x62b;" horiz-adv-x="1955" arabic-form="final" 
d="M1425 0h-821q-245 0 -374.5 114t-129.5 318v236q0 27 13 39t41 12h122q28 0 41 -12t13 -39v-136q0 -171 69.5 -239t251.5 -68h752q60 0 79 21t19 84v463q0 27 12.5 39t40.5 12h123q28 0 41 -12t13 -39v-508q66 -60 213 -60h12v-225h-12q-173 0 -252 102
q-68 -102 -267 -102zM903 1229q-51 0 -84 29.5t-33 80.5q0 50 33 80.5t84 30.5q52 0 85.5 -30.5t33.5 -80.5q0 -51 -33.5 -80.5t-85.5 -29.5zM754 969q-52 0 -85.5 30t-33.5 80t33.5 81.5t85.5 31.5q50 0 83 -31.5t33 -81.5t-32.5 -80t-83.5 -30zM1055 969q-52 0 -85.5 30
t-33.5 80t33.5 81.5t85.5 31.5q50 0 83 -31.5t33 -81.5t-32.5 -80t-83.5 -30z" />
    <glyph glyph-name="uniFE9B" unicode="&#x62b;" horiz-adv-x="622" arabic-form="initial" 
d="M-20 225h180q60 0 79 21t19 84v463q0 27 12.5 39t40.5 12h123q28 0 40.5 -12t12.5 -39v-537q0 -128 -74 -192t-231 -64h-202q-66 0 -66 113q0 112 66 112zM365 1350q-51 0 -84 29.5t-33 80.5q0 50 33 80.5t84 30.5q52 0 85 -30.5t33 -80.5q0 -51 -33 -80.5t-85 -29.5z
M215 1090q-52 0 -85.5 30t-33.5 80t33.5 81.5t85.5 31.5q50 0 83.5 -31.5t33.5 -81.5t-33 -80t-84 -30zM516 1090q-52 0 -85.5 30t-33.5 80t33.5 81.5t85.5 31.5q50 0 83.5 -31.5t33.5 -81.5t-33 -80t-84 -30z" />
    <glyph glyph-name="uniFE9C" unicode="&#x62b;" horiz-adv-x="733" arabic-form="medial" 
d="M203 0h-223q-66 0 -66 113q0 112 66 112h200q60 0 79.5 21t19.5 84v463q0 27 12.5 39t40.5 12h123q28 0 40.5 -12t12.5 -39v-508q66 -60 213 -60h12v-225h-12q-173 0 -252 102q-67 -102 -266 -102zM397 1350q-51 0 -83.5 29.5t-32.5 80.5q0 50 33 80.5t83 30.5
q52 0 85.5 -30.5t33.5 -80.5q0 -51 -33.5 -80.5t-85.5 -29.5zM248 1090q-52 0 -85.5 30t-33.5 80t33.5 81.5t85.5 31.5q50 0 83.5 -31.5t33.5 -81.5t-33 -80t-84 -30zM549 1090q-52 0 -85.5 30t-33.5 80t33.5 81.5t85.5 31.5q50 0 83.5 -31.5t33.5 -81.5t-33 -80t-84 -30z
" />
    <glyph glyph-name="uniFE9D" unicode="&#x62c;" horiz-adv-x="1181" arabic-form="isolated" 
d="M1014 -305q0 -52 -34.5 -83.5t-86.5 -31.5t-86.5 31.5t-34.5 83.5t34.5 83.5t86.5 31.5t86.5 -31.5t34.5 -83.5zM1065 0h-471q-154 0 -222.5 -43t-68.5 -135q0 -91 78.5 -143t222.5 -52h25q36 0 50.5 -13t14.5 -44v-80q0 -43 -8.5 -56.5t-38.5 -19.5q-39 -8 -88 -8
q-140 0 -248.5 46t-174.5 142t-66 230q0 401 530 401h231q-35 37 -54.5 80t-39.5 131q-26 123 -78 174.5t-149 51.5q-104 0 -236 -76q-26 -13 -38 -9.5t-23 27.5l-47 111q-14 32 20 57q166 109 344 109q182 0 286.5 -99t148.5 -297q20 -89 42.5 -138.5t63.5 -86.5
q27 -25 34 -39.5t7 -38.5v-129q0 -53 -47 -53z" />
    <glyph glyph-name="uniFE9E" unicode="&#x62c;" horiz-adv-x="1224" arabic-form="final" 
d="M1034 -305q0 -52 -34.5 -83.5t-86.5 -31.5t-86 31.5t-34 83.5t34 83.5t86 31.5t86.5 -31.5t34.5 -83.5zM1225 0h-627q-154 0 -224.5 -43t-70.5 -135q0 -91 78.5 -143t222.5 -52h25q36 0 50.5 -13t14.5 -44v-80q0 -43 -8.5 -56.5t-38.5 -19.5q-39 -8 -88 -8
q-140 0 -248.5 46t-174.5 142t-66 230q0 401 534 401h227q-35 37 -54.5 80t-39.5 131q-26 123 -78 174.5t-149 51.5q-104 0 -236 -76q-26 -13 -38 -9.5t-23 27.5l-47 111q-14 32 20 57q166 109 344 109q182 0 287.5 -99t147.5 -297q19 -99 51 -156.5t98 -103.5h111v-225z
" />
    <glyph glyph-name="uniFE9F" unicode="&#x62c;" horiz-adv-x="1126" arabic-form="initial" 
d="M1010 0h-1030q-66 0 -66 111q0 114 66 114h798q-35 37 -54.5 80t-39.5 131q-26 123 -78.5 174.5t-150.5 51.5q-105 0 -234 -76q-18 -9 -29 -10t-18.5 5.5t-13.5 22.5l-49 111q-14 33 22 57q166 109 342 109q183 0 287.5 -99t146.5 -297q19 -87 43 -137.5t66 -87.5
q26 -25 32.5 -39t6.5 -39v-129q0 -53 -47 -53zM453 -469q-51 0 -84 31t-33 82q0 50 33 80t84 30q52 0 85 -30t33 -80q0 -52 -33 -82.5t-85 -30.5z" />
    <glyph glyph-name="uniFEA0" unicode="&#x62c;" horiz-adv-x="1167" arabic-form="medial" 
d="M1167 0h-1187q-66 0 -66 111q0 114 66 114h798q-35 37 -54 80.5t-38 130.5q-28 122 -82 174t-151 52q-104 0 -236 -76q-18 -9 -29 -10t-18.5 5.5t-13.5 22.5l-47 111q-14 32 20 57q166 109 344 109q182 0 286.5 -99t145.5 -297q21 -99 53.5 -156.5t98.5 -103.5h110v-225z
M455 -469q-51 0 -84 31t-33 82q0 50 33 80t84 30q52 0 85 -30t33 -80q0 -52 -33 -82.5t-85 -30.5z" />
    <glyph glyph-name="uniFEA1" unicode="&#x62d;" horiz-adv-x="1181" arabic-form="isolated" 
d="M1065 0h-481q-145 0 -212 -43.5t-67 -134.5q0 -96 82.5 -146.5t222.5 -50.5q139 0 322 56q34 8 45.5 2.5t19.5 -29.5l37 -100q10 -31 1 -47.5t-40 -28.5q-74 -33 -180 -52.5t-211 -19.5q-258 0 -396 108t-138 310q0 401 522 401h239q-35 37 -54.5 80t-39.5 131
q-26 123 -78 174.5t-149 51.5q-104 0 -236 -76q-26 -13 -38 -9.5t-23 27.5l-47 111q-14 32 20 57q166 109 344 109q182 0 286.5 -99t148.5 -297q20 -89 42.5 -138.5t63.5 -86.5q27 -25 34 -39.5t7 -38.5v-129q0 -53 -47 -53z" />
    <glyph glyph-name="uniFEA2" unicode="&#x62d;" horiz-adv-x="1224" arabic-form="final" 
d="M610 -375q139 0 322 56q34 8 45.5 2.5t19.5 -29.5l37 -100q10 -31 1 -47.5t-40 -28.5q-74 -33 -180 -52.5t-211 -19.5q-258 0 -396 108t-138 310q0 401 522 401h239q-35 37 -54.5 80t-39.5 131q-26 123 -78 174.5t-149 51.5q-104 0 -236 -76q-26 -13 -38 -9.5t-23 27.5
l-47 111q-14 32 20 57q166 109 344 109q182 0 287.5 -99t147.5 -297q19 -99 51 -156.5t98 -103.5h111v-225h-641q-145 0 -212 -43.5t-67 -134.5q0 -96 82.5 -146.5t222.5 -50.5z" />
    <glyph glyph-name="uniFEA3" unicode="&#x62d;" horiz-adv-x="1126" arabic-form="initial" 
d="M1010 0h-1030q-66 0 -66 111q0 114 66 114h798q-35 37 -54.5 80t-39.5 131q-26 123 -78.5 174.5t-150.5 51.5q-105 0 -234 -76q-18 -9 -29 -10t-18.5 5.5t-13.5 22.5l-49 111q-14 33 22 57q166 109 342 109q183 0 287.5 -99t146.5 -297q19 -87 43 -137.5t66 -87.5
q26 -25 32.5 -39t6.5 -39v-129q0 -53 -47 -53z" />
    <glyph glyph-name="uniFEA4" unicode="&#x62d;" horiz-adv-x="1167" arabic-form="medial" 
d="M1167 0h-1187q-66 0 -66 111q0 114 66 114h798q-35 37 -54 80.5t-38 130.5q-28 122 -82 174t-151 52q-104 0 -236 -76q-18 -9 -29 -10t-18.5 5.5t-13.5 22.5l-47 111q-14 32 20 57q166 109 344 109q182 0 286.5 -99t145.5 -297q21 -99 53.5 -156.5t98.5 -103.5h110v-225z
" />
    <glyph glyph-name="uniFEA5" unicode="&#x62e;" horiz-adv-x="1181" arabic-form="isolated" 
d="M1065 0h-481q-145 0 -212 -43.5t-67 -134.5q0 -96 82.5 -146.5t222.5 -50.5q139 0 322 56q34 8 45.5 2.5t19.5 -29.5l37 -100q10 -31 1 -47.5t-40 -28.5q-74 -33 -180 -52.5t-211 -19.5q-258 0 -396 108t-138 310q0 401 522 401h239q-35 37 -54.5 80t-39.5 131
q-26 123 -78 174.5t-149 51.5q-104 0 -236 -76q-26 -13 -38 -9.5t-23 27.5l-47 111q-14 32 20 57q166 109 344 109q182 0 286.5 -99t148.5 -297q20 -89 42.5 -138.5t63.5 -86.5q27 -25 34 -39.5t7 -38.5v-129q0 -53 -47 -53zM561 1106q-51 0 -84 30.5t-33 80.5t33.5 81
t83.5 31q52 0 85.5 -31t33.5 -81t-33.5 -80.5t-85.5 -30.5z" />
    <glyph glyph-name="uniFEA6" unicode="&#x62e;" horiz-adv-x="1224" arabic-form="final" 
d="M610 -375q139 0 322 56q34 8 45.5 2.5t19.5 -29.5l37 -100q10 -31 1 -47.5t-40 -28.5q-74 -33 -180 -52.5t-211 -19.5q-258 0 -396 108t-138 310q0 401 522 401h239q-35 37 -54.5 80t-39.5 131q-26 123 -78 174.5t-149 51.5q-104 0 -236 -76q-26 -13 -38 -9.5t-23 27.5
l-47 111q-14 32 20 57q166 109 344 109q182 0 287.5 -99t147.5 -297q19 -99 51 -156.5t98 -103.5h111v-225h-641q-145 0 -212 -43.5t-67 -134.5q0 -96 82.5 -146.5t222.5 -50.5zM561 1106q-51 0 -84 30.5t-33 80.5t33.5 81t83.5 31q52 0 85.5 -31t33.5 -81t-33.5 -80.5
t-85.5 -30.5z" />
    <glyph glyph-name="uniFEA7" unicode="&#x62e;" horiz-adv-x="1126" arabic-form="initial" 
d="M1010 0h-1030q-66 0 -66 111q0 114 66 114h798q-35 37 -54.5 80t-39.5 131q-26 123 -78.5 174.5t-150.5 51.5q-105 0 -234 -76q-18 -9 -29 -10t-18.5 5.5t-13.5 22.5l-49 111q-14 33 22 57q166 109 342 109q183 0 287.5 -99t146.5 -297q19 -87 43 -137.5t66 -87.5
q26 -25 32.5 -39t6.5 -39v-129q0 -53 -47 -53zM508 1106q-51 0 -84 30.5t-33 80.5t33.5 81t83.5 31q52 0 85.5 -31t33.5 -81t-33.5 -80.5t-85.5 -30.5z" />
    <glyph glyph-name="uniFEA8" unicode="&#x62e;" horiz-adv-x="1167" arabic-form="medial" 
d="M1167 0h-1187q-66 0 -66 111q0 114 66 114h798q-35 37 -54 80.5t-38 130.5q-28 122 -82 174t-151 52q-104 0 -236 -76q-18 -9 -29 -10t-18.5 5.5t-13.5 22.5l-47 111q-14 32 20 57q166 109 344 109q182 0 286.5 -99t145.5 -297q21 -99 53.5 -156.5t98.5 -103.5h110v-225z
M508 1106q-51 0 -84 30.5t-33 80.5t33.5 81t83.5 31q52 0 85.5 -31t33.5 -81t-33.5 -80.5t-85.5 -30.5z" />
    <glyph glyph-name="uniFEA9" unicode="&#x62f;" horiz-adv-x="1112" arabic-form="isolated" 
d="M229 836q45 20 129.5 32.5t155.5 12.5q246 0 363.5 -105t117.5 -342v-178q0 -128 -72.5 -192t-226.5 -64h-579q-27 0 -38 12.5t-11 38.5v123q0 26 11 38.5t38 12.5h532q71 0 94 23.5t23 93.5v82q0 132 -63.5 185t-213.5 53q-49 0 -133.5 -10.5t-115.5 -10.5q-43 0 -43 45
v96q0 23 6.5 35t25.5 19z" />
    <glyph glyph-name="uniFEAA" unicode="&#x62f;" horiz-adv-x="1214" arabic-form="final" 
d="M766 225v199q0 132 -62.5 185t-211.5 53q-50 0 -135.5 -10.5t-116.5 -10.5q-43 0 -43 45v96q0 23 6.5 35t25.5 19q45 19 130.5 32t156.5 13q244 0 361.5 -105t117.5 -342v-209h219v-225h-1099q-47 0 -47 51v121q0 53 47 53h651z" />
    <glyph glyph-name="uniFEAB" unicode="&#x630;" horiz-adv-x="1112" arabic-form="isolated" 
d="M229 836q45 20 129.5 32.5t155.5 12.5q246 0 363.5 -105t117.5 -342v-178q0 -128 -72.5 -192t-226.5 -64h-579q-27 0 -38 12.5t-11 38.5v123q0 26 11 38.5t38 12.5h532q71 0 94 23.5t23 93.5v82q0 132 -63.5 185t-213.5 53q-49 0 -133.5 -10.5t-115.5 -10.5q-43 0 -43 45
v96q0 23 6.5 35t25.5 19zM522 1106q-50 0 -83 30.5t-33 80.5t33 81t83 31q52 0 85.5 -31t33.5 -81t-33.5 -80.5t-85.5 -30.5z" />
    <glyph glyph-name="uniFEAC" unicode="&#x630;" horiz-adv-x="1214" arabic-form="final" 
d="M766 225v199q0 132 -62.5 185t-211.5 53q-50 0 -135.5 -10.5t-116.5 -10.5q-43 0 -43 45v96q0 23 6.5 35t25.5 19q45 19 130.5 32t156.5 13q244 0 361.5 -105t117.5 -342v-209h219v-225h-1099q-47 0 -47 51v121q0 53 47 53h651zM557 1106q-51 0 -84 30.5t-33 80.5
t33.5 81t83.5 31q52 0 85.5 -31t33.5 -81t-33.5 -80.5t-85.5 -30.5z" />
    <glyph glyph-name="uniFEAD" unicode="&#x631;" horiz-adv-x="659" arabic-form="isolated" 
d="M526 793v-562q0 -136 -17.5 -227t-66.5 -171t-129 -142.5t-211 -132.5q-43 -24 -67 22l-58 105q-11 24 -2.5 38.5t37.5 30.5q116 65 174 125t84.5 147.5t26.5 231.5v535q0 27 12.5 39t40.5 12h123q28 0 40.5 -12t12.5 -39z" />
    <glyph glyph-name="uniFEAE" unicode="&#x631;" horiz-adv-x="718" arabic-form="final" 
d="M526 793v-568h193v-225h-213q-29 -143 -120 -241t-284 -201q-43 -24 -67 22l-58 105q-11 24 -2.5 38.5t37.5 30.5q116 65 174 125t84.5 147.5t26.5 231.5v535q0 27 12.5 39t40.5 12h123q28 0 40.5 -12t12.5 -39z" />
    <glyph glyph-name="uniFEAF" unicode="&#x632;" horiz-adv-x="659" arabic-form="isolated" 
d="M526 793v-562q0 -136 -17.5 -227t-66.5 -171t-129 -142.5t-211 -132.5q-43 -24 -67 22l-58 105q-11 24 -2.5 38.5t37.5 30.5q116 65 174 125t84.5 147.5t26.5 231.5v535q0 27 12.5 39t40.5 12h123q28 0 40.5 -12t12.5 -39zM422 1090q-51 0 -84 30t-33 80t33.5 81.5
t83.5 31.5q52 0 85.5 -31.5t33.5 -81.5t-33.5 -80t-85.5 -30z" />
    <glyph glyph-name="uniFEB0" unicode="&#x632;" horiz-adv-x="718" arabic-form="final" 
d="M526 793v-568h193v-225h-213q-29 -143 -120 -241t-284 -201q-43 -24 -67 22l-58 105q-11 24 -2.5 38.5t37.5 30.5q116 65 174 125t84.5 147.5t26.5 231.5v535q0 27 12.5 39t40.5 12h123q28 0 40.5 -12t12.5 -39zM422 1090q-51 0 -84 30t-33 80t33.5 81.5t83.5 31.5
q52 0 85.5 -31.5t33.5 -81.5t-33.5 -80t-85.5 -30z" />
    <glyph glyph-name="uniFEB1" unicode="&#x633;" horiz-adv-x="2390" arabic-form="isolated" 
d="M88 66q0 179 82 331q20 36 36.5 43.5t45.5 -4.5l98 -43q28 -12 33 -28t-8 -50q-54 -126 -51 -249q0 -145 86 -220t252 -75q172 0 253.5 81.5t81.5 245.5v512q0 49 50 49h133q26 0 37.5 -11t11.5 -38v-327q68 -62 157 -62q127 0 127 137v252q0 49 52 49h129q26 0 37.5 -11
t11.5 -38v-325q68 -62 158 -62q131 0 131 135v437q0 49 47 49h133q26 0 38.5 -11t12.5 -38v-492q0 -130 -81.5 -216.5t-225.5 -86.5q-166 0 -266 121q-80 -121 -250 -121q-128 0 -213 68q0 -254 -153 -386.5t-419 -132.5t-416.5 131t-150.5 386z" />
    <glyph glyph-name="uniFEB2" unicode="&#x633;" horiz-adv-x="2484" arabic-form="final" 
d="M88 63q0 182 82 334q20 36 36.5 43.5t45.5 -4.5l98 -43q28 -12 33 -28t-8 -50q-54 -126 -51 -249q0 -145 86 -220t252 -75q174 0 254.5 81.5t80.5 245.5v512q0 49 50 49h133q26 0 37.5 -11t11.5 -38v-327q79 -64 162 -64q66 0 94 36t28 103v252q0 49 54 49h129
q26 0 37.5 -11t11.5 -38v-325q75 -66 160 -66q125 0 125 139v437q0 49 47 49h133q26 0 38.5 -11t12.5 -38v-457q0 -35 -2 -53q33 -33 84 -47.5t133 -14.5h8v-223h-12q-188 0 -264 121q-80 -121 -252 -121q-166 0 -266 121q-80 -121 -250 -121q-128 0 -213 68
q0 -254 -152 -386.5t-420 -132.5q-266 0 -416.5 130t-150.5 384z" />
    <glyph glyph-name="uniFEB3" unicode="&#x633;" horiz-adv-x="1691" arabic-form="initial" 
d="M-20 225h204q67 0 92 32.5t25 115.5v237q0 49 49 49h133q49 0 49 -49v-327q79 -64 162 -64q125 0 125 139v252q0 49 51 49h131q26 0 38 -11t12 -38v-325q72 -66 157 -66q123 0 123 139v437q0 49 49 49h133q26 0 38 -11t12 -38v-492q0 -130 -80.5 -216.5t-222.5 -86.5
q-165 0 -265 121q-38 -57 -103 -89t-149 -32q-71 0 -142 29t-116 84q-74 -113 -274 -113h-231q-66 0 -66 113q0 112 66 112z" />
    <glyph glyph-name="uniFEB4" unicode="&#x633;" horiz-adv-x="1777" arabic-form="medial" 
d="M203 0h-223q-66 0 -66 113q0 112 66 112h196q115 0 115 117v268q0 49 49 49h133q26 0 37.5 -11t11.5 -38v-327q79 -64 162 -64q125 0 125 139v252q0 27 12.5 38t38.5 11h129q26 0 37.5 -11t11.5 -38v-325q75 -66 160 -66q125 0 125 139v437q0 49 47 49h133q26 0 38.5 -11
t12.5 -38v-465q0 -31 -2 -45q63 -60 213 -60h13v-225h-13q-188 0 -264 121q-80 -121 -252 -121q-166 0 -266 121q-80 -121 -250 -121q-71 0 -141 29t-115 84q-77 -113 -274 -113z" />
    <glyph glyph-name="uniFEB5" unicode="&#x634;" horiz-adv-x="2390" arabic-form="isolated" 
d="M88 66q0 179 82 331q20 36 36.5 43.5t45.5 -4.5l98 -43q28 -12 33 -28t-8 -50q-54 -126 -51 -249q0 -145 86 -220t252 -75q172 0 253.5 81.5t81.5 245.5v512q0 49 50 49h133q26 0 37.5 -11t11.5 -38v-327q68 -62 157 -62q127 0 127 137v252q0 49 52 49h129q26 0 37.5 -11
t11.5 -38v-325q68 -62 158 -62q131 0 131 135v437q0 49 47 49h133q26 0 38.5 -11t12.5 -38v-492q0 -130 -81.5 -216.5t-225.5 -86.5q-166 0 -266 121q-80 -121 -250 -121q-128 0 -213 68q0 -254 -153 -386.5t-419 -132.5t-416.5 131t-150.5 386zM1634 1350q-51 0 -83.5 29.5
t-32.5 80.5q0 50 33 80.5t83 30.5q52 0 85.5 -30.5t33.5 -80.5q0 -51 -33.5 -80.5t-85.5 -29.5zM1485 1090q-52 0 -85.5 30t-33.5 80t33.5 81.5t85.5 31.5q50 0 83.5 -31.5t33.5 -81.5t-33 -80t-84 -30zM1786 1090q-52 0 -85.5 30t-33.5 80t33.5 81.5t85.5 31.5
q50 0 83.5 -31.5t33.5 -81.5t-33 -80t-84 -30z" />
    <glyph glyph-name="uniFEB6" unicode="&#x634;" horiz-adv-x="2484" arabic-form="final" 
d="M88 63q0 182 82 334q20 36 36.5 43.5t45.5 -4.5l98 -43q28 -12 33 -28t-8 -50q-54 -126 -51 -249q0 -145 86 -220t252 -75q174 0 254.5 81.5t80.5 245.5v512q0 49 50 49h133q26 0 37.5 -11t11.5 -38v-327q79 -64 162 -64q66 0 94 36t28 103v252q0 49 54 49h129
q26 0 37.5 -11t11.5 -38v-325q75 -66 160 -66q125 0 125 139v437q0 49 47 49h133q26 0 38.5 -11t12.5 -38v-457q0 -35 -2 -53q33 -33 84 -47.5t133 -14.5h8v-223h-12q-188 0 -264 121q-80 -121 -252 -121q-166 0 -266 121q-80 -121 -250 -121q-128 0 -213 68
q0 -254 -152 -386.5t-420 -132.5q-266 0 -416.5 130t-150.5 384zM1636 1350q-51 0 -83.5 29.5t-32.5 80.5q0 50 33 80.5t83 30.5q52 0 85.5 -30.5t33.5 -80.5q0 -51 -33.5 -80.5t-85.5 -29.5zM1487 1090q-52 0 -85.5 30t-33.5 80t33.5 81.5t85.5 31.5q50 0 83.5 -31.5
t33.5 -81.5t-33 -80t-84 -30zM1788 1090q-52 0 -85.5 30t-33.5 80t33.5 81.5t85.5 31.5q50 0 83.5 -31.5t33.5 -81.5t-33 -80t-84 -30z" />
    <glyph glyph-name="uniFEB7" unicode="&#x634;" horiz-adv-x="1691" arabic-form="initial" 
d="M-20 225h204q67 0 92 32.5t25 115.5v237q0 49 49 49h133q49 0 49 -49v-327q79 -64 162 -64q125 0 125 139v252q0 49 51 49h131q26 0 38 -11t12 -38v-325q72 -66 157 -66q123 0 123 139v437q0 49 49 49h133q26 0 38 -11t12 -38v-492q0 -130 -80.5 -216.5t-222.5 -86.5
q-165 0 -265 121q-38 -57 -103 -89t-149 -32q-71 0 -142 29t-116 84q-74 -113 -274 -113h-231q-66 0 -66 113q0 112 66 112zM936 1350q-51 0 -84 29.5t-33 80.5q0 50 33 80.5t84 30.5q52 0 85.5 -30.5t33.5 -80.5q0 -51 -33.5 -80.5t-85.5 -29.5zM786 1090q-52 0 -85 30
t-33 80t33 81.5t85 31.5q50 0 83.5 -31.5t33.5 -81.5t-33 -80t-84 -30zM1087 1090q-52 0 -85 30t-33 80t33 81.5t85 31.5q50 0 83.5 -31.5t33.5 -81.5t-33 -80t-84 -30z" />
    <glyph glyph-name="uniFEB8" unicode="&#x634;" horiz-adv-x="1777" arabic-form="medial" 
d="M203 0h-223q-66 0 -66 113q0 112 66 112h196q115 0 115 117v268q0 49 49 49h133q26 0 37.5 -11t11.5 -38v-327q79 -64 162 -64q125 0 125 139v252q0 27 12.5 38t38.5 11h129q26 0 37.5 -11t11.5 -38v-325q75 -66 160 -66q125 0 125 139v437q0 49 47 49h133q26 0 38.5 -11
t12.5 -38v-465q0 -31 -2 -45q63 -60 213 -60h13v-225h-13q-188 0 -264 121q-80 -121 -252 -121q-166 0 -266 121q-80 -121 -250 -121q-71 0 -141 29t-115 84q-77 -113 -274 -113zM936 1350q-51 0 -84 29.5t-33 80.5q0 50 33 80.5t84 30.5q52 0 85.5 -30.5t33.5 -80.5
q0 -51 -33.5 -80.5t-85.5 -29.5zM786 1090q-52 0 -85 30t-33 80t33 81.5t85 31.5q50 0 83.5 -31.5t33.5 -81.5t-33 -80t-84 -30zM1087 1090q-52 0 -85 30t-33 80t33 81.5t85 31.5q50 0 83.5 -31.5t33.5 -81.5t-33 -80t-84 -30z" />
    <glyph glyph-name="uniFEB9" unicode="&#x635;" horiz-adv-x="2324" arabic-form="isolated" 
d="M1780 0h-555q-25 -224 -171 -337.5t-399 -113.5q-266 0 -416.5 130.5t-150.5 386.5q0 168 84 333q16 32 31 40.5t47 -3.5l96 -43q29 -11 35.5 -26.5t-6.5 -49.5q-51 -121 -51 -249q0 -147 86 -223t252 -76q175 0 256 81.5t81 247.5v699q0 47 50 47h133q24 0 35.5 -10
t11.5 -37v-246q117 157 258 245.5t295 88.5q208 0 327 -138t119 -372q0 -205 -101.5 -290t-346.5 -85zM1227 225h594q97 0 134.5 37t37.5 127q0 129 -61 203t-165 74q-73 0 -149.5 -36.5t-145.5 -101t-129.5 -139.5t-115.5 -164z" />
    <glyph glyph-name="uniFEBA" unicode="&#x635;" horiz-adv-x="2387" arabic-form="final" 
d="M1995 225v144q0 152 -61 224.5t-167 72.5q-73 0 -149.5 -36.5t-145.5 -101t-129.5 -139.5t-115.5 -164h768zM2388 0h-1163q-25 -224 -171 -337.5t-399 -113.5q-266 0 -416.5 130.5t-150.5 386.5q0 168 84 333q16 32 31 40.5t47 -3.5l96 -43q29 -11 35.5 -26.5t-6.5 -49.5
q-51 -121 -51 -249q0 -147 86 -223t252 -76q175 0 256 81.5t81 247.5v699q0 47 50 47h133q24 0 35.5 -10t11.5 -37v-246q117 157 258 245.5t295 88.5q208 0 327 -138t119 -372v-150h160v-225z" />
    <glyph glyph-name="uniFEBB" unicode="&#x635;" horiz-adv-x="1505" arabic-form="initial" 
d="M961 0h-981q-66 0 -66 111q0 114 66 114h200v572q0 47 53 47h127q26 0 39 -10.5t13 -36.5v-246q117 157 258 245.5t295 88.5q207 0 325.5 -138t118.5 -372q0 -205 -100.5 -290t-347.5 -85zM410 225h591q97 0 135 37t38 127q0 129 -60 203t-164 74q-73 0 -149.5 -36.5
t-145.5 -101t-129.5 -139.5t-115.5 -164z" />
    <glyph glyph-name="uniFEBC" unicode="&#x635;" horiz-adv-x="1568" arabic-form="medial" 
d="M-20 225h200v572q0 47 53 47h127q26 0 39 -10.5t13 -36.5v-246q115 157 255.5 245.5t295.5 88.5q206 0 326 -138.5t120 -371.5v-150h160v-225h-1589q-66 0 -66 111q0 114 66 114zM948 666q-74 0 -151.5 -37.5t-146.5 -102.5t-128 -139.5t-112 -161.5h766v144
q0 152 -61.5 224.5t-166.5 72.5z" />
    <glyph glyph-name="uniFEBD" unicode="&#x636;" horiz-adv-x="2324" arabic-form="isolated" 
d="M1780 0h-555q-25 -224 -171 -337.5t-399 -113.5q-266 0 -416.5 130.5t-150.5 386.5q0 168 84 333q16 32 31 40.5t47 -3.5l96 -43q29 -11 35.5 -26.5t-6.5 -49.5q-51 -121 -51 -249q0 -147 86 -223t252 -76q175 0 256 81.5t81 247.5v699q0 47 50 47h133q24 0 35.5 -10
t11.5 -37v-246q117 157 258 245.5t295 88.5q208 0 327 -138t119 -372q0 -205 -101.5 -290t-346.5 -85zM1227 225h594q97 0 134.5 37t37.5 127q0 129 -61 203t-165 74q-73 0 -149.5 -36.5t-145.5 -101t-129.5 -139.5t-115.5 -164zM1769 1110q-50 0 -83 30.5t-33 80.5t33 81
t83 31q52 0 85.5 -31t33.5 -81t-33.5 -80.5t-85.5 -30.5z" />
    <glyph glyph-name="uniFEBE" unicode="&#x636;" horiz-adv-x="2387" arabic-form="final" 
d="M1995 225v144q0 152 -61 224.5t-167 72.5q-73 0 -149.5 -36.5t-145.5 -101t-129.5 -139.5t-115.5 -164h768zM2388 0h-1163q-25 -224 -171 -337.5t-399 -113.5q-266 0 -416.5 130.5t-150.5 386.5q0 168 84 333q16 32 31 40.5t47 -3.5l96 -43q29 -11 35.5 -26.5t-6.5 -49.5
q-51 -121 -51 -249q0 -147 86 -223t252 -76q175 0 256 81.5t81 247.5v699q0 47 50 47h133q24 0 35.5 -10t11.5 -37v-246q117 157 258 245.5t295 88.5q208 0 327 -138t119 -372v-150h160v-225zM1778 1110q-51 0 -84 30.5t-33 80.5t33.5 81t83.5 31q52 0 85 -31t33 -81
t-33 -80.5t-85 -30.5z" />
    <glyph glyph-name="uniFEBF" unicode="&#x636;" horiz-adv-x="1505" arabic-form="initial" 
d="M961 0h-981q-66 0 -66 111q0 114 66 114h200v572q0 47 53 47h127q26 0 39 -10.5t13 -36.5v-246q117 157 258 245.5t295 88.5q207 0 325.5 -138t118.5 -372q0 -205 -100.5 -290t-347.5 -85zM410 225h591q97 0 135 37t38 127q0 129 -60 203t-164 74q-73 0 -149.5 -36.5
t-145.5 -101t-129.5 -139.5t-115.5 -164zM961 1110q-51 0 -84 30.5t-33 80.5t33.5 81t83.5 31q52 0 85 -31t33 -81t-33 -80.5t-85 -30.5z" />
    <glyph glyph-name="uniFEC0" unicode="&#x636;" horiz-adv-x="1568" arabic-form="medial" 
d="M-20 225h200v572q0 47 53 47h127q26 0 39 -10.5t13 -36.5v-246q115 157 255.5 245.5t295.5 88.5q206 0 326 -138.5t120 -371.5v-150h160v-225h-1589q-66 0 -66 111q0 114 66 114zM948 666q-74 0 -151.5 -37.5t-146.5 -102.5t-128 -139.5t-112 -161.5h766v144
q0 152 -61.5 224.5t-166.5 72.5zM940 1110q-51 0 -84 30.5t-33 80.5t33.5 81t83.5 31q52 0 85.5 -31t33.5 -81t-33.5 -80.5t-85.5 -30.5z" />
    <glyph glyph-name="uniFEC1" unicode="&#x637;" horiz-adv-x="1662" arabic-form="isolated" 
d="M1118 0h-999q-27 0 -38 12.5t-11 38.5v121q0 53 49 53h219v1168q0 25 9 35.5t30 13.5l147 20q21 3 32 -8t11 -35v-868q117 157 258 245.5t295 88.5q208 0 326.5 -138t118.5 -372q0 -205 -101 -290t-346 -85zM565 225h594q97 0 134.5 37t37.5 127q0 129 -60.5 203
t-164.5 74q-73 0 -149.5 -36.5t-146 -101t-130 -139.5t-115.5 -164z" />
    <glyph glyph-name="uniFEC2" unicode="&#x637;" horiz-adv-x="1724" arabic-form="final" 
d="M1724 0h-1605q-27 0 -38 12.5t-11 38.5v121q0 53 49 53h217v1168q0 25 9 35.5t30 13.5l147 20q21 3 32 -8t11 -35v-868q117 157 258 245.5t297 88.5q206 0 325.5 -138.5t119.5 -371.5v-150h159v-225zM1106 666q-74 0 -152 -37.5t-148 -102.5t-130 -140t-113 -161h770v144
q0 152 -61 224.5t-166 72.5z" />
    <glyph glyph-name="uniFEC3" unicode="&#x637;" horiz-adv-x="1505" arabic-form="initial" 
d="M961 0h-981q-66 0 -66 111q0 114 66 114h200v1168q0 25 9 35.5t30 13.5l148 20q21 3 32 -8t11 -35v-868q117 157 258.5 245.5t296.5 88.5q207 0 325.5 -138t118.5 -372q0 -205 -100.5 -290t-347.5 -85zM408 225h593q97 0 135 37t38 127q0 129 -60 203t-164 74
q-73 0 -149.5 -36.5t-146.5 -101t-130.5 -139.5t-115.5 -164z" />
    <glyph glyph-name="uniFEC4" unicode="&#x637;" horiz-adv-x="1568" arabic-form="medial" 
d="M410 1419v-868q114 156 256 245t297 89q206 0 326 -138.5t120 -371.5v-150h160v-225h-1589q-66 0 -66 111q0 114 66 114h200v1168q0 25 9 35.5t30 13.5l148 20q21 3 32 -8t11 -35zM948 666q-74 0 -151.5 -37.5t-147 -102.5t-129 -139.5t-112.5 -161.5h768v144
q0 152 -61.5 224.5t-166.5 72.5z" />
    <glyph glyph-name="uniFEC5" unicode="&#x638;" horiz-adv-x="1662" arabic-form="isolated" 
d="M1118 0h-999q-27 0 -38 12.5t-11 38.5v121q0 53 49 53h219v1168q0 25 9 35.5t30 13.5l147 20q21 3 32 -8t11 -35v-868q117 157 258 245.5t295 88.5q208 0 326.5 -138t118.5 -372q0 -205 -101 -290t-346 -85zM565 225h594q97 0 134.5 37t37.5 127q0 129 -60.5 203
t-164.5 74q-73 0 -149.5 -36.5t-146 -101t-130 -139.5t-115.5 -164zM1100 1110q-51 0 -84 30.5t-33 80.5t33.5 81t83.5 31q52 0 85.5 -31t33.5 -81t-33.5 -80.5t-85.5 -30.5z" />
    <glyph glyph-name="uniFEC6" unicode="&#x638;" horiz-adv-x="1724" arabic-form="final" 
d="M1724 0h-1605q-27 0 -38 12.5t-11 38.5v121q0 53 49 53h217v1168q0 25 9 35.5t30 13.5l147 20q21 3 32 -8t11 -35v-868q117 157 258 245.5t297 88.5q206 0 325.5 -138.5t119.5 -371.5v-150h159v-225zM1106 666q-74 0 -152 -37.5t-148 -102.5t-130 -140t-113 -161h770v144
q0 152 -61 224.5t-166 72.5zM1100 1110q-51 0 -84 30.5t-33 80.5t33.5 81t83.5 31q52 0 85.5 -31t33.5 -81t-33.5 -80.5t-85.5 -30.5z" />
    <glyph glyph-name="uniFEC7" unicode="&#x638;" horiz-adv-x="1505" arabic-form="initial" 
d="M961 0h-981q-66 0 -66 111q0 114 66 114h200v1168q0 25 9 35.5t30 13.5l148 20q21 3 32 -8t11 -35v-868q117 157 258.5 245.5t296.5 88.5q207 0 325.5 -138t118.5 -372q0 -205 -100.5 -290t-347.5 -85zM408 225h593q97 0 135 37t38 127q0 129 -60 203t-164 74
q-73 0 -149.5 -36.5t-146.5 -101t-130.5 -139.5t-115.5 -164zM940 1110q-51 0 -84 30.5t-33 80.5t33.5 81t83.5 31q52 0 85.5 -31t33.5 -81t-33.5 -80.5t-85.5 -30.5z" />
    <glyph glyph-name="uniFEC8" unicode="&#x638;" horiz-adv-x="1568" arabic-form="medial" 
d="M410 1419v-868q114 156 256 245t297 89q206 0 326 -138.5t120 -371.5v-150h160v-225h-1589q-66 0 -66 111q0 114 66 114h200v1168q0 25 9 35.5t30 13.5l148 20q21 3 32 -8t11 -35zM948 666q-74 0 -151.5 -37.5t-147 -102.5t-129 -139.5t-112.5 -161.5h768v144
q0 152 -61.5 224.5t-166.5 72.5zM940 1110q-51 0 -84 30.5t-33 80.5t33.5 81t83.5 31q52 0 85.5 -31t33.5 -81t-33.5 -80.5t-85.5 -30.5z" />
    <glyph glyph-name="uniFEC9" unicode="&#x639;" horiz-adv-x="1138" arabic-form="isolated" 
d="M606 -594q-258 0 -397 108t-139 310q0 283 264 364q-129 144 -129 316q0 175 117.5 276t298.5 101q169 0 303 -86q36 -21 22 -56l-49 -108q-10 -23 -23.5 -27t-39.5 8q-106 50 -193 50q-99 0 -150 -50t-51 -135q0 -132 117 -252h459q45 0 45 -53v-121q0 -26 -10 -38.5
t-35 -12.5h-424q-150 0 -218.5 -43.5t-68.5 -134.5q0 -96 83 -146.5t226 -50.5q141 0 324 56q32 8 45 2.5t21 -29.5l38 -100q10 -31 1 -47.5t-39 -28.5q-78 -33 -185 -52.5t-213 -19.5z" />
    <glyph glyph-name="uniFECA" unicode="&#x639;" horiz-adv-x="1169" arabic-form="final" 
d="M1100 225h69v-225h-67q-177 0 -293 31.5t-195 99.5q-171 -110 -241 -183.5t-70 -154.5t76 -123.5t201 -44.5q140 0 329 56q32 8 45 2.5t21 -29.5l39 -100q9 -31 0 -47.5t-39 -28.5q-170 -72 -387 -72q-81 0 -154 12t-140.5 40.5t-116.5 71.5t-78 109.5t-29 149.5
q0 63 22 122t56.5 106.5t91 97.5t109.5 88t128 86l-37 59q-75 124 -130 179t-130 89q-26 12 -20 54l26 135q6 31 37 39q263 65 449 65q196 0 295.5 -67.5t99.5 -192.5q0 -101 -56.5 -191.5t-195.5 -193.5q89 -39 285 -39zM834 598q0 43 -40.5 67.5t-117.5 24.5
q-114 0 -223 -31q49 -42 88.5 -92t85.5 -127l24 -39q101 68 142 112t41 85z" />
    <glyph glyph-name="uniFECB" unicode="&#x639;" horiz-adv-x="1075" arabic-form="initial" 
d="M981 0h-1001q-66 0 -66 111q0 114 66 114h284q-100 126 -100 279q0 175 117.5 276t298.5 101q169 0 303 -86q36 -21 22 -56l-49 -108q-10 -23 -24 -27t-39 8q-106 50 -195 50q-98 0 -148.5 -50t-50.5 -135q0 -132 117 -252h465q45 0 45 -53v-121q0 -26 -10 -38.5
t-35 -12.5z" />
    <glyph glyph-name="uniFECC" unicode="&#x639;" horiz-adv-x="1179" arabic-form="medial" 
d="M63 0h-83q-66 0 -66 111q0 114 66 114h69q240 0 434 70l-32 53q-75 124 -130 179t-131 89q-26 11 -20 54l27 135q6 31 34 39q267 65 449 65q198 0 297.5 -67.5t99.5 -192.5q0 -98 -60.5 -200.5t-168.5 -190.5q81 -33 262 -33h70v-225h-68q-171 0 -284.5 29.5t-196.5 93.5
q-259 -123 -568 -123zM844 598q0 44 -40 68t-118 24q-114 0 -223 -31q49 -42 88.5 -92t85.5 -127l37 -55q81 54 125.5 111.5t44.5 101.5z" />
    <glyph glyph-name="uniFECD" unicode="&#x63a;" horiz-adv-x="1138" arabic-form="isolated" 
d="M606 -594q-258 0 -397 108t-139 310q0 283 264 364q-129 144 -129 316q0 175 117.5 276t298.5 101q169 0 303 -86q36 -21 22 -56l-49 -108q-10 -23 -23.5 -27t-39.5 8q-106 50 -193 50q-99 0 -150 -50t-51 -135q0 -132 117 -252h459q45 0 45 -53v-121q0 -26 -10 -38.5
t-35 -12.5h-424q-150 0 -218.5 -43.5t-68.5 -134.5q0 -96 83 -146.5t226 -50.5q141 0 324 56q32 8 45 2.5t21 -29.5l38 -100q10 -31 1 -47.5t-39 -28.5q-78 -33 -185 -52.5t-213 -19.5zM600 1106q-51 0 -84 30.5t-33 80.5t33.5 81t83.5 31q52 0 85.5 -31t33.5 -81
t-33.5 -80.5t-85.5 -30.5z" />
    <glyph glyph-name="uniFECE" unicode="&#x63a;" horiz-adv-x="1169" arabic-form="final" 
d="M1100 225h69v-225h-67q-177 0 -293 31.5t-195 99.5q-171 -110 -241 -183.5t-70 -154.5t76 -123.5t201 -44.5q140 0 329 56q32 8 45 2.5t21 -29.5l39 -100q9 -31 0 -47.5t-39 -28.5q-170 -72 -387 -72q-81 0 -154 12t-140.5 40.5t-116.5 71.5t-78 109.5t-29 149.5
q0 63 22 122t56.5 106.5t91 97.5t109.5 88t128 86l-37 59q-75 124 -130 179t-130 89q-26 12 -20 54l26 135q6 31 37 39q263 65 449 65q196 0 295.5 -67.5t99.5 -192.5q0 -101 -56.5 -191.5t-195.5 -193.5q89 -39 285 -39zM834 598q0 43 -40.5 67.5t-117.5 24.5
q-114 0 -223 -31q49 -42 88.5 -92t85.5 -127l24 -39q101 68 142 112t41 85zM621 1128q-51 0 -84 30.5t-33 80.5t33.5 81.5t83.5 31.5q52 0 85 -31.5t33 -81.5t-33 -80.5t-85 -30.5z" />
    <glyph glyph-name="uniFECF" unicode="&#x63a;" horiz-adv-x="1075" arabic-form="initial" 
d="M981 0h-1001q-66 0 -66 111q0 114 66 114h284q-100 126 -100 279q0 175 117.5 276t298.5 101q169 0 303 -86q36 -21 22 -56l-49 -108q-10 -23 -24 -27t-39 8q-106 50 -195 50q-98 0 -148.5 -50t-50.5 -135q0 -132 117 -252h465q45 0 45 -53v-121q0 -26 -10 -38.5
t-35 -12.5zM573 1106q-50 0 -83 30.5t-33 80.5t33 81t83 31q52 0 85.5 -31t33.5 -81t-33.5 -80.5t-85.5 -30.5z" />
    <glyph glyph-name="uniFED0" unicode="&#x63a;" horiz-adv-x="1179" arabic-form="medial" 
d="M63 0h-83q-66 0 -66 111q0 114 66 114h69q240 0 434 70l-32 53q-75 124 -130 179t-131 89q-26 11 -20 54l27 135q6 31 34 39q267 65 449 65q198 0 297.5 -67.5t99.5 -192.5q0 -98 -60.5 -200.5t-168.5 -190.5q81 -33 262 -33h70v-225h-68q-171 0 -284.5 29.5t-196.5 93.5
q-259 -123 -568 -123zM844 598q0 44 -40 68t-118 24q-114 0 -223 -31q49 -42 88.5 -92t85.5 -127l37 -55q81 54 125.5 111.5t44.5 101.5zM635 1128q-51 0 -84 30.5t-33 80.5t33.5 81.5t83.5 31.5q52 0 85.5 -31.5t33.5 -81.5t-33.5 -80.5t-85.5 -30.5z" />
    <glyph glyph-name="uniFED1" unicode="&#x641;" horiz-adv-x="2078" arabic-form="isolated" 
d="M1470 225h84q84 0 134.5 48.5t50.5 150.5q0 88 -39 145.5t-129 57.5q-60 0 -98.5 -30.5t-52 -73.5t-13.5 -99q0 -121 63 -199zM651 225h586q-63 101 -63 232q0 173 106 280t293 107q188 0 293.5 -108.5t105.5 -307.5q0 -212 -114.5 -320t-325.5 -108h-928
q-245 0 -374.5 114t-129.5 318v236q0 27 13 39t41 12h122q28 0 41 -12t13 -39v-136q0 -171 69.5 -239t251.5 -68zM1577 1069q-51 0 -84 30.5t-33 80.5t33.5 81t83.5 31q52 0 85.5 -31t33.5 -81t-33.5 -80.5t-85.5 -30.5z" />
    <glyph glyph-name="uniFED2" unicode="&#x641;" horiz-adv-x="2082" arabic-form="final" 
d="M1554 289q90 48 136.5 113t46.5 122q0 62 -49 103t-134 41t-133.5 -41t-48.5 -103q0 -57 46 -122t136 -113zM2083 225v-225h-125q-225 0 -404 70q-179 -70 -403 -70h-549q-245 0 -374.5 114t-129.5 318v236q0 27 13 39t41 12h122q28 0 41 -12t13 -39v-136
q0 -171 69.5 -239t251.5 -68h502q107 0 156 6q-83 68 -126.5 152.5t-43.5 165.5q0 142 114 240t303 98t303.5 -98t114.5 -240q0 -81 -43.5 -165.5t-126.5 -152.5q49 -6 156 -6h125zM1563 1106q-51 0 -84 30.5t-33 80.5t33.5 81t83.5 31q52 0 85 -31t33 -81t-33 -80.5
t-85 -30.5z" />
    <glyph glyph-name="uniFED3" unicode="&#x641;" horiz-adv-x="1067" arabic-form="initial" 
d="M-20 225h237q-63 101 -63 232q0 173 107.5 280t297.5 107q189 0 296.5 -108.5t107.5 -307.5q0 -212 -116.5 -320t-330.5 -108h-536q-66 0 -66 113q0 112 66 112zM453 225h88q85 0 136.5 48.5t51.5 150.5q0 41 -8.5 75.5t-27 64t-53 46.5t-81.5 17q-63 0 -103 -30.5
t-54.5 -73.5t-14.5 -99q0 -118 66 -199zM553 1069q-51 0 -84 30.5t-33 80.5t33.5 81t83.5 31q52 0 85.5 -31t33.5 -81t-33.5 -80.5t-85.5 -30.5z" />
    <glyph glyph-name="uniFED4" unicode="&#x641;" horiz-adv-x="1058" arabic-form="medial" 
d="M-20 225h145q107 0 156 6q-83 68 -126.5 152.5t-43.5 165.5q0 142 113.5 240t301.5 98q190 0 305 -98t115 -240q0 -81 -43.5 -165.5t-126.5 -152.5q49 -6 156 -6h127v-225h-127q-225 0 -406 70q-179 -70 -401 -70h-145q-66 0 -66 113q0 112 66 112zM528 289
q91 47 137 112.5t46 122.5q0 63 -48 103.5t-135 40.5t-134.5 -40.5t-47.5 -103.5q0 -57 45.5 -122.5t136.5 -112.5zM532 1106q-50 0 -83 30.5t-33 80.5t33 81t83 31q52 0 85.5 -31t33.5 -81t-33.5 -80.5t-85.5 -30.5z" />
    <glyph glyph-name="uniFED5" unicode="&#x642;" horiz-adv-x="1703" arabic-form="isolated" 
d="M1350 266v183q0 176 -162 176q-88 0 -134 -52.5t-46 -142.5q0 -106 44.5 -157.5t139.5 -51.5q87 0 158 45zM825 -229q238 0 373.5 72.5t149.5 205.5q-85 -49 -199 -49q-167 0 -271 114.5t-104 313.5q0 189 109.5 302.5t298.5 113.5q184 0 290.5 -100t106.5 -298v-364
q0 -265 -196.5 -399t-559.5 -134q-352 0 -542.5 132.5t-190.5 388.5q0 176 98 370q18 34 33.5 42.5t50.5 -3.5l99 -45q28 -12 33.5 -28t-9.5 -48q-71 -145 -71 -272q0 -315 501 -315zM1053 1069q-52 0 -85.5 30.5t-33.5 80.5t33.5 81t85.5 31q50 0 83 -31t33 -81t-33 -80.5
t-83 -30.5zM1354 1069q-52 0 -85.5 30.5t-33.5 80.5t33.5 81t85.5 31q50 0 83 -31t33 -81t-33 -80.5t-83 -30.5z" />
    <glyph glyph-name="uniFED6" unicode="&#x642;" horiz-adv-x="1775" arabic-form="final" 
d="M823 -451q-352 0 -542.5 132.5t-190.5 388.5q0 176 98 370q18 34 33.5 42.5t50.5 -3.5l99 -45q28 -12 33.5 -28t-9.5 -48q-71 -145 -71 -272q0 -315 501 -315q213 0 344.5 59.5t167.5 169.5h-145q-202 0 -310 106t-108 322q0 189 109.5 302.5t298.5 113.5
q184 0 290.5 -100t106.5 -298v-221h197v-225h-203q-29 -224 -223.5 -337.5t-526.5 -113.5zM1229 225h121v224q0 176 -162 176q-88 0 -134 -52.5t-46 -142.5q0 -119 50 -162t171 -43zM1053 1069q-52 0 -85.5 30.5t-33.5 80.5t33.5 81t85.5 31q50 0 83 -31t33 -81t-33 -80.5
t-83 -30.5zM1354 1069q-52 0 -85.5 30.5t-33.5 80.5t33.5 81t85.5 31q50 0 83 -31t33 -81t-33 -80.5t-83 -30.5z" />
    <glyph glyph-name="uniFED7" unicode="&#x642;" horiz-adv-x="1067" arabic-form="initial" 
d="M-20 225h237q-63 101 -63 232q0 173 107.5 280t297.5 107q189 0 296.5 -108.5t107.5 -307.5q0 -212 -116.5 -320t-330.5 -108h-536q-66 0 -66 113q0 112 66 112zM453 225h88q85 0 136.5 48.5t51.5 150.5q0 41 -8.5 75.5t-27 64t-53 46.5t-81.5 17q-63 0 -103 -30.5
t-54.5 -73.5t-14.5 -99q0 -118 66 -199zM406 1069q-52 0 -85.5 30.5t-33.5 80.5t33.5 81t85.5 31q50 0 83 -31t33 -81t-33 -80.5t-83 -30.5zM707 1069q-52 0 -85.5 30.5t-33.5 80.5t33.5 81t85.5 31q50 0 83 -31t33 -81t-33 -80.5t-83 -30.5z" />
    <glyph glyph-name="uniFED8" unicode="&#x642;" horiz-adv-x="1058" arabic-form="medial" 
d="M-20 225h145q107 0 156 6q-83 68 -126.5 152.5t-43.5 165.5q0 142 113.5 240t301.5 98q190 0 305 -98t115 -240q0 -81 -43.5 -165.5t-126.5 -152.5q49 -6 156 -6h127v-225h-127q-225 0 -406 70q-179 -70 -401 -70h-145q-66 0 -66 113q0 112 66 112zM528 289
q91 47 137 112.5t46 122.5q0 63 -48 103.5t-135 40.5t-134.5 -40.5t-47.5 -103.5q0 -57 45.5 -122.5t136.5 -112.5zM385 1106q-52 0 -85.5 30.5t-33.5 80.5t33.5 81t85.5 31q50 0 83.5 -31t33.5 -81t-33 -80.5t-84 -30.5zM686 1106q-52 0 -85.5 30.5t-33.5 80.5t33.5 81
t85.5 31q50 0 83.5 -31t33.5 -81t-33 -80.5t-84 -30.5z" />
    <glyph glyph-name="uniFED9" unicode="&#x643;" horiz-adv-x="1853" arabic-form="isolated" 
d="M643 225h752q59 0 77.5 20.5t18.5 84.5v1063q0 25 9 35.5t30 13.5l147 20q21 3 32 -8t11 -35v-1163q0 -128 -73 -192t-228 -64h-825q-240 0 -367 114t-127 318v240q0 47 52 47h129q26 0 38.5 -10t12.5 -37v-140q0 -171 67 -239t244 -68zM713 788h59q-37 53 -37 119
q0 85 59.5 137t147.5 52q87 0 160 -47q28 -20 14 -43l-20 -52q-7 -15 -13 -18.5t-22 4.5q-60 29 -105 29q-39 0 -63.5 -24.5t-24.5 -65.5q0 -47 33 -91h209q17 0 23 -6.5t6 -21.5v-70q0 -28 -29 -28h-397q-17 0 -23 7t-6 23v68q0 15 6 21.5t23 6.5z" />
    <glyph glyph-name="uniFEDA" unicode="&#x643;" horiz-adv-x="1941" arabic-form="final" 
d="M1681 104q-67 -104 -262 -104h-825q-240 0 -367 114t-127 318v240q0 47 52 47h127q26 0 38.5 -10t12.5 -37v-140q0 -171 67 -239t244 -68h754q59 0 77.5 20.5t18.5 84.5v1063q0 25 9 35.5t30 13.5l147 20q21 3 32 -8t11 -35v-1134q63 -60 209 -60h13v-225h-13
q-168 0 -248 104zM713 788h59q-37 53 -37 119q0 85 59.5 137t147.5 52q87 0 160 -47q28 -20 14 -43l-20 -52q-7 -15 -13 -18.5t-22 4.5q-60 29 -105 29q-39 0 -63.5 -24.5t-24.5 -65.5q0 -47 33 -91h209q17 0 23 -6.5t6 -21.5v-70q0 -28 -29 -28h-397q-17 0 -23 7t-6 23v68
q0 15 6 21.5t23 6.5z" />
    <glyph glyph-name="uniFEDB" unicode="&#x643;" horiz-adv-x="948" arabic-form="initial" 
d="M412 0h-432q-66 0 -66 111q0 114 66 114h446q87 0 132.5 25t45.5 84q0 95 -153.5 202t-456.5 193q-25 8 -35 18t-10 31v96q0 35 28 54l601 522q43 37 71 4l76 -86q18 -21 18 -37.5t-20 -34.5l-490 -426q307 -117 457 -253.5t150 -307.5q0 -74 -26.5 -130t-67.5 -89.5
t-99.5 -54t-114.5 -28t-120 -7.5z" />
    <glyph glyph-name="uniFEDC" unicode="&#x643;" horiz-adv-x="1062" arabic-form="medial" 
d="M412 0h-432q-66 0 -66 111q0 114 66 114h446q87 0 132.5 25t45.5 84q0 95 -153.5 202t-456.5 193q-25 8 -35 18t-10 31v96q0 35 28 54l601 522q43 37 71 4l76 -86q18 -21 18 -37.5t-20 -34.5l-490 -426q307 -117 457 -253.5t150 -307.5q0 -13 -4 -41q60 -43 194 -43h33
v-225h-33q-179 0 -260 115q-105 -115 -358 -115z" />
    <glyph glyph-name="uniFEDD" unicode="&#x644;" horiz-adv-x="1363" arabic-form="isolated" 
d="M1229 1421v-1327q0 -264 -148.5 -404.5t-425.5 -140.5q-266 0 -416.5 130.5t-150.5 386.5q0 168 84 333q16 32 31 40.5t47 -3.5l96 -43q29 -11 35.5 -26.5t-6.5 -49.5q-53 -126 -53 -249q0 -147 86.5 -222t253.5 -75q175 0 256 80.5t81 246.5v1297q0 24 8.5 34t26.5 13
l156 20q20 3 29.5 -8t9.5 -33z" />
    <glyph glyph-name="uniFEDE" unicode="&#x644;" horiz-adv-x="1439" arabic-form="final" 
d="M1229 1421v-1196h211v-225h-217q-25 -218 -171.5 -334.5t-396.5 -116.5q-266 0 -416.5 130.5t-150.5 386.5q0 168 84 333q16 32 31 40.5t47 -3.5l96 -43q29 -11 35.5 -26.5t-6.5 -49.5q-53 -126 -53 -249q0 -147 86.5 -222t253.5 -75q175 0 256 80.5t81 246.5v1297
q0 24 8.5 34t26.5 13l156 20q20 3 29.5 -8t9.5 -33z" />
    <glyph glyph-name="uniFEDF" unicode="&#x644;" horiz-adv-x="620" arabic-form="initial" 
d="M-20 225h180q60 0 79 21t19 84v1063q0 25 9 35.5t30 13.5l147 20q21 3 32 -8t11 -35v-1163q0 -128 -74 -192t-231 -64h-202q-66 0 -66 113q0 112 66 112z" />
    <glyph glyph-name="uniFEE0" unicode="&#x644;" horiz-adv-x="733" arabic-form="medial" 
d="M-20 225h200q60 0 79.5 21t19.5 84v1063q0 25 8.5 35.5t29.5 13.5l148 20q21 3 32 -8t11 -35v-1134q66 -60 213 -60h12v-225h-12q-173 0 -252 102q-67 -102 -266 -102h-223q-66 0 -66 113q0 112 66 112z" />
    <glyph glyph-name="uniFEE1" unicode="&#x645;" horiz-adv-x="1257" arabic-form="isolated" 
d="M61 -127q0 178 87 262.5t258 89.5q-66 104 -66 232q0 173 107.5 280t297.5 107q191 0 298.5 -108.5t107.5 -307.5q0 -212 -116 -320t-330 -108h-201q-125 0 -166 -29.5t-41 -113.5q0 -141 53 -377q7 -33 -5.5 -48t-41.5 -20l-113 -14q-37 -5 -50.5 5.5t-20.5 49.5
q-58 263 -58 420zM915 422q0 41 -8.5 75.5t-27 64t-53 46.5t-81.5 17q-89 0 -129.5 -58t-40.5 -145q0 -117 68 -197h84q87 0 137.5 48t50.5 149z" />
    <glyph glyph-name="uniFEE2" unicode="&#x645;" horiz-adv-x="1304" arabic-form="final" 
d="M1151 428q0 -123 -59 -203h213v-225h-801q-125 0 -167 -29.5t-42 -113.5q0 -132 55 -377q7 -33 -5.5 -48t-41.5 -20l-113 -14q-37 -5 -50.5 5.5t-20.5 49.5q-58 263 -58 420q0 178 87 262.5t258 89.5q-66 104 -66 232q0 173 107.5 280t297.5 107q191 0 298.5 -108.5
t107.5 -307.5zM918 422q0 87 -41 145t-132 58q-46 0 -80.5 -17t-54 -46.5t-28.5 -64.5t-9 -75q0 -115 70 -197h84q87 0 139 48t52 149z" />
    <glyph glyph-name="uniFEE3" unicode="&#x645;" horiz-adv-x="1067" arabic-form="initial" 
d="M-20 225h237q-63 101 -63 232q0 173 107.5 280t297.5 107q189 0 296.5 -108.5t107.5 -307.5q0 -212 -116.5 -320t-330.5 -108h-536q-66 0 -66 113q0 112 66 112zM453 225h88q85 0 136.5 48.5t51.5 150.5q0 41 -8.5 75.5t-27 64t-53 46.5t-81.5 17q-63 0 -103 -30.5
t-54.5 -73.5t-14.5 -99q0 -118 66 -199z" />
    <glyph glyph-name="uniFEE4" unicode="&#x645;" horiz-adv-x="1138" arabic-form="medial" 
d="M-20 225h184v39q0 172 107.5 278.5t297.5 106.5t297 -107t107 -306v-11h166v-225h-219q-105 -193 -394 -193h-127q-46 0 -67.5 11.5t-44.5 48.5q-46 74 -70 133h-237q-66 0 -66 113q0 112 66 112zM455 33h96q85 0 136.5 48t51.5 150q0 87 -39.5 143t-130.5 56
q-92 0 -132 -56t-40 -143q0 -102 58 -198z" />
    <glyph glyph-name="uniFEE5" unicode="&#x646;" horiz-adv-x="1363" arabic-form="isolated" 
d="M1235 612v-522q0 -264 -146 -402.5t-427 -138.5q-267 0 -417.5 130.5t-150.5 386.5q0 166 82 333q18 33 33 41t47 -4l96 -43q27 -11 33.5 -26.5t-4.5 -49.5q-53 -126 -53 -249q0 -147 87 -223t253 -76q173 0 255.5 81.5t82.5 247.5v514q0 47 49 47h131q26 0 37.5 -10
t11.5 -37zM715 821q-51 0 -84 30.5t-33 80.5t33.5 81t83.5 31q52 0 85.5 -31t33.5 -81t-33.5 -80.5t-85.5 -30.5z" />
    <glyph glyph-name="uniFEE6" unicode="&#x646;" horiz-adv-x="1404" arabic-form="final" 
d="M1231 0v6q-23 -224 -167.5 -340.5t-401.5 -116.5q-267 0 -417.5 130.5t-150.5 386.5q0 166 82 333q18 33 33 41t47 -4l96 -43q27 -11 33.5 -26.5t-4.5 -49.5q-53 -126 -53 -249q0 -147 87 -223t253 -76q173 0 255.5 81.5t82.5 247.5v514q0 47 49 47h131q26 0 37.5 -10
t11.5 -37v-387h170v-225h-174zM715 821q-51 0 -84 30.5t-33 80.5t33.5 81t83.5 31q52 0 85.5 -31t33.5 -81t-33.5 -80.5t-85.5 -30.5z" />
    <glyph glyph-name="uniFEE7" unicode="&#x646;" horiz-adv-x="622" arabic-form="initial" 
d="M-20 225h180q60 0 79 21t19 84v463q0 27 12.5 39t40.5 12h123q28 0 40.5 -12t12.5 -39v-537q0 -128 -74 -192t-231 -64h-202q-66 0 -66 113q0 112 66 112zM356 1090q-51 0 -83.5 30t-32.5 80t33 81.5t83 31.5q52 0 85.5 -31.5t33.5 -81.5t-33.5 -80t-85.5 -30z" />
    <glyph glyph-name="uniFEE8" unicode="&#x646;" horiz-adv-x="733" arabic-form="medial" 
d="M203 0h-223q-66 0 -66 113q0 112 66 112h200q60 0 79.5 21t19.5 84v463q0 27 12.5 39t40.5 12h123q28 0 40.5 -12t12.5 -39v-508q66 -60 213 -60h12v-225h-12q-173 0 -252 102q-67 -102 -266 -102zM369 1090q-51 0 -84 30t-33 80t33.5 81.5t83.5 31.5q52 0 85 -31.5
t33 -81.5t-33 -80t-85 -30z" />
    <glyph glyph-name="uniFEE9" unicode="&#x647;" horiz-adv-x="1617" arabic-form="isolated" 
d="M950 561q0 61 -59.5 103.5t-130.5 42.5q-61 0 -101.5 -35.5t-40.5 -96.5q0 -123 162 -235q83 48 126.5 106.5t43.5 114.5zM1155 201q117 0 117 90q0 102 -135 233v-2q2 -10 2 -24q0 -130 -150 -265q91 -32 166 -32zM551 823l-78 31q-54 19 -33 59l52 97q11 22 21.5 27.5
t37.5 -1.5q232 -66 417.5 -162t300.5 -201t175.5 -213.5t60.5 -209.5q0 -124 -84.5 -191t-232.5 -67q-202 0 -410 108q-238 -100 -563 -100h-86q-27 0 -37 11.5t-10 37.5v125q0 51 47 51h98q179 0 328 33q-149 152 -149 320q0 72 45 140.5t98 102.5z" />
    <glyph glyph-name="uniFEEA" unicode="&#x647;" horiz-adv-x="1071" arabic-form="final" 
d="M868 977v-623q0 -69 31.5 -99t112.5 -30h59v-225h-74q-254 0 -329 143q-100 -41 -226 -41q-68 0 -128 15t-110.5 46.5t-80 87t-29.5 128.5q0 66 28 130t89 130t170 128.5t258 113.5v67q0 26 8 37t29 14l147 19q45 6 45 -41zM328 414q0 -44 36.5 -68t104.5 -24
q76 0 170 32v320q-144 -51 -227.5 -119t-83.5 -141z" />
    <glyph glyph-name="uniFEEB" unicode="&#x647;" horiz-adv-x="1454" arabic-form="initial" 
d="M786 561q0 61 -59.5 103.5t-130.5 42.5q-61 0 -101 -35.5t-40 -96.5q0 -124 161 -235q83 48 126.5 106.5t43.5 114.5zM991 201q117 0 117 90q0 102 -135 233v-2q2 -10 2 -24q0 -130 -150 -265q91 -32 166 -32zM51 0h-71q-66 0 -66 113q0 112 66 112h83q179 0 328 33
q-149 152 -149 320q0 72 45 140.5t98 102.5l2 2l-78 31q-54 19 -33 59l52 97q11 22 21.5 27.5t37.5 -1.5q232 -66 417.5 -162t300.5 -201t175.5 -213.5t60.5 -209.5q0 -124 -84.5 -191t-232.5 -67q-202 0 -410 108q-238 -100 -563 -100z" />
    <glyph glyph-name="uniFEEC" unicode="&#x647;" horiz-adv-x="1241" arabic-form="medial" 
d="M47 0h-67q-66 0 -66 113q0 112 66 112h67q123 0 191 8q33 300 172 474t331 174q143 0 233.5 -88.5t90.5 -219.5q0 -101 -70 -194.5t-188 -145.5v-2q102 -6 367 -6h67v-225h-67q-133 0 -287 29v-2q85 -52 141.5 -135.5t56.5 -163.5q0 -137 -100.5 -229.5t-247.5 -92.5
q-86 0 -167 38t-150 110.5t-118 190.5t-66 267q-132 -12 -189 -12zM745 -373q50 0 83.5 32.5t33.5 82.5q0 36 -22.5 75.5t-67 81t-125 77.5t-184.5 57q5 -98 38.5 -188.5t98 -154t145.5 -63.5zM467 244q98 22 172 60.5t114 82.5t59 85.5t19 80.5q0 50 -27.5 78t-70.5 28
q-100 0 -168.5 -114t-97.5 -301z" />
    <glyph glyph-name="uniFEED" unicode="&#x648;" horiz-adv-x="1040" arabic-form="isolated" 
d="M680 266v183q0 176 -162 176q-88 0 -134 -52.5t-46 -142.5q0 -106 44.5 -157.5t139.5 -51.5q87 0 158 45zM649 37q-78 -37 -170 -37q-167 0 -271 114.5t-104 313.5q0 189 109.5 302.5t298.5 113.5q184 0 290.5 -100t106.5 -298v-198q0 -111 -11 -188.5t-40.5 -150
t-85 -130.5t-138.5 -115t-208 -119q-45 -22 -68 23l-57 104q-11 24 -3 39.5t38 30.5q143 76 214 141t99 154z" />
    <glyph glyph-name="uniFEEE" unicode="&#x648;" horiz-adv-x="1114" arabic-form="final" 
d="M426 -455q-45 -22 -68 23l-57 104q-11 24 -3 39.5t38 30.5q128 69 197 127t102 131h-113q-202 0 -310 106t-108 322q0 189 109.5 302.5t298.5 113.5q184 0 290.5 -100t106.5 -298v-221h205v-225h-227q-34 -140 -136.5 -241.5t-324.5 -213.5zM559 225h121v224
q0 176 -162 176q-88 0 -134 -52.5t-46 -142.5q0 -119 50 -162t171 -43z" />
    <glyph glyph-name="uniFEEF" unicode="&#x649;" horiz-adv-x="1748" arabic-form="isolated" 
d="M1522 606q-149 76 -281 76q-104 0 -162.5 -47t-58.5 -117q0 -59 49 -108t186 -123q53 -29 89.5 -51t79.5 -55t69 -63.5t43.5 -71t17.5 -83.5q0 -182 -203 -298t-530 -116q-352 0 -542.5 132.5t-190.5 388.5q0 176 98 370q13 24 22 34t25 13.5t37 -8.5l99 -45
q28 -12 33.5 -28t-9.5 -48q-71 -145 -71 -272q0 -315 501 -315q217 0 357.5 54t140.5 126q0 21 -14.5 41.5t-46.5 44t-61 41t-79 45.5q-58 33 -96.5 57.5t-88 63.5t-78.5 76t-50 87.5t-21 104.5q0 123 63 213t163.5 133t224.5 43q191 0 360 -102q31 -19 38 -33t-3 -39
l-47 -106q-16 -38 -63 -15z" />
    <glyph glyph-name="uniFEF0" unicode="&#x649;" horiz-adv-x="1589" arabic-form="final" 
d="M823 -229q229 0 366.5 49t137.5 117q0 37 -48 70.5t-155 70.5l-190 65q-48 16 -33 66l33 104q17 59 76 39l118 -41q145 -51 233 -68.5t187 -17.5h41v-225h-49q21 -37 21 -74q0 -162 -205 -269.5t-535 -107.5q-352 0 -542.5 132.5t-190.5 388.5q0 176 98 370q13 24 22 34
t25 13.5t37 -8.5l99 -45q28 -12 33.5 -28t-9.5 -48q-71 -145 -71 -272q0 -315 501 -315z" />
    <glyph glyph-name="uniFEF1" unicode="&#x64a;" horiz-adv-x="1748" arabic-form="isolated" 
d="M1522 606q-149 76 -281 76q-104 0 -162.5 -47t-58.5 -117q0 -59 49 -108t186 -123q53 -29 89.5 -51t79.5 -55t69 -63.5t43.5 -71t17.5 -83.5q0 -182 -203 -298t-530 -116q-352 0 -542.5 132.5t-190.5 388.5q0 176 98 370q13 24 22 34t25 13.5t37 -8.5l99 -45
q28 -12 33.5 -28t-9.5 -48q-71 -145 -71 -272q0 -315 501 -315q217 0 357.5 54t140.5 126q0 21 -14.5 41.5t-46.5 44t-61 41t-79 45.5q-58 33 -96.5 57.5t-88 63.5t-78.5 76t-50 87.5t-21 104.5q0 123 63 213t163.5 133t224.5 43q191 0 360 -102q31 -19 38 -33t-3 -39
l-47 -106q-16 -38 -63 -15zM702 -899q-52 0 -85 30.5t-33 80.5t33 81t85 31q50 0 83.5 -31t33.5 -81t-33 -80.5t-84 -30.5zM1004 -899q-52 0 -85.5 30.5t-33.5 80.5t33.5 81t85.5 31q50 0 83 -31t33 -81t-33 -80.5t-83 -30.5z" />
    <glyph glyph-name="uniFEF2" unicode="&#x64a;" horiz-adv-x="1589" arabic-form="final" 
d="M823 -229q229 0 366.5 49t137.5 117q0 37 -48 70.5t-155 70.5l-190 65q-48 16 -33 66l33 104q17 59 76 39l118 -41q145 -51 233 -68.5t187 -17.5h41v-225h-49q21 -37 21 -74q0 -162 -205 -269.5t-535 -107.5q-352 0 -542.5 132.5t-190.5 388.5q0 176 98 370q13 24 22 34
t25 13.5t37 -8.5l99 -45q28 -12 33.5 -28t-9.5 -48q-71 -145 -71 -272q0 -315 501 -315zM702 -899q-52 0 -85 30.5t-33 80.5t33 81t85 31q50 0 83.5 -31t33.5 -81t-33 -80.5t-84 -30.5zM1004 -899q-52 0 -85.5 30.5t-33.5 80.5t33.5 81t85.5 31q50 0 83 -31t33 -81
t-33 -80.5t-83 -30.5z" />
    <glyph glyph-name="uniFEF3" unicode="&#x64a;" horiz-adv-x="622" arabic-form="initial" 
d="M-20 225h180q60 0 79 21t19 84v463q0 27 12.5 39t40.5 12h123q28 0 40.5 -12t12.5 -39v-537q0 -128 -74 -192t-231 -64h-202q-66 0 -66 113q0 112 66 112zM6 -469q-52 0 -85.5 30.5t-33.5 80.5t33.5 81t85.5 31q50 0 83.5 -31t33.5 -81t-33 -80.5t-84 -30.5zM307 -469
q-52 0 -85.5 30.5t-33.5 80.5t33.5 81t85.5 31q50 0 83.5 -31t33.5 -81t-33 -80.5t-84 -30.5z" />
    <glyph glyph-name="uniFEF4" unicode="&#x64a;" horiz-adv-x="733" arabic-form="medial" 
d="M203 0h-223q-66 0 -66 113q0 112 66 112h200q60 0 79.5 21t19.5 84v463q0 27 12.5 39t40.5 12h123q28 0 40.5 -12t12.5 -39v-508q66 -60 213 -60h12v-225h-12q-173 0 -252 102q-67 -102 -266 -102zM27 -469q-52 0 -85.5 30.5t-33.5 80.5t33.5 81t85.5 31q50 0 83 -31
t33 -81t-33 -80.5t-83 -30.5zM328 -469q-52 0 -85.5 30.5t-33.5 80.5t33.5 81t85.5 31q50 0 83 -31t33 -81t-33 -80.5t-83 -30.5z" />
    <glyph glyph-name=".notdef" horiz-adv-x="1095" 
d="M41 0v1419h1014v-1419h-1014zM549 801l344 518h-690zM608 711l346 -518v1034zM203 102h690l-344 516zM143 1227v-1034l344 518z" />
    <glyph glyph-name=".null" 
 />
    <glyph glyph-name=".null" 
 />
    <glyph glyph-name="nonmarkingreturn" horiz-adv-x="682" 
 />
    <glyph glyph-name="uni06A1.init" horiz-adv-x="1067" 
d="M-20 225h237q-63 101 -63 232q0 173 107.5 280t297.5 107q189 0 296.5 -108.5t107.5 -307.5q0 -212 -116.5 -320t-330.5 -108h-536q-66 0 -66 113q0 112 66 112zM453 225h88q85 0 136.5 48.5t51.5 150.5q0 41 -8.5 75.5t-27 64t-53 46.5t-81.5 17q-63 0 -103 -30.5
t-54.5 -73.5t-14.5 -99q0 -118 66 -199z" />
    <glyph glyph-name="uni06A1.medi" horiz-adv-x="1058" 
d="M-20 225h145q107 0 156 6q-83 68 -126.5 152.5t-43.5 165.5q0 142 113.5 240t301.5 98q190 0 305 -98t115 -240q0 -81 -43.5 -165.5t-126.5 -152.5q49 -6 156 -6h127v-225h-127q-225 0 -406 70q-179 -70 -401 -70h-145q-66 0 -66 113q0 112 66 112zM528 289
q91 47 137 112.5t46 122.5q0 63 -48 103.5t-135 40.5t-134.5 -40.5t-47.5 -103.5q0 -57 45.5 -122.5t136.5 -112.5z" />
    <glyph glyph-name="uni06A1.fina" horiz-adv-x="2082" 
d="M1554 289q90 48 136.5 113t46.5 122q0 62 -49 103t-134 41t-133.5 -41t-48.5 -103q0 -57 46 -122t136 -113zM2083 225v-225h-125q-225 0 -404 70q-179 -70 -403 -70h-549q-245 0 -374.5 114t-129.5 318v236q0 27 13 39t41 12h122q28 0 41 -12t13 -39v-136
q0 -171 69.5 -239t251.5 -68h502q107 0 156 6q-83 68 -126.5 152.5t-43.5 165.5q0 142 114 240t303 98t303.5 -98t114.5 -240q0 -81 -43.5 -165.5t-126.5 -152.5q49 -6 156 -6h125z" />
    <glyph glyph-name="uni06C2.fina" horiz-adv-x="1083" 
d="M322 164v-223q0 -52 -54 -52h-123q-28 0 -40.5 12t-12.5 40v229q0 78 24.5 139t66 97.5t93 55.5t109.5 19q34 0 63 -3.5t59.5 -16t48.5 -20t52.5 -31.5t48 -34.5t56.5 -43.5q74 -58 138 -82.5t159 -24.5h73v-225h-45q-150 0 -248.5 38.5t-203.5 127.5q-45 37 -67.5 53.5
t-52 29.5t-58.5 13q-86 0 -86 -98zM225 827h60q-37 53 -37 119q0 85 59.5 137t147.5 52q85 0 159 -48q29 -21 15 -43l-21 -51q-7 -15 -13 -18.5t-22 4.5q-60 29 -104 29q-39 0 -63.5 -24.5t-24.5 -65.5q0 -47 33 -91h209q17 0 22.5 -6t5.5 -22v-70q0 -29 -28 -29h-398
q-16 0 -22 7.5t-6 23.5v68q0 16 5.5 22t22.5 6z" />
    <glyph glyph-name="uni06C3.fina" horiz-adv-x="1071" 
d="M868 977v-623q0 -69 31.5 -99t112.5 -30h59v-225h-74q-254 0 -329 143q-100 -41 -226 -41q-68 0 -128 15t-110.5 46.5t-80 87t-29.5 128.5q0 66 28 130t89 130t170 128.5t258 113.5v67q0 26 8 37t29 14l147 19q45 6 45 -41zM328 414q0 -44 36.5 -68t104.5 -24
q76 0 170 32v320q-144 -51 -227.5 -119t-83.5 -141zM588 1260q-52 0 -85.5 30t-33.5 80t33.5 81.5t85.5 31.5q50 0 83.5 -31.5t33.5 -81.5t-33 -80t-84 -30zM889 1260q-52 0 -85.5 30t-33.5 80t33.5 81.5t85.5 31.5q50 0 83.5 -31.5t33.5 -81.5t-33 -80t-84 -30z" />
    <glyph glyph-name="uni06D5.fina" horiz-adv-x="1071" 
d="M868 977v-623q0 -69 31.5 -99t112.5 -30h59v-225h-74q-254 0 -329 143q-100 -41 -226 -41q-68 0 -128 15t-110.5 46.5t-80 87t-29.5 128.5q0 66 28 130t89 130t170 128.5t258 113.5v67q0 26 8 37t29 14l147 19q45 6 45 -41zM328 414q0 -44 36.5 -68t104.5 -24
q76 0 170 32v320q-144 -51 -227.5 -119t-83.5 -141z" />
    <glyph glyph-name="uniFBE8" horiz-adv-x="622" 
d="M-20 225h180q60 0 79 21t19 84v463q0 27 12.5 39t40.5 12h123q28 0 40.5 -12t12.5 -39v-537q0 -128 -74 -192t-231 -64h-202q-66 0 -66 113q0 112 66 112z" />
    <glyph glyph-name="uniFBE9" horiz-adv-x="733" 
d="M203 0h-223q-66 0 -66 113q0 112 66 112h200q60 0 79.5 21t19.5 84v463q0 27 12.5 39t40.5 12h123q28 0 40.5 -12t12.5 -39v-508q66 -60 213 -60h12v-225h-12q-173 0 -252 102q-67 -102 -266 -102z" />
    <glyph glyph-name="glyph200" horiz-adv-x="1095" 
d="M41 0v1419h1014v-1419h-1014zM549 801l344 518h-690zM608 711l346 -518v1034zM203 102h690l-344 516zM143 1227v-1034l344 518z" />
    <glyph glyph-name="CR" unicode="&#xd;" horiz-adv-x="495" 
 />
    <glyph glyph-name="space" unicode=" " horiz-adv-x="495" 
 />
    <glyph glyph-name="exclam" unicode="!" horiz-adv-x="530" 
d="M403 106q0 -58 -42 -94.5t-95 -36.5q-54 0 -96.5 35t-42.5 94q0 61 41.5 97.5t97.5 36.5t96.5 -36t40.5 -96zM389 1378l-24 -1024q0 -21 -9 -30t-30 -9h-111q-24 0 -32.5 9t-8.5 32l-22 1022q0 22 7.5 30.5t28.5 8.5h164q21 0 29 -8.5t8 -30.5z" />
    <glyph glyph-name="quotedbl" unicode="&#x22;" horiz-adv-x="677" 
d="M297 1407l-16 -324q-2 -22 -8.5 -30.5t-26.5 -8.5h-113q-20 0 -26.5 8.5t-8.5 30.5l-16 324q0 19 9 28t32 9h133q24 0 33.5 -9.5t7.5 -27.5zM594 1407l-16 -324q-2 -22 -8.5 -30.5t-26.5 -8.5h-113q-20 0 -26.5 8.5t-8.5 30.5l-16 324q0 19 9 28t32 9h133q24 0 33.5 -9.5
t7.5 -27.5z" />
    <glyph glyph-name="numbersign" unicode="#" horiz-adv-x="1148" 
d="M895 819l-35 -227h152q22 0 30.5 -8.5t6.5 -28.5l-15 -117q-3 -20 -11.5 -26t-27.5 -6h-166l-55 -375q-3 -19 -10.5 -25t-26.5 -6h-149q-24 0 -32 8.5t-5 30.5l55 367h-168l-55 -375q-3 -19 -10.5 -25t-26.5 -6h-149q-24 0 -32 8.5t-5 30.5l55 367h-141q-23 0 -31 8.5
t-6 27.5l14 117q3 20 11.5 26.5t27.5 6.5h154l35 227h-142q-22 0 -30.5 8.5t-6.5 28.5l15 117q3 20 11.5 26.5t27.5 6.5h153l58 380q3 19 10 25t26 6h150q24 0 32 -8.5t5 -30.5l-58 -372h170l60 380q3 19 10.5 25t26.5 6h149q24 0 32 -8.5t5 -30.5l-61 -372h153
q22 0 30.5 -8.5t6.5 -28.5l-14 -117q-3 -20 -11.5 -26.5t-27.5 -6.5h-164zM672 819h-166l-39 -227h170z" />
    <glyph glyph-name="dollar" unicode="$" horiz-adv-x="1148" 
d="M1044 403q0 -176 -107 -283.5t-280 -135.5v-150q0 -19 -1.5 -26.5t-10 -12t-27.5 -4.5h-51q-24 0 -30.5 9t-6.5 34v141q-179 0 -368 66q-27 10 -33 24.5t2 43.5l37 129q12 41 65 24q152 -57 295 -63h2v434l-170 82q-112 54 -174.5 141.5t-62.5 204.5q0 109 59 194
t149.5 131t198.5 56v162q0 32 31 32h62q21 0 27.5 -6.5t6.5 -27.5v-158q154 -9 301 -72q37 -15 37 -41q0 -8 -4 -20l-45 -127q-10 -27 -30 -29.5t-44 10.5q-104 45 -215 60v-396l97 -45q290 -136 290 -381zM530 889v334q-61 -10 -105 -51.5t-44 -102.5q0 -64 37 -103.5
t112 -76.5zM797 387q0 63 -39.5 111t-100.5 75v-358q63 20 101.5 64t38.5 108z" />
    <glyph glyph-name="percent" unicode="%" horiz-adv-x="1630" 
d="M1360 1397l-858 -1383q-13 -23 -27.5 -31t-42.5 -8h-125q-28 0 -38 13t3 35l858 1382q13 23 27.5 31t42.5 8h125q28 0 38 -12.5t-3 -34.5zM1556 360q0 -170 -80 -269t-223 -99t-223 99t-80 269q0 171 80 270t223 99t223 -99t80 -270zM1356 360q0 213 -103 213
q-102 0 -102 -213t102 -213q103 0 103 213zM680 1057q0 -171 -80 -270t-223 -99t-223 99t-80 270q0 170 80 269t223 99t223 -99t80 -269zM479 1057q0 213 -102 213q-103 0 -103 -213t103 -213q102 0 102 213z" />
    <glyph glyph-name="ampersand" unicode="&#x26;" horiz-adv-x="1413" 
d="M1384 172q22 -6 26.5 -14.5t-1.5 -30.5l-35 -115q-5 -16 -13 -23t-26 -7q-69 0 -183 52.5t-181 123.5q-209 -183 -459 -183q-126 0 -230.5 50t-167.5 145.5t-63 218.5q0 73 26.5 137.5t76 117.5t100 92t119.5 81l-56 64q-57 65 -84.5 123.5t-27.5 128.5q0 133 109 222
t257 89q149 0 250 -85t101 -220q0 -43 -14.5 -85t-36 -74.5t-55 -66.5t-63 -58t-69.5 -52l305 -348q127 171 141 407q1 23 9.5 31t29.5 8h123q22 0 29.5 -7t7.5 -26q0 -161 -60 -309.5t-143 -247.5q98 -92 258 -139zM702 1135q0 53 -35 89t-92 36q-54 0 -89 -34t-35 -85
q0 -63 67 -142l47 -55q55 38 96 90t41 101zM831 295l-337 383q-89 -65 -140 -129.5t-51 -140.5q0 -100 69.5 -164t172.5 -64q82 0 159 31.5t127 83.5z" />
    <glyph glyph-name="quotesingle" unicode="'" horiz-adv-x="380" 
d="M297 1407l-16 -324q-2 -22 -8.5 -30.5t-26.5 -8.5h-113q-20 0 -26.5 8.5t-8.5 30.5l-16 324q0 19 9 28t32 9h133q24 0 33.5 -9.5t7.5 -27.5z" />
    <glyph glyph-name="parenleft" unicode="(" horiz-adv-x="669" 
d="M330 600q0 -412 264 -766q28 -36 -4 -53l-98 -55q-33 -17 -60 14q-165 184 -255.5 405.5t-90.5 454.5t90.5 454.5t255.5 405.5q28 32 60 15l98 -56q32 -17 4 -53q-264 -354 -264 -766z" />
    <glyph glyph-name="parenright" unicode=")" horiz-adv-x="669" 
d="M340 600q0 412 -264 766q-28 36 4 53l98 56q32 17 60 -15q165 -184 255.5 -405.5t90.5 -454.5t-90.5 -454.5t-255.5 -405.5q-27 -31 -60 -14l-98 55q-32 17 -4 53q264 354 264 766z" />
    <glyph glyph-name="asterisk" unicode="*" horiz-adv-x="753" 
d="M453 1149l155 -145q24 -24 -8 -46l-100 -63q-17 -11 -27.5 -8t-17.5 22l-78 189l-78 -189q-7 -19 -17.5 -22t-27.5 8l-100 63q-33 22 -9 46l158 145l-192 16q-23 1 -29.5 10.5t0.5 28.5l41 121q11 36 47 14l166 -102l-45 195q-5 22 1 31.5t25 9.5h121q35 0 27 -41
l-45 -195l164 102q36 22 47 -14l41 -121q7 -19 0.5 -28.5t-29.5 -10.5z" />
    <glyph glyph-name="plus" unicode="+" horiz-adv-x="1071" 
d="M428 129v303h-301q-28 0 -38.5 12.5t-10.5 38.5v115q0 27 10 38t37 11h303v297q0 30 11.5 41.5t39.5 11.5h109q30 0 42.5 -11t12.5 -40v-299h297q30 0 41.5 -11.5t11.5 -39.5v-109q0 -30 -11 -42.5t-40 -12.5h-299v-301q0 -28 -12.5 -38.5t-38.5 -10.5h-115q-27 0 -38 10
t-11 37z" />
    <glyph glyph-name="comma" unicode="," horiz-adv-x="448" 
d="M377 78q0 -108 -57.5 -205t-149.5 -162q-20 -14 -37 -14q-16 0 -31 18l-20 25q-17 22 6 45q84 84 84 147q0 29 -42 85.5t-42 95.5q0 59 41 98t100 39q63 0 105.5 -53t42.5 -119z" />
    <glyph glyph-name="hyphen" unicode="-" horiz-adv-x="587" 
d="M516 606v-129q0 -30 -11 -42.5t-40 -12.5h-344q-28 0 -38.5 13t-10.5 40v133q0 27 10 38t37 11h344q30 0 41.5 -11.5t11.5 -39.5z" />
    <glyph glyph-name="period" unicode="." horiz-adv-x="448" 
d="M381 113q0 -60 -44.5 -99t-100.5 -39q-58 0 -102 37.5t-44 98.5q0 63 43 101t103 38q59 0 102 -37.5t43 -99.5z" />
    <glyph glyph-name="slash" unicode="/" horiz-adv-x="688" 
d="M672 1395l-430 -1379q-7 -25 -18.5 -33t-37.5 -8h-139q-45 0 -31 50l430 1378q7 25 18.5 33t37.5 8h139q45 0 31 -49z" />
    <glyph glyph-name="zero" unicode="0" horiz-adv-x="1148" 
d="M1081 713q0 -120 -17 -226t-55.5 -201t-96.5 -163t-144 -108t-193 -40t-193.5 38.5t-144 105.5t-96.5 160t-56 198.5t-17 224.5q0 118 18.5 225t59 202t99.5 164.5t145 110t190 40.5q106 0 191.5 -39.5t142.5 -107t95.5 -161.5t55 -199t16.5 -224zM807 713
q0 504 -227 504q-122 0 -180 -134t-58 -370q0 -244 54.5 -376t178.5 -132q64 0 110 36t72 105t38 159t12 208z" />
    <glyph glyph-name="one" unicode="1" horiz-adv-x="1148" 
d="M831 1366v-1305q0 -35 -14.5 -48t-48.5 -13h-133q-40 0 -53 11.5t-13 47.5v1069l-284 -161q-52 -30 -76 18l-49 96q-22 47 20 70l410 244q38 22 92 22h98q51 0 51 -51z" />
    <glyph glyph-name="two" unicode="2" horiz-adv-x="1148" 
d="M1047 1049q0 -57 -15 -113.5t-46.5 -112.5t-65.5 -104.5t-87.5 -106.5t-96 -100t-105.5 -102q-21 -20 -95 -89t-108 -102h543q32 0 45.5 -11t13.5 -40v-109q0 -59 -59 -59h-803q-36 0 -50 14t-14 49v99q0 30 7.5 47t29.5 39q61 62 192.5 185.5t190.5 184.5
q126 131 190 230.5t64 183.5q0 92 -58 140.5t-153 48.5q-129 0 -295 -91q-46 -24 -67 21l-47 102q-20 47 22 70q198 121 422 121q197 0 321 -104t124 -291z" />
    <glyph glyph-name="three" unicode="3" horiz-adv-x="1148" 
d="M1022 420q0 -132 -72 -235t-187 -156.5t-249 -53.5q-218 0 -375 80q-47 23 -28 78l36 100q14 44 66 23q150 -66 285 -66q122 0 193 65.5t71 172.5q0 66 -29.5 114t-79 73.5t-104 37t-115.5 11.5h-37q-49 0 -49 55v86q0 27 10 40t37 13h68q116 0 180 50t64 151
q0 84 -56 130t-151 46q-120 0 -258 -72q-49 -24 -66 19l-39 98q-14 40 19 61q159 103 385 103q83 0 159 -23.5t136 -67.5t95.5 -114.5t35.5 -157.5q0 -108 -62 -194t-157 -117q115 -31 194.5 -126t79.5 -224z" />
    <glyph glyph-name="four" unicode="4" horiz-adv-x="1148" 
d="M1022 844v-793q0 -51 -57 -51h-150q-28 0 -41.5 12t-13.5 41v254h-645q-34 0 -46 16.5t-12 47.5v75q0 50 27 103l387 815q13 29 28 41t44 12h147q31 0 39.5 -19.5t-4.5 -45.5l-381 -826h416v318q0 29 14 40t43 11h148q30 0 43.5 -11t13.5 -40z" />
    <glyph glyph-name="five" unicode="5" horiz-adv-x="1148" 
d="M1065 446q0 -219 -152 -345t-385 -126q-199 0 -378 95q-48 25 -27 73l47 109q20 45 70 16q134 -75 301 -75q113 0 186.5 64.5t73.5 176.5q0 125 -78 193q-90 78 -272 78h-170q-37 0 -53.5 19t-16.5 58v566q0 39 15 54t50 15h664q31 0 45 -13.5t14 -43.5v-107
q0 -30 -13 -43.5t-44 -13.5h-471v-297h37q114 0 212 -26t176.5 -79t123.5 -142t45 -206z" />
    <glyph glyph-name="six" unicode="6" horiz-adv-x="1148" 
d="M1071 483q0 -102 -32.5 -194t-91.5 -162t-149.5 -111t-199.5 -41q-112 0 -200 36t-144 95.5t-93 143t-52 172.5t-15 190q0 128 23 247t73 226t122.5 186.5t179 126t235.5 46.5q105 0 203 -31q25 -7 32.5 -21.5t2.5 -39.5l-25 -111q-5 -21 -20.5 -30.5t-38.5 -2.5
q-76 23 -136 23q-71 0 -129 -21.5t-98 -58.5t-68.5 -89t-43.5 -109.5t-21 -123.5q105 86 256 86q192 0 311 -112t119 -320zM803 465q0 103 -49 170t-148 67q-62 0 -129.5 -29t-111.5 -73v-51q0 -170 60 -263t175 -93q69 0 117 43t67 102t19 127z" />
    <glyph glyph-name="seven" unicode="7" horiz-adv-x="1148" 
d="M1065 1362v-100q0 -43 -23 -93l-538 -1116q-17 -32 -35.5 -42.5t-54.5 -10.5h-181q-29 0 -37.5 23.5t5.5 46.5l557 1122h-582q-53 0 -53 57v113q0 28 11 41.5t40 13.5h834q31 0 44 -13t13 -42z" />
    <glyph glyph-name="eight" unicode="8" horiz-adv-x="1148" 
d="M1077 418q0 -133 -70.5 -235.5t-185 -155t-250.5 -52.5q-103 0 -192 26.5t-157.5 77.5t-108 132.5t-39.5 183.5q0 117 76.5 213.5t193.5 151.5q-92 44 -150.5 128t-58.5 183q0 113 60.5 199t161.5 130t225 44q187 0 308.5 -97t121.5 -270q0 -92 -62.5 -177t-152.5 -132
q127 -52 203.5 -145t76.5 -205zM752 1069q0 76 -49.5 124t-131.5 48q-73 0 -125.5 -48t-52.5 -116q0 -71 54 -128t137 -97q168 93 168 217zM813 406q0 161 -256 260q-94 -45 -156.5 -110t-62.5 -148q0 -100 70.5 -164t169.5 -64q101 0 168 60.5t67 165.5z" />
    <glyph glyph-name="nine" unicode="9" horiz-adv-x="1148" 
d="M84 936q0 102 32.5 194t91.5 162t149.5 111t199.5 41q112 0 200 -36t144 -95.5t93 -143t52 -172.5t15 -190q0 -128 -23 -247t-73 -226t-122.5 -186.5t-179 -126t-235.5 -46.5q-105 0 -203 31q-45 13 -35 62l25 110q5 21 20.5 30.5t38.5 2.5q76 -23 136 -23q71 0 129 21.5
t98 58.5t68.5 89t43.5 109.5t21 123.5q-105 -86 -256 -86q-192 0 -311 112t-119 320zM352 954q0 -103 49 -170t148 -67q62 0 130.5 29t111.5 73v51q0 170 -60.5 263.5t-175.5 93.5q-53 0 -93.5 -24.5t-63.5 -65.5t-34.5 -87.5t-11.5 -95.5z" />
    <glyph glyph-name="colon" unicode=":" horiz-adv-x="485" 
d="M403 881q0 -61 -45 -99.5t-100 -38.5q-57 0 -101 38t-44 100q0 64 43 101.5t102 37.5q58 0 101.5 -38t43.5 -101zM403 115q0 -61 -45 -100.5t-100 -39.5q-57 0 -101 38t-44 100q0 64 43 100.5t102 36.5q58 0 101.5 -36t43.5 -99z" />
    <glyph glyph-name="semicolon" unicode=";" horiz-adv-x="485" 
d="M403 881q0 -61 -45 -99.5t-100 -38.5q-57 0 -101 38t-44 100q0 64 43 101.5t102 37.5q58 0 101.5 -38t43.5 -101zM401 78q0 -108 -57 -205.5t-149 -161.5q-20 -14 -37 -14q-16 0 -31 18l-21 25q-16 22 7 45q84 84 84 147q0 29 -42 85.5t-42 95.5q0 59 41 98t100 39
q63 0 105 -53t42 -119z" />
    <glyph glyph-name="less" unicode="&#x3c;" horiz-adv-x="1071" 
d="M109 524v62q0 22 7 34.5t27 24.5l676 418q42 25 60 -8l71 -121q11 -18 9 -29.5t-21 -23.5l-516 -326l516 -326q19 -12 21 -23.5t-9 -29.5l-71 -121q-18 -33 -60 -8l-676 418q-20 12 -27 24.5t-7 34.5z" />
    <glyph glyph-name="equal" unicode="=" horiz-adv-x="1071" 
d="M942 637h-815q-28 0 -38.5 12.5t-10.5 38.5v115q0 27 10 38t37 11h815q30 0 41.5 -11.5t11.5 -39.5v-109q0 -30 -11 -42.5t-40 -12.5zM942 244h-815q-28 0 -38.5 12.5t-10.5 38.5v115q0 27 10 38t37 11h815q30 0 41.5 -11.5t11.5 -39.5v-109q0 -30 -11 -42.5t-40 -12.5z
" />
    <glyph glyph-name="greater" unicode="&#x3e;" horiz-adv-x="1071" 
d="M961 586v-62q0 -22 -7.5 -34.5t-27.5 -24.5l-676 -418q-42 -25 -60 8l-71 121q-11 18 -9 29.5t21 23.5l516 326l-516 326q-19 12 -21 23.5t9 29.5l71 121q18 33 60 8l676 -418q20 -12 27.5 -24.5t7.5 -34.5z" />
    <glyph glyph-name="question" unicode="?" horiz-adv-x="901" 
d="M827 1098q0 -151 -135 -293l-149 -158q-44 -45 -64.5 -85t-23.5 -107q0 -13 1 -43t1 -35q0 -31 -31 -31h-131q-18 0 -26.5 6.5t-12.5 24.5q-14 65 -14 121q0 132 104 239l146 150q100 105 100 186q0 91 -57 132.5t-142 41.5q-46 0 -106 -16.5t-107 -42.5q-32 -17 -43 12
l-41 111q-11 33 15 47q154 86 331 86q160 0 272.5 -94.5t112.5 -251.5zM502 106q0 -58 -42 -94.5t-95 -36.5q-54 0 -97 35t-43 94q0 61 42 97.5t98 36.5t96.5 -36t40.5 -96z" />
    <glyph glyph-name="at" unicode="@" horiz-adv-x="1703" 
d="M1612 805q0 -68 -17.5 -138.5t-53 -135t-83 -114.5t-113 -80t-137.5 -30q-78 0 -136 36.5t-71 111.5h-2q-90 -129 -227 -129q-61 0 -107.5 23.5t-73.5 64t-40.5 91.5t-13.5 111q0 82 26.5 164.5t73.5 150.5t120 111t158 43q54 0 100 -27.5t64 -76.5l15 57q5 21 30 21h95
q33 0 26 -31l-100 -414q-15 -62 -15 -104t21 -68t63 -26q95 -2 167.5 106.5t72.5 280.5q0 226 -142 351.5t-374 125.5q-129 0 -242.5 -51.5t-192 -138.5t-124 -205t-45.5 -248q0 -245 146 -376.5t394 -131.5q183 0 353 66q28 11 39 -15l28 -76q7 -14 4.5 -24.5t-20.5 -18.5
q-173 -86 -424 -86q-157 0 -293 42.5t-239 123t-162.5 206.5t-59.5 284q0 173 66.5 325t179.5 258.5t267.5 168t326.5 61.5q192 0 344 -77t240 -223.5t88 -338.5zM977 600l57 246q-25 94 -102 94q-48 0 -86.5 -35t-60 -87.5t-33 -104t-11.5 -92.5q0 -51 22 -90t68 -39
q88 0 146 108z" />
    <glyph glyph-name="A" unicode="A" horiz-adv-x="1316" 
d="M18 51l500 1325q16 41 55 41h164q45 0 58 -37l503 -1327q8 -22 0 -37.5t-30 -15.5h-187q-31 0 -45 11t-24 38l-107 301h-518l-106 -307q-13 -43 -56 -43h-176q-24 0 -31.5 14.5t0.5 36.5zM457 549h379l-146 432l-41 133h-4l-43 -135z" />
    <glyph glyph-name="B" unicode="B" horiz-adv-x="1224" 
d="M1141 414q0 -414 -559 -414h-381q-32 0 -43 13t-11 46v1305q0 31 14 42t48 11h307q254 0 384 -83t130 -263q0 -111 -61 -194t-170 -107v-2q150 -11 246 -106.5t96 -247.5zM872 422q0 136 -108 190q-75 37 -219 37h-135v-446h151q127 0 193 26q118 51 118 193zM772 1040
q0 177 -248 177h-114v-381h106q125 0 190.5 44t65.5 160z" />
    <glyph glyph-name="C" unicode="C" horiz-adv-x="1220" 
d="M1124 244l45 -121q17 -45 -28 -64q-206 -84 -408 -84q-159 0 -282.5 54t-201.5 151.5t-118.5 229.5t-40.5 292q0 157 46.5 293t130.5 235.5t210 156.5t277 57q208 0 385 -86q25 -12 30 -24t-4 -38l-47 -129q-12 -38 -51 -18q-142 74 -297 74q-83 0 -150.5 -29.5
t-112 -78.5t-75 -115.5t-44 -138t-13.5 -148.5q0 -238 106 -377t293 -139q150 0 295 65q20 10 33.5 7t21.5 -25z" />
    <glyph glyph-name="D" unicode="D" horiz-adv-x="1417" 
d="M1329 702q0 -357 -223 -548q-185 -154 -508 -154h-391q-33 0 -46.5 11.5t-13.5 45.5v1299q0 33 13.5 47t50.5 14h295q182 0 306.5 -23.5t223.5 -80.5q141 -81 217 -234.5t76 -376.5zM1047 705q0 285 -160 405q-116 84 -324 84h-149v-973h157q115 0 200.5 24t146.5 85
q129 129 129 375z" />
    <glyph glyph-name="E" unicode="E" horiz-adv-x="1101" 
d="M938 788v-120q0 -23 -10.5 -34t-38.5 -11h-475v-410h549q51 0 51 -47v-117q0 -49 -49 -49h-760q-32 0 -43.5 11t-11.5 44v1311q0 51 47 51h772q29 0 37.5 -11.5t5.5 -35.5l-15 -123q-3 -26 -18.5 -34.5t-50.5 -8.5h-514v-370h475q28 0 38.5 -11.5t10.5 -34.5z" />
    <glyph glyph-name="F" unicode="F" horiz-adv-x="1089" 
d="M197 1417h768q53 0 47 -47l-15 -123q-3 -26 -16.5 -34.5t-44.5 -8.5h-522v-370h473q51 0 51 -46v-116q0 -26 -11.5 -37.5t-37.5 -11.5h-475v-572q0 -28 -11.5 -39.5t-37.5 -11.5h-160q-32 0 -43.5 11t-11.5 44v1311q0 51 47 51z" />
    <glyph glyph-name="G" unicode="G" horiz-adv-x="1390" 
d="M1264 786v-639q0 -31 -10.5 -46.5t-39.5 -30.5q-84 -42 -212 -68.5t-246 -26.5q-314 0 -491 199.5t-177 530.5q0 213 85.5 380.5t244 263t364.5 95.5q201 0 375 -78q25 -11 29 -27t-6 -34l-50 -127q-13 -35 -57 -17q-56 24 -134 42t-144 18q-84 0 -160 -30.5t-129 -86.5
q-135 -141 -135 -391q0 -239 105.5 -377.5t289.5 -138.5q150 0 231 34v392h-182q-23 0 -34 10t-11 35v125q0 24 11 32.5t36 8.5h397q27 0 38.5 -10.5t11.5 -37.5z" />
    <glyph glyph-name="H" unicode="H" horiz-adv-x="1411" 
d="M1262 1368v-1317q0 -27 -12 -39t-38 -12h-161q-28 0 -41 12t-13 39v572h-581v-572q0 -27 -12 -39t-39 -12h-160q-55 0 -55 51v1317q0 49 55 49h160q26 0 38.5 -11t12.5 -38v-534h581v534q0 49 54 49h161q26 0 38 -11t12 -38z" />
    <glyph glyph-name="I" unicode="I" horiz-adv-x="823" 
d="M700 1378v-90q0 -24 -10 -33.5t-33 -9.5h-116v-1073h112q43 0 43 -43v-88q0 -41 -37 -41h-491q-41 0 -41 39v92q0 22 9.5 31.5t31.5 9.5h111v1073h-119q-41 0 -41 41v90q0 41 37 41h501q21 0 32 -11.5t11 -27.5z" />
    <glyph glyph-name="J" unicode="J" horiz-adv-x="858" 
d="M707 1370v-901q0 -296 -144 -410q-110 -84 -299 -84q-77 0 -147 17q-22 6 -28.5 16.5t-2.5 34.5l20 117q4 23 15 29t35 1q54 -12 104 -12q96 0 141 55q43 58 43 191v821h-231q-43 0 -43 45v84q0 43 43 43h444q23 0 36.5 -12.5t13.5 -34.5z" />
    <glyph glyph-name="K" unicode="K" horiz-adv-x="1220" 
d="M1153 0h-195q-35 0 -55.5 11.5t-42.5 39.5l-442 567h-4v-567q0 -28 -11.5 -39.5t-37.5 -11.5h-164q-28 0 -39.5 11.5t-11.5 39.5v1317q0 49 51 49h164q26 0 37.5 -11t11.5 -38v-580h4l422 592q27 37 75 37h158q37 0 37 -26q0 -17 -16 -39l-461 -619l534 -657
q25 -31 25 -49q0 -27 -39 -27z" />
    <glyph glyph-name="L" unicode="L" horiz-adv-x="1009" 
d="M981 172v-123q0 -49 -49 -49h-725q-29 0 -43 12.5t-14 44.5v1309q0 51 49 51h163q28 0 40 -12t12 -41v-1145h518q49 0 49 -47z" />
    <glyph glyph-name="M" unicode="M" horiz-adv-x="1787" 
d="M147 53l52 1317q1 26 12.5 36.5t36.5 10.5h121q29 0 43.5 -10t25.5 -35l473 -1012h4l433 1012q11 25 24.5 35t40.5 10h121q25 0 35 -10t12 -35l61 -1317q2 -28 -8.5 -41.5t-38.5 -13.5h-165q-31 0 -41.5 14t-12.5 54l-28 831h-5l-348 -862q-9 -22 -20.5 -29.5t-34.5 -7.5
h-72q-26 0 -39.5 7.5t-23.5 31.5l-387 860h-4l-19 -848q0 -32 -12.5 -41.5t-42.5 -9.5h-139q-30 0 -42.5 12t-11.5 41z" />
    <glyph glyph-name="N" unicode="N" horiz-adv-x="1488" 
d="M1139 1417h149q28 0 40.5 -12t12.5 -41v-1309q0 -32 -12 -43.5t-37 -11.5h-131q-52 0 -84 43l-667 913h-4v-903q0 -53 -54 -53h-147q-30 0 -42.5 10.5t-12.5 40.5v1311q0 31 13 43t42 12h133q25 0 40 -8.5t30 -30.5l673 -925h4v911q0 53 54 53z" />
    <glyph glyph-name="O" unicode="O" horiz-adv-x="1423" 
d="M1335 717q0 -171 -47 -311t-130.5 -234t-199.5 -145.5t-253 -51.5q-290 0 -453.5 197t-163.5 533q0 219 77 386.5t220.5 260t333.5 92.5q149 0 267 -54.5t194 -152t115.5 -229.5t39.5 -291zM1053 711q0 255 -87 382.5t-253 127.5q-155 0 -248.5 -136.5t-93.5 -373.5
q0 -252 88.5 -382t253.5 -130q156 0 248 133.5t92 378.5z" />
    <glyph glyph-name="P" unicode="P" horiz-adv-x="1138" 
d="M1077 971q0 -231 -162 -361q-146 -112 -409 -112h-92v-449q0 -49 -52 -49h-163q-25 0 -37 12.5t-12 42.5v1307q0 31 11 43t40 12h297q170 0 287.5 -36t189.5 -119q102 -117 102 -291zM811 961q0 133 -75.5 192t-215.5 59h-106v-512h55q105 0 171.5 14.5t109.5 61.5
q61 67 61 185z" />
    <glyph glyph-name="Q" unicode="Q" horiz-adv-x="1411" 
d="M735 -20q-59 0 -88 2q-110 7 -201 46.5t-157 104.5t-111.5 153.5t-67.5 193t-22 222.5q0 155 42 289t120 235.5t199 159.5t270 58q154 0 273.5 -57.5t193.5 -158.5t111.5 -230.5t37.5 -280.5q0 -217 -78 -387t-227 -262q117 -65 289 -115q36 -10 45 -27.5t-2 -44.5
l-37 -108q-11 -31 -31 -35.5t-84 14.5q-43 14 -93 39t-72.5 38t-82.5 52.5t-61 40.5q-33 22 -50.5 31.5t-48 18t-67.5 8.5zM1053 711q0 240 -83 375t-257 135q-108 0 -186.5 -68t-117 -182t-38.5 -260q0 -156 34.5 -269t112.5 -180t195 -67q110 0 187.5 67.5t115 182.5
t37.5 266z" />
    <glyph glyph-name="R" unicode="R" horiz-adv-x="1212" 
d="M817 571l330 -510q18 -28 13 -44.5t-34 -16.5h-182q-32 0 -48 8.5t-30 32.5l-295 481h-157v-471q0 -51 -47 -51h-168q-49 0 -49 51v1307q0 34 11 46.5t44 12.5h303q343 0 475 -151q98 -113 98 -287q0 -140 -70 -247t-194 -161zM813 975q0 242 -297 242h-102v-496h127
q126 0 199 66t73 188z" />
    <glyph glyph-name="S" unicode="S" horiz-adv-x="1105" 
d="M1024 414q0 -83 -26 -154.5t-72.5 -123.5t-109 -88.5t-136.5 -54.5t-154 -18q-202 0 -391 66q-26 10 -33 26t2 39l43 134q13 45 68 26q167 -61 305 -61q43 0 84 10.5t75.5 31.5t55.5 57.5t21 82.5q0 65 -40 107.5t-110 76.5l-266 134q-113 56 -177.5 146t-64.5 206
q0 90 41.5 165t110 122.5t151.5 73.5t170 26q199 0 367 -72q30 -12 37.5 -26.5t-2.5 -40.5l-49 -125q-16 -45 -68 -23q-149 64 -270 64q-83 0 -145 -38.5t-62 -117.5q0 -96 145 -166l228 -111q131 -63 201.5 -152t70.5 -222z" />
    <glyph glyph-name="T" unicode="T" horiz-adv-x="1177" 
d="M457 51v1153h-383q-26 0 -36.5 11t-10.5 38v121q0 43 45 43h1038q38 0 51 -11t10 -40l-14 -119q-3 -24 -17.5 -33.5t-45.5 -9.5h-371v-1153q0 -28 -11.5 -39.5t-37.5 -11.5h-166q-28 0 -39.5 11.5t-11.5 39.5z" />
    <glyph glyph-name="U" unicode="U" horiz-adv-x="1474" 
d="M1331 1368v-739q0 -319 -150.5 -486.5t-447.5 -167.5q-160 0 -274 43t-183 129t-101 205.5t-32 280.5v735q0 49 54 49h161q26 0 38 -11.5t12 -37.5v-713q0 -236 74 -346t261 -110q179 0 252.5 112.5t73.5 343.5v713q0 49 51 49h162q26 0 37.5 -11.5t11.5 -37.5z" />
    <glyph glyph-name="V" unicode="V" horiz-adv-x="1335" 
d="M78 1417h178q33 0 49 -9.5t25 -33.5l362 -1012h6l342 1006q9 28 24.5 38.5t51.5 10.5h141q56 0 37 -55l-479 -1317q-10 -25 -22.5 -35t-40.5 -10h-136q-54 0 -71 51l-502 1305q-11 28 -1.5 44.5t36.5 16.5z" />
    <glyph glyph-name="W" unicode="W" horiz-adv-x="1925" 
d="M1882 1356l-379 -1301q-9 -32 -24 -43.5t-47 -11.5h-127q-31 0 -47 12t-23 41l-266 938h-4l-267 -932q-10 -35 -26 -47t-49 -12h-117q-35 0 -50 12.5t-26 48.5l-391 1295q-9 32 1 46.5t42 14.5h186q32 0 47 -11.5t23 -39.5l250 -944h2l260 950q7 26 20 35.5t41 9.5h133
q30 0 43 -9.5t19 -33.5l260 -952h4l248 948q8 28 20.5 37.5t42.5 9.5h160q30 0 40 -14t1 -47z" />
    <glyph glyph-name="X" unicode="X" horiz-adv-x="1241" 
d="M760 750l438 -691q15 -25 6 -42t-37 -17h-194q-54 0 -80 45l-283 477h-2l-282 -477q-14 -25 -32 -35t-50 -10h-170q-27 0 -34 17t7 40l424 672l-395 633q-13 20 -6 37.5t32 17.5h197q48 0 74 -45l252 -424h2l258 430q14 23 27.5 31t41.5 8h185q25 0 31.5 -17.5
t-7.5 -37.5z" />
    <glyph glyph-name="Y" unicode="Y" horiz-adv-x="1212" 
d="M627 799h4l291 575q12 25 27 34t44 9h150q54 0 28 -51l-421 -780v-539q0 -47 -48 -47h-172q-47 0 -47 51v524l-444 793q-11 17 -3 33t34 16h190q53 0 72 -39z" />
    <glyph glyph-name="Z" unicode="Z" horiz-adv-x="1198" 
d="M1139 166v-117q0 -49 -52 -49h-991q-39 0 -39 43v63q0 33 21 66l678 1030v2h-600q-28 0 -40 10.5t-12 36.5v125q0 41 41 41h916q49 0 49 -45v-49q0 -49 -25 -88l-673 -1020v-2h680q24 0 35.5 -10t11.5 -37z" />
    <glyph glyph-name="bracketleft" unicode="[" horiz-adv-x="686" 
d="M655 -143v-105q0 -27 -9.5 -36t-41.5 -9h-381q-34 0 -44.5 11t-10.5 46v1620q0 36 12 48t43 12h375q34 0 45.5 -9t11.5 -38v-105q0 -24 -9.5 -33.5t-37.5 -9.5h-192v-1349h188q32 0 41.5 -8t9.5 -35z" />
    <glyph glyph-name="backslash" unicode="\" horiz-adv-x="688" 
d="M446 16l-430 1379q-14 49 31 49h139q26 0 37.5 -8t18.5 -33l430 -1378q14 -50 -31 -50h-139q-26 0 -37.5 8t-18.5 33z" />
    <glyph glyph-name="bracketright" unicode="]" horiz-adv-x="684" 
d="M516 1386v-1619q0 -37 -11 -48.5t-42 -11.5h-377q-35 0 -45 8.5t-10 38.5v105q0 25 10 34t39 9h188v1349h-186q-33 0 -42 8t-9 35v105q0 27 9 36t42 9h381q33 0 43 -11t10 -47z" />
    <glyph glyph-name="asciicircum" unicode="^" horiz-adv-x="1071" 
d="M520 1417h29q19 0 31 -7.5t26 -27.5l385 -553q18 -27 15.5 -41t-23.5 -28l-113 -78q-18 -12 -32 -8.5t-29 26.5l-274 412l-275 -412q-15 -23 -29 -26.5t-32 8.5l-113 78q-21 14 -23.5 28t15.5 41l385 553q14 20 26 27.5t31 7.5z" />
    <glyph glyph-name="underscore" unicode="_" horiz-adv-x="1024" 
d="M1024 -207v-41q0 -24 -6.5 -31.5t-28.5 -7.5h-948q-25 0 -33 6.5t-8 24.5v53q0 19 7 25t28 6h948q27 0 34 -6.5t7 -28.5z" />
    <glyph glyph-name="grave" unicode="`" horiz-adv-x="704" 
d="M264 1458l281 -198q23 -15 24.5 -29t-14.5 -37l-35 -51q-15 -21 -28.5 -24t-36.5 9l-312 172q-37 19 -12 58l62 92q15 23 30.5 25t40.5 -17z" />
    <glyph glyph-name="a" unicode="a" horiz-adv-x="1142" 
d="M1094 135v-96q0 -39 -41 -39h-99q-144 0 -168 121h-4q-47 -63 -129 -104.5t-168 -41.5q-105 0 -187 41t-131.5 111.5t-75 160t-25.5 191.5q0 129 36.5 233.5t98.5 170.5t141 101.5t166 35.5q81 0 152 -33t110 -86l4 55q3 37 43 37h144q43 0 43 -45v-723q0 -29 7.5 -42
t28.5 -13h17q19 0 28 -7.5t9 -27.5zM756 317v396q-31 45 -88 74.5t-115 29.5q-99 0 -165 -83.5t-66 -237.5q0 -139 54.5 -228.5t162.5 -89.5q70 0 130.5 43t86.5 96z" />
    <glyph glyph-name="b" unicode="b" horiz-adv-x="1134" 
d="M1065 496q0 -107 -28.5 -201t-82 -165.5t-136.5 -113t-185 -41.5q-168 0 -279 117l-8 -67q-3 -25 -43 -25h-125q-26 0 -37.5 11.5t-11.5 39.5v1335q0 26 8.5 39.5t32.5 16.5l166 22q41 4 41 -37v-507q52 45 123 72.5t147 27.5q155 0 262 -96q79 -69 117.5 -181t38.5 -247
zM809 494q0 66 -11 120t-35.5 100t-69 71.5t-105.5 25.5q-55 0 -111 -26t-100 -66v-438q88 -101 201 -101q64 0 110.5 26t72 71.5t37 99t11.5 117.5z" />
    <glyph glyph-name="c" unicode="c" horiz-adv-x="915" 
d="M584 168q103 0 215 45q36 13 45 -16l28 -101q7 -23 2.5 -36t-26.5 -23q-135 -62 -297 -62q-234 0 -362 136.5t-128 375.5q0 241 136.5 387t371.5 146q149 0 275 -57q19 -8 22.5 -21t-2.5 -33l-26 -110q-9 -36 -47 -19q-98 45 -197 45q-131 0 -204 -86.5t-73 -238.5
t69 -242t198 -90z" />
    <glyph glyph-name="d" unicode="d" horiz-adv-x="1140" 
d="M1012 1427v-1376q0 -25 -12.5 -38t-32.5 -13h-133q-47 0 -50 41l-4 55q-44 -51 -122 -86t-156 -35q-108 0 -192 41t-135.5 112t-78 161.5t-26.5 195.5q0 109 30 205t85.5 170t141.5 117t191 43q69 0 136 -26t110 -70v462q0 26 8.5 39.5t32.5 16.5l166 22q41 4 41 -37z
M764 279v442q-32 43 -86 71.5t-111 28.5q-79 0 -134.5 -46t-80 -116.5t-24.5 -158.5q0 -66 12.5 -122t38.5 -102.5t71 -73t105 -26.5q55 0 116 31.5t93 71.5z" />
    <glyph glyph-name="e" unicode="e" horiz-adv-x="1054" 
d="M623 174q125 0 251 49q43 16 52 -18l28 -105q7 -20 1 -34.5t-29 -24.5q-71 -32 -165 -49t-179 -17q-240 0 -376 142t-136 383q0 231 140 375.5t368 144.5q182 0 299 -123q120 -125 120 -367v-30q0 -36 -14 -48t-53 -12h-600q12 -119 92 -192.5t201 -73.5zM334 602h420v23
q-3 86 -52.5 145t-138.5 59q-95 0 -155.5 -65t-73.5 -162z" />
    <glyph glyph-name="f" unicode="f" horiz-adv-x="745" 
d="M551 1491q123 0 217 -43q22 -10 26 -27.5t-3 -46.5l-17 -86q-4 -22 -15.5 -27.5t-31.5 1.5q-80 26 -139 26q-86 0 -118 -51t-32 -150v-94h228q41 0 41 -35v-96q0 -39 -41 -39h-228v-766q0 -29 -11.5 -43t-39.5 -14h-147q-50 0 -50 53v770h-110q-28 0 -35.5 9.5t-7.5 41.5
v78q0 41 39 41h114v56q0 81 15 165q53 277 346 277z" />
    <glyph glyph-name="g" unicode="g" horiz-adv-x="1142" 
d="M1014 944v-876q0 -256 -117 -386.5t-369 -130.5q-157 0 -303 64q-24 10 -30 24t2 39l32 99q7 25 20.5 30t39.5 -6q127 -53 229 -53q75 0 125 18.5t76 56.5t36.5 84.5t10.5 112.5v82q-46 -44 -122.5 -74t-143.5 -30q-190 0 -301 117q-129 132 -129 370q0 104 30 199.5
t86 170.5t144 120t196 45q73 0 141.5 -29.5t110.5 -85.5l4 51q1 20 12 28.5t35 8.5h136q27 0 38 -11t11 -38zM766 297v424q-32 43 -87 71.5t-112 28.5q-89 0 -151 -59q-44 -43 -66 -114t-22 -148q0 -167 82 -246q55 -55 145 -55q58 0 118.5 29t92.5 69z" />
    <glyph glyph-name="h" unicode="h" horiz-adv-x="1153" 
d="M776 51v559q0 92 -33.5 142.5t-119.5 50.5q-59 0 -128.5 -28t-117.5 -70v-654q0 -27 -12 -39t-39 -12h-144q-28 0 -40.5 12t-12.5 39v1335q0 26 8.5 39.5t32.5 16.5l166 22q41 4 41 -37v-518q63 53 151 82t172 29q166 0 245 -97t79 -270v-602q0 -27 -12 -39t-39 -12h-144
q-28 0 -40.5 12t-12.5 39z" />
    <glyph glyph-name="i" unicode="i" horiz-adv-x="534" 
d="M406 1253q0 -57 -42 -93t-96 -36q-55 0 -97 34.5t-42 92.5q0 59 41 95t98 36q56 0 97 -35t41 -94zM393 946v-895q0 -27 -12 -39t-39 -12h-143q-28 0 -41 12t-13 39v895q0 47 54 47h143q26 0 38.5 -10t12.5 -37z" />
    <glyph glyph-name="j" unicode="j" horiz-adv-x="581" 
d="M453 1251q0 -58 -41.5 -93.5t-96.5 -35.5t-96 34.5t-41 92.5q0 61 40 97t97 36q55 0 96.5 -36t41.5 -95zM436 948v-901q0 -288 -135 -403q-107 -90 -299 -90q-74 0 -137 14q-40 10 -33 51l21 115q5 29 32 26q75 -6 76 -6q61 0 117 26t82 75q28 58 28 157v936q0 45 50 45
h151q47 0 47 -45z" />
    <glyph glyph-name="k" unicode="k" horiz-adv-x="991" 
d="M129 51v1335q0 26 8.5 39.5t32.5 16.5l166 22q41 4 41 -37v-831h4l268 369q19 28 56 28h180q23 0 28 -13t-8 -30l-293 -368l336 -527q15 -25 10.5 -40t-28.5 -15h-187q-55 0 -81 43l-263 430l-22 -20v-402q0 -27 -12 -39t-39 -12h-144q-28 0 -40.5 12t-12.5 39z" />
    <glyph glyph-name="l" unicode="l" horiz-adv-x="505" 
d="M377 1427v-1376q0 -51 -45 -51h-156q-47 0 -47 49v1337q0 26 8.5 39.5t32.5 16.5l166 22q41 4 41 -37z" />
    <glyph glyph-name="m" unicode="m" horiz-adv-x="1740" 
d="M1612 569v-518q0 -28 -11.5 -39.5t-37.5 -11.5h-144q-28 0 -40.5 12t-12.5 39v561q0 93 -33.5 144t-120.5 51q-56 0 -118.5 -26t-112.5 -66q3 -12 5.5 -146.5t2.5 -175.5v-342q0 -28 -11.5 -39.5t-37.5 -11.5h-135q-28 0 -40.5 12t-12.5 39v561q0 94 -31 144.5t-117 50.5
q-109 0 -227 -102v-654q0 -27 -12 -39t-39 -12h-144q-28 0 -40.5 12t-12.5 39v895q0 47 49 47h133q48 0 51 -39l3 -51q63 55 142 86t159 31q90 0 156.5 -36t103.5 -97q67 64 160.5 98.5t189.5 34.5q105 0 178 -43.5t109 -110.5q49 -95 49 -297z" />
    <glyph glyph-name="n" unicode="n" horiz-adv-x="1148" 
d="M1020 653v-600q0 -27 -11 -40t-38 -13h-148q-27 0 -38 13t-11 40v557q0 93 -34 143t-122 50q-59 0 -126 -28t-115 -70v-654q0 -51 -49 -51h-150q-49 0 -49 49v893q0 51 51 51h133q23 0 35.5 -8.5t13.5 -30.5l3 -53q147 119 331 119q166 0 245 -96.5t79 -270.5z" />
    <glyph glyph-name="o" unicode="o" horiz-adv-x="1126" 
d="M1057 498q0 -149 -57.5 -266.5t-172.5 -187t-270 -69.5q-122 0 -216.5 39.5t-153 111t-88 166t-29.5 208.5q0 149 57.5 265.5t172 185.5t269.5 69q241 0 364.5 -143t123.5 -379zM801 498q0 67 -11.5 122.5t-37.5 103t-73 74.5t-112 27q-66 0 -114 -26.5t-75 -73
t-39.5 -101.5t-12.5 -120q0 -67 11.5 -123.5t36.5 -105.5t72.5 -77t112.5 -28t113.5 27t75.5 74.5t40 104t13 122.5z" />
    <glyph glyph-name="p" unicode="p" horiz-adv-x="1140" 
d="M1071 512q0 -242 -133 -397q-124 -140 -315 -140q-71 0 -137.5 26t-110.5 71v-461q0 -30 -13 -41.5t-40 -11.5h-144q-49 0 -49 53v1335q0 26 12 36.5t37 10.5h123q28 0 41 -8.5t14 -30.5l2 -53q45 52 125 85.5t162 33.5q182 0 297 -125q64 -70 96.5 -171t32.5 -212z
M813 500q0 155 -59 237q-60 84 -168 84q-55 0 -117 -30t-94 -70v-447q32 -43 87.5 -71.5t112.5 -28.5q102 0 164 76q74 91 74 250z" />
    <glyph glyph-name="q" unicode="q" horiz-adv-x="1136" 
d="M1008 944v-1333q0 -28 -10.5 -40.5t-36.5 -12.5h-150q-51 0 -51 47v475q-48 -47 -118.5 -76t-141.5 -29q-156 0 -260 84q-85 70 -127.5 185.5t-42.5 253.5q0 124 38.5 231t112.5 178q119 113 293 113q72 0 146.5 -28.5t119.5 -80.5l4 50q2 17 12 24.5t35 7.5h127
q27 0 38.5 -12t11.5 -37zM760 281v430q-37 45 -94.5 75.5t-112.5 30.5q-64 0 -110 -27.5t-70 -75t-34.5 -100t-10.5 -114.5q0 -164 65 -246q56 -70 154 -70q56 0 114.5 27.5t98.5 69.5z" />
    <glyph glyph-name="r" unicode="r" horiz-adv-x="706" 
d="M612 1020q54 0 68 -14q11 -11 8 -35l-22 -146q-5 -34 -41 -28q-24 4 -52 4q-52 0 -105 -26.5t-91 -72.5v-651q0 -51 -49 -51h-150q-49 0 -49 51v891q0 29 13 40t38 11h131q51 0 51 -39l3 -65q51 65 108.5 98t138.5 33z" />
    <glyph glyph-name="s" unicode="s" horiz-adv-x="841" 
d="M791 293q0 -103 -56.5 -177t-144 -107.5t-195.5 -33.5q-153 0 -315 72q-34 15 -23 47l37 113q11 35 49 20q148 -63 258 -63q69 0 110.5 29t41.5 79q0 41 -28.5 68t-94.5 53l-162 62q-94 35 -152.5 104t-58.5 168q0 96 56 164.5t138 98.5t177 30q159 0 297 -62
q19 -8 22.5 -19.5t-2.5 -29.5l-34 -110q-11 -34 -49 -19q-127 49 -222 49q-61 0 -95 -28t-34 -66q0 -35 22 -58t79 -46l184 -76q88 -37 141.5 -102.5t53.5 -159.5z" />
    <glyph glyph-name="t" unicode="t" horiz-adv-x="778" 
d="M424 1249v-256h231q39 0 39 -35v-96q0 -39 -41 -39h-229v-469q0 -100 27 -139q29 -43 96 -43q54 0 131 25q40 12 47 -21l20 -102q8 -37 -28 -51q-112 -48 -230 -48q-171 0 -245 86q-44 50 -55 113.5t-11 192.5v456h-96q-29 0 -37 9t-8 42v78q0 41 37 41h104v215
q0 26 8.5 39.5t32.5 16.5l166 22q41 4 41 -37z" />
    <glyph glyph-name="u" unicode="u" horiz-adv-x="1140" 
d="M1014 946v-889q0 -32 -11 -44.5t-42 -12.5h-132q-46 0 -49 41l-2 51q-145 -117 -325 -117q-166 0 -245 97t-79 270v604q0 47 53 47h144q26 0 38.5 -10t12.5 -37v-561q0 -94 32.5 -142t118.5 -48q58 0 124.5 28t113.5 70v653q0 47 51 47h146q26 0 38.5 -10t12.5 -37z" />
    <glyph glyph-name="v" unicode="v" horiz-adv-x="991" 
d="M928 993q30 0 38.5 -12t-1.5 -37l-359 -905q-9 -23 -22 -31t-37 -8h-107q-48 0 -61 37l-352 913q-16 43 32 43h181q47 0 59 -41l156 -477q25 -75 51 -174h2q17 68 49 168l160 481q7 26 20.5 34.5t42.5 8.5h148z" />
    <glyph glyph-name="w" unicode="w" horiz-adv-x="1472" 
d="M1257 993h156q45 0 31 -43l-275 -901q-16 -49 -63 -49h-135q-53 0 -68 51l-170 584h-4l-168 -588q-14 -47 -65 -47h-138q-49 0 -63 49l-268 901q-13 43 39 43h167q49 0 58 -39l147 -647h2l191 645q11 41 55 41h115q47 0 55 -35l186 -655h2l154 645q9 45 59 45z" />
    <glyph glyph-name="x" unicode="x" horiz-adv-x="1032" 
d="M31 45l352 469l-301 430q-12 15 -6.5 32t26.5 17h209q44 0 64 -32l162 -259h2l168 256q23 35 59 35h178q22 0 27.5 -15t-6.5 -30l-312 -405l346 -494q13 -17 6.5 -33t-30.5 -16h-209q-30 0 -45.5 8.5t-26.5 28.5l-192 313h-2l-197 -309q-25 -41 -78 -41h-174
q-21 0 -27 15t7 30z" />
    <glyph glyph-name="y" unicode="y" horiz-adv-x="1052" 
d="M827 993h166q48 0 29 -49l-404 -1061q-69 -184 -168.5 -256.5t-283.5 -72.5q-73 0 -109 10q-23 7 -27 18t-1 35l14 107q3 20 11.5 28t25.5 8q9 0 39 -3t43 -3q92 0 140.5 33.5t80.5 108.5l39 92l-373 960q-8 19 -1 32t28 13h192q46 0 58 -41l225 -671l215 665
q8 25 21.5 36t39.5 11z" />
    <glyph glyph-name="z" unicode="z" horiz-adv-x="880" 
d="M831 135v-96q0 -39 -38 -39h-695q-49 0 -49 49v51q0 38 21 70l442 651v2h-379q-29 0 -38 10.5t-9 43.5v73q0 43 39 43h647q47 0 47 -43v-57q0 -39 -20 -68l-451 -651v-4h443q40 0 40 -35z" />
    <glyph glyph-name="braceleft" unicode="{" horiz-adv-x="733" 
d="M53 539v86q0 19 6.5 25t32.5 9q126 14 129 211l6 291q3 141 85.5 219t213.5 78h150q25 0 31.5 -9t3.5 -28l-19 -86q-4 -19 -13 -24.5t-32 -5.5h-45q-70 0 -96.5 -33.5t-28.5 -120.5l-6 -264q-2 -78 -23 -138t-54 -94t-67.5 -51.5t-70.5 -19.5v-4q28 -2 55.5 -12.5t56 -34
t50.5 -57t36.5 -85.5t16.5 -115l6 -262q2 -87 28.5 -120t96.5 -33h45q23 0 31.5 -6t13.5 -25l19 -86q3 -19 -3.5 -28t-31.5 -9h-150q-131 0 -213.5 78t-85.5 219l-6 289q-3 197 -129 211q-26 3 -32.5 9.5t-6.5 25.5z" />
    <glyph glyph-name="bar" unicode="|" horiz-adv-x="471" 
d="M348 1421v-1417q0 -30 -8.5 -39.5t-38.5 -9.5h-121q-29 0 -43 10t-14 37v1417q0 45 41 45h135q49 0 49 -43z" />
    <glyph glyph-name="braceright" unicode="}" horiz-adv-x="733" 
d="M680 625v-86q0 -19 -6.5 -25.5t-32.5 -9.5q-126 -14 -129 -211l-6 -289q-3 -141 -85.5 -219t-213.5 -78h-150q-24 0 -30.5 9t-3.5 28l18 86q5 19 13.5 25t31.5 6h45q70 0 96.5 33t28.5 120l6 262q2 63 16.5 115t36.5 85.5t50.5 57t56 34t55.5 12.5v4q-36 2 -70.5 19.5
t-67.5 51.5t-54 94t-23 138l-6 264q-2 87 -28.5 120.5t-96.5 33.5h-45q-23 0 -32 5.5t-13 24.5l-18 86q-3 19 3.5 28t30.5 9h150q131 0 213.5 -78t85.5 -219l6 -291q3 -197 129 -211q26 -3 32.5 -9t6.5 -25z" />
    <glyph glyph-name="asciitilde" unicode="~" horiz-adv-x="1071" 
d="M973 555q-172 -127 -287 -127q-50 0 -110.5 28t-117 55.5t-96.5 27.5q-71 0 -174 -68q-43 -24 -69 18l-37 58q-21 30 -18.5 52.5t32.5 43.5q89 62 157.5 94.5t129.5 32.5q50 0 110.5 -28t117 -55.5t96.5 -27.5q76 0 174 68q41 27 69 -18l37 -58q21 -30 18.5 -52.5
t-32.5 -43.5z" />
    <glyph glyph-name="nbspace" unicode="&#xa0;" horiz-adv-x="495" 
 />
    <glyph glyph-name="exclamdown" unicode="&#xa1;" horiz-adv-x="530" 
d="M403 889q0 -60 -40.5 -95.5t-96.5 -35.5t-97.5 36t-41.5 97q0 59 42.5 94t96.5 35q53 0 95 -36.5t42 -94.5zM365 641l24 -1024q0 -22 -8 -30.5t-29 -8.5h-164q-21 0 -28.5 8.5t-7.5 30.5l22 1022q0 23 8.5 32t32.5 9h111q21 0 30 -9t9 -30z" />
    <glyph glyph-name="cent" unicode="&#xa2;" horiz-adv-x="1148" 
d="M961 195l28 -93q10 -27 5.5 -40t-29.5 -25q-111 -51 -226 -57v-144q0 -24 -8 -32.5t-35 -8.5h-43q-25 0 -32 9.5t-7 35.5v137q-211 17 -328.5 152t-117.5 358q0 222 120 364.5t326 164.5v153q0 24 6 30.5t29 6.5h53q24 0 30.5 -6.5t6.5 -30.5v-151q119 -6 222 -55
q19 -8 23.5 -21t-1.5 -33l-27 -108q-8 -40 -51 -21q-84 36 -166 41v-651q82 5 176 43q18 7 29 3.5t17 -21.5zM614 178v635q-88 -24 -139 -104t-51 -209q0 -130 48.5 -213.5t141.5 -108.5z" />
    <glyph glyph-name="sterling" unicode="&#xa3;" horiz-adv-x="1148" 
d="M270 440v191h-98q-25 0 -33 7t-8 30v110q0 25 8 31t35 6h96v162q0 215 111 338q116 129 338 129q147 0 278 -55q25 -11 31.5 -24t-0.5 -36l-37 -110q-6 -20 -16.5 -24.5t-32.5 3.5q-100 39 -194 39q-118 0 -175 -66q-26 -33 -38.5 -77.5t-12.5 -122.5v-156h295
q26 0 34.5 -7t8.5 -28v-114q0 -24 -8 -29.5t-35 -5.5h-297v-174q0 -173 -98 -240v-4h582q51 0 51 -47v-117q0 -49 -49 -49h-865q-51 0 -51 51v86q0 47 39 60q76 30 108.5 89.5t32.5 153.5z" />
    <glyph glyph-name="currency" unicode="&#xa4;" horiz-adv-x="1148" 
d="M903 709q0 -68 -29 -142l97 -96q27 -27 -4 -57l-62 -62q-19 -19 -31.5 -20t-27.5 14l-90 90q-76 -49 -183 -49q-106 0 -182 49l-90 -90q-15 -15 -27.5 -14t-31.5 20l-62 62q-30 30 -4 57l96 96q-28 72 -28 142q0 69 28 141l-96 96q-27 27 4 58l62 61q19 19 31.5 20
t27.5 -14l90 -90q76 49 182 49q107 0 183 -49l90 90q15 15 27.5 14t31.5 -20l62 -61q31 -31 4 -58l-97 -96q29 -74 29 -141zM723 709q0 67 -40 110t-110 43t-109.5 -43t-39.5 -110t39.5 -110.5t109.5 -43.5t110 43.5t40 110.5z" />
    <glyph glyph-name="yen" unicode="&#xa5;" horiz-adv-x="1148" 
d="M938 1417h154q54 0 28 -51l-368 -711h157q25 0 33 -8t8 -29v-57q0 -22 -8.5 -28.5t-34.5 -6.5h-186v-88h192q26 0 32.5 -6.5t6.5 -30.5v-45q0 -29 -7 -36t-34 -7h-190v-266q0 -47 -43 -47h-174q-45 0 -45 51v262h-193q-24 0 -31.5 9.5t-7.5 35.5v41q0 25 7.5 32t33.5 7
h191v88h-197q-23 0 -30 7t-7 30v53q0 24 8 31.5t33 7.5h156l-379 713q-11 20 -2.5 34.5t31.5 14.5h190q33 0 48.5 -8t25.5 -31l268 -536h2l262 534q12 25 26 33t44 8z" />
    <glyph glyph-name="brokenbar" unicode="&#xa6;" horiz-adv-x="471" 
d="M348 1405v-473q0 -28 -11.5 -40.5t-37.5 -12.5h-123q-53 0 -53 53v471q0 49 51 49h125q27 0 38 -10t11 -37zM348 496v-476q0 -28 -11.5 -39.5t-37.5 -11.5h-123q-28 0 -40.5 12t-12.5 39v474q0 49 51 49h125q27 0 38 -10t11 -37z" />
    <glyph glyph-name="section" unicode="&#xa7;" horiz-adv-x="948" 
d="M850 717q0 -141 -98 -223q90 -77 90 -201q0 -102 -55.5 -176t-142.5 -108t-195 -34q-157 0 -316 68q-24 11 -24 31q0 10 4 22l32 103q9 30 27 30q8 0 23 -6q148 -59 260 -59q67 0 109 29t42 79q0 41 -28.5 68t-94.5 53l-161 64q-95 37 -153 105t-58 167q0 135 110 213
q-102 85 -102 211q0 72 32 129.5t85 92t118 52t135 17.5q162 0 295 -58q25 -12 25 -24q0 -7 -4 -23l-35 -114q-6 -23 -25 -23q-8 0 -28 8q-113 45 -213 45q-61 0 -97 -28t-36 -66q0 -34 22 -60t78 -48l184 -74q88 -35 141.5 -101t53.5 -161zM627 690q0 77 -135 127l-72 27
q-70 -28 -70 -94q0 -38 27 -66t86 -53l98 -41q29 16 47.5 43t18.5 57z" />
    <glyph glyph-name="dieresis" unicode="&#xa8;" horiz-adv-x="704" 
d="M291 1296q0 -53 -39 -85.5t-86 -32.5q-49 0 -88 31.5t-39 84.5q0 56 37.5 88.5t89.5 32.5q49 0 87 -32.5t38 -86.5zM666 1296q0 -53 -39 -85.5t-86 -32.5q-49 0 -88 31.5t-39 84.5q0 56 37.5 88.5t89.5 32.5q49 0 87 -32.5t38 -86.5z" />
    <glyph glyph-name="copyright" unicode="&#xa9;" horiz-adv-x="1701" 
d="M1595 713q0 -150 -59 -287t-158.5 -235.5t-237 -157t-288.5 -58.5q-208 0 -379 99t-267.5 268t-96.5 371q0 201 98 369t268.5 265t376.5 97q202 0 373 -97t270.5 -265.5t99.5 -368.5zM1409 711q0 117 -43 221.5t-116.5 180t-177 119.5t-220.5 44t-221 -44t-178 -119.5
t-117 -180t-43 -221.5q0 -156 73 -286.5t201.5 -206t284.5 -75.5t284 75.5t200.5 205.5t72.5 287zM1096 403q0 -15 -21 -24q-96 -41 -207 -41q-160 0 -242.5 102t-82.5 269q0 162 91.5 268t244.5 106q102 0 194 -45q21 -10 21 -20q0 -5 -4 -17l-23 -63q-9 -27 -35 -14
q-70 37 -147 37q-88 0 -140 -68q-51 -66 -51 -180q0 -117 52 -185.5t143 -68.5q67 0 145 33q24 11 35 -11l23 -61q4 -12 4 -17z" />
    <glyph glyph-name="ordfeminine" unicode="&#xaa;" horiz-adv-x="626" 
d="M391 721l-8 24q-69 -57 -166 -57q-81 0 -128.5 48.5t-47.5 117.5q0 99 82.5 140.5t249.5 41.5v8q0 80 -84 80q-63 0 -139 -39q-31 -16 -46 13l-28 57q-13 29 8 41q109 64 229 64q128 0 189 -58q55 -52 55 -168v-301q0 -21 -8 -29t-31 -8h-80q-39 0 -47 25zM373 850v90
q-70 2 -108 -17t-38 -55q0 -23 16.5 -36t45.5 -13q45 0 84 31z" />
    <glyph glyph-name="guillemotleft" unicode="&#xab;" horiz-adv-x="942" 
d="M465 719l-166 -248l166 -248q10 -17 6.5 -26.5t-22.5 -20.5l-74 -43q-16 -10 -30 -7.5t-30 21.5l-227 289q-14 21 -14 35t14 35l227 289q16 19 30 21.5t30 -7.5l74 -43q19 -11 22.5 -20.5t-6.5 -26.5zM840 719l-166 -248l166 -248q10 -18 6 -27t-23 -20l-73 -43
q-16 -10 -30 -7.5t-30 21.5l-227 289q-14 21 -14 35t14 35l227 289q16 19 30 21.5t30 -7.5l73 -43q19 -11 23 -20t-6 -27z" />
    <glyph glyph-name="logicalnot" unicode="&#xac;" horiz-adv-x="1071" 
d="M993 801v-508q0 -28 -12.5 -38.5t-38.5 -10.5h-115q-27 0 -38 10t-11 37v346h-651q-28 0 -38.5 12.5t-10.5 38.5v115q0 27 10 38t37 11h815q30 0 41.5 -11.5t11.5 -39.5z" />
    <glyph glyph-name="uni00AD" unicode="&#xad;" horiz-adv-x="587" 
d="M516 606v-129q0 -30 -11 -42.5t-40 -12.5h-344q-28 0 -38.5 13t-10.5 40v133q0 27 10 38t37 11h344q30 0 41.5 -11.5t11.5 -39.5z" />
    <glyph glyph-name="registered" unicode="&#xae;" horiz-adv-x="1701" 
d="M1595 713q0 -150 -59 -287t-158.5 -235.5t-237 -157t-288.5 -58.5q-208 0 -379 99t-267.5 268t-96.5 371q0 201 98 369t268.5 265t376.5 97q202 0 373 -97t270.5 -265.5t99.5 -368.5zM1409 711q0 117 -43 221.5t-116.5 180t-177 119.5t-220.5 44t-221 -44t-178 -119.5
t-117 -180t-43 -221.5q0 -156 73 -286.5t201.5 -206t284.5 -75.5t284 75.5t200.5 205.5t72.5 287zM977 639l166 -254q11 -15 6.5 -25t-21.5 -10h-98q-27 0 -41 23l-145 237h-72v-231q0 -29 -29 -29h-86q-28 0 -28 29v657q0 35 28 35h91q119 0 174.5 -10t109.5 -47
q74 -57 74 -168q0 -71 -34 -125t-95 -82zM961 842q0 116 -142 116h-47v-237h41q148 0 148 121z" />
    <glyph glyph-name="macron" unicode="&#xaf;" horiz-adv-x="704" 
d="M104 1366h494q24 0 32.5 -8t8.5 -31v-78q0 -23 -8.5 -31t-32.5 -8h-494q-24 0 -32.5 8t-8.5 31v78q0 23 8.5 31t32.5 8z" />
    <glyph glyph-name="degree" unicode="&#xb0;" horiz-adv-x="577" 
d="M485 1253q0 -81 -55 -135.5t-141 -54.5q-87 0 -142 54.5t-55 135.5t55.5 136t141.5 55t141 -55t55 -136zM360 1253q0 31 -20 51.5t-51 20.5t-51.5 -20.5t-20.5 -51.5t20.5 -51t51.5 -20t51 20t20 51z" />
    <glyph glyph-name="plusminus" unicode="&#xb1;" horiz-adv-x="1071" 
d="M428 416v303h-301q-28 0 -38.5 12.5t-10.5 38.5v115q0 27 10 38t37 11h303v297q0 30 11.5 41.5t39.5 11.5h109q30 0 42.5 -11t12.5 -40v-299h297q30 0 41.5 -11.5t11.5 -39.5v-109q0 -30 -11 -42.5t-40 -12.5h-299v-301q0 -28 -12.5 -38.5t-38.5 -10.5h-115q-27 0 -38 10
t-11 37zM125 215h815q30 0 41.5 -11.5t11.5 -39.5v-109q0 -30 -11 -42.5t-40 -12.5h-815q-28 0 -38.5 12.5t-10.5 38.5v115q0 27 10 38t37 11z" />
    <glyph glyph-name="twosuperior" unicode="&#xb2;" horiz-adv-x="696" 
d="M88 950v33q0 30 8 44.5t37 43.5q161 152 214.5 218t53.5 126q0 35 -23.5 54.5t-66.5 19.5q-61 0 -141 -41q-32 -16 -45 14l-29 66q-15 37 10 51q46 27 111 45t127 18q113 0 184.5 -56t71.5 -152q0 -82 -57 -165t-201 -200h219q22 0 29.5 -7.5t7.5 -27.5v-88
q0 -18 -7 -25.5t-28 -7.5h-440q-19 0 -27 8t-8 29z" />
    <glyph glyph-name="threesuperior" unicode="&#xb3;" horiz-adv-x="696" 
d="M213 1253v74q0 16 6 22.5t23 6.5h41q52 0 80 15t28 54q0 31 -24.5 47.5t-63.5 16.5q-54 0 -135 -31q-31 -12 -43 15l-27 67q-7 18 -3.5 29.5t22.5 21.5q96 51 219 51q110 0 180 -50.5t70 -139.5q0 -106 -101 -152q133 -44 133 -167q0 -99 -79.5 -163.5t-208.5 -64.5
q-139 0 -234 53q-29 15 -18 48l26 71q14 37 50 23q86 -39 153 -39q52 0 82.5 21.5t30.5 62.5q0 80 -148 80h-30q-18 0 -23.5 6t-5.5 22z" />
    <glyph glyph-name="acute" unicode="&#xb4;" horiz-adv-x="704" 
d="M143 1260l281 198q25 19 41 17t31 -25l61 -92q25 -39 -12 -58l-312 -172q-23 -12 -36.5 -9t-28.5 24l-35 51q-16 23 -14.5 37t24.5 29z" />
    <glyph glyph-name="mu" unicode="&#xb5;" horiz-adv-x="1204" 
d="M766 942q0 27 12 39t39 12h144q28 0 40.5 -12t12.5 -39v-649q0 -98 47 -98q21 0 49 12q17 8 32 4t19 -21l31 -88q14 -36 -16 -57q-35 -28 -95 -44.5t-114 -16.5q-59 0 -106 25t-66 67q-112 -101 -258 -101q-100 0 -160 48v-330q0 -27 -12 -39t-39 -12h-144
q-28 0 -40.5 12t-12.5 39v1249q0 27 12 39t39 12h144q28 0 40.5 -12t12.5 -39v-569q0 -92 33 -142.5t120 -50.5q60 0 124 25.5t112 66.5v670z" />
    <glyph glyph-name="paragraph" unicode="&#xb6;" horiz-adv-x="1095" 
d="M952 1366v-1612q0 -43 -37 -43h-75q-21 0 -30 10.5t-9 34.5v1456h-164v-1448q0 -53 -47 -53h-152q-26 0 -36.5 10.5t-10.5 40.5v951q-137 19 -229 117t-92 233q0 149 107.5 251.5t258.5 102.5h465q29 0 40 -11t11 -40z" />
    <glyph glyph-name="periodcentered" unicode="&#xb7;" horiz-adv-x="471" 
d="M381 553q0 -60 -44.5 -98.5t-100.5 -38.5q-58 0 -102 37t-44 98q0 63 43 101t103 38q59 0 102 -37.5t43 -99.5z" />
    <glyph glyph-name="cedilla" unicode="&#xb8;" horiz-adv-x="704" 
d="M606 -264q0 -77 -65 -127.5t-170 -50.5q-80 0 -150 28q-18 7 -23.5 15.5t-2.5 23.5l14 66q3 12 10.5 15t32.5 -3q59 -18 102 -18q36 0 60 14t24 39q0 28 -20 40.5t-80 12.5h-29q-49 0 -61.5 13.5t-9.5 50.5l16 145h131l-6 -90h16q101 0 156 -44.5t55 -129.5z" />
    <glyph glyph-name="onesuperior" unicode="&#xb9;" horiz-adv-x="696" 
d="M502 1602v-650q0 -21 -9 -30t-36 -9h-101q-27 0 -36 9t-9 30v480l-127 -66q-22 -11 -34.5 -8.5t-22.5 20.5l-41 70q-20 33 14 51l219 117q37 18 76 18h70q21 0 29 -7t8 -25z" />
    <glyph glyph-name="ordmasculine" unicode="&#xba;" horiz-adv-x="651" 
d="M616 973q0 -131 -74.5 -208t-215.5 -77t-216 77t-75 208t75 209t216 78t215.5 -78t74.5 -209zM426 973q0 151 -100 151q-101 0 -101 -151q0 -150 101 -150q100 0 100 150z" />
    <glyph glyph-name="guillemotright" unicode="&#xbb;" horiz-adv-x="942" 
d="M268 471l-166 248q-10 18 -6 27t23 20l74 43q16 10 29.5 7.5t29.5 -21.5l227 -289q15 -23 15 -35q0 -13 -15 -35l-227 -289q-16 -19 -29.5 -21.5t-29.5 7.5l-74 43q-19 11 -23 20t6 27zM643 471l-166 248q-10 18 -6 27t23 20l73 43q16 10 30 7.5t30 -21.5l227 -289
q14 -21 14 -35t-14 -35l-227 -289q-16 -19 -30 -21.5t-30 7.5l-73 43q-19 11 -23 20t6 27z" />
    <glyph glyph-name="onequarter" unicode="&#xbc;" horiz-adv-x="1728" 
d="M1389 285v123q0 20 8 27t33 7h106q25 0 33 -7t8 -27v-373q0 -20 -8 -27.5t-33 -7.5h-106q-25 0 -33 7.5t-8 27.5v94h-340q-20 0 -28.5 8.5t-8.5 30.5v39q0 54 28 117l160 366q8 18 17.5 24.5t31.5 6.5h115q44 0 29 -41l-166 -395h162zM526 1384v-649q0 -21 -9 -30t-36 -9
h-100q-27 0 -36 9t-9 30v479l-127 -65q-22 -11 -34.5 -8.5t-22.5 20.5l-41 70q-20 33 14 51l219 117q37 18 76 18h69q20 0 28.5 -7t8.5 -26zM1395 1397l-858 -1383q-13 -23 -27.5 -31t-42.5 -8h-125q-28 0 -38 13t3 35l858 1382q13 23 27.5 31t42.5 8h125q28 0 38 -12.5
t-3 -34.5z" />
    <glyph glyph-name="onehalf" unicode="&#xbd;" horiz-adv-x="1728" 
d="M526 1384v-649q0 -21 -9 -30t-36 -9h-100q-27 0 -36 9t-9 30v479l-127 -65q-22 -11 -34.5 -8.5t-22.5 20.5l-41 70q-20 33 14 51l219 117q37 18 76 18h69q20 0 28.5 -7t8.5 -26zM1395 1397l-858 -1383q-13 -23 -27.5 -31t-42.5 -8h-125q-28 0 -38 13t3 35l858 1382
q13 23 27.5 31t42.5 8h125q28 0 38 -12.5t-3 -34.5zM1065 37v33q0 30 8 44.5t37 43.5q161 152 214.5 218t53.5 126q0 35 -23.5 54t-66.5 19q-63 0 -141 -40q-32 -16 -45 14l-29 65q-15 38 10 52q46 27 111 45t127 18q113 0 184.5 -56.5t71.5 -152.5q0 -82 -57 -164.5
t-201 -199.5h219q22 0 29.5 -7.5t7.5 -27.5v-88q0 -18 -7 -25.5t-28 -7.5h-440q-19 0 -27 8t-8 29z" />
    <glyph glyph-name="threequarters" unicode="&#xbe;" horiz-adv-x="1728" 
d="M246 1036v74q0 16 5.5 22.5t22.5 6.5h41q109 0 109 69q0 31 -24.5 47.5t-63.5 16.5q-54 0 -135 -31q-19 -7 -28 -3.5t-15 17.5l-27 68q-7 18 -3.5 29.5t22.5 21.5q96 51 219 51q109 0 179 -50t70 -140q0 -106 -100 -152q133 -44 133 -168q0 -99 -80 -163t-209 -64
q-138 0 -233 53q-17 9 -20.5 19.5t2.5 27.5l26 72q14 37 49 23q86 -39 154 -39q52 0 82.5 21.5t30.5 62.5q0 80 -148 80h-31q-18 0 -23 6t-5 22zM1425 285v123q0 20 8 27t33 7h107q25 0 33 -7t8 -27v-373q0 -20 -8 -27.5t-33 -7.5h-107q-25 0 -33 7.5t-8 27.5v94h-340
q-20 0 -28 8.5t-8 30.5v39q0 54 28 117l160 366q8 18 17.5 24.5t31.5 6.5h115q44 0 29 -41l-166 -395h161zM1432 1397l-859 -1383q-14 -23 -27.5 -31t-41.5 -8h-125q-28 0 -38 13t3 35l858 1382q13 23 27.5 31t42.5 8h125q28 0 38 -12.5t-3 -34.5z" />
    <glyph glyph-name="questiondown" unicode="&#xbf;" horiz-adv-x="901" 
d="M74 -102q0 150 135 292l149 158q43 45 64 85.5t24 107.5q0 13 -1 42.5t-1 34.5q0 31 31 31h131q18 0 26.5 -6.5t12.5 -24.5q14 -65 14 -120q0 -133 -104 -240l-145 -149q-101 -106 -101 -187q0 -91 57 -132.5t142 -41.5q46 0 106 16.5t107 42.5q32 17 43 -12l41 -110
q11 -34 -14 -47q-156 -87 -332 -87q-160 0 -272.5 95t-112.5 252zM399 889q0 58 42.5 94.5t95.5 36.5q54 0 96.5 -35t42.5 -94q0 -61 -41.5 -97t-97.5 -36t-97 35.5t-41 95.5z" />
    <glyph glyph-name="Agrave" unicode="&#xc0;" horiz-adv-x="1316" 
d="M18 51l500 1325q16 41 55 41h164q45 0 58 -37l503 -1327q8 -22 0 -37.5t-30 -15.5h-187q-31 0 -45 11t-24 38l-107 301h-518l-106 -307q-13 -43 -56 -43h-176q-24 0 -31.5 14.5t0.5 36.5zM457 549h379l-146 432l-41 133h-4l-43 -135zM569 1868l281 -199
q23 -15 24.5 -28.5t-14.5 -36.5l-35 -52q-15 -21 -28.5 -23.5t-36.5 9.5l-311 172q-37 19 -13 57l62 93q15 23 30.5 25t40.5 -17z" />
    <glyph glyph-name="Aacute" unicode="&#xc1;" horiz-adv-x="1316" 
d="M18 51l500 1325q16 41 55 41h164q45 0 58 -37l503 -1327q8 -22 0 -37.5t-30 -15.5h-187q-31 0 -45 11t-24 38l-107 301h-518l-106 -307q-13 -43 -56 -43h-176q-24 0 -31.5 14.5t0.5 36.5zM457 549h379l-146 432l-41 133h-4l-43 -135zM449 1669l280 199q25 19 41 17
t31 -25l61 -93q24 -38 -12 -57l-311 -172q-23 -13 -37 -10t-29 24l-35 52q-16 23 -14 36.5t25 28.5z" />
    <glyph glyph-name="Acircumflex" unicode="&#xc2;" horiz-adv-x="1316" 
d="M18 51l500 1325q16 41 55 41h164q45 0 58 -37l503 -1327q8 -22 0 -37.5t-30 -15.5h-187q-31 0 -45 11t-24 38l-107 301h-518l-106 -307q-13 -43 -56 -43h-176q-24 0 -31.5 14.5t0.5 36.5zM457 549h379l-146 432l-41 133h-4l-43 -135zM639 1853h33q34 0 59 -22l205 -186
q29 -29 4 -54l-35 -37q-16 -16 -29.5 -16t-41.5 18l-179 117l-178 -117q-28 -18 -41.5 -18t-29.5 16l-35 37q-25 25 4 54l205 186q25 22 59 22z" />
    <glyph glyph-name="Atilde" unicode="&#xc3;" horiz-adv-x="1316" 
d="M18 51l500 1325q16 41 55 41h164q45 0 58 -37l503 -1327q8 -22 0 -37.5t-30 -15.5h-187q-31 0 -45 11t-24 38l-107 301h-518l-106 -307q-13 -43 -56 -43h-176q-24 0 -31.5 14.5t0.5 36.5zM457 549h379l-146 432l-41 133h-4l-43 -135zM897 1776q23 14 35.5 12t21.5 -21
l33 -65q18 -37 -20 -60q-100 -67 -187 -67q-54 0 -133.5 36t-109.5 36q-53 0 -123 -43q-23 -14 -36 -12.5t-22 20.5l-32 65q-18 37 20 60q100 67 186 67q54 0 134 -35.5t110 -35.5q53 0 123 43z" />
    <glyph glyph-name="Adieresis" unicode="&#xc4;" horiz-adv-x="1316" 
d="M18 51l500 1325q16 41 55 41h164q45 0 58 -37l503 -1327q8 -22 0 -37.5t-30 -15.5h-187q-31 0 -45 11t-24 38l-107 301h-518l-106 -307q-13 -43 -56 -43h-176q-24 0 -31.5 14.5t0.5 36.5zM457 549h379l-146 432l-41 133h-4l-43 -135zM596 1706q0 -53 -39 -86t-86 -33
q-49 0 -88 32t-39 85q0 56 37.5 88.5t89.5 32.5q49 0 87 -32.5t38 -86.5zM971 1706q0 -53 -39 -86t-86 -33q-49 0 -88 32t-39 85q0 56 37.5 88.5t89.5 32.5q49 0 87 -32.5t38 -86.5z" />
    <glyph glyph-name="Aring" unicode="&#xc5;" horiz-adv-x="1316" 
d="M18 51l500 1325q16 41 55 41h164q45 0 58 -37l503 -1327q8 -22 0 -37.5t-30 -15.5h-187q-31 0 -45 11t-24 38l-107 301h-518l-106 -307q-13 -43 -56 -43h-176q-24 0 -31.5 14.5t0.5 36.5zM457 549h379l-146 432l-41 133h-4l-43 -135zM659 1634q24 0 39 16t15 40t-15 39.5
t-39 15.5t-38.5 -15.5t-14.5 -39.5t14.5 -40t38.5 -16zM659 1526q-72 0 -119.5 46.5t-47.5 117.5q0 70 47.5 116.5t119.5 46.5t120 -46.5t48 -116.5t-48 -117t-120 -47z" />
    <glyph glyph-name="AE" unicode="&#xc6;" horiz-adv-x="1892" 
d="M1804 166v-117q0 -49 -49 -49h-749q-64 0 -64 55v295h-457l-190 -307q-14 -24 -27 -33.5t-35 -9.5h-178q-18 0 -25.5 14.5t3.5 34.5l817 1323q14 23 28 34t37 11h844q24 0 36 -10.5t9 -32.5l-16 -127q-3 -26 -18 -34.5t-50 -8.5h-516v-370h473q54 0 54 -46v-116
q0 -49 -52 -49h-475v-410h549q51 0 51 -47zM596 549h346v575z" />
    <glyph glyph-name="Ccedilla" unicode="&#xc7;" horiz-adv-x="1220" 
d="M981 -264q0 -77 -65.5 -127.5t-170.5 -50.5q-79 0 -149 28q-19 7 -24.5 15.5t-2.5 23.5l15 66q3 12 10.5 15t32.5 -3q59 -18 102 -18q36 0 60 14t24 39q0 28 -20 40.5t-80 12.5h-29q-50 0 -62.5 13.5t-9.5 50.5l15 129q-262 33 -399.5 226.5t-137.5 491.5q0 157 46.5 293
t130.5 235.5t210 156.5t277 57q208 0 385 -86q25 -12 30 -24t-4 -38l-47 -129q-12 -38 -51 -18q-142 74 -297 74q-83 0 -150.5 -29.5t-112 -78.5t-75 -115.5t-44 -138t-13.5 -148.5q0 -238 106 -377t293 -139q150 0 295 65q20 10 33.5 7t21.5 -25l45 -121q17 -45 -28 -64
q-191 -78 -383 -84l-4 -65h16q101 0 156 -44.5t55 -129.5z" />
    <glyph glyph-name="Egrave" unicode="&#xc8;" horiz-adv-x="1101" 
d="M938 788v-120q0 -23 -10.5 -34t-38.5 -11h-475v-410h549q51 0 51 -47v-117q0 -49 -49 -49h-760q-32 0 -43.5 11t-11.5 44v1311q0 51 47 51h772q29 0 37.5 -11.5t5.5 -35.5l-15 -123q-3 -26 -18.5 -34.5t-50.5 -8.5h-514v-370h475q28 0 38.5 -11.5t10.5 -34.5zM524 1868
l281 -199q23 -15 24.5 -28.5t-14.5 -36.5l-35 -52q-15 -21 -28.5 -23.5t-36.5 9.5l-312 172q-36 19 -12 57l62 93q15 23 30.5 25t40.5 -17z" />
    <glyph glyph-name="Eacute" unicode="&#xc9;" horiz-adv-x="1101" 
d="M938 788v-120q0 -23 -10.5 -34t-38.5 -11h-475v-410h549q51 0 51 -47v-117q0 -49 -49 -49h-760q-32 0 -43.5 11t-11.5 44v1311q0 51 47 51h772q29 0 37.5 -11.5t5.5 -35.5l-15 -123q-3 -26 -18.5 -34.5t-50.5 -8.5h-514v-370h475q28 0 38.5 -11.5t10.5 -34.5zM403 1669
l281 199q25 19 41 17t31 -25l61 -93q24 -38 -12 -57l-311 -172q-23 -13 -37 -10t-29 24l-35 52q-16 23 -14.5 36.5t24.5 28.5z" />
    <glyph glyph-name="Ecircumflex" unicode="&#xca;" horiz-adv-x="1101" 
d="M938 788v-120q0 -23 -10.5 -34t-38.5 -11h-475v-410h549q51 0 51 -47v-117q0 -49 -49 -49h-760q-32 0 -43.5 11t-11.5 44v1311q0 51 47 51h772q29 0 37.5 -11.5t5.5 -35.5l-15 -123q-3 -26 -18.5 -34.5t-50.5 -8.5h-514v-370h475q28 0 38.5 -11.5t10.5 -34.5zM573 1853
h33q35 0 60 -22l204 -186q29 -29 4 -54l-34 -37q-16 -16 -30 -16t-42 18l-178 117l-178 -117q-28 -18 -42 -18t-30 16l-35 37q-25 25 4 54l205 186q25 22 59 22z" />
    <glyph glyph-name="Edieresis" unicode="&#xcb;" horiz-adv-x="1101" 
d="M938 788v-120q0 -23 -10.5 -34t-38.5 -11h-475v-410h549q51 0 51 -47v-117q0 -49 -49 -49h-760q-32 0 -43.5 11t-11.5 44v1311q0 51 47 51h772q29 0 37.5 -11.5t5.5 -35.5l-15 -123q-3 -26 -18.5 -34.5t-50.5 -8.5h-514v-370h475q28 0 38.5 -11.5t10.5 -34.5zM530 1706
q0 -54 -38.5 -86.5t-85.5 -32.5q-49 0 -88 32t-39 85q0 56 37.5 88.5t89.5 32.5q49 0 86.5 -32.5t37.5 -86.5zM905 1706q0 -53 -39 -86t-86 -33q-49 0 -88 32t-39 85q0 56 37.5 88.5t89.5 32.5q49 0 87 -32.5t38 -86.5z" />
    <glyph glyph-name="Igrave" unicode="&#xcc;" horiz-adv-x="823" 
d="M700 1378v-90q0 -24 -10 -33.5t-33 -9.5h-116v-1073h112q43 0 43 -43v-88q0 -41 -37 -41h-491q-41 0 -41 39v92q0 22 9.5 31.5t31.5 9.5h111v1073h-119q-41 0 -41 41v90q0 41 37 41h501q21 0 32 -11.5t11 -27.5zM324 1868l280 -199q23 -15 24.5 -28.5t-14.5 -36.5
l-34 -52q-15 -21 -29 -24t-37 10l-311 172q-37 19 -13 57l62 93q15 23 31 25t41 -17z" />
    <glyph glyph-name="Iacute" unicode="&#xcd;" horiz-adv-x="823" 
d="M700 1378v-90q0 -24 -10 -33.5t-33 -9.5h-116v-1073h112q43 0 43 -43v-88q0 -41 -37 -41h-491q-41 0 -41 39v92q0 22 9.5 31.5t31.5 9.5h111v1073h-119q-41 0 -41 41v90q0 41 37 41h501q21 0 32 -11.5t11 -27.5zM203 1669l280 199q25 19 41 17t31 -25l61 -93
q24 -38 -12 -57l-311 -172q-23 -13 -37 -10t-29 24l-34 52q-16 23 -14.5 36.5t24.5 28.5z" />
    <glyph glyph-name="Icircumflex" unicode="&#xce;" horiz-adv-x="823" 
d="M700 1378v-90q0 -24 -10 -33.5t-33 -9.5h-116v-1073h112q43 0 43 -43v-88q0 -41 -37 -41h-491q-41 0 -41 39v92q0 22 9.5 31.5t31.5 9.5h111v1073h-119q-41 0 -41 41v90q0 41 37 41h501q21 0 32 -11.5t11 -27.5zM393 1853h33q34 0 59 -22l205 -186q29 -29 4 -54l-35 -37
q-16 -16 -29.5 -16t-41.5 18l-178 117l-179 -117q-28 -18 -41.5 -18t-29.5 16l-35 37q-25 25 4 54l205 186q25 22 59 22z" />
    <glyph glyph-name="Idieresis" unicode="&#xcf;" horiz-adv-x="823" 
d="M700 1378v-90q0 -24 -10 -33.5t-33 -9.5h-116v-1073h112q43 0 43 -43v-88q0 -41 -37 -41h-491q-41 0 -41 39v92q0 22 9.5 31.5t31.5 9.5h111v1073h-119q-41 0 -41 41v90q0 41 37 41h501q21 0 32 -11.5t11 -27.5zM350 1706q0 -53 -39 -86t-86 -33q-49 0 -88 32t-39 85
q0 56 37.5 88.5t89.5 32.5q49 0 87 -32.5t38 -86.5zM725 1706q0 -53 -39 -86t-86 -33q-49 0 -88 32t-39 85q0 56 37.5 88.5t89.5 32.5q49 0 87 -32.5t38 -86.5z" />
    <glyph glyph-name="Eth" unicode="&#xd0;" horiz-adv-x="1449" 
d="M1362 702q0 -357 -223 -548q-185 -154 -508 -154h-391q-33 0 -46.5 11.5t-13.5 45.5v580h-137q-26 0 -34.5 8t-8.5 31v82q0 24 8 31.5t33 7.5h139v559q0 33 13.5 47t50.5 14h295q182 0 306.5 -23.5t223.5 -80.5q141 -81 217 -234.5t76 -376.5zM446 797h232q25 0 33 -7.5
t8 -31.5v-82q0 -23 -8.5 -31t-34.5 -8h-230v-416h158q115 0 200 24t146 85q129 129 129 375q0 286 -159 405q-113 84 -324 84h-150v-397z" />
    <glyph glyph-name="Ntilde" unicode="&#xd1;" horiz-adv-x="1488" 
d="M1139 1417h149q28 0 40.5 -12t12.5 -41v-1309q0 -32 -12 -43.5t-37 -11.5h-131q-52 0 -84 43l-667 913h-4v-903q0 -53 -54 -53h-147q-30 0 -42.5 10.5t-12.5 40.5v1311q0 31 13 43t42 12h133q25 0 40 -8.5t30 -30.5l673 -925h4v911q0 53 54 53zM983 1776q23 14 35.5 12
t21.5 -21l33 -65q18 -37 -20 -60q-100 -67 -187 -67q-54 0 -133.5 36t-109.5 36q-53 0 -123 -43q-23 -14 -36 -12.5t-22 20.5l-32 65q-18 37 20 60q100 67 186 67q54 0 134 -35.5t110 -35.5q53 0 123 43z" />
    <glyph glyph-name="Ograve" unicode="&#xd2;" horiz-adv-x="1423" 
d="M1335 717q0 -171 -47 -311t-130.5 -234t-199.5 -145.5t-253 -51.5q-290 0 -453.5 197t-163.5 533q0 219 77 386.5t220.5 260t333.5 92.5q149 0 267 -54.5t194 -152t115.5 -229.5t39.5 -291zM1053 711q0 255 -87 382.5t-253 127.5q-155 0 -248.5 -136.5t-93.5 -373.5
q0 -252 88.5 -382t253.5 -130q156 0 248 133.5t92 378.5zM643 1868l281 -199q23 -15 24.5 -28.5t-14.5 -36.5l-35 -52q-15 -21 -28.5 -23.5t-36.5 9.5l-312 172q-36 19 -12 57l61 93q15 23 31 25t41 -17z" />
    <glyph glyph-name="Oacute" unicode="&#xd3;" horiz-adv-x="1423" 
d="M1335 717q0 -171 -47 -311t-130.5 -234t-199.5 -145.5t-253 -51.5q-290 0 -453.5 197t-163.5 533q0 219 77 386.5t220.5 260t333.5 92.5q149 0 267 -54.5t194 -152t115.5 -229.5t39.5 -291zM1053 711q0 255 -87 382.5t-253 127.5q-155 0 -248.5 -136.5t-93.5 -373.5
q0 -252 88.5 -382t253.5 -130q156 0 248 133.5t92 378.5zM522 1669l281 199q25 19 40.5 17t30.5 -25l62 -93q24 -38 -12 -57l-312 -172q-23 -12 -36.5 -9.5t-28.5 23.5l-35 52q-16 23 -14.5 36.5t24.5 28.5z" />
    <glyph glyph-name="Ocircumflex" unicode="&#xd4;" horiz-adv-x="1423" 
d="M1335 717q0 -171 -47 -311t-130.5 -234t-199.5 -145.5t-253 -51.5q-290 0 -453.5 197t-163.5 533q0 219 77 386.5t220.5 260t333.5 92.5q149 0 267 -54.5t194 -152t115.5 -229.5t39.5 -291zM1053 711q0 255 -87 382.5t-253 127.5q-155 0 -248.5 -136.5t-93.5 -373.5
q0 -252 88.5 -382t253.5 -130q156 0 248 133.5t92 378.5zM713 1853h32q35 0 60 -22l205 -186q29 -29 4 -54l-35 -37q-16 -16 -30 -16t-42 18l-178 117l-178 -117q-28 -18 -42 -18t-30 16l-35 37q-24 25 5 54l204 186q25 22 60 22z" />
    <glyph glyph-name="Otilde" unicode="&#xd5;" horiz-adv-x="1423" 
d="M1335 717q0 -171 -47 -311t-130.5 -234t-199.5 -145.5t-253 -51.5q-290 0 -453.5 197t-163.5 533q0 219 77 386.5t220.5 260t333.5 92.5q149 0 267 -54.5t194 -152t115.5 -229.5t39.5 -291zM1053 711q0 255 -87 382.5t-253 127.5q-155 0 -248.5 -136.5t-93.5 -373.5
q0 -252 88.5 -382t253.5 -130q156 0 248 133.5t92 378.5zM971 1776q23 14 35.5 12t21.5 -21l33 -65q9 -18 4.5 -32.5t-25.5 -27.5q-100 -67 -186 -67q-54 0 -134 36t-110 36q-53 0 -123 -43q-23 -14 -35.5 -12.5t-21.5 20.5l-33 65q-9 18 -4.5 32.5t25.5 27.5q100 67 186 67
q54 0 134 -35.5t110 -35.5q53 0 123 43z" />
    <glyph glyph-name="Odieresis" unicode="&#xd6;" horiz-adv-x="1423" 
d="M1335 717q0 -171 -47 -311t-130.5 -234t-199.5 -145.5t-253 -51.5q-290 0 -453.5 197t-163.5 533q0 219 77 386.5t220.5 260t333.5 92.5q149 0 267 -54.5t194 -152t115.5 -229.5t39.5 -291zM1053 711q0 255 -87 382.5t-253 127.5q-155 0 -248.5 -136.5t-93.5 -373.5
q0 -252 88.5 -382t253.5 -130q156 0 248 133.5t92 378.5zM664 1706q0 -53 -39 -86t-86 -33q-49 0 -88 32t-39 85q0 56 37.5 88.5t89.5 32.5q49 0 87 -32.5t38 -86.5zM1038 1706q0 -53 -39 -86t-86 -33q-49 0 -88 32t-39 85q0 56 37.5 88.5t89.5 32.5q49 0 87 -32.5t38 -86.5
z" />
    <glyph glyph-name="multiply" unicode="&#xd7;" horiz-adv-x="1071" 
d="M750 174l-215 213l-211 -213q-36 -34 -72 2l-82 82q-19 19 -19.5 33t19.5 35l213 213l-209 211q-22 22 -22 37.5t20 35.5l76 78q22 21 38.5 21.5t37.5 -19.5l211 -211l210 209q22 22 38 22t36 -20l78 -76q21 -22 21.5 -38t-19.5 -37l-211 -213l213 -211q34 -36 -2 -72
l-82 -82q-19 -19 -32.5 -19.5t-34.5 19.5z" />
    <glyph glyph-name="Oslash" unicode="&#xd8;" horiz-adv-x="1433" 
d="M1350 717q0 -171 -47 -311t-130.5 -234t-200 -145.5t-253.5 -51.5q-205 0 -352 103l-95 -133q-21 -29 -37.5 -32t-39.5 15l-58 41q-23 16 -25.5 30.5t15.5 39.5l117 164q-142 190 -142 502q0 219 77 386.5t220.5 260t333.5 92.5q187 0 326 -90l104 145q27 38 54 19
l73 -56q24 -18 27 -31t-10 -30l-115 -162q158 -196 158 -522zM428 455l490 704q-78 66 -193 66q-155 0 -247.5 -138t-92.5 -376q0 -155 43 -256zM1067 711q0 177 -47 295l-506 -727q84 -84 213 -84q155 0 247.5 135t92.5 381z" />
    <glyph glyph-name="Ugrave" unicode="&#xd9;" horiz-adv-x="1474" 
d="M1331 1368v-739q0 -319 -150.5 -486.5t-447.5 -167.5q-160 0 -274 43t-183 129t-101 205.5t-32 280.5v735q0 49 54 49h161q26 0 38 -11.5t12 -37.5v-713q0 -236 74 -346t261 -110q179 0 252.5 112.5t73.5 343.5v713q0 49 51 49h162q26 0 37.5 -11.5t11.5 -37.5zM649 1868
l281 -199q23 -15 24.5 -28.5t-14.5 -36.5l-35 -52q-15 -21 -28.5 -23.5t-36.5 9.5l-312 172q-36 19 -12 57l62 93q15 23 30.5 25t40.5 -17z" />
    <glyph glyph-name="Uacute" unicode="&#xda;" horiz-adv-x="1474" 
d="M1331 1368v-739q0 -319 -150.5 -486.5t-447.5 -167.5q-160 0 -274 43t-183 129t-101 205.5t-32 280.5v735q0 49 54 49h161q26 0 38 -11.5t12 -37.5v-713q0 -236 74 -346t261 -110q179 0 252.5 112.5t73.5 343.5v713q0 49 51 49h162q26 0 37.5 -11.5t11.5 -37.5zM549 1669
l280 199q25 19 41 17t31 -25l62 -93q24 -38 -13 -57l-311 -172q-23 -13 -37 -10t-29 24l-34 52q-16 23 -14.5 36.5t24.5 28.5z" />
    <glyph glyph-name="Ucircumflex" unicode="&#xdb;" horiz-adv-x="1474" 
d="M1331 1368v-739q0 -319 -150.5 -486.5t-447.5 -167.5q-160 0 -274 43t-183 129t-101 205.5t-32 280.5v735q0 49 54 49h161q26 0 38 -11.5t12 -37.5v-713q0 -236 74 -346t261 -110q179 0 252.5 112.5t73.5 343.5v713q0 49 51 49h162q26 0 37.5 -11.5t11.5 -37.5zM731 1853
h33q34 0 59 -22l205 -186q29 -29 4 -54l-35 -37q-16 -16 -29.5 -16t-41.5 18l-178 117l-179 -117q-28 -18 -41.5 -18t-29.5 16l-35 37q-25 25 4 54l205 186q25 22 59 22z" />
    <glyph glyph-name="Udieresis" unicode="&#xdc;" horiz-adv-x="1474" 
d="M1331 1368v-739q0 -319 -150.5 -486.5t-447.5 -167.5q-160 0 -274 43t-183 129t-101 205.5t-32 280.5v735q0 49 54 49h161q26 0 38 -11.5t12 -37.5v-713q0 -236 74 -346t261 -110q179 0 252.5 112.5t73.5 343.5v713q0 49 51 49h162q26 0 37.5 -11.5t11.5 -37.5zM676 1706
q0 -53 -39 -86t-86 -33q-49 0 -88 32t-39 85q0 56 37.5 88.5t89.5 32.5q49 0 87 -32.5t38 -86.5zM1051 1706q0 -53 -39 -86t-86 -33q-49 0 -88 32t-39 85q0 56 37.5 88.5t89.5 32.5q49 0 87 -32.5t38 -86.5z" />
    <glyph glyph-name="Yacute" unicode="&#xdd;" horiz-adv-x="1212" 
d="M627 799h4l291 575q12 25 27 34t44 9h150q54 0 28 -51l-421 -780v-539q0 -47 -48 -47h-172q-47 0 -47 51v524l-444 793q-11 17 -3 33t34 16h190q53 0 72 -39zM422 1669l280 199q25 19 41 17t31 -25l62 -93q24 -38 -13 -57l-311 -172q-23 -13 -37 -10t-29 24l-34 52
q-16 23 -14.5 36.5t24.5 28.5z" />
    <glyph glyph-name="Thorn" unicode="&#xde;" horiz-adv-x="1138" 
d="M414 1368v-180h84q170 0 287.5 -36.5t189.5 -119.5q102 -117 102 -291q0 -230 -162 -360q-147 -113 -383 -113q-56 0 -118 6v-223q0 -28 -11.5 -39.5t-37.5 -11.5h-162q-28 0 -40.5 12t-12.5 39v1317q0 49 53 49h162q26 0 37.5 -11t11.5 -38zM811 731q0 252 -291 252
h-106v-508q36 -4 92 -4q174 0 244 76q61 67 61 184z" />
    <glyph glyph-name="germandbls" unicode="&#xdf;" horiz-adv-x="1218" 
d="M381 -135q0 -29 -10.5 -42t-38.5 -13h-150q-49 0 -49 53v1155q0 230 117 350q117 123 348 123q202 0 325.5 -98t123.5 -273q0 -110 -61 -203t-167 -120v-2q146 -18 240 -116.5t94 -250.5q0 -117 -42 -205.5t-115.5 -139.5t-163.5 -76t-195 -25q-51 0 -98 6
q-21 3 -28 12.5t-7 30.5v110q0 23 8 31t31 8q4 0 33 -1t49 -1q131 0 204.5 71t73.5 183q0 64 -23.5 112.5t-65.5 77t-94.5 42.5t-115.5 14h-57q-28 0 -35.5 7t-7.5 26v116q0 20 6 25.5t27 5.5h26q109 0 171.5 60t62.5 169q0 100 -52.5 154.5t-150.5 54.5q-104 0 -160 -65
q-53 -63 -53 -195v-1171z" />
    <glyph glyph-name="agrave" unicode="&#xe0;" horiz-adv-x="1142" 
d="M1094 135v-96q0 -39 -41 -39h-99q-144 0 -168 121h-4q-47 -63 -129 -104.5t-168 -41.5q-105 0 -187 41t-131.5 111.5t-75 160t-25.5 191.5q0 129 36.5 233.5t98.5 170.5t141 101.5t166 35.5q81 0 152 -33t110 -86l4 55q3 37 43 37h144q43 0 43 -45v-723q0 -29 7.5 -42
t28.5 -13h17q19 0 28 -7.5t9 -27.5zM756 317v396q-31 45 -88 74.5t-115 29.5q-99 0 -165 -83.5t-66 -237.5q0 -139 54.5 -228.5t162.5 -89.5q70 0 130.5 43t86.5 96zM483 1458l281 -198q23 -15 24.5 -29t-14.5 -37l-35 -51q-15 -21 -28.5 -24t-36.5 9l-312 172
q-37 19 -12 58l62 92q15 23 30.5 25t40.5 -17z" />
    <glyph glyph-name="aacute" unicode="&#xe1;" horiz-adv-x="1142" 
d="M1094 135v-96q0 -39 -41 -39h-99q-144 0 -168 121h-4q-47 -63 -129 -104.5t-168 -41.5q-105 0 -187 41t-131.5 111.5t-75 160t-25.5 191.5q0 129 36.5 233.5t98.5 170.5t141 101.5t166 35.5q81 0 152 -33t110 -86l4 55q3 37 43 37h144q43 0 43 -45v-723q0 -29 7.5 -42
t28.5 -13h17q19 0 28 -7.5t9 -27.5zM756 317v396q-31 45 -88 74.5t-115 29.5q-99 0 -165 -83.5t-66 -237.5q0 -139 54.5 -228.5t162.5 -89.5q70 0 130.5 43t86.5 96zM383 1260l281 198q25 19 40.5 17t30.5 -25l62 -92q25 -38 -13 -58l-311 -172q-23 -12 -36.5 -9t-28.5 24
l-35 51q-16 23 -14.5 37t24.5 29z" />
    <glyph glyph-name="acircumflex" unicode="&#xe2;" horiz-adv-x="1142" 
d="M1094 135v-96q0 -39 -41 -39h-99q-144 0 -168 121h-4q-47 -63 -129 -104.5t-168 -41.5q-105 0 -187 41t-131.5 111.5t-75 160t-25.5 191.5q0 129 36.5 233.5t98.5 170.5t141 101.5t166 35.5q81 0 152 -33t110 -86l4 55q3 37 43 37h144q43 0 43 -45v-723q0 -29 7.5 -42
t28.5 -13h17q19 0 28 -7.5t9 -27.5zM756 317v396q-31 45 -88 74.5t-115 29.5q-99 0 -165 -83.5t-66 -237.5q0 -139 54.5 -228.5t162.5 -89.5q70 0 130.5 43t86.5 96zM559 1444h33q33 0 59 -23l205 -186q28 -29 4 -53l-35 -37q-16 -16 -29.5 -16t-41.5 18l-179 117l-178 -117
q-28 -18 -41.5 -18t-29.5 16l-35 37q-25 24 4 53l205 186q26 23 59 23z" />
    <glyph glyph-name="atilde" unicode="&#xe3;" horiz-adv-x="1142" 
d="M1094 135v-96q0 -39 -41 -39h-99q-144 0 -168 121h-4q-47 -63 -129 -104.5t-168 -41.5q-105 0 -187 41t-131.5 111.5t-75 160t-25.5 191.5q0 129 36.5 233.5t98.5 170.5t141 101.5t166 35.5q81 0 152 -33t110 -86l4 55q3 37 43 37h144q43 0 43 -45v-723q0 -29 7.5 -42
t28.5 -13h17q19 0 28 -7.5t9 -27.5zM756 317v396q-31 45 -88 74.5t-115 29.5q-99 0 -165 -83.5t-66 -237.5q0 -139 54.5 -228.5t162.5 -89.5q70 0 130.5 43t86.5 96zM817 1366q23 14 35.5 12.5t21.5 -20.5l33 -66q10 -18 5.5 -32t-25.5 -27q-101 -68 -187 -68
q-54 0 -133.5 36t-109.5 36q-53 0 -123 -43q-23 -14 -36 -12.5t-22 20.5l-32 66q-10 18 -5.5 32t25.5 27q101 68 187 68q54 0 133.5 -36t109.5 -36q53 0 123 43z" />
    <glyph glyph-name="adieresis" unicode="&#xe4;" horiz-adv-x="1142" 
d="M1094 135v-96q0 -39 -41 -39h-99q-144 0 -168 121h-4q-47 -63 -129 -104.5t-168 -41.5q-105 0 -187 41t-131.5 111.5t-75 160t-25.5 191.5q0 129 36.5 233.5t98.5 170.5t141 101.5t166 35.5q81 0 152 -33t110 -86l4 55q3 37 43 37h144q43 0 43 -45v-723q0 -29 7.5 -42
t28.5 -13h17q19 0 28 -7.5t9 -27.5zM756 317v396q-31 45 -88 74.5t-115 29.5q-99 0 -165 -83.5t-66 -237.5q0 -139 54.5 -228.5t162.5 -89.5q70 0 130.5 43t86.5 96zM526 1296q0 -53 -39 -85.5t-86 -32.5q-49 0 -88 31.5t-39 84.5q0 56 37.5 88.5t89.5 32.5q49 0 87 -32.5
t38 -86.5zM901 1296q0 -53 -39 -85.5t-86 -32.5q-49 0 -88 31.5t-39 84.5q0 56 37.5 88.5t89.5 32.5q49 0 87 -32.5t38 -86.5z" />
    <glyph glyph-name="aring" unicode="&#xe5;" horiz-adv-x="1142" 
d="M1094 135v-96q0 -39 -41 -39h-99q-144 0 -168 121h-4q-47 -63 -129 -104.5t-168 -41.5q-105 0 -187 41t-131.5 111.5t-75 160t-25.5 191.5q0 129 36.5 233.5t98.5 170.5t141 101.5t166 35.5q81 0 152 -33t110 -86l4 55q3 37 43 37h144q43 0 43 -45v-723q0 -29 7.5 -42
t28.5 -13h17q19 0 28 -7.5t9 -27.5zM756 317v396q-31 45 -88 74.5t-115 29.5q-99 0 -165 -83.5t-66 -237.5q0 -139 54.5 -228.5t162.5 -89.5q70 0 130.5 43t86.5 96zM571 1225q24 0 39 15.5t15 39.5t-15 39.5t-39 15.5t-38.5 -15.5t-14.5 -39.5t14.5 -39.5t38.5 -15.5z
M571 1116q-72 0 -120 47t-48 117t48 117t120 47t120 -47t48 -117t-48 -117t-120 -47z" />
    <glyph glyph-name="ae" unicode="&#xe6;" horiz-adv-x="1599" 
d="M1126 -25q-234 0 -368 134q-165 -134 -367 -134q-146 0 -242 80.5t-96 218.5q0 96 47.5 167t131 111.5t185.5 58.5t222 16v49q0 158 -182 158q-116 0 -260 -72q-34 -15 -45 18l-35 94q-12 36 28 58q157 88 347 88q101 0 181 -33.5t120 -101.5h4q52 62 138 98.5t187 36.5
q103 0 183.5 -40t130 -109t75 -157.5t25.5 -191.5q0 -49 -12.5 -64.5t-46.5 -15.5h-603q12 -119 92 -193.5t201 -74.5q126 0 252 49q25 8 35.5 4t15.5 -22l29 -105q7 -20 1 -34.5t-30 -24.5q-71 -32 -165 -49t-179 -17zM676 256q-37 79 -37 182v23q-157 0 -245.5 -42.5
t-88.5 -125.5q0 -58 41 -91.5t107 -33.5q61 0 122.5 25.5t100.5 62.5zM879 602h419q0 99 -46.5 163t-143.5 64q-95 0 -155.5 -65t-73.5 -162z" />
    <glyph glyph-name="ccedilla" unicode="&#xe7;" horiz-adv-x="915" 
d="M786 -264q0 -77 -65 -127.5t-170 -50.5q-80 0 -150 28q-18 7 -23.5 15.5t-2.5 23.5l14 66q3 12 10.5 15t32.5 -3q59 -18 103 -18q36 0 59.5 14t23.5 39q0 28 -20 40.5t-80 12.5h-29q-49 0 -61.5 13.5t-9.5 50.5l14 131q-179 32 -275 163t-96 338q0 241 136.5 387
t371.5 146q149 0 275 -57q19 -8 22.5 -21t-2.5 -33l-26 -110q-9 -36 -47 -19q-98 45 -197 45q-131 0 -204 -86.5t-73 -238.5t69 -242t198 -90q103 0 215 45q36 13 45 -16l28 -101q7 -23 2.5 -36t-26.5 -23q-129 -59 -285 -62l-4 -65h16q101 0 156 -44.5t55 -129.5z" />
    <glyph glyph-name="egrave" unicode="&#xe8;" horiz-adv-x="1054" 
d="M623 174q125 0 251 49q43 16 52 -18l28 -105q7 -20 1 -34.5t-29 -24.5q-71 -32 -165 -49t-179 -17q-240 0 -376 142t-136 383q0 231 140 375.5t368 144.5q182 0 299 -123q120 -125 120 -367v-30q0 -36 -14 -48t-53 -12h-600q12 -119 92 -192.5t201 -73.5zM334 602h420v23
q-3 86 -52.5 145t-138.5 59q-95 0 -155.5 -65t-73.5 -162zM459 1458l280 -198q23 -15 25 -29t-14 -37l-35 -51q-15 -21 -29 -24t-37 9l-311 172q-37 19 -12 58l61 92q15 23 31 25t41 -17z" />
    <glyph glyph-name="eacute" unicode="&#xe9;" horiz-adv-x="1054" 
d="M623 174q125 0 251 49q43 16 52 -18l28 -105q7 -20 1 -34.5t-29 -24.5q-71 -32 -165 -49t-179 -17q-240 0 -376 142t-136 383q0 231 140 375.5t368 144.5q182 0 299 -123q120 -125 120 -367v-30q0 -36 -14 -48t-53 -12h-600q12 -119 92 -192.5t201 -73.5zM334 602h420v23
q-3 86 -52.5 145t-138.5 59q-95 0 -155.5 -65t-73.5 -162zM379 1260l280 198q25 19 41 17t31 -25l62 -92q25 -38 -13 -58l-311 -172q-23 -12 -37 -9t-29 24l-34 51q-16 23 -14.5 37t24.5 29z" />
    <glyph glyph-name="ecircumflex" unicode="&#xea;" horiz-adv-x="1054" 
d="M623 174q125 0 251 49q43 16 52 -18l28 -105q7 -20 1 -34.5t-29 -24.5q-71 -32 -165 -49t-179 -17q-240 0 -376 142t-136 383q0 231 140 375.5t368 144.5q182 0 299 -123q120 -125 120 -367v-30q0 -36 -14 -48t-53 -12h-600q12 -119 92 -192.5t201 -73.5zM334 602h420v23
q-3 86 -52.5 145t-138.5 59q-95 0 -155.5 -65t-73.5 -162zM543 1444h32q34 0 60 -23l205 -186q28 -29 4 -53l-35 -37q-16 -16 -30 -16t-42 18l-178 117l-178 -117q-28 -18 -42 -18t-30 16l-35 37q-24 24 5 53l204 186q26 23 60 23z" />
    <glyph glyph-name="edieresis" unicode="&#xeb;" horiz-adv-x="1054" 
d="M623 174q125 0 251 49q43 16 52 -18l28 -105q7 -20 1 -34.5t-29 -24.5q-71 -32 -165 -49t-179 -17q-240 0 -376 142t-136 383q0 231 140 375.5t368 144.5q182 0 299 -123q120 -125 120 -367v-30q0 -36 -14 -48t-53 -12h-600q12 -119 92 -192.5t201 -73.5zM334 602h420v23
q-3 86 -52.5 145t-138.5 59q-95 0 -155.5 -65t-73.5 -162zM506 1296q0 -53 -39 -85.5t-86 -32.5q-49 0 -88 31.5t-39 84.5q0 56 37.5 88.5t89.5 32.5q49 0 87 -32.5t38 -86.5zM881 1296q0 -53 -39 -85.5t-86 -32.5q-49 0 -88 31.5t-39 84.5q0 56 37.5 88.5t89.5 32.5
q49 0 87 -32.5t38 -86.5z" />
    <glyph glyph-name="igrave" unicode="&#xec;" horiz-adv-x="534" 
d="M393 946v-895q0 -27 -12 -39t-39 -12h-143q-28 0 -41 12t-13 39v895q0 47 54 47h143q26 0 38.5 -10t12.5 -37zM180 1458l281 -198q23 -15 24.5 -29t-14.5 -37l-35 -51q-15 -21 -28.5 -24t-36.5 9l-312 172q-37 19 -12 58l62 92q15 23 30.5 25t40.5 -17z" />
    <glyph glyph-name="iacute" unicode="&#xed;" horiz-adv-x="534" 
d="M393 946v-895q0 -27 -12 -39t-39 -12h-143q-28 0 -41 12t-13 39v895q0 47 54 47h143q26 0 38.5 -10t12.5 -37zM59 1260l281 198q25 19 41 17t31 -25l61 -92q25 -39 -12 -58l-311 -172q-23 -12 -37 -9t-29 24l-35 51q-16 23 -14.5 37t24.5 29z" />
    <glyph glyph-name="icircumflex" unicode="&#xee;" horiz-adv-x="534" 
d="M393 946v-895q0 -27 -12 -39t-39 -12h-143q-28 0 -41 12t-13 39v895q0 47 54 47h143q26 0 38.5 -10t12.5 -37zM250 1444h33q33 0 59 -23l205 -186q29 -29 4 -53l-35 -37q-16 -16 -30 -16t-42 18l-178 117l-178 -117q-28 -18 -42 -18t-30 16l-34 37q-24 24 4 53l204 186
q26 23 60 23z" />
    <glyph glyph-name="idieresis" unicode="&#xef;" horiz-adv-x="534" 
d="M393 946v-895q0 -27 -12 -39t-39 -12h-143q-28 0 -41 12t-13 39v895q0 47 54 47h143q26 0 38.5 -10t12.5 -37zM207 1296q0 -53 -39 -85.5t-86 -32.5q-49 0 -88 31.5t-39 84.5q0 56 37.5 88.5t89.5 32.5q49 0 87 -32.5t38 -86.5zM582 1296q0 -53 -39 -85.5t-86 -32.5
q-49 0 -88 31.5t-39 84.5q0 56 37.5 88.5t89.5 32.5q49 0 87 -32.5t38 -86.5z" />
    <glyph glyph-name="eth" unicode="&#xf0;" horiz-adv-x="1132" 
d="M750 1542l38 -51q17 -22 15 -33.5t-27 -30.5l-67 -49q178 -168 260 -380.5t82 -434.5q0 -125 -31 -230.5t-90.5 -186t-154.5 -126t-216 -45.5q-119 0 -213.5 40t-154 111t-90.5 166t-31 208q0 226 133.5 373t353.5 147q113 0 180 -49q-65 156 -184 293l-147 -107
q-22 -15 -35 -14t-25 20l-39 58q-12 16 -10 28.5t22 26.5l127 92q-39 36 -81 64q-21 13 -22.5 24.5t11.5 24.5l56 63q13 15 28 15.5t41 -13.5q70 -41 111 -73l100 73q22 15 35 14t25 -18zM801 498q0 67 -11.5 123t-37.5 104t-73 75t-112 27q-66 0 -114 -27t-75 -74
t-39.5 -102t-12.5 -120q0 -67 11.5 -123.5t37 -105t72.5 -76t112 -27.5t113.5 27t75.5 73.5t40 103t13 122.5z" />
    <glyph glyph-name="ntilde" unicode="&#xf1;" horiz-adv-x="1148" 
d="M1020 653v-600q0 -27 -11 -40t-38 -13h-148q-27 0 -38 13t-11 40v557q0 93 -34 143t-122 50q-59 0 -126 -28t-115 -70v-654q0 -51 -49 -51h-150q-49 0 -49 49v893q0 51 51 51h133q23 0 35.5 -8.5t13.5 -30.5l3 -53q147 119 331 119q166 0 245 -96.5t79 -270.5zM834 1366
q23 14 35.5 12.5t21.5 -20.5l33 -66q9 -18 4.5 -32t-25.5 -27q-101 -68 -186 -68q-54 0 -134 36t-110 36q-53 0 -123 -43q-23 -14 -35.5 -12.5t-21.5 20.5l-33 66q-9 18 -4.5 32t25.5 27q101 68 186 68q54 0 134 -36t110 -36q53 0 123 43z" />
    <glyph glyph-name="ograve" unicode="&#xf2;" horiz-adv-x="1126" 
d="M1057 498q0 -149 -57.5 -266.5t-172.5 -187t-270 -69.5q-122 0 -216.5 39.5t-153 111t-88 166t-29.5 208.5q0 149 57.5 265.5t172 185.5t269.5 69q241 0 364.5 -143t123.5 -379zM801 498q0 67 -11.5 122.5t-37.5 103t-73 74.5t-112 27q-66 0 -114 -26.5t-75 -73
t-39.5 -101.5t-12.5 -120q0 -67 11.5 -123.5t36.5 -105.5t72.5 -77t112.5 -28t113.5 27t75.5 74.5t40 104t13 122.5zM483 1458l281 -198q23 -15 24.5 -29t-14.5 -37l-35 -51q-15 -21 -28.5 -24t-36.5 9l-312 172q-37 19 -12 58l62 92q15 23 30.5 25t40.5 -17z" />
    <glyph glyph-name="oacute" unicode="&#xf3;" horiz-adv-x="1126" 
d="M1057 498q0 -149 -57.5 -266.5t-172.5 -187t-270 -69.5q-122 0 -216.5 39.5t-153 111t-88 166t-29.5 208.5q0 149 57.5 265.5t172 185.5t269.5 69q241 0 364.5 -143t123.5 -379zM801 498q0 67 -11.5 122.5t-37.5 103t-73 74.5t-112 27q-66 0 -114 -26.5t-75 -73
t-39.5 -101.5t-12.5 -120q0 -67 11.5 -123.5t36.5 -105.5t72.5 -77t112.5 -28t113.5 27t75.5 74.5t40 104t13 122.5zM354 1260l281 198q25 19 41 17t31 -25l61 -92q25 -39 -12 -58l-312 -172q-23 -12 -36.5 -9t-28.5 24l-35 51q-16 23 -14.5 37t24.5 29z" />
    <glyph glyph-name="ocircumflex" unicode="&#xf4;" horiz-adv-x="1126" 
d="M1057 498q0 -149 -57.5 -266.5t-172.5 -187t-270 -69.5q-122 0 -216.5 39.5t-153 111t-88 166t-29.5 208.5q0 149 57.5 265.5t172 185.5t269.5 69q241 0 364.5 -143t123.5 -379zM801 498q0 67 -11.5 122.5t-37.5 103t-73 74.5t-112 27q-66 0 -114 -26.5t-75 -73
t-39.5 -101.5t-12.5 -120q0 -67 11.5 -123.5t36.5 -105.5t72.5 -77t112.5 -28t113.5 27t75.5 74.5t40 104t13 122.5zM545 1444h33q33 0 59 -23l205 -186q28 -29 4 -53l-35 -37q-16 -16 -30 -16t-42 18l-178 117l-178 -117q-28 -18 -42 -18t-30 16l-35 37q-24 24 5 53
l204 186q26 23 60 23z" />
    <glyph glyph-name="otilde" unicode="&#xf5;" horiz-adv-x="1126" 
d="M1057 498q0 -149 -57.5 -266.5t-172.5 -187t-270 -69.5q-122 0 -216.5 39.5t-153 111t-88 166t-29.5 208.5q0 149 57.5 265.5t172 185.5t269.5 69q241 0 364.5 -143t123.5 -379zM801 498q0 67 -11.5 122.5t-37.5 103t-73 74.5t-112 27q-66 0 -114 -26.5t-75 -73
t-39.5 -101.5t-12.5 -120q0 -67 11.5 -123.5t36.5 -105.5t72.5 -77t112.5 -28t113.5 27t75.5 74.5t40 104t13 122.5zM807 1366q23 14 35.5 12.5t21.5 -20.5l33 -66q10 -18 5.5 -32t-25.5 -27q-101 -68 -187 -68q-54 0 -134 36t-110 36q-52 0 -122 -43q-23 -14 -36 -12.5
t-22 20.5l-33 66q-9 18 -4.5 32t25.5 27q101 68 186 68q54 0 134 -36t110 -36q53 0 123 43z" />
    <glyph glyph-name="odieresis" unicode="&#xf6;" horiz-adv-x="1126" 
d="M1057 498q0 -149 -57.5 -266.5t-172.5 -187t-270 -69.5q-122 0 -216.5 39.5t-153 111t-88 166t-29.5 208.5q0 149 57.5 265.5t172 185.5t269.5 69q241 0 364.5 -143t123.5 -379zM801 498q0 67 -11.5 122.5t-37.5 103t-73 74.5t-112 27q-66 0 -114 -26.5t-75 -73
t-39.5 -101.5t-12.5 -120q0 -67 11.5 -123.5t36.5 -105.5t72.5 -77t112.5 -28t113.5 27t75.5 74.5t40 104t13 122.5zM502 1296q0 -53 -39 -85.5t-86 -32.5q-49 0 -88 31.5t-39 84.5q0 56 37.5 88.5t89.5 32.5q49 0 87 -32.5t38 -86.5zM877 1296q0 -53 -39 -85.5t-86 -32.5
q-49 0 -88 31.5t-39 84.5q0 56 37.5 88.5t89.5 32.5q49 0 87 -32.5t38 -86.5z" />
    <glyph glyph-name="divide" unicode="&#xf7;" horiz-adv-x="1071" 
d="M682 895q0 -61 -44 -99t-99 -38q-57 0 -102.5 37.5t-45.5 99.5q0 64 44 100.5t104 36.5q58 0 100.5 -37t42.5 -100zM682 188q0 -61 -44 -99t-99 -38q-57 0 -102.5 36.5t-45.5 98.5q0 64 44.5 102t103.5 38q58 0 100.5 -37.5t42.5 -100.5zM942 432h-815q-28 0 -38.5 12.5
t-10.5 38.5v115q0 27 10 38t37 11h815q30 0 41.5 -11.5t11.5 -39.5v-109q0 -30 -11 -42.5t-40 -12.5z" />
    <glyph glyph-name="oslash" unicode="&#xf8;" horiz-adv-x="1126" 
d="M1057 498q0 -149 -57.5 -266.5t-172.5 -187t-270 -69.5q-133 0 -223 43l-55 -88q-20 -36 -52 -14l-41 27q-28 17 -12 43l59 94q-163 138 -163 420q0 149 57.5 265.5t172 185.5t269.5 69q134 0 224 -43l47 76q15 25 29 30.5t34 -6.5l33 -20q16 -10 16.5 -21.5t-10.5 -29.5
l-53 -86q168 -134 168 -422zM801 498q0 130 -41 213l-316 -512q50 -29 115 -29t113.5 27t75.5 74.5t40 104t13 122.5zM365 291l315 506q-48 28 -113 28q-66 0 -114 -26.5t-75 -73t-39.5 -101.5t-12.5 -120q0 -131 39 -213z" />
    <glyph glyph-name="ugrave" unicode="&#xf9;" horiz-adv-x="1138" 
d="M1014 946v-889q0 -32 -11 -44.5t-42 -12.5h-132q-46 0 -49 41l-2 51q-145 -117 -325 -117q-166 0 -245 97t-79 270v604q0 47 53 47h144q26 0 38.5 -10t12.5 -37v-561q0 -94 32.5 -142t118.5 -48q58 0 124.5 28t113.5 70v653q0 47 51 47h146q26 0 38.5 -10t12.5 -37z
M481 1458l281 -198q23 -15 24.5 -29t-14.5 -37l-35 -51q-15 -21 -28.5 -24t-36.5 9l-312 172q-37 19 -12 58l62 92q15 23 30.5 25t40.5 -17z" />
    <glyph glyph-name="uacute" unicode="&#xfa;" horiz-adv-x="1138" 
d="M1014 946v-889q0 -32 -11 -44.5t-42 -12.5h-132q-46 0 -49 41l-2 51q-145 -117 -325 -117q-166 0 -245 97t-79 270v604q0 47 53 47h144q26 0 38.5 -10t12.5 -37v-561q0 -94 32.5 -142t118.5 -48q58 0 124.5 28t113.5 70v653q0 47 51 47h146q26 0 38.5 -10t12.5 -37z
M401 1260l281 198q25 19 41 17t31 -25l61 -92q25 -39 -12 -58l-311 -172q-23 -12 -37 -9t-29 24l-35 51q-16 23 -14.5 37t24.5 29z" />
    <glyph glyph-name="ucircumflex" unicode="&#xfb;" horiz-adv-x="1138" 
d="M1014 946v-889q0 -32 -11 -44.5t-42 -12.5h-132q-46 0 -49 41l-2 51q-145 -117 -325 -117q-166 0 -245 97t-79 270v604q0 47 53 47h144q26 0 38.5 -10t12.5 -37v-561q0 -94 32.5 -142t118.5 -48q58 0 124.5 28t113.5 70v653q0 47 51 47h146q26 0 38.5 -10t12.5 -37z
M551 1444h33q33 0 59 -23l205 -186q28 -29 4 -53l-35 -37q-16 -16 -30 -16t-42 18l-178 117l-178 -117q-28 -18 -42 -18t-30 16l-34 37q-25 24 4 53l205 186q26 23 59 23z" />
    <glyph glyph-name="udieresis" unicode="&#xfc;" horiz-adv-x="1138" 
d="M1014 946v-889q0 -32 -11 -44.5t-42 -12.5h-132q-46 0 -49 41l-2 51q-145 -117 -325 -117q-166 0 -245 97t-79 270v604q0 47 53 47h144q26 0 38.5 -10t12.5 -37v-561q0 -94 32.5 -142t118.5 -48q58 0 124.5 28t113.5 70v653q0 47 51 47h146q26 0 38.5 -10t12.5 -37z
M512 1296q0 -53 -39 -85.5t-86 -32.5q-49 0 -88 31.5t-39 84.5q0 56 37.5 88.5t89.5 32.5q49 0 87 -32.5t38 -86.5zM887 1296q0 -53 -39 -85.5t-86 -32.5q-49 0 -88 31.5t-39 84.5q0 56 37.5 88.5t89.5 32.5q49 0 87 -32.5t38 -86.5z" />
    <glyph glyph-name="yacute" unicode="&#xfd;" horiz-adv-x="1052" 
d="M827 993h166q48 0 29 -49l-404 -1061q-69 -184 -168.5 -256.5t-283.5 -72.5q-73 0 -109 10q-23 7 -27 18t-1 35l14 107q3 20 11.5 28t25.5 8q9 0 39 -3t43 -3q92 0 140.5 33.5t80.5 108.5l39 92l-373 960q-8 19 -1 32t28 13h192q46 0 58 -41l225 -671l215 665
q8 25 21.5 36t39.5 11zM358 1260l281 198q25 19 41 17t31 -25l61 -92q25 -39 -12 -58l-311 -172q-23 -12 -37 -9t-29 24l-35 51q-16 23 -14.5 37t24.5 29z" />
    <glyph glyph-name="thorn" unicode="&#xfe;" horiz-adv-x="1140" 
d="M129 -389v1773q0 26 8.5 39.5t32.5 16.5l166 22q41 4 41 -37v-510q47 47 120 76t148 29q182 0 297 -125q62 -68 95.5 -168t33.5 -215q0 -118 -34.5 -221t-98.5 -176q-124 -140 -313 -140q-71 0 -137.5 26t-110.5 71v-461q0 -29 -13.5 -41t-41.5 -12h-144q-49 0 -49 53z
M813 500q0 158 -57 237q-58 84 -170 84q-55 0 -116 -30t-93 -70v-447q32 -42 88 -71t113 -29q99 0 161 76q74 92 74 250z" />
    <glyph glyph-name="ydieresis" unicode="&#xff;" horiz-adv-x="1052" 
d="M827 993h166q48 0 29 -49l-404 -1061q-69 -184 -168.5 -256.5t-283.5 -72.5q-73 0 -109 10q-23 7 -27 18t-1 35l14 107q3 20 11.5 28t25.5 8q9 0 39 -3t43 -3q92 0 140.5 33.5t80.5 108.5l39 92l-373 960q-8 19 -1 32t28 13h192q46 0 58 -41l225 -671l215 665
q8 25 21.5 36t39.5 11zM492 1296q0 -53 -39 -85.5t-86 -32.5q-49 0 -88 31.5t-39 84.5q0 56 37.5 88.5t89.5 32.5q49 0 87 -32.5t38 -86.5zM866 1296q0 -53 -39 -85.5t-86 -32.5q-49 0 -88 31.5t-39 84.5q0 56 37.5 88.5t89.5 32.5q49 0 87 -32.5t38 -86.5z" />
    <glyph glyph-name="dotlessi" unicode="&#x131;" horiz-adv-x="534" 
d="M393 946v-895q0 -27 -12 -39t-39 -12h-143q-28 0 -41 12t-13 39v895q0 47 54 47h143q26 0 38.5 -10t12.5 -37z" />
    <glyph glyph-name="Lslash" unicode="&#x141;" horiz-adv-x="1024" 
d="M428 944l176 148q15 13 29 9.5t14 -22.5v-98q0 -31 -7 -46.5t-34 -39.5l-178 -150v-526h518q49 0 49 -47v-123q0 -49 -49 -49h-729q-29 0 -41 12t-12 45v465l-154 -127q-15 -13 -29 -9.5t-14 22.5v98q0 31 7 46.5t34 39.5l156 131v643q0 51 49 51h164q28 0 39.5 -12
t11.5 -41v-420z" />
    <glyph glyph-name="lslash" unicode="&#x142;" horiz-adv-x="669" 
d="M467 1427v-546l143 118q20 17 33.5 13t13.5 -25v-86q0 -31 -7.5 -48t-33.5 -38l-149 -125v-639q0 -51 -45 -51h-156q-47 0 -47 49v434l-143 -118q-20 -17 -33.5 -13t-13.5 25v86q0 31 7.5 48t33.5 38l149 125v712q0 26 8.5 39.5t32.5 16.5l166 22q41 4 41 -37z" />
    <glyph glyph-name="OE" unicode="&#x152;" horiz-adv-x="1984" 
d="M1896 166v-117q0 -49 -49 -49h-757q-32 0 -45 20.5t-13 63.5q-59 -47 -151.5 -78t-184.5 -31q-289 0 -446.5 196t-157.5 534q0 333 172 536t459 203q185 0 311 -98q0 36 10 53.5t35 17.5h772q21 0 33.5 -11t9.5 -32l-14 -127q-3 -26 -18 -34.5t-50 -8.5h-516v-370h473
q54 0 54 -46v-116q0 -49 -51 -49h-476v-410h549q51 0 51 -47zM1032 299v807q-52 56 -136 86.5t-161 30.5q-150 0 -243 -113q-117 -139 -117 -399q0 -250 89 -382t253 -132q83 0 169.5 28t145.5 74z" />
    <glyph glyph-name="oe" unicode="&#x153;" horiz-adv-x="1757" 
d="M1700 530v-30q0 -36 -14.5 -48t-53.5 -12h-598q12 -119 91 -192.5t200 -73.5q124 0 252 49q24 6 25 6q22 0 28 -24l29 -113q2 -6 2 -14q0 -22 -33 -37q-71 -32 -165 -49t-179 -17q-247 0 -373 168q-128 -168 -354 -168q-122 0 -216.5 39.5t-153 111t-88 166t-29.5 208.5
q0 149 57.5 265.5t172 185.5t269.5 69q234 0 351 -164q131 164 360 164q184 0 301 -123q119 -124 119 -367zM1038 602h418q0 96 -47.5 161.5t-142.5 65.5t-155 -65t-73 -162zM801 496q0 66 -11.5 122.5t-37.5 105t-73 76t-112 27.5q-66 0 -114 -27.5t-75 -75t-39.5 -103
t-12.5 -119.5q0 -67 11.5 -123t36.5 -105.5t72.5 -77.5t112.5 -28t113.5 27t75.5 74.5t40 104t13 122.5z" />
    <glyph glyph-name="Scaron" unicode="&#x160;" horiz-adv-x="1105" 
d="M1024 414q0 -83 -26 -154.5t-72.5 -123.5t-109 -88.5t-136.5 -54.5t-154 -18q-202 0 -391 66q-26 10 -33 26t2 39l43 134q13 45 68 26q167 -61 305 -61q43 0 84 10.5t75.5 31.5t55.5 57.5t21 82.5q0 65 -40 107.5t-110 76.5l-266 134q-113 56 -177.5 146t-64.5 206
q0 90 41.5 165t110 122.5t151.5 73.5t170 26q199 0 367 -72q30 -12 37.5 -26.5t-2.5 -40.5l-49 -125q-16 -45 -68 -23q-149 64 -270 64q-83 0 -145 -38.5t-62 -117.5q0 -96 145 -166l228 -111q131 -63 201.5 -152t70.5 -222zM586 1538h-33q-33 0 -59 23l-205 186
q-29 29 -4 53l34 37q16 16 30 16t42 -18l178 -117l179 117q28 18 41.5 18t29.5 -16l35 -37q24 -24 -4 -53l-205 -186q-26 -23 -59 -23z" />
    <glyph glyph-name="scaron" unicode="&#x161;" horiz-adv-x="841" 
d="M791 293q0 -103 -56.5 -177t-144 -107.5t-195.5 -33.5q-153 0 -315 72q-34 15 -23 47l37 113q11 35 49 20q148 -63 258 -63q69 0 110.5 29t41.5 79q0 41 -28.5 68t-94.5 53l-162 62q-94 35 -152.5 104t-58.5 168q0 96 56 164.5t138 98.5t177 30q159 0 297 -62
q19 -8 22.5 -19.5t-2.5 -29.5l-34 -110q-11 -34 -49 -19q-127 49 -222 49q-61 0 -95 -28t-34 -66q0 -35 22 -58t79 -46l184 -76q88 -37 141.5 -102.5t53.5 -159.5zM440 1128h-32q-34 0 -60 23l-205 186q-29 29 -4 54l35 36q16 16 30 16t42 -18l178 -116l178 116q28 18 42 18
t30 -16l35 -36q25 -25 -4 -54l-205 -186q-26 -23 -60 -23z" />
    <glyph glyph-name="Ydieresis" unicode="&#x178;" horiz-adv-x="1212" 
d="M627 799h4l291 575q12 25 27 34t44 9h150q54 0 28 -51l-421 -780v-539q0 -47 -48 -47h-172q-47 0 -47 51v524l-444 793q-11 17 -3 33t34 16h190q53 0 72 -39zM563 1706q0 -53 -39 -86t-86 -33q-49 0 -88 32t-39 85q0 56 37.5 88.5t89.5 32.5q49 0 87 -32.5t38 -86.5z
M938 1706q0 -53 -39 -86t-86 -33q-49 0 -88 32t-39 85q0 56 37.5 88.5t89.5 32.5q49 0 87 -32.5t38 -86.5z" />
    <glyph glyph-name="Zcaron" unicode="&#x17d;" horiz-adv-x="1198" 
d="M1139 166v-117q0 -49 -52 -49h-991q-39 0 -39 43v63q0 33 21 66l678 1030v2h-600q-28 0 -40 10.5t-12 36.5v125q0 41 41 41h916q49 0 49 -45v-49q0 -49 -25 -88l-673 -1020v-2h680q24 0 35.5 -10t11.5 -37zM631 1538h-33q-33 0 -59 23l-205 186q-28 29 -4 53l35 37
q16 16 29.5 16t41.5 -18l178 -117l179 117q28 18 41.5 18t29.5 -16l35 -37q25 -24 -4 -53l-205 -186q-26 -23 -59 -23z" />
    <glyph glyph-name="zcaron" unicode="&#x17e;" horiz-adv-x="880" 
d="M831 135v-96q0 -39 -38 -39h-695q-49 0 -49 49v51q0 38 21 70l442 651v2h-379q-29 0 -38 10.5t-9 43.5v73q0 43 39 43h647q47 0 47 -43v-57q0 -39 -20 -68l-451 -651v-4h443q40 0 40 -35zM477 1128h-33q-33 0 -59 23l-205 186q-29 29 -4 54l35 36q16 16 30 16t42 -18
l178 -116l178 116q28 18 42 18t30 -16l34 -36q25 -25 -4 -54l-204 -186q-26 -23 -60 -23z" />
    <glyph glyph-name="florin" unicode="&#x192;" horiz-adv-x="1148" 
d="M1167 1399q18 -9 22 -21t-3 -30l-37 -105q-7 -22 -19 -27t-34 3q-76 26 -133 26q-84 0 -125.5 -59.5t-63.5 -167.5l-47 -240h205q18 0 24.5 -5t6.5 -23l-2 -119q0 -14 -6 -20.5t-23 -6.5h-238l-108 -557q-40 -222 -147 -332t-296 -110q-125 0 -215 41q-18 8 -22 16t2 25
l43 120q8 23 18.5 29t32.5 -2q69 -27 133 -27q81 0 128 61.5t71 184.5l104 551h-166q-17 0 -24.5 6.5t-5.5 20.5l8 125q3 22 29 22h194l43 228q19 99 50.5 175.5t82.5 138.5t129 95t180 33q55 0 113 -14t96 -35z" />
    <glyph glyph-name="circumflex" unicode="&#x2c6;" horiz-adv-x="704" 
d="M336 1444h33q33 0 59 -23l205 -186q29 -29 4 -53l-35 -37q-16 -16 -30 -16t-42 18l-178 117l-178 -117q-28 -18 -42 -18t-30 16l-34 37q-24 24 4 53l204 186q26 23 60 23z" />
    <glyph glyph-name="caron" unicode="&#x2c7;" horiz-adv-x="704" 
d="M369 1128h-33q-34 0 -60 23l-204 186q-29 29 -4 54l34 36q16 16 30 16t42 -18l178 -116l178 116q28 18 42 18t30 -16l35 -36q25 -25 -4 -54l-205 -186q-26 -23 -59 -23z" />
    <glyph glyph-name="uni02C9" unicode="&#x2c9;" horiz-adv-x="704" 
d="M104 1366h494q24 0 32.5 -8t8.5 -31v-78q0 -23 -8.5 -31t-32.5 -8h-494q-24 0 -32.5 8t-8.5 31v78q0 23 8.5 31t32.5 8z" />
    <glyph glyph-name="breve" unicode="&#x2d8;" horiz-adv-x="704" 
d="M352 1151q-105 0 -182 57.5t-94 153.5q-4 26 5 37.5t34 11.5h63q29 0 38.5 -7t19.5 -30q32 -69 116 -69q85 0 117 69q10 23 19 30t38 7h64q25 0 34 -11.5t5 -37.5q-17 -96 -93 -153.5t-184 -57.5z" />
    <glyph glyph-name="dotaccent" unicode="&#x2d9;" horiz-adv-x="704" 
d="M483 1290q0 -55 -40 -90t-89 -35q-50 0 -91.5 34t-41.5 89q0 57 40 91t93 34q52 0 90.5 -33.5t38.5 -89.5z" />
    <glyph glyph-name="ring" unicode="&#x2da;" horiz-adv-x="704" 
d="M352 1225q24 0 39 15.5t15 39.5t-15 39.5t-39 15.5t-38.5 -15.5t-14.5 -39.5t14.5 -39.5t38.5 -15.5zM352 1116q-72 0 -120 47t-48 117t48 117t120 47t120 -47t48 -117t-48 -117t-120 -47z" />
    <glyph glyph-name="ogonek" unicode="&#x2db;" horiz-adv-x="704" 
d="M557 -309l16 -56q5 -9 1 -20.5t-25 -20.5q-73 -32 -170 -32q-103 0 -166 52t-63 138q0 90 67 161t180 116l90 -29q-86 -60 -125.5 -112.5t-39.5 -106.5q0 -41 26 -64.5t74 -23.5q38 0 100 16q17 4 23.5 0t11.5 -18z" />
    <glyph glyph-name="tilde" unicode="&#x2dc;" horiz-adv-x="704" 
d="M594 1366q23 14 35.5 12.5t21.5 -20.5l33 -66q10 -18 5.5 -32t-25.5 -27q-101 -68 -187 -68q-54 0 -134 36t-110 36q-52 0 -122 -43q-23 -14 -36 -12.5t-22 20.5l-33 66q-9 18 -4.5 32t25.5 27q101 68 186 68q54 0 134 -36t110 -36q53 0 123 43z" />
    <glyph glyph-name="hungarumlaut" unicode="&#x2dd;" horiz-adv-x="704" 
d="M289 1485l59 -68q16 -19 16.5 -30.5t-18.5 -26.5l-260 -205q-26 -21 -40.5 -21t-29.5 19l-28 35q-15 18 -14.5 28.5t18.5 30.5l223 228q24 24 40 26.5t34 -16.5zM657 1485l60 -68q16 -19 16.5 -30.5t-18.5 -26.5l-260 -205q-26 -21 -40.5 -21t-29.5 19l-29 35
q-15 18 -14.5 28.5t18.5 30.5l224 228q24 24 39.5 26.5t33.5 -16.5z" />
    <glyph glyph-name="uni0308" unicode="&#x308;" horiz-adv-x="704" 
d="M291 1296q0 -53 -39 -85.5t-86 -32.5q-49 0 -88 31.5t-39 84.5q0 56 37.5 88.5t89.5 32.5q49 0 87 -32.5t38 -86.5zM666 1296q0 -53 -39 -85.5t-86 -32.5q-49 0 -88 31.5t-39 84.5q0 56 37.5 88.5t89.5 32.5q49 0 87 -32.5t38 -86.5z" />
    <glyph glyph-name="uni037E" unicode="&#x37e;" horiz-adv-x="485" 
d="M403 881q0 -61 -45 -99.5t-100 -38.5q-57 0 -101 38t-44 100q0 64 43 101.5t102 37.5q58 0 101.5 -38t43.5 -101zM401 78q0 -108 -57 -205.5t-149 -161.5q-20 -14 -37 -14q-16 0 -31 18l-21 25q-16 22 7 45q84 84 84 147q0 29 -42 85.5t-42 95.5q0 59 41 98t100 39
q63 0 105 -53t42 -119z" />
    <glyph glyph-name="uni0394" unicode="&#x394;" horiz-adv-x="1247" 
d="M88 293l395 1077q17 47 60 47h168q47 0 61 -43l391 -1087q33 -97 33 -131v-99q0 -32 -14 -44.5t-43 -12.5h-1030q-30 0 -44 12.5t-14 44.5v103q0 34 37 133zM311 211h602l-288 922h-7z" />
    <glyph glyph-name="Omega" unicode="&#x3a9;" horiz-adv-x="1499" 
d="M332 190v5q-96 59 -149.5 199t-53.5 325q0 338 165 531.5t460 193.5q200 0 341.5 -90.5t211 -249t69.5 -369.5q0 -188 -59 -331t-158 -209v-5h197q51 0 51 -43v-98q0 -49 -51 -49h-465q-51 0 -51 49v78q0 50 55 78q201 104 201 500q0 141 -23 242t-68 162t-107.5 89.5
t-145.5 28.5q-346 0 -346 -516q0 -389 204 -504q56 -32 56 -80v-78q0 -49 -52 -49h-471q-51 0 -51 49v98q0 43 51 43h189z" />
    <glyph glyph-name="uni03BC" unicode="&#x3bc;" horiz-adv-x="1204" 
d="M766 942q0 27 12 39t39 12h144q28 0 40.5 -12t12.5 -39v-649q0 -98 47 -98q21 0 49 12q17 8 32 4t19 -21l31 -88q14 -36 -16 -57q-35 -28 -95 -44.5t-114 -16.5q-59 0 -106 25t-66 67q-112 -101 -258 -101q-100 0 -160 48v-330q0 -27 -12 -39t-39 -12h-144
q-28 0 -40.5 12t-12.5 39v1249q0 27 12 39t39 12h144q28 0 40.5 -12t12.5 -39v-569q0 -92 33 -142.5t120 -50.5q60 0 124 25.5t112 66.5v670z" />
    <glyph glyph-name="pi" unicode="&#x3c0;" horiz-adv-x="1388" 
d="M244 51v756h-140q-45 0 -45 39v108q0 39 43 39h1108q43 0 43 -39v-108q0 -39 -45 -39h-174v-430q0 -40 1 -64.5t6 -49.5t13.5 -38t24 -21.5t37.5 -8.5q49 0 88 20q17 10 35.5 6.5t26.5 -22.5l41 -93q16 -36 -15 -57q-91 -61 -229 -61q-71 0 -121.5 17.5t-80.5 46.5
t-47 77.5t-22.5 99t-5.5 121.5v457h-294v-756q0 -51 -52 -51h-143q-28 0 -40.5 12t-12.5 39z" />
    <glyph glyph-name="uni060C" unicode="&#x60c;" horiz-adv-x="690" 
d="M461 616l26 -30q19 -24 -6 -49q-61 -61 -92 -119t-31 -99q0 -31 24 -64t47.5 -68t23.5 -70q0 -61 -44.5 -102.5t-105.5 -41.5q-77 0 -122.5 56t-45.5 149q0 106 71.5 228t188.5 212q41 30 66 -2z" />
    <glyph glyph-name="uni0615" unicode="&#x615;" 
d="M-55 1571v-215q79 59 147 59q160 0 160 -174q0 -97 -43 -133.5t-158 -36.5h-276q-23 0 -23 25v67q0 25 23 25h39v366q0 25 24 31l72 14q35 8 35 -28zM-55 1188h127q31 0 44 11.5t13 45.5q0 60 -63 60q-62 0 -121 -62v-55z" />
    <glyph glyph-name="uni061B" unicode="&#x61b;" horiz-adv-x="690" 
d="M461 1174l26 -31q19 -24 -6 -49q-61 -61 -92 -118.5t-31 -98.5q0 -25 15 -51.5t32.5 -46.5t32.5 -48.5t15 -56.5q0 -61 -44.5 -102.5t-105.5 -41.5q-77 0 -122.5 56t-45.5 149q0 106 71.5 228.5t188.5 212.5q41 30 66 -2zM440 115q0 -64 -44.5 -103t-102.5 -39t-103 39
t-45 103t45 102.5t103 38.5t102.5 -38.5t44.5 -102.5z" />
    <glyph glyph-name="uni061F" unicode="&#x61f;" horiz-adv-x="1062" 
d="M135 1001q0 157 112.5 252t272.5 95q172 0 332 -86q18 -9 18 -29q0 -7 -4 -19l-37 -100q-10 -30 -43 -14q-108 59 -217 59q-90 0 -147 -46t-57 -124q0 -86 94 -180l149 -150q58 -58 83.5 -116.5t25.5 -143.5q0 -41 -11 -55t-32 -14h-129q-31 0 -31 30q0 69 -21.5 112.5
t-74.5 96.5l-154 158q-129 132 -129 274zM741 102q0 -59 -41.5 -94t-97.5 -35t-97.5 35t-41.5 94t41.5 94t97.5 35t97.5 -35t41.5 -94z" />
    <glyph glyph-name="uni0621" unicode="&#x621;" horiz-adv-x="1036" 
d="M608 485q-65 0 -98 -33t-33 -87q0 -85 62 -156h350q43 0 43 -49v-113q0 -24 -10 -35.5t-35 -11.5h-742q-23 0 -32 11.5t-9 35.5v113q0 49 41 49h168q-65 91 -65 197q0 130 92 209t225 79q143 0 246 -69q32 -19 18 -58l-43 -100q-7 -20 -17.5 -23.5t-29.5 5.5
q-71 36 -131 36z" />
    <glyph glyph-name="uni0622" unicode="&#x622;" horiz-adv-x="495" 
d="M309 0h-123q-28 0 -40.5 12t-12.5 39v1342q0 25 9 35.5t30 13.5l147 20q21 3 32 -8t11 -35v-1368q0 -27 -12.5 -39t-40.5 -12zM119 1855q57 0 131 -38q4 -2 17 -7.5t18.5 -8t17 -7t19 -7t17.5 -5t19.5 -3.5t18.5 -1q46 0 84 49q18 22 31 2l40 -49q14 -18 0 -37
q-37 -56 -72.5 -81.5t-82.5 -25.5q-58 0 -131 39q-84 41 -129 41q-46 0 -84 -49q-18 -22 -31 -2l-41 47q-15 19 0 39q64 104 158 104z" />
    <glyph glyph-name="uni0623" unicode="&#x623;" horiz-adv-x="495" 
d="M309 0h-123q-28 0 -40.5 12t-12.5 39v1342q0 25 9 35.5t30 13.5l147 20q21 3 32 -8t11 -35v-1368q0 -27 -12.5 -39t-40.5 -12zM49 1763h60q-37 53 -37 119q0 85 59.5 137t147.5 52q85 0 159 -48q29 -21 15 -43l-21 -51q-7 -15 -13 -18.5t-22 4.5q-60 29 -104 29
q-39 0 -63.5 -25t-24.5 -66q0 -46 33 -90h208q17 0 23 -6.5t6 -21.5v-70q0 -29 -29 -29h-397q-29 0 -29 31v68q0 15 6 21.5t23 6.5z" />
    <glyph glyph-name="uni0624" unicode="&#x624;" horiz-adv-x="1040" 
d="M680 266v183q0 176 -162 176q-88 0 -134 -52.5t-46 -142.5q0 -106 44.5 -157.5t139.5 -51.5q87 0 158 45zM649 37q-78 -37 -170 -37q-167 0 -271 114.5t-104 313.5q0 189 109.5 302.5t298.5 113.5q184 0 290.5 -100t106.5 -298v-198q0 -111 -11 -188.5t-40.5 -150
t-85 -130.5t-138.5 -115t-208 -119q-45 -22 -68 23l-57 104q-11 24 -3 39.5t38 30.5q143 76 214 141t99 154zM309 1198h60q-37 53 -37 119q0 84 59.5 136t147.5 52q86 0 159 -47q29 -21 15 -43l-21 -51q-7 -15 -13 -18.5t-22 4.5q-58 28 -104 28q-39 0 -63.5 -24.5
t-24.5 -65.5q0 -46 33 -90h209q17 0 22.5 -6.5t5.5 -22.5v-69q0 -29 -28 -29h-398q-16 0 -22 7.5t-6 23.5v67q0 16 5.5 22.5t22.5 6.5z" />
    <glyph glyph-name="uni0625" unicode="&#x625;" horiz-adv-x="495" 
d="M309 0h-123q-28 0 -40.5 12t-12.5 39v1342q0 25 9 35.5t30 13.5l147 20q21 3 32 -8t11 -35v-1368q0 -27 -12.5 -39t-40.5 -12zM49 -532h60q-37 60 -37 120q0 83 59.5 135t147.5 52q86 0 159 -47q28 -20 15 -43l-21 -52q-6 -14 -13 -17.5t-22 3.5q-60 29 -104 29
q-39 0 -63.5 -24.5t-24.5 -65.5q0 -43 33 -90h208q17 0 23 -6.5t6 -22.5v-70q0 -28 -29 -28h-397q-17 0 -23 7t-6 23v68q0 17 6 23t23 6z" />
    <glyph glyph-name="uni0626" unicode="&#x626;" horiz-adv-x="1748" 
d="M1522 606q-149 76 -281 76q-104 0 -162.5 -47t-58.5 -117q0 -59 49 -108t186 -123q53 -29 89.5 -51t79.5 -55t69 -63.5t43.5 -71t17.5 -83.5q0 -182 -203 -298t-530 -116q-352 0 -542.5 132.5t-190.5 388.5q0 176 98 370q13 24 22 34t25 13.5t37 -8.5l99 -45
q28 -12 33.5 -28t-9.5 -48q-71 -145 -71 -272q0 -315 501 -315q217 0 357.5 54t140.5 126q0 21 -14.5 41.5t-46.5 44t-61 41t-79 45.5q-58 33 -96.5 57.5t-88 63.5t-78.5 76t-50 87.5t-21 104.5q0 123 63 213t163.5 133t224.5 43q191 0 360 -102q31 -19 38 -33t-3 -39
l-47 -106q-16 -38 -63 -15zM80 852h59q-37 53 -37 119q0 84 59.5 136t147.5 52q87 0 160 -47q28 -20 14 -43l-20 -51q-7 -15 -13 -18.5t-22 4.5q-58 28 -104 28q-39 0 -63.5 -24.5t-24.5 -65.5q0 -47 32 -90h209q17 0 23 -6.5t6 -22.5v-69q0 -29 -29 -29h-397q-29 0 -29 31
v67q0 16 6 22.5t23 6.5z" />
    <glyph glyph-name="uni0627" unicode="&#x627;" horiz-adv-x="495" 
d="M309 0h-123q-28 0 -40.5 12t-12.5 39v1342q0 25 9 35.5t30 13.5l147 20q21 3 32 -8t11 -35v-1368q0 -27 -12.5 -39t-40.5 -12z" />
    <glyph glyph-name="uni0628" unicode="&#x628;" horiz-adv-x="1863" 
d="M1425 0h-821q-245 0 -374.5 114t-129.5 318v236q0 27 13 39t41 12h122q28 0 41 -12t13 -39v-136q0 -171 69.5 -239t251.5 -68h752q60 0 79 21t19 84v463q0 27 12.5 39t40.5 12h123q28 0 41 -12t13 -39v-537q0 -128 -74.5 -192t-231.5 -64zM928 -469q-51 0 -84 31t-33 82
q0 50 33 80t84 30q52 0 85.5 -30t33.5 -80q0 -52 -33.5 -82.5t-85.5 -30.5z" />
    </font>
</defs>
</svg>
